G75*
%MOIN*%
%OFA0B0*%
%FSLAX25Y25*%
%IPPOS*%
%LPD*%
%AMOC8*
5,1,8,0,0,1.08239X$1,22.5*
%
%ADD10R,0.02769X0.02769*%
%ADD11C,0.10800*%
%ADD12C,0.16550*%
%ADD13C,0.07400*%
%ADD14R,0.05800X0.05300*%
%ADD15R,0.05300X0.05800*%
%ADD16R,0.01587X0.04737*%
%ADD17R,0.04737X0.01587*%
%ADD18R,0.03556X0.06312*%
%ADD19R,0.05524X0.18123*%
%ADD20R,0.06312X0.18123*%
%ADD21R,0.02375X0.06706*%
%ADD22C,0.05950*%
%ADD23R,0.09600X0.05600*%
%ADD24R,0.09461X0.14973*%
%ADD25R,0.05950X0.05950*%
%ADD26R,0.12611X0.04737*%
%ADD27C,0.06706*%
%ADD28R,0.07493X0.07493*%
%ADD29C,0.07400*%
%ADD30R,0.08674X0.05524*%
%ADD31R,0.04245X0.01784*%
%ADD32R,0.01784X0.04245*%
%ADD33R,0.06902X0.04737*%
%ADD34C,0.03950*%
%ADD35C,0.04737*%
%ADD36R,0.05524X0.10446*%
%ADD37C,0.04769*%
%ADD38C,0.09068*%
%ADD39C,0.04000*%
%ADD40C,0.07874*%
%ADD41R,0.02375X0.06312*%
%ADD42R,0.02769X0.03950*%
D10*
X0047008Y0066842D03*
X0055669Y0066842D03*
X0140069Y0068092D03*
X0148730Y0068092D03*
X0235413Y0067748D03*
X0244075Y0067748D03*
X0274789Y0094141D03*
X0274789Y0102803D03*
X0212175Y0111006D03*
X0203514Y0111006D03*
X0073999Y0145950D03*
X0065337Y0145950D03*
X0081470Y0208260D03*
X0090131Y0208260D03*
X0130020Y0216960D03*
X0138681Y0216960D03*
X0207520Y0216960D03*
X0216181Y0216960D03*
X0257569Y0207423D03*
X0266230Y0207423D03*
X0330856Y0207718D03*
X0339518Y0207718D03*
X0399964Y0208211D03*
X0408626Y0208211D03*
X0480364Y0207561D03*
X0489026Y0207561D03*
X0554114Y0207561D03*
X0562776Y0207561D03*
X0629311Y0207384D03*
X0637972Y0207384D03*
X0705561Y0206134D03*
X0714222Y0206134D03*
X0781181Y0206567D03*
X0789843Y0206567D03*
X0883396Y0207462D03*
X0892057Y0207462D03*
X0881486Y0249264D03*
X0872825Y0249264D03*
X0903600Y0264636D03*
X0920998Y0256798D03*
X0920998Y0248136D03*
X0903600Y0273297D03*
X0830925Y0260120D03*
X0822264Y0260120D03*
X0755925Y0260120D03*
X0747264Y0260120D03*
X0680925Y0260120D03*
X0672264Y0260120D03*
X0605157Y0257974D03*
X0596496Y0257974D03*
X0531407Y0259224D03*
X0522746Y0259224D03*
X0474131Y0288167D03*
X0465469Y0288167D03*
X0521219Y0290267D03*
X0529881Y0290267D03*
X0399354Y0259159D03*
X0390693Y0259159D03*
X0358504Y0248909D03*
X0349843Y0248909D03*
X0282254Y0248909D03*
X0273593Y0248909D03*
X0211004Y0250159D03*
X0202343Y0250159D03*
X0134754Y0247659D03*
X0126093Y0247659D03*
X0089600Y0264836D03*
X0089600Y0273497D03*
X0043444Y0295751D03*
X0034782Y0295751D03*
X0376269Y0129967D03*
X0384931Y0129967D03*
X0384486Y0110678D03*
X0375825Y0110678D03*
X0365925Y0111006D03*
X0357264Y0111006D03*
X0341449Y0078331D03*
X0341449Y0069670D03*
X0503514Y0111006D03*
X0512175Y0111006D03*
X0579764Y0111006D03*
X0588425Y0111006D03*
X0656014Y0111006D03*
X0664675Y0111006D03*
X0731102Y0110454D03*
X0739764Y0110454D03*
X0803602Y0109204D03*
X0812264Y0109204D03*
X0915336Y0144479D03*
X0923998Y0144479D03*
X0854664Y0147004D03*
X0846002Y0147004D03*
X0857372Y0070514D03*
X0857372Y0061852D03*
X0936742Y0066488D03*
X0945404Y0066488D03*
X0767116Y0066517D03*
X0758455Y0066517D03*
X0673465Y0066517D03*
X0664803Y0066517D03*
X0521075Y0070698D03*
X0512413Y0070698D03*
D11*
X0535177Y0066842D03*
X0510177Y0056842D03*
X0543228Y0101645D03*
X0568228Y0111645D03*
X0618031Y0101645D03*
X0643031Y0111645D03*
X0692835Y0101645D03*
X0717835Y0111645D03*
X0767638Y0101645D03*
X0792638Y0111645D03*
X0846791Y0131645D03*
X0871791Y0141645D03*
X0930945Y0131645D03*
X0955945Y0141645D03*
X0902894Y0206449D03*
X0927894Y0216449D03*
X0861142Y0251252D03*
X0886142Y0261252D03*
X0930945Y0281252D03*
X0955945Y0291252D03*
X0811339Y0261252D03*
X0786339Y0251252D03*
X0736535Y0261252D03*
X0711535Y0251252D03*
X0661732Y0261252D03*
X0636732Y0251252D03*
X0586929Y0261252D03*
X0561929Y0251252D03*
X0512126Y0260267D03*
X0487126Y0250267D03*
X0437323Y0261252D03*
X0412323Y0251252D03*
X0362520Y0261252D03*
X0337520Y0251252D03*
X0287717Y0261252D03*
X0262717Y0251252D03*
X0212913Y0261252D03*
X0187913Y0251252D03*
X0138110Y0261252D03*
X0113110Y0251252D03*
X0033307Y0281252D03*
X0058307Y0291252D03*
X0067657Y0216449D03*
X0042657Y0206449D03*
X0126811Y0206449D03*
X0151811Y0216449D03*
X0201614Y0206449D03*
X0226614Y0216449D03*
X0276417Y0206449D03*
X0301417Y0216449D03*
X0351220Y0206449D03*
X0376220Y0216449D03*
X0426024Y0206449D03*
X0451024Y0216449D03*
X0500827Y0206449D03*
X0525827Y0216449D03*
X0575630Y0206449D03*
X0600630Y0216449D03*
X0650433Y0206449D03*
X0675433Y0216449D03*
X0725236Y0206449D03*
X0750236Y0216449D03*
X0800039Y0206449D03*
X0825039Y0216449D03*
X0493425Y0111645D03*
X0468425Y0101645D03*
X0418622Y0111645D03*
X0393622Y0101645D03*
X0343819Y0111645D03*
X0318819Y0101645D03*
X0269016Y0111645D03*
X0244016Y0101645D03*
X0194213Y0111645D03*
X0169213Y0101645D03*
X0161161Y0066842D03*
X0136161Y0056842D03*
X0067657Y0066842D03*
X0042657Y0056842D03*
X0229665Y0056842D03*
X0254665Y0066842D03*
X0341870Y0056842D03*
X0366870Y0066842D03*
X0086358Y0141645D03*
X0061358Y0131645D03*
X0659783Y0056842D03*
X0684783Y0066842D03*
X0753287Y0056842D03*
X0778287Y0066842D03*
X0846791Y0056842D03*
X0871791Y0066842D03*
X0930945Y0056842D03*
X0955945Y0066842D03*
D12*
X0945945Y0046842D03*
X0861791Y0046842D03*
X0768287Y0046842D03*
X0674783Y0046842D03*
X0525177Y0046842D03*
X0356870Y0046842D03*
X0244665Y0046842D03*
X0151161Y0046842D03*
X0057657Y0046842D03*
X0076358Y0121645D03*
X0179213Y0121645D03*
X0254016Y0121645D03*
X0328819Y0121645D03*
X0403622Y0121645D03*
X0478425Y0121645D03*
X0553228Y0121645D03*
X0628031Y0121645D03*
X0702835Y0121645D03*
X0777638Y0121645D03*
X0861791Y0121645D03*
X0945945Y0121645D03*
X0917894Y0196449D03*
X0815039Y0196449D03*
X0740236Y0196449D03*
X0665433Y0196449D03*
X0590630Y0196449D03*
X0515827Y0196449D03*
X0441024Y0196449D03*
X0366220Y0196449D03*
X0291417Y0196449D03*
X0216614Y0196449D03*
X0141811Y0196449D03*
X0057657Y0196449D03*
X0048307Y0271252D03*
X0123110Y0271252D03*
X0197913Y0271252D03*
X0272717Y0271252D03*
X0347520Y0271252D03*
X0422323Y0271252D03*
X0497126Y0270267D03*
X0571929Y0271252D03*
X0646732Y0271252D03*
X0721535Y0271252D03*
X0796339Y0271252D03*
X0871142Y0271252D03*
X0945945Y0271252D03*
D13*
X0052657Y0026842D03*
X0062657Y0026842D03*
X0146161Y0026842D03*
X0156161Y0026842D03*
X0239665Y0026842D03*
X0249665Y0026842D03*
X0351870Y0026842D03*
X0361870Y0026842D03*
X0520177Y0026842D03*
X0530177Y0026842D03*
X0669783Y0026842D03*
X0679783Y0026842D03*
X0763287Y0026842D03*
X0773287Y0026842D03*
X0856791Y0026842D03*
X0866791Y0026842D03*
X0940945Y0026842D03*
X0950945Y0026842D03*
X0950945Y0101645D03*
X0940945Y0101645D03*
X0866791Y0101645D03*
X0856791Y0101645D03*
X0912894Y0176449D03*
X0922894Y0176449D03*
X0940945Y0251252D03*
X0950945Y0251252D03*
X0081358Y0101645D03*
X0071358Y0101645D03*
X0062657Y0176449D03*
X0052657Y0176449D03*
X0053307Y0251252D03*
X0043307Y0251252D03*
D14*
X0196850Y0194567D03*
X0196850Y0187067D03*
X0165050Y0175267D03*
X0156650Y0175267D03*
X0156650Y0167767D03*
X0165050Y0167767D03*
X0165050Y0160717D03*
X0156650Y0160717D03*
X0156650Y0153217D03*
X0165050Y0153217D03*
X0166200Y0141417D03*
X0157100Y0141417D03*
X0157100Y0133917D03*
X0166200Y0133917D03*
X0189800Y0133917D03*
X0197300Y0133917D03*
X0204800Y0132317D03*
X0212850Y0132317D03*
X0212850Y0139817D03*
X0204800Y0139817D03*
X0197300Y0141417D03*
X0189800Y0141417D03*
X0224600Y0158617D03*
X0224600Y0166117D03*
X0318600Y0164217D03*
X0318600Y0171717D03*
X0318600Y0154117D03*
X0318600Y0146617D03*
X0482100Y0155317D03*
X0482100Y0162817D03*
X0515950Y0160517D03*
X0527350Y0160517D03*
X0535950Y0160167D03*
X0527350Y0153017D03*
X0535950Y0152667D03*
X0515950Y0153017D03*
X0606450Y0161567D03*
X0606450Y0169067D03*
X0620200Y0169067D03*
X0636450Y0169067D03*
X0636450Y0161567D03*
X0620200Y0161567D03*
X0647700Y0161567D03*
X0658950Y0161567D03*
X0670200Y0161567D03*
X0682700Y0161567D03*
X0696450Y0161567D03*
X0696450Y0169067D03*
X0682700Y0169067D03*
X0670200Y0169067D03*
X0658950Y0169067D03*
X0647700Y0169067D03*
X0479850Y0095367D03*
X0479850Y0087867D03*
X0423750Y0085067D03*
X0415000Y0085067D03*
X0415000Y0077567D03*
X0423750Y0077567D03*
X0482500Y0056317D03*
X0492300Y0056267D03*
X0492300Y0048767D03*
X0482500Y0048817D03*
X0482500Y0037567D03*
X0473750Y0037567D03*
X0466250Y0037567D03*
X0466250Y0030067D03*
X0473750Y0030067D03*
X0482500Y0030067D03*
X0591200Y0023717D03*
X0600800Y0023517D03*
X0609600Y0023517D03*
X0618800Y0023717D03*
X0628200Y0023517D03*
X0628200Y0016017D03*
X0618800Y0016217D03*
X0609600Y0016017D03*
X0600800Y0016017D03*
X0591200Y0016217D03*
X0387300Y0280417D03*
X0387300Y0287917D03*
D15*
X0387950Y0200167D03*
X0395450Y0200167D03*
X0267950Y0150567D03*
X0260450Y0150567D03*
X0225550Y0146967D03*
X0218050Y0146967D03*
X0183250Y0136067D03*
X0175750Y0136067D03*
X0218200Y0179017D03*
X0225700Y0179017D03*
X0156500Y0183067D03*
X0149000Y0183067D03*
X0376850Y0140767D03*
X0384350Y0140767D03*
X0384350Y0120367D03*
X0376850Y0120367D03*
X0317350Y0066767D03*
X0309850Y0066767D03*
X0309850Y0059567D03*
X0317350Y0059567D03*
X0317350Y0052367D03*
X0309850Y0052367D03*
X0309850Y0043567D03*
X0317350Y0043567D03*
X0317350Y0034767D03*
X0309850Y0034767D03*
X0309850Y0025967D03*
X0317350Y0025967D03*
X0398750Y0037567D03*
X0406250Y0037567D03*
X0406250Y0045067D03*
X0398750Y0045067D03*
X0418750Y0045067D03*
X0426250Y0045067D03*
X0426250Y0037567D03*
X0418750Y0037567D03*
X0418750Y0053817D03*
X0426250Y0053817D03*
X0423450Y0021967D03*
X0430950Y0021967D03*
X0441050Y0021167D03*
X0448550Y0021167D03*
X0553250Y0033967D03*
X0560750Y0033967D03*
X0625250Y0037567D03*
X0632750Y0037567D03*
X0632750Y0044767D03*
X0625250Y0044767D03*
X0625250Y0053567D03*
X0632750Y0053567D03*
X0632750Y0062367D03*
X0625250Y0062367D03*
X0625250Y0071167D03*
X0632750Y0071167D03*
X0632750Y0079967D03*
X0625250Y0079967D03*
X0607150Y0093767D03*
X0599650Y0093767D03*
X0589150Y0094167D03*
X0581650Y0094167D03*
X0571550Y0093567D03*
X0564050Y0093567D03*
X0560150Y0082517D03*
X0552650Y0082517D03*
X0552300Y0074917D03*
X0559800Y0074917D03*
X0560150Y0066967D03*
X0552650Y0066967D03*
X0552650Y0058567D03*
X0560150Y0058567D03*
X0657200Y0122967D03*
X0664700Y0122967D03*
D16*
X0464577Y0090283D03*
X0462608Y0090283D03*
X0460640Y0090283D03*
X0458671Y0090283D03*
X0456703Y0090283D03*
X0454734Y0090283D03*
X0452766Y0090283D03*
X0450797Y0090283D03*
X0448829Y0090283D03*
X0446860Y0090283D03*
X0444892Y0090283D03*
X0442923Y0090283D03*
X0442923Y0054850D03*
X0444892Y0054850D03*
X0446860Y0054850D03*
X0448829Y0054850D03*
X0450797Y0054850D03*
X0452766Y0054850D03*
X0454734Y0054850D03*
X0456703Y0054850D03*
X0458671Y0054850D03*
X0460640Y0054850D03*
X0462608Y0054850D03*
X0464577Y0054850D03*
D17*
X0471467Y0061740D03*
X0471467Y0063708D03*
X0471467Y0065677D03*
X0471467Y0067645D03*
X0471467Y0069614D03*
X0471467Y0071582D03*
X0471467Y0073551D03*
X0471467Y0075519D03*
X0471467Y0077488D03*
X0471467Y0079456D03*
X0471467Y0081425D03*
X0471467Y0083393D03*
X0436033Y0083393D03*
X0436033Y0081425D03*
X0436033Y0079456D03*
X0436033Y0077488D03*
X0436033Y0075519D03*
X0436033Y0073551D03*
X0436033Y0071582D03*
X0436033Y0069614D03*
X0436033Y0067645D03*
X0436033Y0065677D03*
X0436033Y0063708D03*
X0436033Y0061740D03*
D18*
X0467047Y0043817D03*
X0472953Y0043817D03*
D19*
X0456093Y0038817D03*
X0436407Y0038817D03*
D20*
X0446250Y0038817D03*
D21*
X0579766Y0038095D03*
X0582325Y0038095D03*
X0584884Y0038095D03*
X0587443Y0038095D03*
X0590002Y0038095D03*
X0592561Y0038095D03*
X0595120Y0038095D03*
X0597680Y0038095D03*
X0600239Y0038095D03*
X0602798Y0038095D03*
X0605357Y0038095D03*
X0607916Y0038095D03*
X0610475Y0038095D03*
X0613034Y0038095D03*
X0613034Y0066638D03*
X0610475Y0066638D03*
X0607916Y0066638D03*
X0605357Y0066638D03*
X0602798Y0066638D03*
X0600239Y0066638D03*
X0597680Y0066638D03*
X0595120Y0066638D03*
X0592561Y0066638D03*
X0590002Y0066638D03*
X0587443Y0066638D03*
X0584884Y0066638D03*
X0582325Y0066638D03*
X0579766Y0066638D03*
X0208034Y0149695D03*
X0205475Y0149695D03*
X0202916Y0149695D03*
X0200357Y0149695D03*
X0197798Y0149695D03*
X0195239Y0149695D03*
X0192680Y0149695D03*
X0190120Y0149695D03*
X0187561Y0149695D03*
X0185002Y0149695D03*
X0182443Y0149695D03*
X0179884Y0149695D03*
X0177325Y0149695D03*
X0174766Y0149695D03*
X0174766Y0178238D03*
X0177325Y0178238D03*
X0179884Y0178238D03*
X0182443Y0178238D03*
X0185002Y0178238D03*
X0187561Y0178238D03*
X0190120Y0178238D03*
X0192680Y0178238D03*
X0195239Y0178238D03*
X0197798Y0178238D03*
X0200357Y0178238D03*
X0202916Y0178238D03*
X0205475Y0178238D03*
X0208034Y0178238D03*
D22*
X0237850Y0170373D03*
X0237850Y0151160D03*
X0144948Y0082767D03*
X0137074Y0082767D03*
X0129200Y0082767D03*
X0121326Y0082767D03*
X0583394Y0080767D03*
X0602606Y0080767D03*
D23*
X0303600Y0152067D03*
X0303600Y0161167D03*
X0303600Y0170267D03*
D24*
X0279199Y0161167D03*
D25*
X0113452Y0082767D03*
D26*
X0113900Y0146617D03*
X0133900Y0146617D03*
X0134800Y0174817D03*
X0114800Y0174817D03*
X0162950Y0198767D03*
X0182950Y0198767D03*
X0183000Y0227767D03*
X0163000Y0227767D03*
D27*
X0048172Y0228717D03*
X0024550Y0228717D03*
D28*
X0021400Y0241315D03*
X0033999Y0241315D03*
X0047778Y0241315D03*
X0047778Y0216118D03*
X0033999Y0216118D03*
X0021400Y0216118D03*
D29*
X0018930Y0158879D02*
X0012330Y0158879D01*
X0039456Y0158879D02*
X0046056Y0158879D01*
X0046056Y0097068D02*
X0039456Y0097068D01*
X0018930Y0097068D02*
X0012330Y0097068D01*
D30*
X0049764Y0114194D03*
X0049764Y0124037D03*
X0049764Y0131911D03*
X0049764Y0141753D03*
D31*
X0491762Y0153141D03*
X0491762Y0155110D03*
X0491762Y0157078D03*
X0491762Y0159047D03*
X0491762Y0161015D03*
X0491762Y0162984D03*
X0491762Y0164952D03*
X0502490Y0164952D03*
X0502490Y0162984D03*
X0502490Y0161015D03*
X0502490Y0159047D03*
X0502490Y0157078D03*
X0502490Y0155110D03*
X0502490Y0153141D03*
D32*
X0499094Y0150730D03*
X0497126Y0150730D03*
X0495157Y0150730D03*
X0495157Y0167364D03*
X0497126Y0167364D03*
X0499094Y0167364D03*
D33*
X0885315Y0282669D03*
X0885315Y0289362D03*
X0912087Y0289362D03*
X0912087Y0282669D03*
X0108937Y0282669D03*
X0108937Y0289362D03*
X0082165Y0289362D03*
X0082165Y0282669D03*
D34*
X0095551Y0280602D03*
X0095551Y0291429D03*
X0898701Y0291429D03*
X0898701Y0280602D03*
D35*
X0510512Y0301017D03*
X0483740Y0301017D03*
D36*
X0487283Y0288910D03*
X0497126Y0288910D03*
X0506969Y0288910D03*
D37*
X0973300Y0208167D03*
X0978300Y0208167D03*
X0978300Y0203167D03*
X0973300Y0203167D03*
X0973300Y0198167D03*
X0978300Y0198167D03*
X0978300Y0193167D03*
X0973300Y0193167D03*
D38*
X0758937Y0285031D03*
X0313455Y0265346D03*
X0162480Y0277157D03*
X0721535Y0080307D03*
X0902638Y0056685D03*
X0197913Y0060622D03*
D39*
X0204813Y0060522D03*
X0202913Y0055622D03*
X0197713Y0053622D03*
X0192913Y0055722D03*
X0190913Y0060622D03*
X0193013Y0065422D03*
X0198113Y0067522D03*
X0202913Y0065622D03*
X0714535Y0080307D03*
X0716535Y0075407D03*
X0721335Y0073307D03*
X0726535Y0075307D03*
X0728435Y0080207D03*
X0726535Y0085307D03*
X0721735Y0087207D03*
X0716635Y0085107D03*
X0895638Y0056685D03*
X0897638Y0051785D03*
X0902438Y0049685D03*
X0907638Y0051685D03*
X0909538Y0056585D03*
X0907638Y0061685D03*
X0902838Y0063585D03*
X0897738Y0061485D03*
X0318455Y0260346D03*
X0313255Y0258346D03*
X0308455Y0260446D03*
X0306455Y0265346D03*
X0308555Y0270146D03*
X0313655Y0272246D03*
X0318455Y0270346D03*
X0320355Y0265246D03*
X0169380Y0277057D03*
X0167480Y0272157D03*
X0162280Y0270157D03*
X0157480Y0272257D03*
X0155480Y0277157D03*
X0157580Y0281957D03*
X0162680Y0284057D03*
X0167480Y0282157D03*
X0751937Y0285031D03*
X0753937Y0280131D03*
X0758737Y0278031D03*
X0763937Y0280031D03*
X0765837Y0284931D03*
X0763937Y0290031D03*
X0759137Y0291931D03*
X0754037Y0289831D03*
D40*
X0753031Y0285031D02*
X0753033Y0285184D01*
X0753039Y0285338D01*
X0753049Y0285491D01*
X0753063Y0285643D01*
X0753081Y0285796D01*
X0753103Y0285947D01*
X0753128Y0286098D01*
X0753158Y0286249D01*
X0753192Y0286399D01*
X0753229Y0286547D01*
X0753270Y0286695D01*
X0753315Y0286841D01*
X0753364Y0286987D01*
X0753417Y0287131D01*
X0753473Y0287273D01*
X0753533Y0287414D01*
X0753597Y0287554D01*
X0753664Y0287692D01*
X0753735Y0287828D01*
X0753810Y0287962D01*
X0753887Y0288094D01*
X0753969Y0288224D01*
X0754053Y0288352D01*
X0754141Y0288478D01*
X0754232Y0288601D01*
X0754326Y0288722D01*
X0754424Y0288840D01*
X0754524Y0288956D01*
X0754628Y0289069D01*
X0754734Y0289180D01*
X0754843Y0289288D01*
X0754955Y0289393D01*
X0755069Y0289494D01*
X0755187Y0289593D01*
X0755306Y0289689D01*
X0755428Y0289782D01*
X0755553Y0289871D01*
X0755680Y0289958D01*
X0755809Y0290040D01*
X0755940Y0290120D01*
X0756073Y0290196D01*
X0756208Y0290269D01*
X0756345Y0290338D01*
X0756484Y0290403D01*
X0756624Y0290465D01*
X0756766Y0290523D01*
X0756909Y0290578D01*
X0757054Y0290629D01*
X0757200Y0290676D01*
X0757347Y0290719D01*
X0757495Y0290758D01*
X0757644Y0290794D01*
X0757794Y0290825D01*
X0757945Y0290853D01*
X0758096Y0290877D01*
X0758249Y0290897D01*
X0758401Y0290913D01*
X0758554Y0290925D01*
X0758707Y0290933D01*
X0758860Y0290937D01*
X0759014Y0290937D01*
X0759167Y0290933D01*
X0759320Y0290925D01*
X0759473Y0290913D01*
X0759625Y0290897D01*
X0759778Y0290877D01*
X0759929Y0290853D01*
X0760080Y0290825D01*
X0760230Y0290794D01*
X0760379Y0290758D01*
X0760527Y0290719D01*
X0760674Y0290676D01*
X0760820Y0290629D01*
X0760965Y0290578D01*
X0761108Y0290523D01*
X0761250Y0290465D01*
X0761390Y0290403D01*
X0761529Y0290338D01*
X0761666Y0290269D01*
X0761801Y0290196D01*
X0761934Y0290120D01*
X0762065Y0290040D01*
X0762194Y0289958D01*
X0762321Y0289871D01*
X0762446Y0289782D01*
X0762568Y0289689D01*
X0762687Y0289593D01*
X0762805Y0289494D01*
X0762919Y0289393D01*
X0763031Y0289288D01*
X0763140Y0289180D01*
X0763246Y0289069D01*
X0763350Y0288956D01*
X0763450Y0288840D01*
X0763548Y0288722D01*
X0763642Y0288601D01*
X0763733Y0288478D01*
X0763821Y0288352D01*
X0763905Y0288224D01*
X0763987Y0288094D01*
X0764064Y0287962D01*
X0764139Y0287828D01*
X0764210Y0287692D01*
X0764277Y0287554D01*
X0764341Y0287414D01*
X0764401Y0287273D01*
X0764457Y0287131D01*
X0764510Y0286987D01*
X0764559Y0286841D01*
X0764604Y0286695D01*
X0764645Y0286547D01*
X0764682Y0286399D01*
X0764716Y0286249D01*
X0764746Y0286098D01*
X0764771Y0285947D01*
X0764793Y0285796D01*
X0764811Y0285643D01*
X0764825Y0285491D01*
X0764835Y0285338D01*
X0764841Y0285184D01*
X0764843Y0285031D01*
X0764841Y0284878D01*
X0764835Y0284724D01*
X0764825Y0284571D01*
X0764811Y0284419D01*
X0764793Y0284266D01*
X0764771Y0284115D01*
X0764746Y0283964D01*
X0764716Y0283813D01*
X0764682Y0283663D01*
X0764645Y0283515D01*
X0764604Y0283367D01*
X0764559Y0283221D01*
X0764510Y0283075D01*
X0764457Y0282931D01*
X0764401Y0282789D01*
X0764341Y0282648D01*
X0764277Y0282508D01*
X0764210Y0282370D01*
X0764139Y0282234D01*
X0764064Y0282100D01*
X0763987Y0281968D01*
X0763905Y0281838D01*
X0763821Y0281710D01*
X0763733Y0281584D01*
X0763642Y0281461D01*
X0763548Y0281340D01*
X0763450Y0281222D01*
X0763350Y0281106D01*
X0763246Y0280993D01*
X0763140Y0280882D01*
X0763031Y0280774D01*
X0762919Y0280669D01*
X0762805Y0280568D01*
X0762687Y0280469D01*
X0762568Y0280373D01*
X0762446Y0280280D01*
X0762321Y0280191D01*
X0762194Y0280104D01*
X0762065Y0280022D01*
X0761934Y0279942D01*
X0761801Y0279866D01*
X0761666Y0279793D01*
X0761529Y0279724D01*
X0761390Y0279659D01*
X0761250Y0279597D01*
X0761108Y0279539D01*
X0760965Y0279484D01*
X0760820Y0279433D01*
X0760674Y0279386D01*
X0760527Y0279343D01*
X0760379Y0279304D01*
X0760230Y0279268D01*
X0760080Y0279237D01*
X0759929Y0279209D01*
X0759778Y0279185D01*
X0759625Y0279165D01*
X0759473Y0279149D01*
X0759320Y0279137D01*
X0759167Y0279129D01*
X0759014Y0279125D01*
X0758860Y0279125D01*
X0758707Y0279129D01*
X0758554Y0279137D01*
X0758401Y0279149D01*
X0758249Y0279165D01*
X0758096Y0279185D01*
X0757945Y0279209D01*
X0757794Y0279237D01*
X0757644Y0279268D01*
X0757495Y0279304D01*
X0757347Y0279343D01*
X0757200Y0279386D01*
X0757054Y0279433D01*
X0756909Y0279484D01*
X0756766Y0279539D01*
X0756624Y0279597D01*
X0756484Y0279659D01*
X0756345Y0279724D01*
X0756208Y0279793D01*
X0756073Y0279866D01*
X0755940Y0279942D01*
X0755809Y0280022D01*
X0755680Y0280104D01*
X0755553Y0280191D01*
X0755428Y0280280D01*
X0755306Y0280373D01*
X0755187Y0280469D01*
X0755069Y0280568D01*
X0754955Y0280669D01*
X0754843Y0280774D01*
X0754734Y0280882D01*
X0754628Y0280993D01*
X0754524Y0281106D01*
X0754424Y0281222D01*
X0754326Y0281340D01*
X0754232Y0281461D01*
X0754141Y0281584D01*
X0754053Y0281710D01*
X0753969Y0281838D01*
X0753887Y0281968D01*
X0753810Y0282100D01*
X0753735Y0282234D01*
X0753664Y0282370D01*
X0753597Y0282508D01*
X0753533Y0282648D01*
X0753473Y0282789D01*
X0753417Y0282931D01*
X0753364Y0283075D01*
X0753315Y0283221D01*
X0753270Y0283367D01*
X0753229Y0283515D01*
X0753192Y0283663D01*
X0753158Y0283813D01*
X0753128Y0283964D01*
X0753103Y0284115D01*
X0753081Y0284266D01*
X0753063Y0284419D01*
X0753049Y0284571D01*
X0753039Y0284724D01*
X0753033Y0284878D01*
X0753031Y0285031D01*
X0307549Y0265346D02*
X0307551Y0265499D01*
X0307557Y0265653D01*
X0307567Y0265806D01*
X0307581Y0265958D01*
X0307599Y0266111D01*
X0307621Y0266262D01*
X0307646Y0266413D01*
X0307676Y0266564D01*
X0307710Y0266714D01*
X0307747Y0266862D01*
X0307788Y0267010D01*
X0307833Y0267156D01*
X0307882Y0267302D01*
X0307935Y0267446D01*
X0307991Y0267588D01*
X0308051Y0267729D01*
X0308115Y0267869D01*
X0308182Y0268007D01*
X0308253Y0268143D01*
X0308328Y0268277D01*
X0308405Y0268409D01*
X0308487Y0268539D01*
X0308571Y0268667D01*
X0308659Y0268793D01*
X0308750Y0268916D01*
X0308844Y0269037D01*
X0308942Y0269155D01*
X0309042Y0269271D01*
X0309146Y0269384D01*
X0309252Y0269495D01*
X0309361Y0269603D01*
X0309473Y0269708D01*
X0309587Y0269809D01*
X0309705Y0269908D01*
X0309824Y0270004D01*
X0309946Y0270097D01*
X0310071Y0270186D01*
X0310198Y0270273D01*
X0310327Y0270355D01*
X0310458Y0270435D01*
X0310591Y0270511D01*
X0310726Y0270584D01*
X0310863Y0270653D01*
X0311002Y0270718D01*
X0311142Y0270780D01*
X0311284Y0270838D01*
X0311427Y0270893D01*
X0311572Y0270944D01*
X0311718Y0270991D01*
X0311865Y0271034D01*
X0312013Y0271073D01*
X0312162Y0271109D01*
X0312312Y0271140D01*
X0312463Y0271168D01*
X0312614Y0271192D01*
X0312767Y0271212D01*
X0312919Y0271228D01*
X0313072Y0271240D01*
X0313225Y0271248D01*
X0313378Y0271252D01*
X0313532Y0271252D01*
X0313685Y0271248D01*
X0313838Y0271240D01*
X0313991Y0271228D01*
X0314143Y0271212D01*
X0314296Y0271192D01*
X0314447Y0271168D01*
X0314598Y0271140D01*
X0314748Y0271109D01*
X0314897Y0271073D01*
X0315045Y0271034D01*
X0315192Y0270991D01*
X0315338Y0270944D01*
X0315483Y0270893D01*
X0315626Y0270838D01*
X0315768Y0270780D01*
X0315908Y0270718D01*
X0316047Y0270653D01*
X0316184Y0270584D01*
X0316319Y0270511D01*
X0316452Y0270435D01*
X0316583Y0270355D01*
X0316712Y0270273D01*
X0316839Y0270186D01*
X0316964Y0270097D01*
X0317086Y0270004D01*
X0317205Y0269908D01*
X0317323Y0269809D01*
X0317437Y0269708D01*
X0317549Y0269603D01*
X0317658Y0269495D01*
X0317764Y0269384D01*
X0317868Y0269271D01*
X0317968Y0269155D01*
X0318066Y0269037D01*
X0318160Y0268916D01*
X0318251Y0268793D01*
X0318339Y0268667D01*
X0318423Y0268539D01*
X0318505Y0268409D01*
X0318582Y0268277D01*
X0318657Y0268143D01*
X0318728Y0268007D01*
X0318795Y0267869D01*
X0318859Y0267729D01*
X0318919Y0267588D01*
X0318975Y0267446D01*
X0319028Y0267302D01*
X0319077Y0267156D01*
X0319122Y0267010D01*
X0319163Y0266862D01*
X0319200Y0266714D01*
X0319234Y0266564D01*
X0319264Y0266413D01*
X0319289Y0266262D01*
X0319311Y0266111D01*
X0319329Y0265958D01*
X0319343Y0265806D01*
X0319353Y0265653D01*
X0319359Y0265499D01*
X0319361Y0265346D01*
X0319359Y0265193D01*
X0319353Y0265039D01*
X0319343Y0264886D01*
X0319329Y0264734D01*
X0319311Y0264581D01*
X0319289Y0264430D01*
X0319264Y0264279D01*
X0319234Y0264128D01*
X0319200Y0263978D01*
X0319163Y0263830D01*
X0319122Y0263682D01*
X0319077Y0263536D01*
X0319028Y0263390D01*
X0318975Y0263246D01*
X0318919Y0263104D01*
X0318859Y0262963D01*
X0318795Y0262823D01*
X0318728Y0262685D01*
X0318657Y0262549D01*
X0318582Y0262415D01*
X0318505Y0262283D01*
X0318423Y0262153D01*
X0318339Y0262025D01*
X0318251Y0261899D01*
X0318160Y0261776D01*
X0318066Y0261655D01*
X0317968Y0261537D01*
X0317868Y0261421D01*
X0317764Y0261308D01*
X0317658Y0261197D01*
X0317549Y0261089D01*
X0317437Y0260984D01*
X0317323Y0260883D01*
X0317205Y0260784D01*
X0317086Y0260688D01*
X0316964Y0260595D01*
X0316839Y0260506D01*
X0316712Y0260419D01*
X0316583Y0260337D01*
X0316452Y0260257D01*
X0316319Y0260181D01*
X0316184Y0260108D01*
X0316047Y0260039D01*
X0315908Y0259974D01*
X0315768Y0259912D01*
X0315626Y0259854D01*
X0315483Y0259799D01*
X0315338Y0259748D01*
X0315192Y0259701D01*
X0315045Y0259658D01*
X0314897Y0259619D01*
X0314748Y0259583D01*
X0314598Y0259552D01*
X0314447Y0259524D01*
X0314296Y0259500D01*
X0314143Y0259480D01*
X0313991Y0259464D01*
X0313838Y0259452D01*
X0313685Y0259444D01*
X0313532Y0259440D01*
X0313378Y0259440D01*
X0313225Y0259444D01*
X0313072Y0259452D01*
X0312919Y0259464D01*
X0312767Y0259480D01*
X0312614Y0259500D01*
X0312463Y0259524D01*
X0312312Y0259552D01*
X0312162Y0259583D01*
X0312013Y0259619D01*
X0311865Y0259658D01*
X0311718Y0259701D01*
X0311572Y0259748D01*
X0311427Y0259799D01*
X0311284Y0259854D01*
X0311142Y0259912D01*
X0311002Y0259974D01*
X0310863Y0260039D01*
X0310726Y0260108D01*
X0310591Y0260181D01*
X0310458Y0260257D01*
X0310327Y0260337D01*
X0310198Y0260419D01*
X0310071Y0260506D01*
X0309946Y0260595D01*
X0309824Y0260688D01*
X0309705Y0260784D01*
X0309587Y0260883D01*
X0309473Y0260984D01*
X0309361Y0261089D01*
X0309252Y0261197D01*
X0309146Y0261308D01*
X0309042Y0261421D01*
X0308942Y0261537D01*
X0308844Y0261655D01*
X0308750Y0261776D01*
X0308659Y0261899D01*
X0308571Y0262025D01*
X0308487Y0262153D01*
X0308405Y0262283D01*
X0308328Y0262415D01*
X0308253Y0262549D01*
X0308182Y0262685D01*
X0308115Y0262823D01*
X0308051Y0262963D01*
X0307991Y0263104D01*
X0307935Y0263246D01*
X0307882Y0263390D01*
X0307833Y0263536D01*
X0307788Y0263682D01*
X0307747Y0263830D01*
X0307710Y0263978D01*
X0307676Y0264128D01*
X0307646Y0264279D01*
X0307621Y0264430D01*
X0307599Y0264581D01*
X0307581Y0264734D01*
X0307567Y0264886D01*
X0307557Y0265039D01*
X0307551Y0265193D01*
X0307549Y0265346D01*
X0156574Y0277157D02*
X0156576Y0277310D01*
X0156582Y0277464D01*
X0156592Y0277617D01*
X0156606Y0277769D01*
X0156624Y0277922D01*
X0156646Y0278073D01*
X0156671Y0278224D01*
X0156701Y0278375D01*
X0156735Y0278525D01*
X0156772Y0278673D01*
X0156813Y0278821D01*
X0156858Y0278967D01*
X0156907Y0279113D01*
X0156960Y0279257D01*
X0157016Y0279399D01*
X0157076Y0279540D01*
X0157140Y0279680D01*
X0157207Y0279818D01*
X0157278Y0279954D01*
X0157353Y0280088D01*
X0157430Y0280220D01*
X0157512Y0280350D01*
X0157596Y0280478D01*
X0157684Y0280604D01*
X0157775Y0280727D01*
X0157869Y0280848D01*
X0157967Y0280966D01*
X0158067Y0281082D01*
X0158171Y0281195D01*
X0158277Y0281306D01*
X0158386Y0281414D01*
X0158498Y0281519D01*
X0158612Y0281620D01*
X0158730Y0281719D01*
X0158849Y0281815D01*
X0158971Y0281908D01*
X0159096Y0281997D01*
X0159223Y0282084D01*
X0159352Y0282166D01*
X0159483Y0282246D01*
X0159616Y0282322D01*
X0159751Y0282395D01*
X0159888Y0282464D01*
X0160027Y0282529D01*
X0160167Y0282591D01*
X0160309Y0282649D01*
X0160452Y0282704D01*
X0160597Y0282755D01*
X0160743Y0282802D01*
X0160890Y0282845D01*
X0161038Y0282884D01*
X0161187Y0282920D01*
X0161337Y0282951D01*
X0161488Y0282979D01*
X0161639Y0283003D01*
X0161792Y0283023D01*
X0161944Y0283039D01*
X0162097Y0283051D01*
X0162250Y0283059D01*
X0162403Y0283063D01*
X0162557Y0283063D01*
X0162710Y0283059D01*
X0162863Y0283051D01*
X0163016Y0283039D01*
X0163168Y0283023D01*
X0163321Y0283003D01*
X0163472Y0282979D01*
X0163623Y0282951D01*
X0163773Y0282920D01*
X0163922Y0282884D01*
X0164070Y0282845D01*
X0164217Y0282802D01*
X0164363Y0282755D01*
X0164508Y0282704D01*
X0164651Y0282649D01*
X0164793Y0282591D01*
X0164933Y0282529D01*
X0165072Y0282464D01*
X0165209Y0282395D01*
X0165344Y0282322D01*
X0165477Y0282246D01*
X0165608Y0282166D01*
X0165737Y0282084D01*
X0165864Y0281997D01*
X0165989Y0281908D01*
X0166111Y0281815D01*
X0166230Y0281719D01*
X0166348Y0281620D01*
X0166462Y0281519D01*
X0166574Y0281414D01*
X0166683Y0281306D01*
X0166789Y0281195D01*
X0166893Y0281082D01*
X0166993Y0280966D01*
X0167091Y0280848D01*
X0167185Y0280727D01*
X0167276Y0280604D01*
X0167364Y0280478D01*
X0167448Y0280350D01*
X0167530Y0280220D01*
X0167607Y0280088D01*
X0167682Y0279954D01*
X0167753Y0279818D01*
X0167820Y0279680D01*
X0167884Y0279540D01*
X0167944Y0279399D01*
X0168000Y0279257D01*
X0168053Y0279113D01*
X0168102Y0278967D01*
X0168147Y0278821D01*
X0168188Y0278673D01*
X0168225Y0278525D01*
X0168259Y0278375D01*
X0168289Y0278224D01*
X0168314Y0278073D01*
X0168336Y0277922D01*
X0168354Y0277769D01*
X0168368Y0277617D01*
X0168378Y0277464D01*
X0168384Y0277310D01*
X0168386Y0277157D01*
X0168384Y0277004D01*
X0168378Y0276850D01*
X0168368Y0276697D01*
X0168354Y0276545D01*
X0168336Y0276392D01*
X0168314Y0276241D01*
X0168289Y0276090D01*
X0168259Y0275939D01*
X0168225Y0275789D01*
X0168188Y0275641D01*
X0168147Y0275493D01*
X0168102Y0275347D01*
X0168053Y0275201D01*
X0168000Y0275057D01*
X0167944Y0274915D01*
X0167884Y0274774D01*
X0167820Y0274634D01*
X0167753Y0274496D01*
X0167682Y0274360D01*
X0167607Y0274226D01*
X0167530Y0274094D01*
X0167448Y0273964D01*
X0167364Y0273836D01*
X0167276Y0273710D01*
X0167185Y0273587D01*
X0167091Y0273466D01*
X0166993Y0273348D01*
X0166893Y0273232D01*
X0166789Y0273119D01*
X0166683Y0273008D01*
X0166574Y0272900D01*
X0166462Y0272795D01*
X0166348Y0272694D01*
X0166230Y0272595D01*
X0166111Y0272499D01*
X0165989Y0272406D01*
X0165864Y0272317D01*
X0165737Y0272230D01*
X0165608Y0272148D01*
X0165477Y0272068D01*
X0165344Y0271992D01*
X0165209Y0271919D01*
X0165072Y0271850D01*
X0164933Y0271785D01*
X0164793Y0271723D01*
X0164651Y0271665D01*
X0164508Y0271610D01*
X0164363Y0271559D01*
X0164217Y0271512D01*
X0164070Y0271469D01*
X0163922Y0271430D01*
X0163773Y0271394D01*
X0163623Y0271363D01*
X0163472Y0271335D01*
X0163321Y0271311D01*
X0163168Y0271291D01*
X0163016Y0271275D01*
X0162863Y0271263D01*
X0162710Y0271255D01*
X0162557Y0271251D01*
X0162403Y0271251D01*
X0162250Y0271255D01*
X0162097Y0271263D01*
X0161944Y0271275D01*
X0161792Y0271291D01*
X0161639Y0271311D01*
X0161488Y0271335D01*
X0161337Y0271363D01*
X0161187Y0271394D01*
X0161038Y0271430D01*
X0160890Y0271469D01*
X0160743Y0271512D01*
X0160597Y0271559D01*
X0160452Y0271610D01*
X0160309Y0271665D01*
X0160167Y0271723D01*
X0160027Y0271785D01*
X0159888Y0271850D01*
X0159751Y0271919D01*
X0159616Y0271992D01*
X0159483Y0272068D01*
X0159352Y0272148D01*
X0159223Y0272230D01*
X0159096Y0272317D01*
X0158971Y0272406D01*
X0158849Y0272499D01*
X0158730Y0272595D01*
X0158612Y0272694D01*
X0158498Y0272795D01*
X0158386Y0272900D01*
X0158277Y0273008D01*
X0158171Y0273119D01*
X0158067Y0273232D01*
X0157967Y0273348D01*
X0157869Y0273466D01*
X0157775Y0273587D01*
X0157684Y0273710D01*
X0157596Y0273836D01*
X0157512Y0273964D01*
X0157430Y0274094D01*
X0157353Y0274226D01*
X0157278Y0274360D01*
X0157207Y0274496D01*
X0157140Y0274634D01*
X0157076Y0274774D01*
X0157016Y0274915D01*
X0156960Y0275057D01*
X0156907Y0275201D01*
X0156858Y0275347D01*
X0156813Y0275493D01*
X0156772Y0275641D01*
X0156735Y0275789D01*
X0156701Y0275939D01*
X0156671Y0276090D01*
X0156646Y0276241D01*
X0156624Y0276392D01*
X0156606Y0276545D01*
X0156592Y0276697D01*
X0156582Y0276850D01*
X0156576Y0277004D01*
X0156574Y0277157D01*
X0715629Y0080307D02*
X0715631Y0080460D01*
X0715637Y0080614D01*
X0715647Y0080767D01*
X0715661Y0080919D01*
X0715679Y0081072D01*
X0715701Y0081223D01*
X0715726Y0081374D01*
X0715756Y0081525D01*
X0715790Y0081675D01*
X0715827Y0081823D01*
X0715868Y0081971D01*
X0715913Y0082117D01*
X0715962Y0082263D01*
X0716015Y0082407D01*
X0716071Y0082549D01*
X0716131Y0082690D01*
X0716195Y0082830D01*
X0716262Y0082968D01*
X0716333Y0083104D01*
X0716408Y0083238D01*
X0716485Y0083370D01*
X0716567Y0083500D01*
X0716651Y0083628D01*
X0716739Y0083754D01*
X0716830Y0083877D01*
X0716924Y0083998D01*
X0717022Y0084116D01*
X0717122Y0084232D01*
X0717226Y0084345D01*
X0717332Y0084456D01*
X0717441Y0084564D01*
X0717553Y0084669D01*
X0717667Y0084770D01*
X0717785Y0084869D01*
X0717904Y0084965D01*
X0718026Y0085058D01*
X0718151Y0085147D01*
X0718278Y0085234D01*
X0718407Y0085316D01*
X0718538Y0085396D01*
X0718671Y0085472D01*
X0718806Y0085545D01*
X0718943Y0085614D01*
X0719082Y0085679D01*
X0719222Y0085741D01*
X0719364Y0085799D01*
X0719507Y0085854D01*
X0719652Y0085905D01*
X0719798Y0085952D01*
X0719945Y0085995D01*
X0720093Y0086034D01*
X0720242Y0086070D01*
X0720392Y0086101D01*
X0720543Y0086129D01*
X0720694Y0086153D01*
X0720847Y0086173D01*
X0720999Y0086189D01*
X0721152Y0086201D01*
X0721305Y0086209D01*
X0721458Y0086213D01*
X0721612Y0086213D01*
X0721765Y0086209D01*
X0721918Y0086201D01*
X0722071Y0086189D01*
X0722223Y0086173D01*
X0722376Y0086153D01*
X0722527Y0086129D01*
X0722678Y0086101D01*
X0722828Y0086070D01*
X0722977Y0086034D01*
X0723125Y0085995D01*
X0723272Y0085952D01*
X0723418Y0085905D01*
X0723563Y0085854D01*
X0723706Y0085799D01*
X0723848Y0085741D01*
X0723988Y0085679D01*
X0724127Y0085614D01*
X0724264Y0085545D01*
X0724399Y0085472D01*
X0724532Y0085396D01*
X0724663Y0085316D01*
X0724792Y0085234D01*
X0724919Y0085147D01*
X0725044Y0085058D01*
X0725166Y0084965D01*
X0725285Y0084869D01*
X0725403Y0084770D01*
X0725517Y0084669D01*
X0725629Y0084564D01*
X0725738Y0084456D01*
X0725844Y0084345D01*
X0725948Y0084232D01*
X0726048Y0084116D01*
X0726146Y0083998D01*
X0726240Y0083877D01*
X0726331Y0083754D01*
X0726419Y0083628D01*
X0726503Y0083500D01*
X0726585Y0083370D01*
X0726662Y0083238D01*
X0726737Y0083104D01*
X0726808Y0082968D01*
X0726875Y0082830D01*
X0726939Y0082690D01*
X0726999Y0082549D01*
X0727055Y0082407D01*
X0727108Y0082263D01*
X0727157Y0082117D01*
X0727202Y0081971D01*
X0727243Y0081823D01*
X0727280Y0081675D01*
X0727314Y0081525D01*
X0727344Y0081374D01*
X0727369Y0081223D01*
X0727391Y0081072D01*
X0727409Y0080919D01*
X0727423Y0080767D01*
X0727433Y0080614D01*
X0727439Y0080460D01*
X0727441Y0080307D01*
X0727439Y0080154D01*
X0727433Y0080000D01*
X0727423Y0079847D01*
X0727409Y0079695D01*
X0727391Y0079542D01*
X0727369Y0079391D01*
X0727344Y0079240D01*
X0727314Y0079089D01*
X0727280Y0078939D01*
X0727243Y0078791D01*
X0727202Y0078643D01*
X0727157Y0078497D01*
X0727108Y0078351D01*
X0727055Y0078207D01*
X0726999Y0078065D01*
X0726939Y0077924D01*
X0726875Y0077784D01*
X0726808Y0077646D01*
X0726737Y0077510D01*
X0726662Y0077376D01*
X0726585Y0077244D01*
X0726503Y0077114D01*
X0726419Y0076986D01*
X0726331Y0076860D01*
X0726240Y0076737D01*
X0726146Y0076616D01*
X0726048Y0076498D01*
X0725948Y0076382D01*
X0725844Y0076269D01*
X0725738Y0076158D01*
X0725629Y0076050D01*
X0725517Y0075945D01*
X0725403Y0075844D01*
X0725285Y0075745D01*
X0725166Y0075649D01*
X0725044Y0075556D01*
X0724919Y0075467D01*
X0724792Y0075380D01*
X0724663Y0075298D01*
X0724532Y0075218D01*
X0724399Y0075142D01*
X0724264Y0075069D01*
X0724127Y0075000D01*
X0723988Y0074935D01*
X0723848Y0074873D01*
X0723706Y0074815D01*
X0723563Y0074760D01*
X0723418Y0074709D01*
X0723272Y0074662D01*
X0723125Y0074619D01*
X0722977Y0074580D01*
X0722828Y0074544D01*
X0722678Y0074513D01*
X0722527Y0074485D01*
X0722376Y0074461D01*
X0722223Y0074441D01*
X0722071Y0074425D01*
X0721918Y0074413D01*
X0721765Y0074405D01*
X0721612Y0074401D01*
X0721458Y0074401D01*
X0721305Y0074405D01*
X0721152Y0074413D01*
X0720999Y0074425D01*
X0720847Y0074441D01*
X0720694Y0074461D01*
X0720543Y0074485D01*
X0720392Y0074513D01*
X0720242Y0074544D01*
X0720093Y0074580D01*
X0719945Y0074619D01*
X0719798Y0074662D01*
X0719652Y0074709D01*
X0719507Y0074760D01*
X0719364Y0074815D01*
X0719222Y0074873D01*
X0719082Y0074935D01*
X0718943Y0075000D01*
X0718806Y0075069D01*
X0718671Y0075142D01*
X0718538Y0075218D01*
X0718407Y0075298D01*
X0718278Y0075380D01*
X0718151Y0075467D01*
X0718026Y0075556D01*
X0717904Y0075649D01*
X0717785Y0075745D01*
X0717667Y0075844D01*
X0717553Y0075945D01*
X0717441Y0076050D01*
X0717332Y0076158D01*
X0717226Y0076269D01*
X0717122Y0076382D01*
X0717022Y0076498D01*
X0716924Y0076616D01*
X0716830Y0076737D01*
X0716739Y0076860D01*
X0716651Y0076986D01*
X0716567Y0077114D01*
X0716485Y0077244D01*
X0716408Y0077376D01*
X0716333Y0077510D01*
X0716262Y0077646D01*
X0716195Y0077784D01*
X0716131Y0077924D01*
X0716071Y0078065D01*
X0716015Y0078207D01*
X0715962Y0078351D01*
X0715913Y0078497D01*
X0715868Y0078643D01*
X0715827Y0078791D01*
X0715790Y0078939D01*
X0715756Y0079089D01*
X0715726Y0079240D01*
X0715701Y0079391D01*
X0715679Y0079542D01*
X0715661Y0079695D01*
X0715647Y0079847D01*
X0715637Y0080000D01*
X0715631Y0080154D01*
X0715629Y0080307D01*
X0896732Y0056685D02*
X0896734Y0056838D01*
X0896740Y0056992D01*
X0896750Y0057145D01*
X0896764Y0057297D01*
X0896782Y0057450D01*
X0896804Y0057601D01*
X0896829Y0057752D01*
X0896859Y0057903D01*
X0896893Y0058053D01*
X0896930Y0058201D01*
X0896971Y0058349D01*
X0897016Y0058495D01*
X0897065Y0058641D01*
X0897118Y0058785D01*
X0897174Y0058927D01*
X0897234Y0059068D01*
X0897298Y0059208D01*
X0897365Y0059346D01*
X0897436Y0059482D01*
X0897511Y0059616D01*
X0897588Y0059748D01*
X0897670Y0059878D01*
X0897754Y0060006D01*
X0897842Y0060132D01*
X0897933Y0060255D01*
X0898027Y0060376D01*
X0898125Y0060494D01*
X0898225Y0060610D01*
X0898329Y0060723D01*
X0898435Y0060834D01*
X0898544Y0060942D01*
X0898656Y0061047D01*
X0898770Y0061148D01*
X0898888Y0061247D01*
X0899007Y0061343D01*
X0899129Y0061436D01*
X0899254Y0061525D01*
X0899381Y0061612D01*
X0899510Y0061694D01*
X0899641Y0061774D01*
X0899774Y0061850D01*
X0899909Y0061923D01*
X0900046Y0061992D01*
X0900185Y0062057D01*
X0900325Y0062119D01*
X0900467Y0062177D01*
X0900610Y0062232D01*
X0900755Y0062283D01*
X0900901Y0062330D01*
X0901048Y0062373D01*
X0901196Y0062412D01*
X0901345Y0062448D01*
X0901495Y0062479D01*
X0901646Y0062507D01*
X0901797Y0062531D01*
X0901950Y0062551D01*
X0902102Y0062567D01*
X0902255Y0062579D01*
X0902408Y0062587D01*
X0902561Y0062591D01*
X0902715Y0062591D01*
X0902868Y0062587D01*
X0903021Y0062579D01*
X0903174Y0062567D01*
X0903326Y0062551D01*
X0903479Y0062531D01*
X0903630Y0062507D01*
X0903781Y0062479D01*
X0903931Y0062448D01*
X0904080Y0062412D01*
X0904228Y0062373D01*
X0904375Y0062330D01*
X0904521Y0062283D01*
X0904666Y0062232D01*
X0904809Y0062177D01*
X0904951Y0062119D01*
X0905091Y0062057D01*
X0905230Y0061992D01*
X0905367Y0061923D01*
X0905502Y0061850D01*
X0905635Y0061774D01*
X0905766Y0061694D01*
X0905895Y0061612D01*
X0906022Y0061525D01*
X0906147Y0061436D01*
X0906269Y0061343D01*
X0906388Y0061247D01*
X0906506Y0061148D01*
X0906620Y0061047D01*
X0906732Y0060942D01*
X0906841Y0060834D01*
X0906947Y0060723D01*
X0907051Y0060610D01*
X0907151Y0060494D01*
X0907249Y0060376D01*
X0907343Y0060255D01*
X0907434Y0060132D01*
X0907522Y0060006D01*
X0907606Y0059878D01*
X0907688Y0059748D01*
X0907765Y0059616D01*
X0907840Y0059482D01*
X0907911Y0059346D01*
X0907978Y0059208D01*
X0908042Y0059068D01*
X0908102Y0058927D01*
X0908158Y0058785D01*
X0908211Y0058641D01*
X0908260Y0058495D01*
X0908305Y0058349D01*
X0908346Y0058201D01*
X0908383Y0058053D01*
X0908417Y0057903D01*
X0908447Y0057752D01*
X0908472Y0057601D01*
X0908494Y0057450D01*
X0908512Y0057297D01*
X0908526Y0057145D01*
X0908536Y0056992D01*
X0908542Y0056838D01*
X0908544Y0056685D01*
X0908542Y0056532D01*
X0908536Y0056378D01*
X0908526Y0056225D01*
X0908512Y0056073D01*
X0908494Y0055920D01*
X0908472Y0055769D01*
X0908447Y0055618D01*
X0908417Y0055467D01*
X0908383Y0055317D01*
X0908346Y0055169D01*
X0908305Y0055021D01*
X0908260Y0054875D01*
X0908211Y0054729D01*
X0908158Y0054585D01*
X0908102Y0054443D01*
X0908042Y0054302D01*
X0907978Y0054162D01*
X0907911Y0054024D01*
X0907840Y0053888D01*
X0907765Y0053754D01*
X0907688Y0053622D01*
X0907606Y0053492D01*
X0907522Y0053364D01*
X0907434Y0053238D01*
X0907343Y0053115D01*
X0907249Y0052994D01*
X0907151Y0052876D01*
X0907051Y0052760D01*
X0906947Y0052647D01*
X0906841Y0052536D01*
X0906732Y0052428D01*
X0906620Y0052323D01*
X0906506Y0052222D01*
X0906388Y0052123D01*
X0906269Y0052027D01*
X0906147Y0051934D01*
X0906022Y0051845D01*
X0905895Y0051758D01*
X0905766Y0051676D01*
X0905635Y0051596D01*
X0905502Y0051520D01*
X0905367Y0051447D01*
X0905230Y0051378D01*
X0905091Y0051313D01*
X0904951Y0051251D01*
X0904809Y0051193D01*
X0904666Y0051138D01*
X0904521Y0051087D01*
X0904375Y0051040D01*
X0904228Y0050997D01*
X0904080Y0050958D01*
X0903931Y0050922D01*
X0903781Y0050891D01*
X0903630Y0050863D01*
X0903479Y0050839D01*
X0903326Y0050819D01*
X0903174Y0050803D01*
X0903021Y0050791D01*
X0902868Y0050783D01*
X0902715Y0050779D01*
X0902561Y0050779D01*
X0902408Y0050783D01*
X0902255Y0050791D01*
X0902102Y0050803D01*
X0901950Y0050819D01*
X0901797Y0050839D01*
X0901646Y0050863D01*
X0901495Y0050891D01*
X0901345Y0050922D01*
X0901196Y0050958D01*
X0901048Y0050997D01*
X0900901Y0051040D01*
X0900755Y0051087D01*
X0900610Y0051138D01*
X0900467Y0051193D01*
X0900325Y0051251D01*
X0900185Y0051313D01*
X0900046Y0051378D01*
X0899909Y0051447D01*
X0899774Y0051520D01*
X0899641Y0051596D01*
X0899510Y0051676D01*
X0899381Y0051758D01*
X0899254Y0051845D01*
X0899129Y0051934D01*
X0899007Y0052027D01*
X0898888Y0052123D01*
X0898770Y0052222D01*
X0898656Y0052323D01*
X0898544Y0052428D01*
X0898435Y0052536D01*
X0898329Y0052647D01*
X0898225Y0052760D01*
X0898125Y0052876D01*
X0898027Y0052994D01*
X0897933Y0053115D01*
X0897842Y0053238D01*
X0897754Y0053364D01*
X0897670Y0053492D01*
X0897588Y0053622D01*
X0897511Y0053754D01*
X0897436Y0053888D01*
X0897365Y0054024D01*
X0897298Y0054162D01*
X0897234Y0054302D01*
X0897174Y0054443D01*
X0897118Y0054585D01*
X0897065Y0054729D01*
X0897016Y0054875D01*
X0896971Y0055021D01*
X0896930Y0055169D01*
X0896893Y0055317D01*
X0896859Y0055467D01*
X0896829Y0055618D01*
X0896804Y0055769D01*
X0896782Y0055920D01*
X0896764Y0056073D01*
X0896750Y0056225D01*
X0896740Y0056378D01*
X0896734Y0056532D01*
X0896732Y0056685D01*
X0192007Y0060622D02*
X0192009Y0060775D01*
X0192015Y0060929D01*
X0192025Y0061082D01*
X0192039Y0061234D01*
X0192057Y0061387D01*
X0192079Y0061538D01*
X0192104Y0061689D01*
X0192134Y0061840D01*
X0192168Y0061990D01*
X0192205Y0062138D01*
X0192246Y0062286D01*
X0192291Y0062432D01*
X0192340Y0062578D01*
X0192393Y0062722D01*
X0192449Y0062864D01*
X0192509Y0063005D01*
X0192573Y0063145D01*
X0192640Y0063283D01*
X0192711Y0063419D01*
X0192786Y0063553D01*
X0192863Y0063685D01*
X0192945Y0063815D01*
X0193029Y0063943D01*
X0193117Y0064069D01*
X0193208Y0064192D01*
X0193302Y0064313D01*
X0193400Y0064431D01*
X0193500Y0064547D01*
X0193604Y0064660D01*
X0193710Y0064771D01*
X0193819Y0064879D01*
X0193931Y0064984D01*
X0194045Y0065085D01*
X0194163Y0065184D01*
X0194282Y0065280D01*
X0194404Y0065373D01*
X0194529Y0065462D01*
X0194656Y0065549D01*
X0194785Y0065631D01*
X0194916Y0065711D01*
X0195049Y0065787D01*
X0195184Y0065860D01*
X0195321Y0065929D01*
X0195460Y0065994D01*
X0195600Y0066056D01*
X0195742Y0066114D01*
X0195885Y0066169D01*
X0196030Y0066220D01*
X0196176Y0066267D01*
X0196323Y0066310D01*
X0196471Y0066349D01*
X0196620Y0066385D01*
X0196770Y0066416D01*
X0196921Y0066444D01*
X0197072Y0066468D01*
X0197225Y0066488D01*
X0197377Y0066504D01*
X0197530Y0066516D01*
X0197683Y0066524D01*
X0197836Y0066528D01*
X0197990Y0066528D01*
X0198143Y0066524D01*
X0198296Y0066516D01*
X0198449Y0066504D01*
X0198601Y0066488D01*
X0198754Y0066468D01*
X0198905Y0066444D01*
X0199056Y0066416D01*
X0199206Y0066385D01*
X0199355Y0066349D01*
X0199503Y0066310D01*
X0199650Y0066267D01*
X0199796Y0066220D01*
X0199941Y0066169D01*
X0200084Y0066114D01*
X0200226Y0066056D01*
X0200366Y0065994D01*
X0200505Y0065929D01*
X0200642Y0065860D01*
X0200777Y0065787D01*
X0200910Y0065711D01*
X0201041Y0065631D01*
X0201170Y0065549D01*
X0201297Y0065462D01*
X0201422Y0065373D01*
X0201544Y0065280D01*
X0201663Y0065184D01*
X0201781Y0065085D01*
X0201895Y0064984D01*
X0202007Y0064879D01*
X0202116Y0064771D01*
X0202222Y0064660D01*
X0202326Y0064547D01*
X0202426Y0064431D01*
X0202524Y0064313D01*
X0202618Y0064192D01*
X0202709Y0064069D01*
X0202797Y0063943D01*
X0202881Y0063815D01*
X0202963Y0063685D01*
X0203040Y0063553D01*
X0203115Y0063419D01*
X0203186Y0063283D01*
X0203253Y0063145D01*
X0203317Y0063005D01*
X0203377Y0062864D01*
X0203433Y0062722D01*
X0203486Y0062578D01*
X0203535Y0062432D01*
X0203580Y0062286D01*
X0203621Y0062138D01*
X0203658Y0061990D01*
X0203692Y0061840D01*
X0203722Y0061689D01*
X0203747Y0061538D01*
X0203769Y0061387D01*
X0203787Y0061234D01*
X0203801Y0061082D01*
X0203811Y0060929D01*
X0203817Y0060775D01*
X0203819Y0060622D01*
X0203817Y0060469D01*
X0203811Y0060315D01*
X0203801Y0060162D01*
X0203787Y0060010D01*
X0203769Y0059857D01*
X0203747Y0059706D01*
X0203722Y0059555D01*
X0203692Y0059404D01*
X0203658Y0059254D01*
X0203621Y0059106D01*
X0203580Y0058958D01*
X0203535Y0058812D01*
X0203486Y0058666D01*
X0203433Y0058522D01*
X0203377Y0058380D01*
X0203317Y0058239D01*
X0203253Y0058099D01*
X0203186Y0057961D01*
X0203115Y0057825D01*
X0203040Y0057691D01*
X0202963Y0057559D01*
X0202881Y0057429D01*
X0202797Y0057301D01*
X0202709Y0057175D01*
X0202618Y0057052D01*
X0202524Y0056931D01*
X0202426Y0056813D01*
X0202326Y0056697D01*
X0202222Y0056584D01*
X0202116Y0056473D01*
X0202007Y0056365D01*
X0201895Y0056260D01*
X0201781Y0056159D01*
X0201663Y0056060D01*
X0201544Y0055964D01*
X0201422Y0055871D01*
X0201297Y0055782D01*
X0201170Y0055695D01*
X0201041Y0055613D01*
X0200910Y0055533D01*
X0200777Y0055457D01*
X0200642Y0055384D01*
X0200505Y0055315D01*
X0200366Y0055250D01*
X0200226Y0055188D01*
X0200084Y0055130D01*
X0199941Y0055075D01*
X0199796Y0055024D01*
X0199650Y0054977D01*
X0199503Y0054934D01*
X0199355Y0054895D01*
X0199206Y0054859D01*
X0199056Y0054828D01*
X0198905Y0054800D01*
X0198754Y0054776D01*
X0198601Y0054756D01*
X0198449Y0054740D01*
X0198296Y0054728D01*
X0198143Y0054720D01*
X0197990Y0054716D01*
X0197836Y0054716D01*
X0197683Y0054720D01*
X0197530Y0054728D01*
X0197377Y0054740D01*
X0197225Y0054756D01*
X0197072Y0054776D01*
X0196921Y0054800D01*
X0196770Y0054828D01*
X0196620Y0054859D01*
X0196471Y0054895D01*
X0196323Y0054934D01*
X0196176Y0054977D01*
X0196030Y0055024D01*
X0195885Y0055075D01*
X0195742Y0055130D01*
X0195600Y0055188D01*
X0195460Y0055250D01*
X0195321Y0055315D01*
X0195184Y0055384D01*
X0195049Y0055457D01*
X0194916Y0055533D01*
X0194785Y0055613D01*
X0194656Y0055695D01*
X0194529Y0055782D01*
X0194404Y0055871D01*
X0194282Y0055964D01*
X0194163Y0056060D01*
X0194045Y0056159D01*
X0193931Y0056260D01*
X0193819Y0056365D01*
X0193710Y0056473D01*
X0193604Y0056584D01*
X0193500Y0056697D01*
X0193400Y0056813D01*
X0193302Y0056931D01*
X0193208Y0057052D01*
X0193117Y0057175D01*
X0193029Y0057301D01*
X0192945Y0057429D01*
X0192863Y0057559D01*
X0192786Y0057691D01*
X0192711Y0057825D01*
X0192640Y0057961D01*
X0192573Y0058099D01*
X0192509Y0058239D01*
X0192449Y0058380D01*
X0192393Y0058522D01*
X0192340Y0058666D01*
X0192291Y0058812D01*
X0192246Y0058958D01*
X0192205Y0059106D01*
X0192168Y0059254D01*
X0192134Y0059404D01*
X0192104Y0059555D01*
X0192079Y0059706D01*
X0192057Y0059857D01*
X0192039Y0060010D01*
X0192025Y0060162D01*
X0192015Y0060315D01*
X0192009Y0060469D01*
X0192007Y0060622D01*
D41*
X0434043Y0124981D03*
X0436602Y0124981D03*
X0439161Y0124981D03*
X0441720Y0124981D03*
X0444280Y0124981D03*
X0446839Y0124981D03*
X0449398Y0124981D03*
X0451957Y0124981D03*
X0451957Y0151752D03*
X0449398Y0151752D03*
X0446839Y0151752D03*
X0444280Y0151752D03*
X0441720Y0151752D03*
X0439161Y0151752D03*
X0436602Y0151752D03*
X0434043Y0151752D03*
D42*
X0553841Y0051497D03*
X0558959Y0051497D03*
X0556400Y0042836D03*
M02*
