%
M48
M72
T01C0.01200
T02C0.01969
T03C0.03150
T04C0.03937
T05C0.04000
T06C0.05906
T07C0.08268
T08C0.15750
%
T01
X105800Y22367
X113750Y22817
X182500Y40317
X197713Y53622
X192913Y55722
X190913Y60622
X202913Y55622
X204813Y60522
X202913Y65622
X198113Y67522
X193013Y65422
X213800Y77767
X182600Y92767
X217800Y110367
X194600Y128767
X190200Y129167
X183200Y140767
X166600Y147167
X149600Y152767
X182600Y159967
X185800Y156767
X195400Y159967
X205000Y159967
X217800Y163167
X217800Y172767
X235400Y185567
X257500Y196567
X217500Y210317
X172400Y221767
X141000Y212767
X116600Y202567
X92500Y211567
X72500Y202817
X142400Y180967
X162800Y180967
X84800Y169567
X86875Y158442
X61400Y144367
X93800Y133567
X93200Y123367
X116600Y120967
X102200Y108967
X93600Y86167
X88200Y57567
X97400Y51367
X93800Y48367
X101250Y56567
X112400Y50767
X210850Y21667
X277000Y25567
X281000Y33967
X284400Y36967
X302600Y43567
X286600Y47967
X296250Y59067
X293750Y66567
X274550Y59067
X302600Y74767
X297800Y83167
X275400Y89167
X328200Y67167
X326600Y59167
X338600Y46567
X326600Y39967
X375800Y35167
X406250Y29067
X411250Y27817
X416250Y27817
X423750Y27817
X429000Y27167
X462600Y24517
X491000Y20167
X491600Y25567
X497000Y32167
X492200Y39367
X478750Y42817
X509600Y27967
X547400Y32167
X548000Y40567
X570800Y47767
X574350Y57217
X574350Y61567
X596250Y59067
X600000Y57817
X605000Y47817
X638600Y46367
X651800Y36367
X630800Y29767
X615200Y27967
X604400Y32167
X585200Y18367
X566600Y7567
X638000Y15367
X740000Y57817
X721335Y73307
X716535Y75407
X714535Y80307
X726535Y75307
X728435Y80207
X726535Y85307
X721735Y87207
X716635Y85107
X703050Y90317
X675800Y83767
X665000Y91567
X649400Y93367
X649400Y80167
X665000Y73567
X640000Y66567
X555400Y94367
X551200Y94367
X544400Y89167
X536600Y95767
X510800Y104167
X508400Y95167
X492200Y88567
X497000Y84967
X501800Y84967
X509000Y80767
X519800Y87967
X525200Y87967
X497000Y74767
X486200Y77767
X488000Y84367
X463650Y81867
X458000Y84967
X455250Y81867
X448247Y76719
X443000Y72967
X447800Y70367
X454600Y67167
X457500Y70317
X454350Y74067
X465800Y71167
X465000Y65317
X448200Y63967
X443400Y63967
X432200Y59167
X429000Y62367
X423750Y62817
X423850Y67717
X419200Y68767
X411550Y70017
X406250Y70067
X404000Y77167
X429200Y78967
X430400Y74167
X432800Y87967
X435800Y90367
X440000Y91567
X445400Y96967
X446000Y101767
X450800Y103567
X449600Y110767
X452000Y114967
X461000Y110767
X440600Y114967
X424400Y103567
X455000Y96967
X404000Y90967
X371000Y89767
X358600Y94367
X354800Y86167
X351200Y78367
X366600Y79967
X374000Y74167
X415000Y58817
X432200Y54367
X438600Y55967
X487400Y60967
X500000Y64117
X503000Y70567
X525200Y71167
X575600Y99967
X555400Y106767
X551200Y105367
X526400Y110767
X536600Y134167
X529400Y137767
X533000Y144667
X549800Y137167
X554600Y140167
X578000Y135967
X612200Y136567
X644000Y147967
X652500Y151417
X673800Y148167
X682500Y144767
X659600Y138367
X685400Y122767
X657200Y117967
X671600Y107767
X740000Y119067
X795200Y141967
X790400Y146167
X801200Y149167
X828200Y157567
X795200Y168367
X790400Y171967
X777800Y168967
X821600Y174795
X889400Y153367
X945424Y152167
X960800Y156367
X968600Y169567
X964400Y172567
X950600Y176167
X960200Y204967
X960200Y215767
X950600Y226567
X907500Y220317
X832500Y237817
X825000Y249067
X837500Y259067
X873800Y257567
X907400Y259567
X796250Y247817
X765000Y260317
X758737Y278031
X753937Y280131
X751937Y285031
X763937Y280031
X765837Y284931
X763937Y290031
X759137Y291931
X754037Y289831
X690000Y259067
X675200Y242167
X654200Y235567
X633850Y235417
X629600Y235567
X624200Y222367
X654200Y222367
X696200Y231367
X701600Y223567
X696250Y205317
X629600Y201967
X611250Y209067
X544400Y204967
X539600Y210967
X539600Y222967
X489200Y222367
X470000Y220567
X461000Y240967
X436400Y246967
X419600Y243367
X423200Y251767
X401000Y252967
X347500Y257817
X320355Y265246
X318455Y270346
X313655Y272246
X308555Y270146
X306455Y265346
X308455Y260446
X313255Y258346
X318455Y260346
X275000Y257817
X318750Y239067
X326750Y239617
X320000Y225367
X314600Y213367
X331250Y197817
X329200Y192567
X327800Y182167
X329400Y173567
X311250Y170317
X281250Y177817
X342200Y165367
X352200Y171767
X356000Y172567
X360200Y176167
X360200Y162367
X386600Y156367
X399200Y153367
X428000Y158767
X431600Y161767
X438800Y161767
X444200Y161167
X455600Y161167
X482600Y172567
X487500Y171567
X507500Y165317
X507500Y155317
X508750Y151567
X502450Y147817
X487500Y155317
X462200Y134767
X390800Y114367
X371000Y124567
X347400Y131167
X342200Y147367
X329400Y154067
X311250Y146567
X290150Y143967
X288200Y134767
X254600Y150367
X233400Y137167
X235400Y132967
X227600Y131767
X217800Y151967
X149600Y133567
X362000Y103567
X392200Y49567
X591800Y110767
X600000Y100317
X585200Y158767
X595000Y162767
X591800Y168967
X564200Y161767
X565400Y156367
X563750Y175867
X518000Y176167
X401000Y170167
X395000Y189967
X396800Y210367
X395000Y221167
X404600Y227767
X471800Y264367
X464600Y279367
X395000Y279967
X380600Y281767
X371995Y289362
X387200Y297967
X298300Y282867
X240800Y306367
X167480Y282157
X162680Y284057
X157580Y281957
X155480Y277157
X157480Y272257
X162280Y270157
X167480Y272157
X169380Y277057
X201250Y257817
X217500Y235567
X240800Y227767
X253000Y231367
X141000Y232752
X105000Y234067
X83750Y227817
X126250Y257817
X48800Y288967
X542000Y279967
X545000Y259067
X613750Y257817
X765000Y215317
X777800Y201367
X702800Y182167
X682500Y175317
X666200Y177967
X653000Y175567
X645000Y175417
X636250Y177817
X706400Y168967
X706400Y158167
X816200Y111967
X810000Y90317
X833600Y77167
X810000Y57767
X895638Y56685
X897638Y51785
X902438Y49685
X907638Y51685
X909538Y56585
X907638Y61685
X902838Y63585
X897738Y61485
X905600Y134767
T02
X973300Y193167
X978300Y193167
X978300Y198167
X978300Y203167
X973300Y203167
X973300Y198167
X973300Y208167
X978300Y208167
T03
X898701Y280602
X898701Y291429
X602606Y80767
X583394Y80767
X237850Y151160
X237850Y170373
X42756Y158879
X15630Y158879
X15630Y97068
X42756Y97068
X113452Y82767
X121326Y82767
X129200Y82767
X137074Y82767
X144948Y82767
X95551Y280602
X95551Y291429
T04
X483740Y301017
X510512Y301017
T05
X52657Y26842
X62657Y26842
X146161Y26842
X156161Y26842
X239665Y26842
X249665Y26842
X351870Y26842
X361870Y26842
X520177Y26842
X530177Y26842
X669783Y26842
X679783Y26842
X763287Y26842
X773287Y26842
X856791Y26842
X866791Y26842
X940945Y26842
X950945Y26842
X950945Y101645
X940945Y101645
X866791Y101645
X856791Y101645
X912894Y176449
X922894Y176449
X940945Y251252
X950945Y251252
X81358Y101645
X71358Y101645
X62657Y176449
X52657Y176449
X53307Y251252
X43307Y251252
T06
X48172Y228717
X24550Y228717
X67657Y216449
X42657Y206449
X126811Y206449
X151811Y216449
X201614Y206449
X226614Y216449
X276417Y206449
X301417Y216449
X351220Y206449
X376220Y216449
X426024Y206449
X451024Y216449
X500827Y206449
X525827Y216449
X575630Y206449
X600630Y216449
X650433Y206449
X675433Y216449
X725236Y206449
X750236Y216449
X800039Y206449
X825039Y216449
X902894Y206449
X927894Y216449
X861142Y251252
X886142Y261252
X930945Y281252
X955945Y291252
X811339Y261252
X786339Y251252
X736535Y261252
X711535Y251252
X661732Y261252
X636732Y251252
X586929Y261252
X561929Y251252
X512126Y260267
X487126Y250267
X437323Y261252
X412323Y251252
X362520Y261252
X337520Y251252
X287717Y261252
X262717Y251252
X212913Y261252
X187913Y251252
X138110Y261252
X113110Y251252
X33307Y281252
X58307Y291252
X86358Y141645
X61358Y131645
X169213Y101645
X194213Y111645
X244016Y101645
X269016Y111645
X318819Y101645
X343819Y111645
X393622Y101645
X418622Y111645
X468425Y101645
X493425Y111645
X543228Y101645
X568228Y111645
X618031Y101645
X643031Y111645
X692835Y101645
X717835Y111645
X767638Y101645
X792638Y111645
X846791Y131645
X871791Y141645
X930945Y131645
X955945Y141645
X955945Y66842
X930945Y56842
X871791Y66842
X846791Y56842
X778287Y66842
X753287Y56842
X684783Y66842
X659783Y56842
X535177Y66842
X510177Y56842
X366870Y66842
X341870Y56842
X254665Y66842
X229665Y56842
X161161Y66842
X136161Y56842
X67657Y66842
X42657Y56842
T07
X197913Y60622
X721535Y80307
X902638Y56685
X313455Y265346
X162480Y277157
X758937Y285031
T08
X721535Y271252
X796339Y271252
X871142Y271252
X945945Y271252
X917894Y196449
X815039Y196449
X740236Y196449
X665433Y196449
X590630Y196449
X515827Y196449
X441024Y196449
X366220Y196449
X291417Y196449
X216614Y196449
X141811Y196449
X57657Y196449
X48307Y271252
X123110Y271252
X197913Y271252
X272717Y271252
X347520Y271252
X422323Y271252
X497126Y270267
X571929Y271252
X646732Y271252
X628031Y121645
X702835Y121645
X777638Y121645
X861791Y121645
X945945Y121645
X945945Y46842
X861791Y46842
X768287Y46842
X674783Y46842
X525177Y46842
X356870Y46842
X244665Y46842
X151161Y46842
X57657Y46842
X76358Y121645
X179213Y121645
X254016Y121645
X328819Y121645
X403622Y121645
X478425Y121645
X553228Y121645
M30
