G75*
%MOIN*%
%OFA0B0*%
%FSLAX25Y25*%
%IPPOS*%
%LPD*%
%AMOC8*
5,1,8,0,0,1.08239X$1,22.5*
%
%ADD10R,0.01969X0.01969*%
%ADD11R,0.05000X0.04500*%
%ADD12R,0.04500X0.05000*%
%ADD13R,0.00787X0.03937*%
%ADD14R,0.03937X0.00787*%
%ADD15R,0.02756X0.05512*%
%ADD16R,0.04724X0.17323*%
%ADD17R,0.05512X0.17323*%
%ADD18R,0.01575X0.05906*%
%ADD19R,0.08800X0.04800*%
%ADD20R,0.08661X0.14173*%
%ADD21R,0.11811X0.03937*%
%ADD22R,0.06693X0.06693*%
%ADD23R,0.07874X0.04724*%
%ADD24R,0.03445X0.00984*%
%ADD25R,0.00984X0.03445*%
%ADD26R,0.06102X0.03937*%
%ADD27R,0.04724X0.09646*%
%ADD28R,0.01575X0.05512*%
%ADD29R,0.01969X0.03150*%
D10*
X0047008Y0066842D03*
X0055669Y0066842D03*
X0140069Y0068092D03*
X0148730Y0068092D03*
X0235413Y0067748D03*
X0244075Y0067748D03*
X0274789Y0094141D03*
X0274789Y0102803D03*
X0212175Y0111006D03*
X0203514Y0111006D03*
X0073999Y0145950D03*
X0065337Y0145950D03*
X0081470Y0208260D03*
X0090131Y0208260D03*
X0130020Y0216960D03*
X0138681Y0216960D03*
X0207520Y0216960D03*
X0216181Y0216960D03*
X0257569Y0207423D03*
X0266230Y0207423D03*
X0330856Y0207718D03*
X0339518Y0207718D03*
X0399964Y0208211D03*
X0408626Y0208211D03*
X0480364Y0207561D03*
X0489026Y0207561D03*
X0554114Y0207561D03*
X0562776Y0207561D03*
X0629311Y0207384D03*
X0637972Y0207384D03*
X0705561Y0206134D03*
X0714222Y0206134D03*
X0781181Y0206567D03*
X0789843Y0206567D03*
X0883396Y0207462D03*
X0892057Y0207462D03*
X0881486Y0249264D03*
X0872825Y0249264D03*
X0903600Y0264636D03*
X0920998Y0256798D03*
X0920998Y0248136D03*
X0903600Y0273297D03*
X0830925Y0260120D03*
X0822264Y0260120D03*
X0755925Y0260120D03*
X0747264Y0260120D03*
X0680925Y0260120D03*
X0672264Y0260120D03*
X0605157Y0257974D03*
X0596496Y0257974D03*
X0531407Y0259224D03*
X0522746Y0259224D03*
X0474131Y0288167D03*
X0465469Y0288167D03*
X0521219Y0290267D03*
X0529881Y0290267D03*
X0399354Y0259159D03*
X0390693Y0259159D03*
X0358504Y0248909D03*
X0349843Y0248909D03*
X0282254Y0248909D03*
X0273593Y0248909D03*
X0211004Y0250159D03*
X0202343Y0250159D03*
X0134754Y0247659D03*
X0126093Y0247659D03*
X0089600Y0264836D03*
X0089600Y0273497D03*
X0043444Y0295751D03*
X0034782Y0295751D03*
X0376269Y0129967D03*
X0384931Y0129967D03*
X0384486Y0110678D03*
X0375825Y0110678D03*
X0365925Y0111006D03*
X0357264Y0111006D03*
X0341449Y0078331D03*
X0341449Y0069670D03*
X0503514Y0111006D03*
X0512175Y0111006D03*
X0579764Y0111006D03*
X0588425Y0111006D03*
X0656014Y0111006D03*
X0664675Y0111006D03*
X0731102Y0110454D03*
X0739764Y0110454D03*
X0803602Y0109204D03*
X0812264Y0109204D03*
X0915336Y0144479D03*
X0923998Y0144479D03*
X0854664Y0147004D03*
X0846002Y0147004D03*
X0857372Y0070514D03*
X0857372Y0061852D03*
X0936742Y0066488D03*
X0945404Y0066488D03*
X0767116Y0066517D03*
X0758455Y0066517D03*
X0673465Y0066517D03*
X0664803Y0066517D03*
X0521075Y0070698D03*
X0512413Y0070698D03*
D11*
X0492300Y0056267D03*
X0482500Y0056317D03*
X0482500Y0048817D03*
X0492300Y0048767D03*
X0482500Y0037567D03*
X0473750Y0037567D03*
X0466250Y0037567D03*
X0466250Y0030067D03*
X0473750Y0030067D03*
X0482500Y0030067D03*
X0591200Y0023717D03*
X0600800Y0023517D03*
X0609600Y0023517D03*
X0618800Y0023717D03*
X0628200Y0023517D03*
X0628200Y0016017D03*
X0618800Y0016217D03*
X0609600Y0016017D03*
X0600800Y0016017D03*
X0591200Y0016217D03*
X0423750Y0077567D03*
X0415000Y0077567D03*
X0415000Y0085067D03*
X0423750Y0085067D03*
X0479850Y0087867D03*
X0479850Y0095367D03*
X0535950Y0152667D03*
X0527350Y0153017D03*
X0515950Y0153017D03*
X0515950Y0160517D03*
X0527350Y0160517D03*
X0535950Y0160167D03*
X0482100Y0162817D03*
X0482100Y0155317D03*
X0606450Y0161567D03*
X0606450Y0169067D03*
X0620200Y0169067D03*
X0636450Y0169067D03*
X0636450Y0161567D03*
X0620200Y0161567D03*
X0647700Y0161567D03*
X0658950Y0161567D03*
X0670200Y0161567D03*
X0682700Y0161567D03*
X0696450Y0161567D03*
X0696450Y0169067D03*
X0682700Y0169067D03*
X0670200Y0169067D03*
X0658950Y0169067D03*
X0647700Y0169067D03*
X0387300Y0280417D03*
X0387300Y0287917D03*
X0196850Y0194567D03*
X0196850Y0187067D03*
X0165050Y0175267D03*
X0156650Y0175267D03*
X0156650Y0167767D03*
X0165050Y0167767D03*
X0165050Y0160717D03*
X0156650Y0160717D03*
X0156650Y0153217D03*
X0165050Y0153217D03*
X0166200Y0141417D03*
X0157100Y0141417D03*
X0157100Y0133917D03*
X0166200Y0133917D03*
X0189800Y0133917D03*
X0197300Y0133917D03*
X0204800Y0132317D03*
X0212850Y0132317D03*
X0212850Y0139817D03*
X0204800Y0139817D03*
X0197300Y0141417D03*
X0189800Y0141417D03*
X0224600Y0158617D03*
X0224600Y0166117D03*
X0318600Y0164217D03*
X0318600Y0171717D03*
X0318600Y0154117D03*
X0318600Y0146617D03*
D12*
X0267950Y0150567D03*
X0260450Y0150567D03*
X0225550Y0146967D03*
X0218050Y0146967D03*
X0183250Y0136067D03*
X0175750Y0136067D03*
X0218200Y0179017D03*
X0225700Y0179017D03*
X0156500Y0183067D03*
X0149000Y0183067D03*
X0376850Y0140767D03*
X0384350Y0140767D03*
X0384350Y0120367D03*
X0376850Y0120367D03*
X0317350Y0066767D03*
X0309850Y0066767D03*
X0309850Y0059567D03*
X0317350Y0059567D03*
X0317350Y0052367D03*
X0309850Y0052367D03*
X0309850Y0043567D03*
X0317350Y0043567D03*
X0317350Y0034767D03*
X0309850Y0034767D03*
X0309850Y0025967D03*
X0317350Y0025967D03*
X0398750Y0037567D03*
X0406250Y0037567D03*
X0406250Y0045067D03*
X0398750Y0045067D03*
X0418750Y0045067D03*
X0426250Y0045067D03*
X0426250Y0037567D03*
X0418750Y0037567D03*
X0418750Y0053817D03*
X0426250Y0053817D03*
X0423450Y0021967D03*
X0430950Y0021967D03*
X0441050Y0021167D03*
X0448550Y0021167D03*
X0553250Y0033967D03*
X0560750Y0033967D03*
X0625250Y0037567D03*
X0632750Y0037567D03*
X0632750Y0044767D03*
X0625250Y0044767D03*
X0625250Y0053567D03*
X0632750Y0053567D03*
X0632750Y0062367D03*
X0625250Y0062367D03*
X0625250Y0071167D03*
X0632750Y0071167D03*
X0632750Y0079967D03*
X0625250Y0079967D03*
X0607150Y0093767D03*
X0599650Y0093767D03*
X0589150Y0094167D03*
X0581650Y0094167D03*
X0571550Y0093567D03*
X0564050Y0093567D03*
X0560150Y0082517D03*
X0552650Y0082517D03*
X0552300Y0074917D03*
X0559800Y0074917D03*
X0560150Y0066967D03*
X0552650Y0066967D03*
X0552650Y0058567D03*
X0560150Y0058567D03*
X0657200Y0122967D03*
X0664700Y0122967D03*
X0395450Y0200167D03*
X0387950Y0200167D03*
D13*
X0442923Y0090283D03*
X0444892Y0090283D03*
X0446860Y0090283D03*
X0448829Y0090283D03*
X0450797Y0090283D03*
X0452766Y0090283D03*
X0454734Y0090283D03*
X0456703Y0090283D03*
X0458671Y0090283D03*
X0460640Y0090283D03*
X0462608Y0090283D03*
X0464577Y0090283D03*
X0464577Y0054850D03*
X0462608Y0054850D03*
X0460640Y0054850D03*
X0458671Y0054850D03*
X0456703Y0054850D03*
X0454734Y0054850D03*
X0452766Y0054850D03*
X0450797Y0054850D03*
X0448829Y0054850D03*
X0446860Y0054850D03*
X0444892Y0054850D03*
X0442923Y0054850D03*
D14*
X0436033Y0061740D03*
X0436033Y0063708D03*
X0436033Y0065677D03*
X0436033Y0067645D03*
X0436033Y0069614D03*
X0436033Y0071582D03*
X0436033Y0073551D03*
X0436033Y0075519D03*
X0436033Y0077488D03*
X0436033Y0079456D03*
X0436033Y0081425D03*
X0436033Y0083393D03*
X0471467Y0083393D03*
X0471467Y0081425D03*
X0471467Y0079456D03*
X0471467Y0077488D03*
X0471467Y0075519D03*
X0471467Y0073551D03*
X0471467Y0071582D03*
X0471467Y0069614D03*
X0471467Y0067645D03*
X0471467Y0065677D03*
X0471467Y0063708D03*
X0471467Y0061740D03*
D15*
X0472953Y0043817D03*
X0467047Y0043817D03*
D16*
X0456093Y0038817D03*
X0436407Y0038817D03*
D17*
X0446250Y0038817D03*
D18*
X0579766Y0038095D03*
X0582325Y0038095D03*
X0584884Y0038095D03*
X0587443Y0038095D03*
X0590002Y0038095D03*
X0592561Y0038095D03*
X0595120Y0038095D03*
X0597680Y0038095D03*
X0600239Y0038095D03*
X0602798Y0038095D03*
X0605357Y0038095D03*
X0607916Y0038095D03*
X0610475Y0038095D03*
X0613034Y0038095D03*
X0613034Y0066638D03*
X0610475Y0066638D03*
X0607916Y0066638D03*
X0605357Y0066638D03*
X0602798Y0066638D03*
X0600239Y0066638D03*
X0597680Y0066638D03*
X0595120Y0066638D03*
X0592561Y0066638D03*
X0590002Y0066638D03*
X0587443Y0066638D03*
X0584884Y0066638D03*
X0582325Y0066638D03*
X0579766Y0066638D03*
X0208034Y0149695D03*
X0205475Y0149695D03*
X0202916Y0149695D03*
X0200357Y0149695D03*
X0197798Y0149695D03*
X0195239Y0149695D03*
X0192680Y0149695D03*
X0190120Y0149695D03*
X0187561Y0149695D03*
X0185002Y0149695D03*
X0182443Y0149695D03*
X0179884Y0149695D03*
X0177325Y0149695D03*
X0174766Y0149695D03*
X0174766Y0178238D03*
X0177325Y0178238D03*
X0179884Y0178238D03*
X0182443Y0178238D03*
X0185002Y0178238D03*
X0187561Y0178238D03*
X0190120Y0178238D03*
X0192680Y0178238D03*
X0195239Y0178238D03*
X0197798Y0178238D03*
X0200357Y0178238D03*
X0202916Y0178238D03*
X0205475Y0178238D03*
X0208034Y0178238D03*
D19*
X0303600Y0170267D03*
X0303600Y0161167D03*
X0303600Y0152067D03*
D20*
X0279199Y0161167D03*
D21*
X0182950Y0198767D03*
X0162950Y0198767D03*
X0134800Y0174817D03*
X0114800Y0174817D03*
X0113900Y0146617D03*
X0133900Y0146617D03*
X0163000Y0227767D03*
X0183000Y0227767D03*
D22*
X0047778Y0216118D03*
X0033999Y0216118D03*
X0021400Y0216118D03*
X0021400Y0241315D03*
X0033999Y0241315D03*
X0047778Y0241315D03*
D23*
X0049764Y0141753D03*
X0049764Y0131911D03*
X0049764Y0124037D03*
X0049764Y0114194D03*
D24*
X0491762Y0153141D03*
X0491762Y0155110D03*
X0491762Y0157078D03*
X0491762Y0159047D03*
X0491762Y0161015D03*
X0491762Y0162984D03*
X0491762Y0164952D03*
X0502490Y0164952D03*
X0502490Y0162984D03*
X0502490Y0161015D03*
X0502490Y0159047D03*
X0502490Y0157078D03*
X0502490Y0155110D03*
X0502490Y0153141D03*
D25*
X0499094Y0150730D03*
X0497126Y0150730D03*
X0495157Y0150730D03*
X0495157Y0167364D03*
X0497126Y0167364D03*
X0499094Y0167364D03*
D26*
X0885315Y0282669D03*
X0885315Y0289362D03*
X0912087Y0289362D03*
X0912087Y0282669D03*
X0108937Y0282669D03*
X0108937Y0289362D03*
X0082165Y0289362D03*
X0082165Y0282669D03*
D27*
X0487283Y0288910D03*
X0497126Y0288910D03*
X0506969Y0288910D03*
D28*
X0451957Y0151752D03*
X0449398Y0151752D03*
X0446839Y0151752D03*
X0444280Y0151752D03*
X0441720Y0151752D03*
X0439161Y0151752D03*
X0436602Y0151752D03*
X0434043Y0151752D03*
X0434043Y0124981D03*
X0436602Y0124981D03*
X0439161Y0124981D03*
X0441720Y0124981D03*
X0444280Y0124981D03*
X0446839Y0124981D03*
X0449398Y0124981D03*
X0451957Y0124981D03*
D29*
X0553841Y0051497D03*
X0558959Y0051497D03*
X0556400Y0042836D03*
M02*
