G75*
%MOIN*%
%OFA0B0*%
%FSLAX25Y25*%
%IPPOS*%
%LPD*%
%AMOC8*
5,1,8,0,0,1.08239X$1,22.5*
%
%ADD10C,0.10000*%
%ADD11C,0.06600*%
%ADD12C,0.05150*%
%ADD13R,0.05150X0.05150*%
%ADD14C,0.06600*%
%ADD15C,0.03969*%
%ADD16C,0.03937*%
%ADD17C,0.03200*%
%ADD18C,0.02800*%
%ADD19C,0.01600*%
%ADD20C,0.00600*%
%ADD21C,0.01200*%
D10*
X0042657Y0056842D03*
X0067657Y0066842D03*
X0136161Y0056842D03*
X0161161Y0066842D03*
X0229665Y0056842D03*
X0254665Y0066842D03*
X0341870Y0056842D03*
X0366870Y0066842D03*
X0393622Y0101645D03*
X0418622Y0111645D03*
X0468425Y0101645D03*
X0493425Y0111645D03*
X0543228Y0101645D03*
X0568228Y0111645D03*
X0618031Y0101645D03*
X0643031Y0111645D03*
X0692835Y0101645D03*
X0717835Y0111645D03*
X0767638Y0101645D03*
X0792638Y0111645D03*
X0846791Y0131645D03*
X0871791Y0141645D03*
X0930945Y0131645D03*
X0955945Y0141645D03*
X0902894Y0206449D03*
X0927894Y0216449D03*
X0861142Y0251252D03*
X0886142Y0261252D03*
X0930945Y0281252D03*
X0955945Y0291252D03*
X0811339Y0261252D03*
X0786339Y0251252D03*
X0736535Y0261252D03*
X0711535Y0251252D03*
X0661732Y0261252D03*
X0636732Y0251252D03*
X0586929Y0261252D03*
X0561929Y0251252D03*
X0512126Y0260267D03*
X0487126Y0250267D03*
X0437323Y0261252D03*
X0412323Y0251252D03*
X0362520Y0261252D03*
X0337520Y0251252D03*
X0287717Y0261252D03*
X0262717Y0251252D03*
X0212913Y0261252D03*
X0187913Y0251252D03*
X0138110Y0261252D03*
X0113110Y0251252D03*
X0033307Y0281252D03*
X0058307Y0291252D03*
X0067657Y0216449D03*
X0042657Y0206449D03*
X0126811Y0206449D03*
X0151811Y0216449D03*
X0201614Y0206449D03*
X0226614Y0216449D03*
X0276417Y0206449D03*
X0301417Y0216449D03*
X0351220Y0206449D03*
X0376220Y0216449D03*
X0426024Y0206449D03*
X0451024Y0216449D03*
X0500827Y0206449D03*
X0525827Y0216449D03*
X0575630Y0206449D03*
X0600630Y0216449D03*
X0650433Y0206449D03*
X0675433Y0216449D03*
X0725236Y0206449D03*
X0750236Y0216449D03*
X0800039Y0206449D03*
X0825039Y0216449D03*
X0778287Y0066842D03*
X0753287Y0056842D03*
X0684783Y0066842D03*
X0659783Y0056842D03*
X0535177Y0066842D03*
X0510177Y0056842D03*
X0343819Y0111645D03*
X0318819Y0101645D03*
X0269016Y0111645D03*
X0244016Y0101645D03*
X0194213Y0111645D03*
X0169213Y0101645D03*
X0061358Y0131645D03*
X0086358Y0141645D03*
X0846791Y0056842D03*
X0871791Y0066842D03*
X0930945Y0056842D03*
X0955945Y0066842D03*
D11*
X0052657Y0026842D03*
X0062657Y0026842D03*
X0146161Y0026842D03*
X0156161Y0026842D03*
X0239665Y0026842D03*
X0249665Y0026842D03*
X0351870Y0026842D03*
X0361870Y0026842D03*
X0520177Y0026842D03*
X0530177Y0026842D03*
X0669783Y0026842D03*
X0679783Y0026842D03*
X0763287Y0026842D03*
X0773287Y0026842D03*
X0856791Y0026842D03*
X0866791Y0026842D03*
X0940945Y0026842D03*
X0950945Y0026842D03*
X0950945Y0101645D03*
X0940945Y0101645D03*
X0866791Y0101645D03*
X0856791Y0101645D03*
X0912894Y0176449D03*
X0922894Y0176449D03*
X0940945Y0251252D03*
X0950945Y0251252D03*
X0081358Y0101645D03*
X0071358Y0101645D03*
X0062657Y0176449D03*
X0052657Y0176449D03*
X0053307Y0251252D03*
X0043307Y0251252D03*
D12*
X0237850Y0170373D03*
X0237850Y0151160D03*
X0144948Y0082767D03*
X0137074Y0082767D03*
X0129200Y0082767D03*
X0121326Y0082767D03*
X0583394Y0080767D03*
X0602606Y0080767D03*
D13*
X0113452Y0082767D03*
D14*
X0046056Y0097068D02*
X0039456Y0097068D01*
X0018930Y0097068D02*
X0012330Y0097068D01*
X0012330Y0158879D02*
X0018930Y0158879D01*
X0039456Y0158879D02*
X0046056Y0158879D01*
D15*
X0973300Y0193167D03*
X0978300Y0193167D03*
X0978300Y0198167D03*
X0978300Y0203167D03*
X0973300Y0203167D03*
X0973300Y0198167D03*
X0973300Y0208167D03*
X0978300Y0208167D03*
D16*
X0751850Y0285031D02*
X0751852Y0285205D01*
X0751859Y0285379D01*
X0751869Y0285552D01*
X0751884Y0285726D01*
X0751903Y0285899D01*
X0751927Y0286071D01*
X0751954Y0286243D01*
X0751986Y0286414D01*
X0752022Y0286584D01*
X0752062Y0286753D01*
X0752107Y0286921D01*
X0752155Y0287088D01*
X0752208Y0287254D01*
X0752264Y0287419D01*
X0752325Y0287582D01*
X0752389Y0287743D01*
X0752458Y0287903D01*
X0752530Y0288061D01*
X0752607Y0288217D01*
X0752687Y0288372D01*
X0752771Y0288524D01*
X0752858Y0288674D01*
X0752950Y0288823D01*
X0753044Y0288968D01*
X0753143Y0289112D01*
X0753245Y0289253D01*
X0753350Y0289391D01*
X0753459Y0289527D01*
X0753571Y0289660D01*
X0753686Y0289790D01*
X0753804Y0289918D01*
X0753926Y0290042D01*
X0754050Y0290164D01*
X0754178Y0290282D01*
X0754308Y0290397D01*
X0754441Y0290509D01*
X0754577Y0290618D01*
X0754715Y0290723D01*
X0754856Y0290825D01*
X0755000Y0290924D01*
X0755145Y0291018D01*
X0755294Y0291110D01*
X0755444Y0291197D01*
X0755596Y0291281D01*
X0755751Y0291361D01*
X0755907Y0291438D01*
X0756065Y0291510D01*
X0756225Y0291579D01*
X0756386Y0291643D01*
X0756549Y0291704D01*
X0756714Y0291760D01*
X0756880Y0291813D01*
X0757047Y0291861D01*
X0757215Y0291906D01*
X0757384Y0291946D01*
X0757554Y0291982D01*
X0757725Y0292014D01*
X0757897Y0292041D01*
X0758069Y0292065D01*
X0758242Y0292084D01*
X0758416Y0292099D01*
X0758589Y0292109D01*
X0758763Y0292116D01*
X0758937Y0292118D01*
X0759111Y0292116D01*
X0759285Y0292109D01*
X0759458Y0292099D01*
X0759632Y0292084D01*
X0759805Y0292065D01*
X0759977Y0292041D01*
X0760149Y0292014D01*
X0760320Y0291982D01*
X0760490Y0291946D01*
X0760659Y0291906D01*
X0760827Y0291861D01*
X0760994Y0291813D01*
X0761160Y0291760D01*
X0761325Y0291704D01*
X0761488Y0291643D01*
X0761649Y0291579D01*
X0761809Y0291510D01*
X0761967Y0291438D01*
X0762123Y0291361D01*
X0762278Y0291281D01*
X0762430Y0291197D01*
X0762580Y0291110D01*
X0762729Y0291018D01*
X0762874Y0290924D01*
X0763018Y0290825D01*
X0763159Y0290723D01*
X0763297Y0290618D01*
X0763433Y0290509D01*
X0763566Y0290397D01*
X0763696Y0290282D01*
X0763824Y0290164D01*
X0763948Y0290042D01*
X0764070Y0289918D01*
X0764188Y0289790D01*
X0764303Y0289660D01*
X0764415Y0289527D01*
X0764524Y0289391D01*
X0764629Y0289253D01*
X0764731Y0289112D01*
X0764830Y0288968D01*
X0764924Y0288823D01*
X0765016Y0288674D01*
X0765103Y0288524D01*
X0765187Y0288372D01*
X0765267Y0288217D01*
X0765344Y0288061D01*
X0765416Y0287903D01*
X0765485Y0287743D01*
X0765549Y0287582D01*
X0765610Y0287419D01*
X0765666Y0287254D01*
X0765719Y0287088D01*
X0765767Y0286921D01*
X0765812Y0286753D01*
X0765852Y0286584D01*
X0765888Y0286414D01*
X0765920Y0286243D01*
X0765947Y0286071D01*
X0765971Y0285899D01*
X0765990Y0285726D01*
X0766005Y0285552D01*
X0766015Y0285379D01*
X0766022Y0285205D01*
X0766024Y0285031D01*
X0766022Y0284857D01*
X0766015Y0284683D01*
X0766005Y0284510D01*
X0765990Y0284336D01*
X0765971Y0284163D01*
X0765947Y0283991D01*
X0765920Y0283819D01*
X0765888Y0283648D01*
X0765852Y0283478D01*
X0765812Y0283309D01*
X0765767Y0283141D01*
X0765719Y0282974D01*
X0765666Y0282808D01*
X0765610Y0282643D01*
X0765549Y0282480D01*
X0765485Y0282319D01*
X0765416Y0282159D01*
X0765344Y0282001D01*
X0765267Y0281845D01*
X0765187Y0281690D01*
X0765103Y0281538D01*
X0765016Y0281388D01*
X0764924Y0281239D01*
X0764830Y0281094D01*
X0764731Y0280950D01*
X0764629Y0280809D01*
X0764524Y0280671D01*
X0764415Y0280535D01*
X0764303Y0280402D01*
X0764188Y0280272D01*
X0764070Y0280144D01*
X0763948Y0280020D01*
X0763824Y0279898D01*
X0763696Y0279780D01*
X0763566Y0279665D01*
X0763433Y0279553D01*
X0763297Y0279444D01*
X0763159Y0279339D01*
X0763018Y0279237D01*
X0762874Y0279138D01*
X0762729Y0279044D01*
X0762580Y0278952D01*
X0762430Y0278865D01*
X0762278Y0278781D01*
X0762123Y0278701D01*
X0761967Y0278624D01*
X0761809Y0278552D01*
X0761649Y0278483D01*
X0761488Y0278419D01*
X0761325Y0278358D01*
X0761160Y0278302D01*
X0760994Y0278249D01*
X0760827Y0278201D01*
X0760659Y0278156D01*
X0760490Y0278116D01*
X0760320Y0278080D01*
X0760149Y0278048D01*
X0759977Y0278021D01*
X0759805Y0277997D01*
X0759632Y0277978D01*
X0759458Y0277963D01*
X0759285Y0277953D01*
X0759111Y0277946D01*
X0758937Y0277944D01*
X0758763Y0277946D01*
X0758589Y0277953D01*
X0758416Y0277963D01*
X0758242Y0277978D01*
X0758069Y0277997D01*
X0757897Y0278021D01*
X0757725Y0278048D01*
X0757554Y0278080D01*
X0757384Y0278116D01*
X0757215Y0278156D01*
X0757047Y0278201D01*
X0756880Y0278249D01*
X0756714Y0278302D01*
X0756549Y0278358D01*
X0756386Y0278419D01*
X0756225Y0278483D01*
X0756065Y0278552D01*
X0755907Y0278624D01*
X0755751Y0278701D01*
X0755596Y0278781D01*
X0755444Y0278865D01*
X0755294Y0278952D01*
X0755145Y0279044D01*
X0755000Y0279138D01*
X0754856Y0279237D01*
X0754715Y0279339D01*
X0754577Y0279444D01*
X0754441Y0279553D01*
X0754308Y0279665D01*
X0754178Y0279780D01*
X0754050Y0279898D01*
X0753926Y0280020D01*
X0753804Y0280144D01*
X0753686Y0280272D01*
X0753571Y0280402D01*
X0753459Y0280535D01*
X0753350Y0280671D01*
X0753245Y0280809D01*
X0753143Y0280950D01*
X0753044Y0281094D01*
X0752950Y0281239D01*
X0752858Y0281388D01*
X0752771Y0281538D01*
X0752687Y0281690D01*
X0752607Y0281845D01*
X0752530Y0282001D01*
X0752458Y0282159D01*
X0752389Y0282319D01*
X0752325Y0282480D01*
X0752264Y0282643D01*
X0752208Y0282808D01*
X0752155Y0282974D01*
X0752107Y0283141D01*
X0752062Y0283309D01*
X0752022Y0283478D01*
X0751986Y0283648D01*
X0751954Y0283819D01*
X0751927Y0283991D01*
X0751903Y0284163D01*
X0751884Y0284336D01*
X0751869Y0284510D01*
X0751859Y0284683D01*
X0751852Y0284857D01*
X0751850Y0285031D01*
X0306368Y0265346D02*
X0306370Y0265520D01*
X0306377Y0265694D01*
X0306387Y0265867D01*
X0306402Y0266041D01*
X0306421Y0266214D01*
X0306445Y0266386D01*
X0306472Y0266558D01*
X0306504Y0266729D01*
X0306540Y0266899D01*
X0306580Y0267068D01*
X0306625Y0267236D01*
X0306673Y0267403D01*
X0306726Y0267569D01*
X0306782Y0267734D01*
X0306843Y0267897D01*
X0306907Y0268058D01*
X0306976Y0268218D01*
X0307048Y0268376D01*
X0307125Y0268532D01*
X0307205Y0268687D01*
X0307289Y0268839D01*
X0307376Y0268989D01*
X0307468Y0269138D01*
X0307562Y0269283D01*
X0307661Y0269427D01*
X0307763Y0269568D01*
X0307868Y0269706D01*
X0307977Y0269842D01*
X0308089Y0269975D01*
X0308204Y0270105D01*
X0308322Y0270233D01*
X0308444Y0270357D01*
X0308568Y0270479D01*
X0308696Y0270597D01*
X0308826Y0270712D01*
X0308959Y0270824D01*
X0309095Y0270933D01*
X0309233Y0271038D01*
X0309374Y0271140D01*
X0309518Y0271239D01*
X0309663Y0271333D01*
X0309812Y0271425D01*
X0309962Y0271512D01*
X0310114Y0271596D01*
X0310269Y0271676D01*
X0310425Y0271753D01*
X0310583Y0271825D01*
X0310743Y0271894D01*
X0310904Y0271958D01*
X0311067Y0272019D01*
X0311232Y0272075D01*
X0311398Y0272128D01*
X0311565Y0272176D01*
X0311733Y0272221D01*
X0311902Y0272261D01*
X0312072Y0272297D01*
X0312243Y0272329D01*
X0312415Y0272356D01*
X0312587Y0272380D01*
X0312760Y0272399D01*
X0312934Y0272414D01*
X0313107Y0272424D01*
X0313281Y0272431D01*
X0313455Y0272433D01*
X0313629Y0272431D01*
X0313803Y0272424D01*
X0313976Y0272414D01*
X0314150Y0272399D01*
X0314323Y0272380D01*
X0314495Y0272356D01*
X0314667Y0272329D01*
X0314838Y0272297D01*
X0315008Y0272261D01*
X0315177Y0272221D01*
X0315345Y0272176D01*
X0315512Y0272128D01*
X0315678Y0272075D01*
X0315843Y0272019D01*
X0316006Y0271958D01*
X0316167Y0271894D01*
X0316327Y0271825D01*
X0316485Y0271753D01*
X0316641Y0271676D01*
X0316796Y0271596D01*
X0316948Y0271512D01*
X0317098Y0271425D01*
X0317247Y0271333D01*
X0317392Y0271239D01*
X0317536Y0271140D01*
X0317677Y0271038D01*
X0317815Y0270933D01*
X0317951Y0270824D01*
X0318084Y0270712D01*
X0318214Y0270597D01*
X0318342Y0270479D01*
X0318466Y0270357D01*
X0318588Y0270233D01*
X0318706Y0270105D01*
X0318821Y0269975D01*
X0318933Y0269842D01*
X0319042Y0269706D01*
X0319147Y0269568D01*
X0319249Y0269427D01*
X0319348Y0269283D01*
X0319442Y0269138D01*
X0319534Y0268989D01*
X0319621Y0268839D01*
X0319705Y0268687D01*
X0319785Y0268532D01*
X0319862Y0268376D01*
X0319934Y0268218D01*
X0320003Y0268058D01*
X0320067Y0267897D01*
X0320128Y0267734D01*
X0320184Y0267569D01*
X0320237Y0267403D01*
X0320285Y0267236D01*
X0320330Y0267068D01*
X0320370Y0266899D01*
X0320406Y0266729D01*
X0320438Y0266558D01*
X0320465Y0266386D01*
X0320489Y0266214D01*
X0320508Y0266041D01*
X0320523Y0265867D01*
X0320533Y0265694D01*
X0320540Y0265520D01*
X0320542Y0265346D01*
X0320540Y0265172D01*
X0320533Y0264998D01*
X0320523Y0264825D01*
X0320508Y0264651D01*
X0320489Y0264478D01*
X0320465Y0264306D01*
X0320438Y0264134D01*
X0320406Y0263963D01*
X0320370Y0263793D01*
X0320330Y0263624D01*
X0320285Y0263456D01*
X0320237Y0263289D01*
X0320184Y0263123D01*
X0320128Y0262958D01*
X0320067Y0262795D01*
X0320003Y0262634D01*
X0319934Y0262474D01*
X0319862Y0262316D01*
X0319785Y0262160D01*
X0319705Y0262005D01*
X0319621Y0261853D01*
X0319534Y0261703D01*
X0319442Y0261554D01*
X0319348Y0261409D01*
X0319249Y0261265D01*
X0319147Y0261124D01*
X0319042Y0260986D01*
X0318933Y0260850D01*
X0318821Y0260717D01*
X0318706Y0260587D01*
X0318588Y0260459D01*
X0318466Y0260335D01*
X0318342Y0260213D01*
X0318214Y0260095D01*
X0318084Y0259980D01*
X0317951Y0259868D01*
X0317815Y0259759D01*
X0317677Y0259654D01*
X0317536Y0259552D01*
X0317392Y0259453D01*
X0317247Y0259359D01*
X0317098Y0259267D01*
X0316948Y0259180D01*
X0316796Y0259096D01*
X0316641Y0259016D01*
X0316485Y0258939D01*
X0316327Y0258867D01*
X0316167Y0258798D01*
X0316006Y0258734D01*
X0315843Y0258673D01*
X0315678Y0258617D01*
X0315512Y0258564D01*
X0315345Y0258516D01*
X0315177Y0258471D01*
X0315008Y0258431D01*
X0314838Y0258395D01*
X0314667Y0258363D01*
X0314495Y0258336D01*
X0314323Y0258312D01*
X0314150Y0258293D01*
X0313976Y0258278D01*
X0313803Y0258268D01*
X0313629Y0258261D01*
X0313455Y0258259D01*
X0313281Y0258261D01*
X0313107Y0258268D01*
X0312934Y0258278D01*
X0312760Y0258293D01*
X0312587Y0258312D01*
X0312415Y0258336D01*
X0312243Y0258363D01*
X0312072Y0258395D01*
X0311902Y0258431D01*
X0311733Y0258471D01*
X0311565Y0258516D01*
X0311398Y0258564D01*
X0311232Y0258617D01*
X0311067Y0258673D01*
X0310904Y0258734D01*
X0310743Y0258798D01*
X0310583Y0258867D01*
X0310425Y0258939D01*
X0310269Y0259016D01*
X0310114Y0259096D01*
X0309962Y0259180D01*
X0309812Y0259267D01*
X0309663Y0259359D01*
X0309518Y0259453D01*
X0309374Y0259552D01*
X0309233Y0259654D01*
X0309095Y0259759D01*
X0308959Y0259868D01*
X0308826Y0259980D01*
X0308696Y0260095D01*
X0308568Y0260213D01*
X0308444Y0260335D01*
X0308322Y0260459D01*
X0308204Y0260587D01*
X0308089Y0260717D01*
X0307977Y0260850D01*
X0307868Y0260986D01*
X0307763Y0261124D01*
X0307661Y0261265D01*
X0307562Y0261409D01*
X0307468Y0261554D01*
X0307376Y0261703D01*
X0307289Y0261853D01*
X0307205Y0262005D01*
X0307125Y0262160D01*
X0307048Y0262316D01*
X0306976Y0262474D01*
X0306907Y0262634D01*
X0306843Y0262795D01*
X0306782Y0262958D01*
X0306726Y0263123D01*
X0306673Y0263289D01*
X0306625Y0263456D01*
X0306580Y0263624D01*
X0306540Y0263793D01*
X0306504Y0263963D01*
X0306472Y0264134D01*
X0306445Y0264306D01*
X0306421Y0264478D01*
X0306402Y0264651D01*
X0306387Y0264825D01*
X0306377Y0264998D01*
X0306370Y0265172D01*
X0306368Y0265346D01*
X0155393Y0277157D02*
X0155395Y0277331D01*
X0155402Y0277505D01*
X0155412Y0277678D01*
X0155427Y0277852D01*
X0155446Y0278025D01*
X0155470Y0278197D01*
X0155497Y0278369D01*
X0155529Y0278540D01*
X0155565Y0278710D01*
X0155605Y0278879D01*
X0155650Y0279047D01*
X0155698Y0279214D01*
X0155751Y0279380D01*
X0155807Y0279545D01*
X0155868Y0279708D01*
X0155932Y0279869D01*
X0156001Y0280029D01*
X0156073Y0280187D01*
X0156150Y0280343D01*
X0156230Y0280498D01*
X0156314Y0280650D01*
X0156401Y0280800D01*
X0156493Y0280949D01*
X0156587Y0281094D01*
X0156686Y0281238D01*
X0156788Y0281379D01*
X0156893Y0281517D01*
X0157002Y0281653D01*
X0157114Y0281786D01*
X0157229Y0281916D01*
X0157347Y0282044D01*
X0157469Y0282168D01*
X0157593Y0282290D01*
X0157721Y0282408D01*
X0157851Y0282523D01*
X0157984Y0282635D01*
X0158120Y0282744D01*
X0158258Y0282849D01*
X0158399Y0282951D01*
X0158543Y0283050D01*
X0158688Y0283144D01*
X0158837Y0283236D01*
X0158987Y0283323D01*
X0159139Y0283407D01*
X0159294Y0283487D01*
X0159450Y0283564D01*
X0159608Y0283636D01*
X0159768Y0283705D01*
X0159929Y0283769D01*
X0160092Y0283830D01*
X0160257Y0283886D01*
X0160423Y0283939D01*
X0160590Y0283987D01*
X0160758Y0284032D01*
X0160927Y0284072D01*
X0161097Y0284108D01*
X0161268Y0284140D01*
X0161440Y0284167D01*
X0161612Y0284191D01*
X0161785Y0284210D01*
X0161959Y0284225D01*
X0162132Y0284235D01*
X0162306Y0284242D01*
X0162480Y0284244D01*
X0162654Y0284242D01*
X0162828Y0284235D01*
X0163001Y0284225D01*
X0163175Y0284210D01*
X0163348Y0284191D01*
X0163520Y0284167D01*
X0163692Y0284140D01*
X0163863Y0284108D01*
X0164033Y0284072D01*
X0164202Y0284032D01*
X0164370Y0283987D01*
X0164537Y0283939D01*
X0164703Y0283886D01*
X0164868Y0283830D01*
X0165031Y0283769D01*
X0165192Y0283705D01*
X0165352Y0283636D01*
X0165510Y0283564D01*
X0165666Y0283487D01*
X0165821Y0283407D01*
X0165973Y0283323D01*
X0166123Y0283236D01*
X0166272Y0283144D01*
X0166417Y0283050D01*
X0166561Y0282951D01*
X0166702Y0282849D01*
X0166840Y0282744D01*
X0166976Y0282635D01*
X0167109Y0282523D01*
X0167239Y0282408D01*
X0167367Y0282290D01*
X0167491Y0282168D01*
X0167613Y0282044D01*
X0167731Y0281916D01*
X0167846Y0281786D01*
X0167958Y0281653D01*
X0168067Y0281517D01*
X0168172Y0281379D01*
X0168274Y0281238D01*
X0168373Y0281094D01*
X0168467Y0280949D01*
X0168559Y0280800D01*
X0168646Y0280650D01*
X0168730Y0280498D01*
X0168810Y0280343D01*
X0168887Y0280187D01*
X0168959Y0280029D01*
X0169028Y0279869D01*
X0169092Y0279708D01*
X0169153Y0279545D01*
X0169209Y0279380D01*
X0169262Y0279214D01*
X0169310Y0279047D01*
X0169355Y0278879D01*
X0169395Y0278710D01*
X0169431Y0278540D01*
X0169463Y0278369D01*
X0169490Y0278197D01*
X0169514Y0278025D01*
X0169533Y0277852D01*
X0169548Y0277678D01*
X0169558Y0277505D01*
X0169565Y0277331D01*
X0169567Y0277157D01*
X0169565Y0276983D01*
X0169558Y0276809D01*
X0169548Y0276636D01*
X0169533Y0276462D01*
X0169514Y0276289D01*
X0169490Y0276117D01*
X0169463Y0275945D01*
X0169431Y0275774D01*
X0169395Y0275604D01*
X0169355Y0275435D01*
X0169310Y0275267D01*
X0169262Y0275100D01*
X0169209Y0274934D01*
X0169153Y0274769D01*
X0169092Y0274606D01*
X0169028Y0274445D01*
X0168959Y0274285D01*
X0168887Y0274127D01*
X0168810Y0273971D01*
X0168730Y0273816D01*
X0168646Y0273664D01*
X0168559Y0273514D01*
X0168467Y0273365D01*
X0168373Y0273220D01*
X0168274Y0273076D01*
X0168172Y0272935D01*
X0168067Y0272797D01*
X0167958Y0272661D01*
X0167846Y0272528D01*
X0167731Y0272398D01*
X0167613Y0272270D01*
X0167491Y0272146D01*
X0167367Y0272024D01*
X0167239Y0271906D01*
X0167109Y0271791D01*
X0166976Y0271679D01*
X0166840Y0271570D01*
X0166702Y0271465D01*
X0166561Y0271363D01*
X0166417Y0271264D01*
X0166272Y0271170D01*
X0166123Y0271078D01*
X0165973Y0270991D01*
X0165821Y0270907D01*
X0165666Y0270827D01*
X0165510Y0270750D01*
X0165352Y0270678D01*
X0165192Y0270609D01*
X0165031Y0270545D01*
X0164868Y0270484D01*
X0164703Y0270428D01*
X0164537Y0270375D01*
X0164370Y0270327D01*
X0164202Y0270282D01*
X0164033Y0270242D01*
X0163863Y0270206D01*
X0163692Y0270174D01*
X0163520Y0270147D01*
X0163348Y0270123D01*
X0163175Y0270104D01*
X0163001Y0270089D01*
X0162828Y0270079D01*
X0162654Y0270072D01*
X0162480Y0270070D01*
X0162306Y0270072D01*
X0162132Y0270079D01*
X0161959Y0270089D01*
X0161785Y0270104D01*
X0161612Y0270123D01*
X0161440Y0270147D01*
X0161268Y0270174D01*
X0161097Y0270206D01*
X0160927Y0270242D01*
X0160758Y0270282D01*
X0160590Y0270327D01*
X0160423Y0270375D01*
X0160257Y0270428D01*
X0160092Y0270484D01*
X0159929Y0270545D01*
X0159768Y0270609D01*
X0159608Y0270678D01*
X0159450Y0270750D01*
X0159294Y0270827D01*
X0159139Y0270907D01*
X0158987Y0270991D01*
X0158837Y0271078D01*
X0158688Y0271170D01*
X0158543Y0271264D01*
X0158399Y0271363D01*
X0158258Y0271465D01*
X0158120Y0271570D01*
X0157984Y0271679D01*
X0157851Y0271791D01*
X0157721Y0271906D01*
X0157593Y0272024D01*
X0157469Y0272146D01*
X0157347Y0272270D01*
X0157229Y0272398D01*
X0157114Y0272528D01*
X0157002Y0272661D01*
X0156893Y0272797D01*
X0156788Y0272935D01*
X0156686Y0273076D01*
X0156587Y0273220D01*
X0156493Y0273365D01*
X0156401Y0273514D01*
X0156314Y0273664D01*
X0156230Y0273816D01*
X0156150Y0273971D01*
X0156073Y0274127D01*
X0156001Y0274285D01*
X0155932Y0274445D01*
X0155868Y0274606D01*
X0155807Y0274769D01*
X0155751Y0274934D01*
X0155698Y0275100D01*
X0155650Y0275267D01*
X0155605Y0275435D01*
X0155565Y0275604D01*
X0155529Y0275774D01*
X0155497Y0275945D01*
X0155470Y0276117D01*
X0155446Y0276289D01*
X0155427Y0276462D01*
X0155412Y0276636D01*
X0155402Y0276809D01*
X0155395Y0276983D01*
X0155393Y0277157D01*
X0714448Y0080307D02*
X0714450Y0080481D01*
X0714457Y0080655D01*
X0714467Y0080828D01*
X0714482Y0081002D01*
X0714501Y0081175D01*
X0714525Y0081347D01*
X0714552Y0081519D01*
X0714584Y0081690D01*
X0714620Y0081860D01*
X0714660Y0082029D01*
X0714705Y0082197D01*
X0714753Y0082364D01*
X0714806Y0082530D01*
X0714862Y0082695D01*
X0714923Y0082858D01*
X0714987Y0083019D01*
X0715056Y0083179D01*
X0715128Y0083337D01*
X0715205Y0083493D01*
X0715285Y0083648D01*
X0715369Y0083800D01*
X0715456Y0083950D01*
X0715548Y0084099D01*
X0715642Y0084244D01*
X0715741Y0084388D01*
X0715843Y0084529D01*
X0715948Y0084667D01*
X0716057Y0084803D01*
X0716169Y0084936D01*
X0716284Y0085066D01*
X0716402Y0085194D01*
X0716524Y0085318D01*
X0716648Y0085440D01*
X0716776Y0085558D01*
X0716906Y0085673D01*
X0717039Y0085785D01*
X0717175Y0085894D01*
X0717313Y0085999D01*
X0717454Y0086101D01*
X0717598Y0086200D01*
X0717743Y0086294D01*
X0717892Y0086386D01*
X0718042Y0086473D01*
X0718194Y0086557D01*
X0718349Y0086637D01*
X0718505Y0086714D01*
X0718663Y0086786D01*
X0718823Y0086855D01*
X0718984Y0086919D01*
X0719147Y0086980D01*
X0719312Y0087036D01*
X0719478Y0087089D01*
X0719645Y0087137D01*
X0719813Y0087182D01*
X0719982Y0087222D01*
X0720152Y0087258D01*
X0720323Y0087290D01*
X0720495Y0087317D01*
X0720667Y0087341D01*
X0720840Y0087360D01*
X0721014Y0087375D01*
X0721187Y0087385D01*
X0721361Y0087392D01*
X0721535Y0087394D01*
X0721709Y0087392D01*
X0721883Y0087385D01*
X0722056Y0087375D01*
X0722230Y0087360D01*
X0722403Y0087341D01*
X0722575Y0087317D01*
X0722747Y0087290D01*
X0722918Y0087258D01*
X0723088Y0087222D01*
X0723257Y0087182D01*
X0723425Y0087137D01*
X0723592Y0087089D01*
X0723758Y0087036D01*
X0723923Y0086980D01*
X0724086Y0086919D01*
X0724247Y0086855D01*
X0724407Y0086786D01*
X0724565Y0086714D01*
X0724721Y0086637D01*
X0724876Y0086557D01*
X0725028Y0086473D01*
X0725178Y0086386D01*
X0725327Y0086294D01*
X0725472Y0086200D01*
X0725616Y0086101D01*
X0725757Y0085999D01*
X0725895Y0085894D01*
X0726031Y0085785D01*
X0726164Y0085673D01*
X0726294Y0085558D01*
X0726422Y0085440D01*
X0726546Y0085318D01*
X0726668Y0085194D01*
X0726786Y0085066D01*
X0726901Y0084936D01*
X0727013Y0084803D01*
X0727122Y0084667D01*
X0727227Y0084529D01*
X0727329Y0084388D01*
X0727428Y0084244D01*
X0727522Y0084099D01*
X0727614Y0083950D01*
X0727701Y0083800D01*
X0727785Y0083648D01*
X0727865Y0083493D01*
X0727942Y0083337D01*
X0728014Y0083179D01*
X0728083Y0083019D01*
X0728147Y0082858D01*
X0728208Y0082695D01*
X0728264Y0082530D01*
X0728317Y0082364D01*
X0728365Y0082197D01*
X0728410Y0082029D01*
X0728450Y0081860D01*
X0728486Y0081690D01*
X0728518Y0081519D01*
X0728545Y0081347D01*
X0728569Y0081175D01*
X0728588Y0081002D01*
X0728603Y0080828D01*
X0728613Y0080655D01*
X0728620Y0080481D01*
X0728622Y0080307D01*
X0728620Y0080133D01*
X0728613Y0079959D01*
X0728603Y0079786D01*
X0728588Y0079612D01*
X0728569Y0079439D01*
X0728545Y0079267D01*
X0728518Y0079095D01*
X0728486Y0078924D01*
X0728450Y0078754D01*
X0728410Y0078585D01*
X0728365Y0078417D01*
X0728317Y0078250D01*
X0728264Y0078084D01*
X0728208Y0077919D01*
X0728147Y0077756D01*
X0728083Y0077595D01*
X0728014Y0077435D01*
X0727942Y0077277D01*
X0727865Y0077121D01*
X0727785Y0076966D01*
X0727701Y0076814D01*
X0727614Y0076664D01*
X0727522Y0076515D01*
X0727428Y0076370D01*
X0727329Y0076226D01*
X0727227Y0076085D01*
X0727122Y0075947D01*
X0727013Y0075811D01*
X0726901Y0075678D01*
X0726786Y0075548D01*
X0726668Y0075420D01*
X0726546Y0075296D01*
X0726422Y0075174D01*
X0726294Y0075056D01*
X0726164Y0074941D01*
X0726031Y0074829D01*
X0725895Y0074720D01*
X0725757Y0074615D01*
X0725616Y0074513D01*
X0725472Y0074414D01*
X0725327Y0074320D01*
X0725178Y0074228D01*
X0725028Y0074141D01*
X0724876Y0074057D01*
X0724721Y0073977D01*
X0724565Y0073900D01*
X0724407Y0073828D01*
X0724247Y0073759D01*
X0724086Y0073695D01*
X0723923Y0073634D01*
X0723758Y0073578D01*
X0723592Y0073525D01*
X0723425Y0073477D01*
X0723257Y0073432D01*
X0723088Y0073392D01*
X0722918Y0073356D01*
X0722747Y0073324D01*
X0722575Y0073297D01*
X0722403Y0073273D01*
X0722230Y0073254D01*
X0722056Y0073239D01*
X0721883Y0073229D01*
X0721709Y0073222D01*
X0721535Y0073220D01*
X0721361Y0073222D01*
X0721187Y0073229D01*
X0721014Y0073239D01*
X0720840Y0073254D01*
X0720667Y0073273D01*
X0720495Y0073297D01*
X0720323Y0073324D01*
X0720152Y0073356D01*
X0719982Y0073392D01*
X0719813Y0073432D01*
X0719645Y0073477D01*
X0719478Y0073525D01*
X0719312Y0073578D01*
X0719147Y0073634D01*
X0718984Y0073695D01*
X0718823Y0073759D01*
X0718663Y0073828D01*
X0718505Y0073900D01*
X0718349Y0073977D01*
X0718194Y0074057D01*
X0718042Y0074141D01*
X0717892Y0074228D01*
X0717743Y0074320D01*
X0717598Y0074414D01*
X0717454Y0074513D01*
X0717313Y0074615D01*
X0717175Y0074720D01*
X0717039Y0074829D01*
X0716906Y0074941D01*
X0716776Y0075056D01*
X0716648Y0075174D01*
X0716524Y0075296D01*
X0716402Y0075420D01*
X0716284Y0075548D01*
X0716169Y0075678D01*
X0716057Y0075811D01*
X0715948Y0075947D01*
X0715843Y0076085D01*
X0715741Y0076226D01*
X0715642Y0076370D01*
X0715548Y0076515D01*
X0715456Y0076664D01*
X0715369Y0076814D01*
X0715285Y0076966D01*
X0715205Y0077121D01*
X0715128Y0077277D01*
X0715056Y0077435D01*
X0714987Y0077595D01*
X0714923Y0077756D01*
X0714862Y0077919D01*
X0714806Y0078084D01*
X0714753Y0078250D01*
X0714705Y0078417D01*
X0714660Y0078585D01*
X0714620Y0078754D01*
X0714584Y0078924D01*
X0714552Y0079095D01*
X0714525Y0079267D01*
X0714501Y0079439D01*
X0714482Y0079612D01*
X0714467Y0079786D01*
X0714457Y0079959D01*
X0714450Y0080133D01*
X0714448Y0080307D01*
X0895551Y0056685D02*
X0895553Y0056859D01*
X0895560Y0057033D01*
X0895570Y0057206D01*
X0895585Y0057380D01*
X0895604Y0057553D01*
X0895628Y0057725D01*
X0895655Y0057897D01*
X0895687Y0058068D01*
X0895723Y0058238D01*
X0895763Y0058407D01*
X0895808Y0058575D01*
X0895856Y0058742D01*
X0895909Y0058908D01*
X0895965Y0059073D01*
X0896026Y0059236D01*
X0896090Y0059397D01*
X0896159Y0059557D01*
X0896231Y0059715D01*
X0896308Y0059871D01*
X0896388Y0060026D01*
X0896472Y0060178D01*
X0896559Y0060328D01*
X0896651Y0060477D01*
X0896745Y0060622D01*
X0896844Y0060766D01*
X0896946Y0060907D01*
X0897051Y0061045D01*
X0897160Y0061181D01*
X0897272Y0061314D01*
X0897387Y0061444D01*
X0897505Y0061572D01*
X0897627Y0061696D01*
X0897751Y0061818D01*
X0897879Y0061936D01*
X0898009Y0062051D01*
X0898142Y0062163D01*
X0898278Y0062272D01*
X0898416Y0062377D01*
X0898557Y0062479D01*
X0898701Y0062578D01*
X0898846Y0062672D01*
X0898995Y0062764D01*
X0899145Y0062851D01*
X0899297Y0062935D01*
X0899452Y0063015D01*
X0899608Y0063092D01*
X0899766Y0063164D01*
X0899926Y0063233D01*
X0900087Y0063297D01*
X0900250Y0063358D01*
X0900415Y0063414D01*
X0900581Y0063467D01*
X0900748Y0063515D01*
X0900916Y0063560D01*
X0901085Y0063600D01*
X0901255Y0063636D01*
X0901426Y0063668D01*
X0901598Y0063695D01*
X0901770Y0063719D01*
X0901943Y0063738D01*
X0902117Y0063753D01*
X0902290Y0063763D01*
X0902464Y0063770D01*
X0902638Y0063772D01*
X0902812Y0063770D01*
X0902986Y0063763D01*
X0903159Y0063753D01*
X0903333Y0063738D01*
X0903506Y0063719D01*
X0903678Y0063695D01*
X0903850Y0063668D01*
X0904021Y0063636D01*
X0904191Y0063600D01*
X0904360Y0063560D01*
X0904528Y0063515D01*
X0904695Y0063467D01*
X0904861Y0063414D01*
X0905026Y0063358D01*
X0905189Y0063297D01*
X0905350Y0063233D01*
X0905510Y0063164D01*
X0905668Y0063092D01*
X0905824Y0063015D01*
X0905979Y0062935D01*
X0906131Y0062851D01*
X0906281Y0062764D01*
X0906430Y0062672D01*
X0906575Y0062578D01*
X0906719Y0062479D01*
X0906860Y0062377D01*
X0906998Y0062272D01*
X0907134Y0062163D01*
X0907267Y0062051D01*
X0907397Y0061936D01*
X0907525Y0061818D01*
X0907649Y0061696D01*
X0907771Y0061572D01*
X0907889Y0061444D01*
X0908004Y0061314D01*
X0908116Y0061181D01*
X0908225Y0061045D01*
X0908330Y0060907D01*
X0908432Y0060766D01*
X0908531Y0060622D01*
X0908625Y0060477D01*
X0908717Y0060328D01*
X0908804Y0060178D01*
X0908888Y0060026D01*
X0908968Y0059871D01*
X0909045Y0059715D01*
X0909117Y0059557D01*
X0909186Y0059397D01*
X0909250Y0059236D01*
X0909311Y0059073D01*
X0909367Y0058908D01*
X0909420Y0058742D01*
X0909468Y0058575D01*
X0909513Y0058407D01*
X0909553Y0058238D01*
X0909589Y0058068D01*
X0909621Y0057897D01*
X0909648Y0057725D01*
X0909672Y0057553D01*
X0909691Y0057380D01*
X0909706Y0057206D01*
X0909716Y0057033D01*
X0909723Y0056859D01*
X0909725Y0056685D01*
X0909723Y0056511D01*
X0909716Y0056337D01*
X0909706Y0056164D01*
X0909691Y0055990D01*
X0909672Y0055817D01*
X0909648Y0055645D01*
X0909621Y0055473D01*
X0909589Y0055302D01*
X0909553Y0055132D01*
X0909513Y0054963D01*
X0909468Y0054795D01*
X0909420Y0054628D01*
X0909367Y0054462D01*
X0909311Y0054297D01*
X0909250Y0054134D01*
X0909186Y0053973D01*
X0909117Y0053813D01*
X0909045Y0053655D01*
X0908968Y0053499D01*
X0908888Y0053344D01*
X0908804Y0053192D01*
X0908717Y0053042D01*
X0908625Y0052893D01*
X0908531Y0052748D01*
X0908432Y0052604D01*
X0908330Y0052463D01*
X0908225Y0052325D01*
X0908116Y0052189D01*
X0908004Y0052056D01*
X0907889Y0051926D01*
X0907771Y0051798D01*
X0907649Y0051674D01*
X0907525Y0051552D01*
X0907397Y0051434D01*
X0907267Y0051319D01*
X0907134Y0051207D01*
X0906998Y0051098D01*
X0906860Y0050993D01*
X0906719Y0050891D01*
X0906575Y0050792D01*
X0906430Y0050698D01*
X0906281Y0050606D01*
X0906131Y0050519D01*
X0905979Y0050435D01*
X0905824Y0050355D01*
X0905668Y0050278D01*
X0905510Y0050206D01*
X0905350Y0050137D01*
X0905189Y0050073D01*
X0905026Y0050012D01*
X0904861Y0049956D01*
X0904695Y0049903D01*
X0904528Y0049855D01*
X0904360Y0049810D01*
X0904191Y0049770D01*
X0904021Y0049734D01*
X0903850Y0049702D01*
X0903678Y0049675D01*
X0903506Y0049651D01*
X0903333Y0049632D01*
X0903159Y0049617D01*
X0902986Y0049607D01*
X0902812Y0049600D01*
X0902638Y0049598D01*
X0902464Y0049600D01*
X0902290Y0049607D01*
X0902117Y0049617D01*
X0901943Y0049632D01*
X0901770Y0049651D01*
X0901598Y0049675D01*
X0901426Y0049702D01*
X0901255Y0049734D01*
X0901085Y0049770D01*
X0900916Y0049810D01*
X0900748Y0049855D01*
X0900581Y0049903D01*
X0900415Y0049956D01*
X0900250Y0050012D01*
X0900087Y0050073D01*
X0899926Y0050137D01*
X0899766Y0050206D01*
X0899608Y0050278D01*
X0899452Y0050355D01*
X0899297Y0050435D01*
X0899145Y0050519D01*
X0898995Y0050606D01*
X0898846Y0050698D01*
X0898701Y0050792D01*
X0898557Y0050891D01*
X0898416Y0050993D01*
X0898278Y0051098D01*
X0898142Y0051207D01*
X0898009Y0051319D01*
X0897879Y0051434D01*
X0897751Y0051552D01*
X0897627Y0051674D01*
X0897505Y0051798D01*
X0897387Y0051926D01*
X0897272Y0052056D01*
X0897160Y0052189D01*
X0897051Y0052325D01*
X0896946Y0052463D01*
X0896844Y0052604D01*
X0896745Y0052748D01*
X0896651Y0052893D01*
X0896559Y0053042D01*
X0896472Y0053192D01*
X0896388Y0053344D01*
X0896308Y0053499D01*
X0896231Y0053655D01*
X0896159Y0053813D01*
X0896090Y0053973D01*
X0896026Y0054134D01*
X0895965Y0054297D01*
X0895909Y0054462D01*
X0895856Y0054628D01*
X0895808Y0054795D01*
X0895763Y0054963D01*
X0895723Y0055132D01*
X0895687Y0055302D01*
X0895655Y0055473D01*
X0895628Y0055645D01*
X0895604Y0055817D01*
X0895585Y0055990D01*
X0895570Y0056164D01*
X0895560Y0056337D01*
X0895553Y0056511D01*
X0895551Y0056685D01*
X0190826Y0060622D02*
X0190828Y0060796D01*
X0190835Y0060970D01*
X0190845Y0061143D01*
X0190860Y0061317D01*
X0190879Y0061490D01*
X0190903Y0061662D01*
X0190930Y0061834D01*
X0190962Y0062005D01*
X0190998Y0062175D01*
X0191038Y0062344D01*
X0191083Y0062512D01*
X0191131Y0062679D01*
X0191184Y0062845D01*
X0191240Y0063010D01*
X0191301Y0063173D01*
X0191365Y0063334D01*
X0191434Y0063494D01*
X0191506Y0063652D01*
X0191583Y0063808D01*
X0191663Y0063963D01*
X0191747Y0064115D01*
X0191834Y0064265D01*
X0191926Y0064414D01*
X0192020Y0064559D01*
X0192119Y0064703D01*
X0192221Y0064844D01*
X0192326Y0064982D01*
X0192435Y0065118D01*
X0192547Y0065251D01*
X0192662Y0065381D01*
X0192780Y0065509D01*
X0192902Y0065633D01*
X0193026Y0065755D01*
X0193154Y0065873D01*
X0193284Y0065988D01*
X0193417Y0066100D01*
X0193553Y0066209D01*
X0193691Y0066314D01*
X0193832Y0066416D01*
X0193976Y0066515D01*
X0194121Y0066609D01*
X0194270Y0066701D01*
X0194420Y0066788D01*
X0194572Y0066872D01*
X0194727Y0066952D01*
X0194883Y0067029D01*
X0195041Y0067101D01*
X0195201Y0067170D01*
X0195362Y0067234D01*
X0195525Y0067295D01*
X0195690Y0067351D01*
X0195856Y0067404D01*
X0196023Y0067452D01*
X0196191Y0067497D01*
X0196360Y0067537D01*
X0196530Y0067573D01*
X0196701Y0067605D01*
X0196873Y0067632D01*
X0197045Y0067656D01*
X0197218Y0067675D01*
X0197392Y0067690D01*
X0197565Y0067700D01*
X0197739Y0067707D01*
X0197913Y0067709D01*
X0198087Y0067707D01*
X0198261Y0067700D01*
X0198434Y0067690D01*
X0198608Y0067675D01*
X0198781Y0067656D01*
X0198953Y0067632D01*
X0199125Y0067605D01*
X0199296Y0067573D01*
X0199466Y0067537D01*
X0199635Y0067497D01*
X0199803Y0067452D01*
X0199970Y0067404D01*
X0200136Y0067351D01*
X0200301Y0067295D01*
X0200464Y0067234D01*
X0200625Y0067170D01*
X0200785Y0067101D01*
X0200943Y0067029D01*
X0201099Y0066952D01*
X0201254Y0066872D01*
X0201406Y0066788D01*
X0201556Y0066701D01*
X0201705Y0066609D01*
X0201850Y0066515D01*
X0201994Y0066416D01*
X0202135Y0066314D01*
X0202273Y0066209D01*
X0202409Y0066100D01*
X0202542Y0065988D01*
X0202672Y0065873D01*
X0202800Y0065755D01*
X0202924Y0065633D01*
X0203046Y0065509D01*
X0203164Y0065381D01*
X0203279Y0065251D01*
X0203391Y0065118D01*
X0203500Y0064982D01*
X0203605Y0064844D01*
X0203707Y0064703D01*
X0203806Y0064559D01*
X0203900Y0064414D01*
X0203992Y0064265D01*
X0204079Y0064115D01*
X0204163Y0063963D01*
X0204243Y0063808D01*
X0204320Y0063652D01*
X0204392Y0063494D01*
X0204461Y0063334D01*
X0204525Y0063173D01*
X0204586Y0063010D01*
X0204642Y0062845D01*
X0204695Y0062679D01*
X0204743Y0062512D01*
X0204788Y0062344D01*
X0204828Y0062175D01*
X0204864Y0062005D01*
X0204896Y0061834D01*
X0204923Y0061662D01*
X0204947Y0061490D01*
X0204966Y0061317D01*
X0204981Y0061143D01*
X0204991Y0060970D01*
X0204998Y0060796D01*
X0205000Y0060622D01*
X0204998Y0060448D01*
X0204991Y0060274D01*
X0204981Y0060101D01*
X0204966Y0059927D01*
X0204947Y0059754D01*
X0204923Y0059582D01*
X0204896Y0059410D01*
X0204864Y0059239D01*
X0204828Y0059069D01*
X0204788Y0058900D01*
X0204743Y0058732D01*
X0204695Y0058565D01*
X0204642Y0058399D01*
X0204586Y0058234D01*
X0204525Y0058071D01*
X0204461Y0057910D01*
X0204392Y0057750D01*
X0204320Y0057592D01*
X0204243Y0057436D01*
X0204163Y0057281D01*
X0204079Y0057129D01*
X0203992Y0056979D01*
X0203900Y0056830D01*
X0203806Y0056685D01*
X0203707Y0056541D01*
X0203605Y0056400D01*
X0203500Y0056262D01*
X0203391Y0056126D01*
X0203279Y0055993D01*
X0203164Y0055863D01*
X0203046Y0055735D01*
X0202924Y0055611D01*
X0202800Y0055489D01*
X0202672Y0055371D01*
X0202542Y0055256D01*
X0202409Y0055144D01*
X0202273Y0055035D01*
X0202135Y0054930D01*
X0201994Y0054828D01*
X0201850Y0054729D01*
X0201705Y0054635D01*
X0201556Y0054543D01*
X0201406Y0054456D01*
X0201254Y0054372D01*
X0201099Y0054292D01*
X0200943Y0054215D01*
X0200785Y0054143D01*
X0200625Y0054074D01*
X0200464Y0054010D01*
X0200301Y0053949D01*
X0200136Y0053893D01*
X0199970Y0053840D01*
X0199803Y0053792D01*
X0199635Y0053747D01*
X0199466Y0053707D01*
X0199296Y0053671D01*
X0199125Y0053639D01*
X0198953Y0053612D01*
X0198781Y0053588D01*
X0198608Y0053569D01*
X0198434Y0053554D01*
X0198261Y0053544D01*
X0198087Y0053537D01*
X0197913Y0053535D01*
X0197739Y0053537D01*
X0197565Y0053544D01*
X0197392Y0053554D01*
X0197218Y0053569D01*
X0197045Y0053588D01*
X0196873Y0053612D01*
X0196701Y0053639D01*
X0196530Y0053671D01*
X0196360Y0053707D01*
X0196191Y0053747D01*
X0196023Y0053792D01*
X0195856Y0053840D01*
X0195690Y0053893D01*
X0195525Y0053949D01*
X0195362Y0054010D01*
X0195201Y0054074D01*
X0195041Y0054143D01*
X0194883Y0054215D01*
X0194727Y0054292D01*
X0194572Y0054372D01*
X0194420Y0054456D01*
X0194270Y0054543D01*
X0194121Y0054635D01*
X0193976Y0054729D01*
X0193832Y0054828D01*
X0193691Y0054930D01*
X0193553Y0055035D01*
X0193417Y0055144D01*
X0193284Y0055256D01*
X0193154Y0055371D01*
X0193026Y0055489D01*
X0192902Y0055611D01*
X0192780Y0055735D01*
X0192662Y0055863D01*
X0192547Y0055993D01*
X0192435Y0056126D01*
X0192326Y0056262D01*
X0192221Y0056400D01*
X0192119Y0056541D01*
X0192020Y0056685D01*
X0191926Y0056830D01*
X0191834Y0056979D01*
X0191747Y0057129D01*
X0191663Y0057281D01*
X0191583Y0057436D01*
X0191506Y0057592D01*
X0191434Y0057750D01*
X0191365Y0057910D01*
X0191301Y0058071D01*
X0191240Y0058234D01*
X0191184Y0058399D01*
X0191131Y0058565D01*
X0191083Y0058732D01*
X0191038Y0058900D01*
X0190998Y0059069D01*
X0190962Y0059239D01*
X0190930Y0059410D01*
X0190903Y0059582D01*
X0190879Y0059754D01*
X0190860Y0059927D01*
X0190845Y0060101D01*
X0190835Y0060274D01*
X0190828Y0060448D01*
X0190826Y0060622D01*
D17*
X0190913Y0060622D03*
X0192913Y0055722D03*
X0197713Y0053622D03*
X0202913Y0055622D03*
X0204813Y0060522D03*
X0202913Y0065622D03*
X0198113Y0067522D03*
X0193013Y0065422D03*
X0714535Y0080307D03*
X0716535Y0075407D03*
X0721335Y0073307D03*
X0726535Y0075307D03*
X0728435Y0080207D03*
X0726535Y0085307D03*
X0721735Y0087207D03*
X0716635Y0085107D03*
X0895638Y0056685D03*
X0897638Y0051785D03*
X0902438Y0049685D03*
X0907638Y0051685D03*
X0909538Y0056585D03*
X0907638Y0061685D03*
X0902838Y0063585D03*
X0897738Y0061485D03*
X0318455Y0260346D03*
X0313255Y0258346D03*
X0308455Y0260446D03*
X0306455Y0265346D03*
X0308555Y0270146D03*
X0313655Y0272246D03*
X0318455Y0270346D03*
X0320355Y0265246D03*
X0169380Y0277057D03*
X0167480Y0272157D03*
X0162280Y0270157D03*
X0157480Y0272257D03*
X0155480Y0277157D03*
X0157580Y0281957D03*
X0162680Y0284057D03*
X0167480Y0282157D03*
X0751937Y0285031D03*
X0753937Y0280131D03*
X0758737Y0278031D03*
X0763937Y0280031D03*
X0765837Y0284931D03*
X0763937Y0290031D03*
X0759137Y0291931D03*
X0754037Y0289831D03*
D18*
X0765000Y0260317D03*
X0796250Y0247817D03*
X0825000Y0249067D03*
X0832500Y0237817D03*
X0873800Y0257567D03*
X0837500Y0259067D03*
X0907400Y0259567D03*
X0950600Y0226567D03*
X0960200Y0215767D03*
X0960200Y0204967D03*
X0907500Y0220317D03*
X0950600Y0176167D03*
X0964400Y0172567D03*
X0968600Y0169567D03*
X0960800Y0156367D03*
X0945424Y0152167D03*
X0905600Y0134767D03*
X0889400Y0153367D03*
X0828200Y0157567D03*
X0801200Y0149167D03*
X0790400Y0146167D03*
X0795200Y0141967D03*
X0740000Y0119067D03*
X0685400Y0122767D03*
X0657200Y0117967D03*
X0671600Y0107767D03*
X0649400Y0093367D03*
X0665000Y0091567D03*
X0675800Y0083767D03*
X0649400Y0080167D03*
X0665000Y0073567D03*
X0640000Y0066567D03*
X0600000Y0057817D03*
X0596250Y0059067D03*
X0574350Y0057217D03*
X0574350Y0061567D03*
X0570800Y0047767D03*
X0548000Y0040567D03*
X0547400Y0032167D03*
X0509600Y0027967D03*
X0497000Y0032167D03*
X0491600Y0025567D03*
X0491000Y0020167D03*
X0462600Y0024517D03*
X0429000Y0027167D03*
X0423750Y0027817D03*
X0416250Y0027817D03*
X0411250Y0027817D03*
X0406250Y0029067D03*
X0375800Y0035167D03*
X0392200Y0049567D03*
X0415000Y0058817D03*
X0423750Y0062817D03*
X0423850Y0067717D03*
X0419200Y0068767D03*
X0411550Y0070017D03*
X0406250Y0070067D03*
X0404000Y0077167D03*
X0429200Y0078967D03*
X0448247Y0076719D03*
X0443000Y0072967D03*
X0447800Y0070367D03*
X0454600Y0067167D03*
X0457500Y0070317D03*
X0454350Y0074067D03*
X0465800Y0071167D03*
X0465000Y0065317D03*
X0448200Y0063967D03*
X0443400Y0063967D03*
X0432200Y0059167D03*
X0429000Y0062367D03*
X0432200Y0054367D03*
X0438600Y0055967D03*
X0478750Y0042817D03*
X0492200Y0039367D03*
X0487400Y0060967D03*
X0500000Y0064117D03*
X0503000Y0070567D03*
X0497000Y0074767D03*
X0486200Y0077767D03*
X0488000Y0084367D03*
X0497000Y0084967D03*
X0501800Y0084967D03*
X0492200Y0088567D03*
X0508400Y0095167D03*
X0510800Y0104167D03*
X0526400Y0110767D03*
X0551200Y0105367D03*
X0555400Y0106767D03*
X0575600Y0099967D03*
X0555400Y0094367D03*
X0551200Y0094367D03*
X0544400Y0089167D03*
X0536600Y0095767D03*
X0525200Y0087967D03*
X0519800Y0087967D03*
X0509000Y0080767D03*
X0525200Y0071167D03*
X0463650Y0081867D03*
X0458000Y0084967D03*
X0455250Y0081867D03*
X0440000Y0091567D03*
X0435800Y0090367D03*
X0432800Y0087967D03*
X0445400Y0096967D03*
X0446000Y0101767D03*
X0450800Y0103567D03*
X0449600Y0110767D03*
X0452000Y0114967D03*
X0461000Y0110767D03*
X0440600Y0114967D03*
X0424400Y0103567D03*
X0455000Y0096967D03*
X0404000Y0090967D03*
X0371000Y0089767D03*
X0358600Y0094367D03*
X0354800Y0086167D03*
X0351200Y0078367D03*
X0366600Y0079967D03*
X0374000Y0074167D03*
X0328200Y0067167D03*
X0326600Y0059167D03*
X0296250Y0059067D03*
X0293750Y0066567D03*
X0274550Y0059067D03*
X0286600Y0047967D03*
X0302600Y0043567D03*
X0284400Y0036967D03*
X0281000Y0033967D03*
X0277000Y0025567D03*
X0326600Y0039967D03*
X0338600Y0046567D03*
X0302600Y0074767D03*
X0297800Y0083167D03*
X0275400Y0089167D03*
X0217800Y0110367D03*
X0194600Y0128767D03*
X0190200Y0129167D03*
X0183200Y0140767D03*
X0166600Y0147167D03*
X0149600Y0152767D03*
X0182600Y0159967D03*
X0185800Y0156767D03*
X0195400Y0159967D03*
X0205000Y0159967D03*
X0217800Y0163167D03*
X0217800Y0172767D03*
X0235400Y0185567D03*
X0257500Y0196567D03*
X0217500Y0210317D03*
X0172400Y0221767D03*
X0141000Y0212767D03*
X0116600Y0202567D03*
X0092500Y0211567D03*
X0072500Y0202817D03*
X0142400Y0180967D03*
X0162800Y0180967D03*
X0084800Y0169567D03*
X0086875Y0158442D03*
X0061400Y0144367D03*
X0093800Y0133567D03*
X0093200Y0123367D03*
X0116600Y0120967D03*
X0102200Y0108967D03*
X0093600Y0086167D03*
X0088200Y0057567D03*
X0097400Y0051367D03*
X0093800Y0048367D03*
X0101250Y0056567D03*
X0112400Y0050767D03*
X0182500Y0040317D03*
X0210850Y0021667D03*
X0113750Y0022817D03*
X0105800Y0022367D03*
X0213800Y0077767D03*
X0182600Y0092767D03*
X0227600Y0131767D03*
X0235400Y0132967D03*
X0233400Y0137167D03*
X0217800Y0151967D03*
X0254600Y0150367D03*
X0290150Y0143967D03*
X0311250Y0146567D03*
X0329400Y0154067D03*
X0342200Y0147367D03*
X0360200Y0162367D03*
X0342200Y0165367D03*
X0352200Y0171767D03*
X0356000Y0172567D03*
X0360200Y0176167D03*
X0329400Y0173567D03*
X0327800Y0182167D03*
X0329200Y0192567D03*
X0331250Y0197817D03*
X0314600Y0213367D03*
X0320000Y0225367D03*
X0318750Y0239067D03*
X0326750Y0239617D03*
X0347500Y0257817D03*
X0401000Y0252967D03*
X0423200Y0251767D03*
X0436400Y0246967D03*
X0419600Y0243367D03*
X0404600Y0227767D03*
X0395000Y0221167D03*
X0396800Y0210367D03*
X0395000Y0189967D03*
X0401000Y0170167D03*
X0431600Y0161767D03*
X0428000Y0158767D03*
X0438800Y0161767D03*
X0444200Y0161167D03*
X0455600Y0161167D03*
X0482600Y0172567D03*
X0487500Y0171567D03*
X0507500Y0165317D03*
X0507500Y0155317D03*
X0508750Y0151567D03*
X0502450Y0147817D03*
X0487500Y0155317D03*
X0529400Y0137767D03*
X0536600Y0134167D03*
X0549800Y0137167D03*
X0554600Y0140167D03*
X0533000Y0144667D03*
X0565400Y0156367D03*
X0564200Y0161767D03*
X0585200Y0158767D03*
X0595000Y0162767D03*
X0591800Y0168967D03*
X0563750Y0175867D03*
X0518000Y0176167D03*
X0544400Y0204967D03*
X0539600Y0210967D03*
X0539600Y0222967D03*
X0489200Y0222367D03*
X0470000Y0220567D03*
X0461000Y0240967D03*
X0471800Y0264367D03*
X0464600Y0279367D03*
X0395000Y0279967D03*
X0380600Y0281767D03*
X0371995Y0289362D03*
X0387200Y0297967D03*
X0298300Y0282867D03*
X0240800Y0306367D03*
X0275000Y0257817D03*
X0217500Y0235567D03*
X0240800Y0227767D03*
X0253000Y0231367D03*
X0201250Y0257817D03*
X0141000Y0232752D03*
X0105000Y0234067D03*
X0083750Y0227817D03*
X0126250Y0257817D03*
X0048800Y0288967D03*
X0281250Y0177817D03*
X0311250Y0170317D03*
X0386600Y0156367D03*
X0399200Y0153367D03*
X0462200Y0134767D03*
X0390800Y0114367D03*
X0371000Y0124567D03*
X0347400Y0131167D03*
X0288200Y0134767D03*
X0362000Y0103567D03*
X0430400Y0074167D03*
X0585200Y0018367D03*
X0566600Y0007567D03*
X0615200Y0027967D03*
X0604400Y0032167D03*
X0630800Y0029767D03*
X0651800Y0036367D03*
X0638600Y0046367D03*
X0605000Y0047817D03*
X0638000Y0015367D03*
X0740000Y0057817D03*
X0810000Y0057767D03*
X0833600Y0077167D03*
X0810000Y0090317D03*
X0816200Y0111967D03*
X0703050Y0090317D03*
X0600000Y0100317D03*
X0591800Y0110767D03*
X0578000Y0135967D03*
X0612200Y0136567D03*
X0644000Y0147967D03*
X0652500Y0151417D03*
X0673800Y0148167D03*
X0682500Y0144767D03*
X0659600Y0138367D03*
X0706400Y0158167D03*
X0706400Y0168967D03*
X0682500Y0175317D03*
X0666200Y0177967D03*
X0653000Y0175567D03*
X0645000Y0175417D03*
X0636250Y0177817D03*
X0629600Y0201967D03*
X0611250Y0209067D03*
X0624200Y0222367D03*
X0654200Y0222367D03*
X0654200Y0235567D03*
X0633850Y0235417D03*
X0629600Y0235567D03*
X0675200Y0242167D03*
X0696200Y0231367D03*
X0701600Y0223567D03*
X0696250Y0205317D03*
X0702800Y0182167D03*
X0777800Y0168967D03*
X0790400Y0171967D03*
X0795200Y0168367D03*
X0821600Y0174795D03*
X0777800Y0201367D03*
X0765000Y0215317D03*
X0690000Y0259067D03*
X0613750Y0257817D03*
X0545000Y0259067D03*
X0542000Y0279967D03*
X0149600Y0133567D03*
D19*
X0149600Y0152767D01*
X0137800Y0140967D01*
X0137800Y0083493D01*
X0137074Y0082767D01*
X0129200Y0082767D02*
X0129200Y0065767D01*
X0121250Y0057817D01*
X0121250Y0037817D01*
X0105800Y0022367D01*
X0101000Y0026317D02*
X0101000Y0017567D01*
X0101800Y0017567D01*
X0111200Y0008167D01*
X0566600Y0007567D01*
X0581000Y0017167D02*
X0507200Y0017167D01*
X0501200Y0023167D01*
X0501200Y0060367D01*
X0508400Y0067567D01*
X0508400Y0075367D01*
X0512600Y0079567D01*
X0512600Y0091567D01*
X0514400Y0093367D01*
X0514400Y0146167D01*
X0518000Y0149767D01*
X0518000Y0176167D01*
X0516200Y0180967D02*
X0508100Y0172867D01*
X0507500Y0172867D01*
X0507500Y0165317D01*
X0516200Y0180967D02*
X0525800Y0180967D01*
X0533600Y0188767D01*
X0533600Y0198367D01*
X0534200Y0198967D01*
X0551000Y0198967D01*
X0566600Y0183367D01*
X0594200Y0183367D01*
X0601400Y0176167D01*
X0601400Y0101767D01*
X0600200Y0100567D01*
X0600000Y0100317D02*
X0607500Y0092817D01*
X0637500Y0092817D01*
X0641250Y0089067D01*
X0650000Y0089067D01*
X0661250Y0100317D01*
X0661250Y0129067D01*
X0652500Y0137817D01*
X0652500Y0151417D01*
X0653000Y0158767D02*
X0644000Y0149767D01*
X0644000Y0147967D01*
X0666200Y0139567D02*
X0669200Y0136567D01*
X0669200Y0110167D01*
X0671600Y0107767D01*
X0671600Y0087967D01*
X0675800Y0083767D01*
X0665000Y0091567D02*
X0665000Y0073567D01*
X0684783Y0066842D02*
X0684783Y0107383D01*
X0673800Y0118367D01*
X0673800Y0148167D01*
X0682500Y0144767D02*
X0682500Y0175317D01*
X0689600Y0176767D02*
X0695600Y0182767D01*
X0702200Y0182767D01*
X0702800Y0182167D01*
X0702800Y0221767D01*
X0701600Y0223567D01*
X0696200Y0228767D02*
X0696200Y0231367D01*
X0690000Y0237567D01*
X0690000Y0259067D01*
X0700000Y0260317D02*
X0691250Y0269067D01*
X0691250Y0297817D01*
X0913550Y0297817D01*
X0917600Y0293767D01*
X0917600Y0265567D01*
X0931915Y0251252D01*
X0940945Y0251252D01*
X0950600Y0250907D02*
X0950945Y0251252D01*
X0950600Y0250907D02*
X0950600Y0226567D01*
X0950600Y0176167D01*
X0950600Y0159367D01*
X0966800Y0143167D01*
X0966800Y0118567D01*
X0950945Y0102712D01*
X0950945Y0101645D01*
X0940945Y0101645D02*
X0921200Y0081901D01*
X0921200Y0035167D01*
X0894200Y0035167D01*
X0879800Y0020767D01*
X0653600Y0020767D01*
X0638600Y0035767D01*
X0601400Y0035767D01*
X0597800Y0032167D01*
X0597800Y0018367D01*
X0593500Y0014067D01*
X0495800Y0014067D01*
X0495200Y0014667D01*
X0495200Y0028567D01*
X0492200Y0031567D01*
X0492200Y0039367D01*
X0520177Y0026842D02*
X0520324Y0026842D01*
X0527000Y0020167D01*
X0581600Y0020167D01*
X0600800Y0039367D01*
X0641600Y0039367D01*
X0654124Y0026842D01*
X0669783Y0026842D01*
X0676908Y0033967D01*
X0703150Y0033967D01*
X0733750Y0064567D01*
X0733750Y0165317D01*
X0711250Y0187817D01*
X0711250Y0236567D01*
X0700000Y0247817D01*
X0700000Y0260317D01*
X0765000Y0260317D02*
X0765000Y0215317D01*
X0755000Y0216567D02*
X0750354Y0216567D01*
X0750236Y0216449D01*
X0755000Y0216567D02*
X0770000Y0201567D01*
X0770000Y0192817D01*
X0746600Y0169417D01*
X0746600Y0111367D01*
X0756321Y0101645D01*
X0767638Y0101645D01*
X0810000Y0090317D02*
X0810000Y0057767D01*
X0838400Y0045367D02*
X0838400Y0071167D01*
X0839000Y0071767D01*
X0832400Y0071767D01*
X0828200Y0075967D01*
X0828200Y0157567D01*
X0833600Y0152167D02*
X0879200Y0152167D01*
X0896600Y0134767D01*
X0905600Y0134767D01*
X0945424Y0152167D02*
X0945424Y0198919D01*
X0927894Y0216449D01*
X0907500Y0220317D02*
X0907500Y0259467D01*
X0907400Y0259567D01*
X0873800Y0257567D02*
X0873800Y0233567D01*
X0889400Y0217967D01*
X0889400Y0153367D01*
X0833600Y0152167D02*
X0833600Y0236717D01*
X0832500Y0237817D01*
X0832500Y0254067D01*
X0837500Y0259067D01*
X0825039Y0249027D02*
X0825000Y0249067D01*
X0825039Y0249027D02*
X0825039Y0216449D01*
X0801150Y0191217D02*
X0791000Y0201367D01*
X0791000Y0242567D01*
X0796250Y0247817D01*
X0696200Y0228767D02*
X0696250Y0205317D01*
X0645000Y0175417D02*
X0633850Y0187767D01*
X0633850Y0235417D01*
X0629600Y0235567D02*
X0629600Y0201967D01*
X0629600Y0183967D01*
X0635750Y0177817D01*
X0636250Y0177817D01*
X0653000Y0175567D02*
X0653000Y0158767D01*
X0666200Y0177967D02*
X0666200Y0139567D01*
X0685400Y0131767D02*
X0689600Y0135967D01*
X0689600Y0176767D01*
X0613750Y0211567D02*
X0611250Y0209067D01*
X0613750Y0211567D02*
X0613750Y0257817D01*
X0545000Y0259067D02*
X0544400Y0258467D01*
X0544400Y0204967D01*
X0533600Y0201967D02*
X0528800Y0206767D01*
X0524600Y0206767D01*
X0518000Y0213367D01*
X0506600Y0213367D01*
X0471800Y0248167D01*
X0471800Y0264367D01*
X0475200Y0290117D02*
X0467350Y0297967D01*
X0387200Y0297967D01*
X0475200Y0290117D02*
X0534300Y0290117D01*
X0545000Y0297817D01*
X0691250Y0297817D01*
X0539600Y0222967D02*
X0539600Y0210967D01*
X0533600Y0201967D02*
X0533600Y0198367D01*
X0563750Y0175867D02*
X0563750Y0162217D01*
X0564200Y0161767D01*
X0591800Y0168967D02*
X0591800Y0169067D01*
X0591800Y0168967D02*
X0591800Y0110767D01*
X0641250Y0089067D02*
X0641250Y0067817D01*
X0640000Y0066567D01*
X0605000Y0059067D02*
X0605000Y0047817D01*
X0606450Y0046367D01*
X0638600Y0046367D01*
X0614600Y0027967D02*
X0610400Y0032167D01*
X0604400Y0032167D01*
X0614600Y0027967D02*
X0615200Y0027967D01*
X0630800Y0029767D02*
X0631400Y0029767D01*
X0638000Y0023167D01*
X0638000Y0015367D01*
X0585200Y0018367D02*
X0581000Y0017167D01*
X0495800Y0014067D02*
X0158700Y0014067D01*
X0146161Y0026605D01*
X0146161Y0026842D01*
X0137237Y0035767D01*
X0126800Y0035767D01*
X0113850Y0022817D01*
X0113750Y0022817D01*
X0101000Y0026317D02*
X0117500Y0042817D01*
X0117500Y0076491D01*
X0121326Y0080317D01*
X0121326Y0082767D01*
X0113452Y0082767D02*
X0113452Y0085019D01*
X0131250Y0102817D01*
X0131250Y0142817D01*
X0145000Y0156567D01*
X0167300Y0156567D01*
X0167500Y0156767D01*
X0172400Y0156767D01*
X0172400Y0221767D01*
X0141000Y0212767D02*
X0141000Y0232752D01*
X0126093Y0247659D01*
X0126093Y0257659D01*
X0126250Y0257817D01*
X0113110Y0251252D02*
X0092195Y0272167D01*
X0080000Y0272167D01*
X0060915Y0291252D01*
X0058307Y0291252D01*
X0056000Y0281767D02*
X0048800Y0288967D01*
X0056000Y0281767D02*
X0062600Y0281767D01*
X0089800Y0254567D01*
X0089800Y0211567D01*
X0092500Y0211567D01*
X0089800Y0211567D02*
X0090000Y0189067D01*
X0078750Y0177817D01*
X0078750Y0166567D01*
X0086875Y0158442D01*
X0108750Y0136567D01*
X0108750Y0106567D01*
X0101250Y0099067D01*
X0101250Y0056567D01*
X0097400Y0051367D02*
X0097400Y0119167D01*
X0093200Y0123367D01*
X0116600Y0120967D02*
X0116600Y0202567D01*
X0105000Y0192817D02*
X0105000Y0234067D01*
X0083750Y0227817D02*
X0083750Y0201567D01*
X0086250Y0199067D01*
X0086250Y0191567D01*
X0075000Y0180317D01*
X0075000Y0139167D01*
X0081200Y0134167D01*
X0093800Y0133567D01*
X0094721Y0141645D02*
X0102200Y0134167D01*
X0102200Y0108967D01*
X0081358Y0101645D02*
X0081358Y0039367D01*
X0081358Y0038325D01*
X0069876Y0026842D01*
X0062657Y0026842D01*
X0093800Y0048367D02*
X0093800Y0086167D01*
X0093600Y0086167D01*
X0182600Y0092767D02*
X0182600Y0040567D01*
X0182500Y0040467D01*
X0182500Y0040317D01*
X0210850Y0021667D02*
X0213750Y0024567D01*
X0213750Y0077717D01*
X0213800Y0077767D01*
X0213800Y0106367D01*
X0217800Y0110367D01*
X0222200Y0114767D01*
X0222200Y0120367D01*
X0230600Y0128767D01*
X0238400Y0128767D01*
X0240800Y0131167D01*
X0241800Y0131167D01*
X0262600Y0151967D01*
X0262600Y0179167D01*
X0253000Y0188767D01*
X0253000Y0231367D01*
X0240800Y0227767D02*
X0240800Y0306367D01*
X0275000Y0257817D02*
X0275000Y0221498D01*
X0257569Y0204067D01*
X0257569Y0196636D01*
X0257500Y0196567D01*
X0235400Y0185567D02*
X0235400Y0209167D01*
X0240800Y0214567D01*
X0240800Y0227767D01*
X0217500Y0235567D02*
X0217500Y0240317D01*
X0201250Y0256567D01*
X0201250Y0257817D01*
X0217500Y0235567D02*
X0217500Y0210317D01*
X0281250Y0177817D02*
X0281250Y0112817D01*
X0268750Y0100317D01*
X0268750Y0042117D01*
X0260600Y0033967D01*
X0247400Y0033967D01*
X0240276Y0026842D01*
X0239665Y0026842D01*
X0249665Y0026842D02*
X0258141Y0018367D01*
X0353000Y0018367D01*
X0357070Y0022437D01*
X0361870Y0026842D01*
X0361870Y0025947D01*
X0370000Y0017817D01*
X0488650Y0017817D01*
X0491000Y0020167D01*
X0595000Y0071567D02*
X0605000Y0059067D01*
X0595000Y0071567D02*
X0595000Y0162767D01*
X0533000Y0144667D02*
X0533000Y0094567D01*
X0535177Y0092389D01*
X0535177Y0066842D01*
X0530000Y0075967D02*
X0525200Y0071167D01*
X0530000Y0075967D02*
X0530000Y0110767D01*
X0526400Y0110767D01*
X0530000Y0110767D02*
X0530000Y0137167D01*
X0529400Y0137767D01*
X0468321Y0101645D02*
X0462800Y0107167D01*
X0428000Y0107167D01*
X0424400Y0103567D01*
X0404000Y0090967D02*
X0404000Y0077167D01*
X0371000Y0089767D02*
X0371000Y0124567D01*
X0354800Y0115567D02*
X0342200Y0128167D01*
X0342200Y0147367D01*
X0342200Y0165367D01*
X0347400Y0171167D02*
X0347400Y0131167D01*
X0358600Y0137567D02*
X0358600Y0094367D01*
X0354800Y0086167D02*
X0354800Y0115567D01*
X0363350Y0104917D02*
X0362000Y0103567D01*
X0363750Y0103567D01*
X0363750Y0082817D01*
X0363500Y0082567D01*
X0363400Y0082567D01*
X0359200Y0078367D01*
X0351200Y0078367D01*
X0366600Y0079967D02*
X0366600Y0140517D01*
X0362500Y0145317D01*
X0360200Y0147617D01*
X0360200Y0162367D01*
X0360200Y0176167D01*
X0356000Y0173767D02*
X0356000Y0172567D01*
X0356000Y0146167D01*
X0363350Y0138817D01*
X0363350Y0104917D01*
X0315000Y0089367D02*
X0315000Y0058767D01*
X0332600Y0041167D01*
X0332600Y0037567D01*
X0342800Y0027367D01*
X0351346Y0027367D01*
X0351870Y0026842D01*
X0274550Y0059067D02*
X0275400Y0061417D01*
X0275400Y0089167D01*
X0295750Y0087167D02*
X0295750Y0085217D01*
X0297800Y0083167D01*
X0295750Y0087167D02*
X0296000Y0125167D01*
X0310000Y0139167D01*
X0310000Y0145317D01*
X0311250Y0146567D01*
X0311250Y0170317D01*
X0329400Y0173567D02*
X0329400Y0154067D01*
X0352200Y0143967D02*
X0358600Y0137567D01*
X0352200Y0143967D02*
X0352200Y0171767D01*
X0352200Y0172767D01*
X0336200Y0188767D01*
X0333000Y0188767D01*
X0329200Y0192567D01*
X0331250Y0197817D02*
X0331950Y0197817D01*
X0356000Y0173767D01*
X0347400Y0171167D02*
X0335800Y0182767D01*
X0329000Y0182767D01*
X0328400Y0182767D01*
X0327800Y0182167D01*
X0329000Y0182767D02*
X0323600Y0186367D01*
X0324200Y0237367D01*
X0326450Y0239617D01*
X0326750Y0239617D01*
X0320000Y0237817D02*
X0318750Y0239067D01*
X0320000Y0237817D02*
X0320000Y0225367D01*
X0320000Y0141567D01*
X0299600Y0121167D01*
X0299600Y0104767D01*
X0315000Y0089367D01*
X0366600Y0079967D02*
X0366600Y0067167D01*
X0366870Y0066897D01*
X0366870Y0066842D01*
X0455250Y0081867D02*
X0463650Y0081867D01*
X0468321Y0101645D02*
X0468425Y0101645D01*
X0685400Y0122767D02*
X0685400Y0131767D01*
X0740000Y0119067D02*
X0740000Y0057817D01*
X0770600Y0033967D02*
X0816200Y0033967D01*
X0821600Y0039367D01*
X0821600Y0174795D01*
X0801150Y0191217D02*
X0801150Y0149167D01*
X0801200Y0149167D01*
X0801200Y0149117D01*
X0809575Y0140742D01*
X0809625Y0140742D01*
X0816200Y0134167D01*
X0816200Y0111967D01*
X0856791Y0101645D02*
X0856791Y0089558D01*
X0839000Y0071767D01*
X0833600Y0077167D02*
X0833600Y0152167D01*
X0960800Y0156367D02*
X0960800Y0197767D01*
X0969200Y0208567D01*
X0972900Y0208567D01*
X0973300Y0208167D01*
X0838400Y0045367D02*
X0856791Y0026975D01*
X0856791Y0026842D01*
X0921200Y0035167D02*
X0929524Y0026842D01*
X0940945Y0026842D01*
X0770600Y0033967D02*
X0763476Y0026842D01*
X0763287Y0026842D01*
X0331250Y0197817D02*
X0331250Y0227817D01*
X0347500Y0244067D01*
X0347500Y0257817D01*
X0105000Y0192817D02*
X0086250Y0174067D01*
X0086250Y0171017D01*
X0084800Y0169567D01*
X0062657Y0176449D02*
X0062657Y0176824D01*
X0072800Y0186967D01*
X0072800Y0202517D01*
X0072500Y0202817D01*
X0077500Y0207817D01*
X0077500Y0231567D01*
X0065000Y0244067D01*
X0064900Y0244067D01*
X0057800Y0251167D01*
X0053392Y0251167D01*
X0053307Y0251252D01*
X0166600Y0156767D02*
X0167500Y0156767D01*
X0172400Y0156767D02*
X0185800Y0156767D01*
X0201800Y0142367D01*
X0245000Y0142367D01*
X0254600Y0150367D01*
X0094721Y0141645D02*
X0086358Y0141645D01*
X0061400Y0144367D02*
X0061358Y0144325D01*
X0061358Y0131645D01*
D20*
X0166600Y0147167D02*
X0166600Y0156767D01*
X0182600Y0159967D02*
X0195400Y0159967D01*
X0205000Y0159967D01*
X0217800Y0163167D02*
X0217800Y0151967D01*
X0195800Y0137167D02*
X0192200Y0140767D01*
X0183200Y0140767D01*
X0195800Y0137167D02*
X0233400Y0137167D01*
X0229200Y0135567D02*
X0231800Y0132967D01*
X0235400Y0132967D01*
X0229200Y0135567D02*
X0197200Y0135567D01*
X0190200Y0129167D01*
X0194600Y0128767D02*
X0198200Y0132367D01*
X0224600Y0132367D01*
X0227600Y0131767D01*
X0288200Y0134767D02*
X0288200Y0079967D01*
X0285000Y0076767D01*
X0285000Y0054367D01*
X0281800Y0051167D01*
X0281800Y0039967D01*
X0284400Y0036967D01*
X0281000Y0033967D02*
X0302600Y0033967D01*
X0308600Y0039967D01*
X0326600Y0039967D01*
X0338600Y0046567D02*
X0343400Y0041767D01*
X0343400Y0036967D01*
X0346400Y0033967D01*
X0368000Y0033967D01*
X0369200Y0035167D01*
X0375800Y0035167D01*
X0406250Y0031617D02*
X0406250Y0029067D01*
X0406250Y0031617D02*
X0413000Y0038367D01*
X0417800Y0038367D01*
X0422600Y0043167D01*
X0422600Y0052767D01*
X0429000Y0059167D01*
X0429000Y0062367D01*
X0432200Y0059167D02*
X0427400Y0054367D01*
X0427400Y0052767D01*
X0424200Y0049567D01*
X0424200Y0041567D01*
X0411250Y0028617D01*
X0411250Y0027817D01*
X0416250Y0027817D02*
X0417500Y0027817D01*
X0425800Y0036117D01*
X0425800Y0047967D01*
X0432200Y0054367D01*
X0432200Y0051167D02*
X0427400Y0046367D01*
X0427400Y0031467D01*
X0423750Y0027817D01*
X0429000Y0027167D02*
X0429000Y0044767D01*
X0433800Y0049567D01*
X0437000Y0049567D01*
X0443400Y0055967D01*
X0443400Y0063967D01*
X0448200Y0063967D02*
X0461000Y0063967D01*
X0462600Y0062367D01*
X0462600Y0024517D01*
X0484400Y0026767D02*
X0484400Y0044167D01*
X0474800Y0053767D01*
X0474800Y0067567D01*
X0468300Y0074067D01*
X0454350Y0074067D01*
X0457500Y0070317D02*
X0465000Y0065317D01*
X0465800Y0070567D02*
X0471800Y0064567D01*
X0471800Y0049767D01*
X0478750Y0042817D01*
X0486800Y0052567D02*
X0486800Y0030367D01*
X0491600Y0025567D01*
X0491000Y0020167D02*
X0484400Y0026767D01*
X0497000Y0032167D02*
X0497000Y0074767D01*
X0492200Y0080767D02*
X0489800Y0078367D01*
X0489800Y0063367D01*
X0487400Y0060967D01*
X0483200Y0063367D02*
X0483200Y0056167D01*
X0486800Y0052567D01*
X0483200Y0063367D02*
X0486200Y0066367D01*
X0486200Y0077767D01*
X0492200Y0080767D02*
X0492200Y0084367D01*
X0488000Y0088567D01*
X0452600Y0088567D01*
X0449000Y0092167D01*
X0449000Y0098767D01*
X0446000Y0101767D01*
X0444800Y0097567D02*
X0399800Y0097567D01*
X0396200Y0093967D01*
X0385400Y0093967D01*
X0377000Y0102367D01*
X0377000Y0152167D01*
X0395000Y0170167D01*
X0395000Y0189967D01*
X0397400Y0187567D02*
X0398000Y0188167D01*
X0398000Y0192967D01*
X0389600Y0201367D01*
X0389600Y0219967D01*
X0371995Y0237571D01*
X0371995Y0285967D01*
X0515000Y0285967D01*
X0521000Y0279967D01*
X0542000Y0279967D01*
X0464600Y0279367D02*
X0459800Y0284167D01*
X0383000Y0284167D01*
X0380600Y0281767D01*
X0371995Y0285967D02*
X0371995Y0289362D01*
X0395000Y0279967D02*
X0395000Y0221167D01*
X0404600Y0227767D02*
X0404600Y0177367D01*
X0414950Y0167017D01*
X0420800Y0161017D01*
X0420800Y0120367D01*
X0430400Y0110767D01*
X0449600Y0110767D01*
X0452000Y0114967D02*
X0440600Y0114967D01*
X0461000Y0110767D02*
X0461000Y0125167D01*
X0447800Y0138367D01*
X0447800Y0176167D01*
X0461000Y0189367D01*
X0461000Y0240967D01*
X0436400Y0246967D02*
X0436400Y0227767D01*
X0418400Y0209767D01*
X0418400Y0186367D01*
X0438800Y0165967D01*
X0438800Y0161767D01*
X0444200Y0161167D02*
X0444200Y0177367D01*
X0458000Y0191167D01*
X0458000Y0209472D01*
X0451024Y0216449D01*
X0464600Y0224167D02*
X0468200Y0220567D01*
X0470000Y0220567D01*
X0464600Y0224167D02*
X0464600Y0279367D01*
X0423200Y0251767D02*
X0411800Y0240367D01*
X0411800Y0174967D01*
X0428000Y0158767D01*
X0431000Y0161767D02*
X0415400Y0177367D01*
X0415400Y0239167D01*
X0419600Y0243367D01*
X0401000Y0236767D02*
X0400700Y0235267D01*
X0399200Y0233167D01*
X0399200Y0210367D01*
X0396800Y0210367D01*
X0399200Y0210367D02*
X0399200Y0195367D01*
X0401000Y0193567D01*
X0401000Y0170167D01*
X0399200Y0167767D02*
X0397400Y0169567D01*
X0397400Y0187567D01*
X0399200Y0167767D02*
X0399200Y0153367D01*
X0386600Y0156367D02*
X0386600Y0108667D01*
X0393622Y0101645D01*
X0392600Y0114367D02*
X0407000Y0099967D01*
X0426200Y0099967D01*
X0431000Y0104767D01*
X0449600Y0104767D01*
X0450800Y0103567D01*
X0455000Y0096967D02*
X0455000Y0096367D01*
X0459800Y0091567D01*
X0489200Y0091567D01*
X0492200Y0088567D01*
X0497000Y0087967D02*
X0488000Y0096967D01*
X0483800Y0096967D01*
X0464600Y0116167D01*
X0464600Y0132367D01*
X0462200Y0134767D01*
X0495800Y0121567D02*
X0501800Y0115567D01*
X0501800Y0084967D01*
X0504800Y0083767D02*
X0504800Y0087367D01*
X0503600Y0088567D01*
X0503600Y0146667D01*
X0502450Y0147817D01*
X0505400Y0148217D02*
X0508750Y0151567D01*
X0507500Y0155317D02*
X0507500Y0165317D01*
X0487500Y0171567D02*
X0487500Y0155317D01*
X0505400Y0148217D02*
X0505400Y0090367D01*
X0506600Y0089167D01*
X0506600Y0083167D01*
X0504800Y0081367D01*
X0504800Y0073567D01*
X0506000Y0072367D01*
X0506000Y0069967D01*
X0501450Y0065417D01*
X0501450Y0065317D01*
X0500000Y0064117D01*
X0503000Y0070567D02*
X0503000Y0081967D01*
X0504800Y0083767D01*
X0509000Y0080767D02*
X0509000Y0090967D01*
X0511400Y0093367D01*
X0511400Y0096967D01*
X0510200Y0098167D01*
X0510200Y0103567D01*
X0510800Y0104167D01*
X0522200Y0101167D02*
X0522200Y0141967D01*
X0529400Y0149167D01*
X0539000Y0149167D01*
X0549800Y0137167D01*
X0554600Y0140167D02*
X0541400Y0152767D01*
X0529400Y0152767D01*
X0519800Y0143167D01*
X0519800Y0087967D01*
X0525200Y0087967D02*
X0525200Y0098167D01*
X0522200Y0101167D01*
X0536600Y0095767D02*
X0536600Y0134167D01*
X0495800Y0121567D02*
X0495800Y0186967D01*
X0489200Y0193567D01*
X0489200Y0222367D01*
X0401000Y0236767D02*
X0401000Y0252967D01*
X0298400Y0257767D02*
X0292500Y0251567D01*
X0292500Y0213367D01*
X0305000Y0200867D01*
X0305000Y0179167D01*
X0301250Y0175417D01*
X0301250Y0175367D01*
X0293750Y0167867D01*
X0293750Y0129517D01*
X0291800Y0127567D01*
X0291800Y0068167D01*
X0293600Y0066367D01*
X0293750Y0066567D01*
X0291400Y0063917D02*
X0290000Y0065317D01*
X0290000Y0128767D01*
X0291250Y0130017D01*
X0291250Y0142817D01*
X0290150Y0143917D01*
X0290150Y0143967D01*
X0296250Y0129617D02*
X0296250Y0167617D01*
X0314600Y0185967D01*
X0314600Y0213367D01*
X0217800Y0172767D02*
X0217800Y0163167D01*
X0162800Y0180967D02*
X0142400Y0180967D01*
X0293600Y0126967D02*
X0296250Y0129617D01*
X0293600Y0126967D02*
X0293600Y0071767D01*
X0293800Y0071567D01*
X0293850Y0071567D01*
X0297500Y0068517D01*
X0297500Y0064067D01*
X0296250Y0062817D01*
X0296250Y0059067D01*
X0291400Y0063917D02*
X0291400Y0052767D01*
X0286600Y0047967D01*
X0277000Y0056717D02*
X0274550Y0059067D01*
X0277000Y0056717D02*
X0277000Y0025567D01*
X0302600Y0043567D02*
X0302600Y0074767D01*
X0328200Y0067167D02*
X0355800Y0067167D01*
X0362600Y0060367D01*
X0385400Y0060367D01*
X0388400Y0063367D01*
X0419500Y0063367D01*
X0423850Y0067717D01*
X0425850Y0071967D02*
X0431250Y0066567D01*
X0454000Y0066567D01*
X0454600Y0067167D01*
X0447800Y0070367D02*
X0441000Y0070317D01*
X0430000Y0070317D01*
X0426750Y0073567D01*
X0409800Y0073567D01*
X0406250Y0070067D01*
X0401000Y0069367D02*
X0378800Y0069367D01*
X0374000Y0074167D01*
X0368146Y0066817D02*
X0366870Y0066842D01*
X0368146Y0066817D02*
X0414750Y0066817D01*
X0419200Y0068767D01*
X0416200Y0071967D02*
X0425850Y0071967D01*
X0430400Y0074167D02*
X0430400Y0075367D01*
X0432800Y0077767D01*
X0432800Y0087967D01*
X0435800Y0090367D02*
X0443000Y0083767D01*
X0443000Y0072967D01*
X0448247Y0076719D02*
X0448247Y0083919D01*
X0440000Y0091567D01*
X0458000Y0084967D02*
X0459800Y0086767D01*
X0485600Y0086767D01*
X0488000Y0084367D01*
X0497000Y0084967D02*
X0497000Y0087967D01*
X0465800Y0071167D02*
X0465800Y0070567D01*
X0429200Y0078967D02*
X0410600Y0078967D01*
X0401000Y0069367D01*
X0411550Y0070017D02*
X0416200Y0071967D01*
X0423250Y0062817D02*
X0422000Y0061567D01*
X0389600Y0061567D01*
X0386000Y0057967D01*
X0362600Y0057967D01*
X0356600Y0063967D01*
X0331400Y0063967D01*
X0326600Y0059167D01*
X0392200Y0049567D02*
X0401450Y0058817D01*
X0415000Y0058817D01*
X0423250Y0062817D02*
X0423750Y0062817D01*
X0438600Y0055967D02*
X0438600Y0054367D01*
X0435400Y0051167D01*
X0432200Y0051167D01*
X0509600Y0027967D02*
X0513800Y0032167D01*
X0547400Y0032167D01*
X0548000Y0040567D02*
X0551000Y0043567D01*
X0646400Y0043567D01*
X0649400Y0046567D01*
X0649400Y0080167D01*
X0660200Y0090967D02*
X0660200Y0069367D01*
X0653000Y0062167D01*
X0653000Y0037567D01*
X0651800Y0036367D01*
X0600000Y0057817D02*
X0597500Y0055317D01*
X0576250Y0055317D01*
X0574350Y0057217D01*
X0576250Y0061567D02*
X0578750Y0059067D01*
X0596250Y0059067D01*
X0576250Y0061567D02*
X0574350Y0061567D01*
X0570800Y0063967D02*
X0570800Y0047767D01*
X0570800Y0063967D02*
X0575000Y0068167D01*
X0575000Y0093367D01*
X0585800Y0104167D01*
X0585200Y0158767D01*
X0575000Y0152167D02*
X0581600Y0145567D01*
X0581600Y0105967D01*
X0575600Y0099967D01*
X0578000Y0108367D02*
X0558800Y0089167D01*
X0544400Y0089167D01*
X0551200Y0094367D02*
X0552200Y0095967D01*
X0552200Y0103967D01*
X0551200Y0105367D01*
X0555400Y0106767D02*
X0555400Y0094367D01*
X0578000Y0108367D02*
X0578000Y0135967D01*
X0612200Y0136567D02*
X0612200Y0201367D01*
X0624200Y0213367D01*
X0624200Y0222367D01*
X0654200Y0222367D02*
X0654200Y0235567D01*
X0675200Y0242167D02*
X0675200Y0216682D01*
X0675433Y0216449D01*
X0777800Y0201367D02*
X0777800Y0168967D01*
X0790400Y0171967D02*
X0790400Y0146167D01*
X0795200Y0141967D02*
X0795200Y0168367D01*
X0706400Y0168967D02*
X0706400Y0158167D01*
X0706400Y0168967D02*
X0706400Y0169067D01*
X0665600Y0132367D02*
X0659600Y0138367D01*
X0665600Y0132367D02*
X0665600Y0096367D01*
X0660200Y0090967D01*
X0649400Y0093367D02*
X0649400Y0098167D01*
X0656000Y0104767D01*
X0656000Y0116767D01*
X0657200Y0117967D01*
X0575000Y0152167D02*
X0569600Y0152167D01*
X0565400Y0156367D01*
X0431600Y0161767D02*
X0431000Y0161767D01*
X0392600Y0114367D02*
X0390800Y0114367D01*
X0444800Y0097567D02*
X0445400Y0096967D01*
X0112400Y0050767D02*
X0108800Y0050767D01*
X0097400Y0039367D01*
X0081358Y0039367D01*
X0298400Y0257767D02*
X0298300Y0282867D01*
X0960200Y0215767D02*
X0960200Y0204967D01*
X0978300Y0198167D02*
X0982400Y0196467D01*
X0982400Y0190567D01*
X0968600Y0176767D01*
X0968600Y0169567D01*
X0964400Y0172567D02*
X0964400Y0179267D01*
X0978300Y0193167D01*
X0978200Y0191867D01*
D21*
X0514400Y0158417D02*
X0514400Y0150367D01*
X0507800Y0143767D01*
X0507800Y0095767D01*
X0508400Y0095167D01*
X0514400Y0158417D02*
X0507500Y0165317D01*
X0482600Y0172567D02*
X0479000Y0172567D01*
X0467600Y0161167D01*
X0455600Y0161167D01*
M02*
