999
dxfrw 0.5.10
0
SECTION
2
HEADER
9
$ACADVER
1
AC1021
9
$HANDSEED
5
20000
9
$DWGCODEPAGE
3
ANSI_1252
9
$INSBASE
10
0
20
0
30
0
9
$EXTMIN
10
0
20
0
30
0
9
$EXTMAX
10
250
20
117.1
30
0
9
$LIMMIN
10
0
20
0
9
$LIMMAX
10
420
20
297
9
$ORTHOMODE
70
0
9
$LTSCALE
40
1
9
$TEXTSTYLE
7
STANDARD
9
$CLAYER
8
switch-help
9
$DIMASZ
40
2.5
9
$DIMLFAC
40
1
9
$DIMSCALE
40
2.5
9
$DIMEXO
40
0.625
9
$DIMEXE
40
1.25
9
$DIMTXT
40
2.5
9
$DIMTSZ
40
0
9
$DIMAUNIT
70
0
9
$DIMADEC
70
0
9
$DIMLUNIT
70
2
9
$DIMSTYLE
2
STANDARD
9
$DIMGAP
40
0.625
9
$DIMTIH
70
0
9
$LUNITS
70
2
9
$LUPREC
70
4
9
$AUNITS
70
0
9
$AUPREC
70
2
9
$SPLINESEGS
70
8
9
$GRIDMODE
70
1
9
$SNAPSTYLE
70
0
9
$PINSBASE
10
0
20
0
30
0
9
$PLIMMIN
10
0
20
0
9
$PLIMMAX
10
210
20
297
9
$INSUNITS
70
4
9
$PSVPSCALE
40
1
0
ENDSEC
0
SECTION
2
CLASSES
0
ENDSEC
0
SECTION
2
TABLES
0
TABLE
2
VPORT
5
8
330
0
100
AcDbSymbolTable
70
1
0
VPORT
5
31
330
2
100
AcDbSymbolTableRecord
100
AcDbViewportTableRecord
2
*ACTIVE
70
0
10
0
20
0
11
1
21
1
12
155.5546726
22
73.9195804196
13
0
23
0
14
10
24
10
15
10
25
10
16
0
26
0
36
1
17
0
27
0
37
0
40
229.225365544
41
1.70792616721
42
50
43
0
44
0
50
0
51
0
71
0
72
100
73
1
74
3
75
0
76
1
77
0
78
0
281
0
65
1
110
0
120
0
130
0
111
1
121
0
131
0
112
0
122
1
132
0
79
0
146
0
348
10020
60
7
61
5
292
1
282
1
141
0
142
0
63
250
421
3358443
0
ENDTAB
0
TABLE
2
LTYPE
5
5
330
0
100
AcDbSymbolTable
70
4
0
LTYPE
5
14
330
5
100
AcDbSymbolTableRecord
100
AcDbLinetypeTableRecord
2
ByBlock
70
0
3

72
65
73
0
40
0
0
LTYPE
5
15
330
5
100
AcDbSymbolTableRecord
100
AcDbLinetypeTableRecord
2
ByLayer
70
0
3

72
65
73
0
40
0
0
LTYPE
5
16
330
5
100
AcDbSymbolTableRecord
100
AcDbLinetypeTableRecord
2
Continuous
70
0
3
Solid line
72
65
73
0
40
0
0
LTYPE
5
32
330
5
100
AcDbSymbolTableRecord
100
AcDbLinetypeTableRecord
2
DOT
70
0
3
Dot . . . . . . . . . . . . . . . . . . . . . .
72
65
73
2
40
6.35
49
0
74
0
49
-6.35
74
0
0
LTYPE
5
33
330
5
100
AcDbSymbolTableRecord
100
AcDbLinetypeTableRecord
2
DOT2
70
0
3
Dot (.5x) .....................................
72
65
73
2
40
3.175
49
0
74
0
49
-3.175
74
0
0
LTYPE
5
34
330
5
100
AcDbSymbolTableRecord
100
AcDbLinetypeTableRecord
2
DOTX2
70
0
3
Dot (2x) .  .  .  .  .  .  .  .  .  .  .  .  .
72
65
73
2
40
12.7
49
0
74
0
49
-12.7
74
0
0
LTYPE
5
35
330
5
100
AcDbSymbolTableRecord
100
AcDbLinetypeTableRecord
2
DASHED
70
0
3
Dot . . . . . . . . . . . . . . . . . . . . . .
72
65
73
2
40
19.05
49
12.7
74
0
49
-6.35
74
0
0
LTYPE
5
36
330
5
100
AcDbSymbolTableRecord
100
AcDbLinetypeTableRecord
2
DASHED2
70
0
3
Dashed (.5x) _ _ _ _ _ _ _ _ _ _ _ _ _ _ _ _ _
72
65
73
2
40
9.525
49
6.35
74
0
49
-3.175
74
0
0
LTYPE
5
37
330
5
100
AcDbSymbolTableRecord
100
AcDbLinetypeTableRecord
2
DASHEDX2
70
0
3
Dashed (2x) ____  ____  ____  ____  ____  ___
72
65
73
2
40
38.1
49
25.4
74
0
49
-12.7
74
0
0
LTYPE
5
38
330
5
100
AcDbSymbolTableRecord
100
AcDbLinetypeTableRecord
2
DASHDOT
70
0
3
Dash dot __ . __ . __ . __ . __ . __ . __ . __
72
65
73
4
40
25.4
49
12.7
74
0
49
-6.35
74
0
49
0
74
0
49
-6.35
74
0
0
LTYPE
5
39
330
5
100
AcDbSymbolTableRecord
100
AcDbLinetypeTableRecord
2
DASHDOT2
70
0
3
Dash dot (.5x) _._._._._._._._._._._._._._._.
72
65
73
4
40
12.7
49
6.35
74
0
49
-3.175
74
0
49
0
74
0
49
-3.175
74
0
0
LTYPE
5
3A
330
5
100
AcDbSymbolTableRecord
100
AcDbLinetypeTableRecord
2
DASHDOTX2
70
0
3
Dash dot (2x) ____  .  ____  .  ____  .  ___
72
65
73
4
40
50.8
49
25.4
74
0
49
-12.7
74
0
49
0
74
0
49
-12.7
74
0
0
LTYPE
5
3B
330
5
100
AcDbSymbolTableRecord
100
AcDbLinetypeTableRecord
2
DIVIDE
70
0
3
Divide ____ . . ____ . . ____ . . ____ . . ____
72
65
73
6
40
31.75
49
12.7
74
0
49
-6.35
74
0
49
0
74
0
49
-6.35
74
0
49
0
74
0
49
-6.35
74
0
0
LTYPE
5
3C
330
5
100
AcDbSymbolTableRecord
100
AcDbLinetypeTableRecord
2
DIVIDE2
70
0
3
Divide (.5x) __..__..__..__..__..__..__..__.._
72
65
73
6
40
15.875
49
6.35
74
0
49
-3.175
74
0
49
0
74
0
49
-3.175
74
0
49
0
74
0
49
-3.175
74
0
0
LTYPE
5
3D
330
5
100
AcDbSymbolTableRecord
100
AcDbLinetypeTableRecord
2
DIVIDEX2
70
0
3
Divide (2x) ________  .  .  ________  .  .  _
72
65
73
6
40
63.5
49
25.4
74
0
49
-12.7
74
0
49
0
74
0
49
-12.7
74
0
49
0
74
0
49
-12.7
74
0
0
LTYPE
5
3E
330
5
100
AcDbSymbolTableRecord
100
AcDbLinetypeTableRecord
2
BORDER
70
0
3
Border __ __ . __ __ . __ __ . __ __ . __ __ .
72
65
73
6
40
44.45
49
12.7
74
0
49
-6.35
74
0
49
12.7
74
0
49
-6.35
74
0
49
0
74
0
49
-6.35
74
0
0
LTYPE
5
3F
330
5
100
AcDbSymbolTableRecord
100
AcDbLinetypeTableRecord
2
BORDER2
70
0
3
Border (.5x) __.__.__.__.__.__.__.__.__.__.__.
72
65
73
6
40
22.225
49
6.35
74
0
49
-3.175
74
0
49
6.35
74
0
49
-3.175
74
0
49
0
74
0
49
-3.175
74
0
0
LTYPE
5
40
330
5
100
AcDbSymbolTableRecord
100
AcDbLinetypeTableRecord
2
BORDERX2
70
0
3
Border (2x) ____  ____  .  ____  ____  .  ___
72
65
73
6
40
88.9
49
25.4
74
0
49
-12.7
74
0
49
25.4
74
0
49
-12.7
74
0
49
0
74
0
49
-12.7
74
0
0
LTYPE
5
41
330
5
100
AcDbSymbolTableRecord
100
AcDbLinetypeTableRecord
2
CENTER
70
0
3
Center ____ _ ____ _ ____ _ ____ _ ____ _ ____
72
65
73
4
40
50.8
49
31.75
74
0
49
-6.35
74
0
49
6.35
74
0
49
-6.35
74
0
0
LTYPE
5
42
330
5
100
AcDbSymbolTableRecord
100
AcDbLinetypeTableRecord
2
CENTER2
70
0
3
Center (.5x) ___ _ ___ _ ___ _ ___ _ ___ _ ___
72
65
73
4
40
28.575
49
19.05
74
0
49
-3.175
74
0
49
3.175
74
0
49
-3.175
74
0
0
LTYPE
5
43
330
5
100
AcDbSymbolTableRecord
100
AcDbLinetypeTableRecord
2
CENTERX2
70
0
3
Center (2x) ________  __  ________  __  _____
72
65
73
4
40
101.6
49
63.5
74
0
49
-12.7
74
0
49
12.7
74
0
49
-12.7
74
0
0
ENDTAB
0
TABLE
2
LAYER
5
2
330
0
100
AcDbSymbolTable
70
1
0
LAYER
5
10
330
2
100
AcDbSymbolTableRecord
100
AcDbLayerTableRecord
2
0
70
0
62
7
6
CONTINUOUS
370
0
390
F
0
LAYER
5
44
330
2
100
AcDbSymbolTableRecord
100
AcDbLayerTableRecord
2
switch-help
70
1
62
2
6
CONTINUOUS
370
0
390
F
0
ENDTAB
0
TABLE
2
STYLE
5
3
330
0
100
AcDbSymbolTable
70
3
0
STYLE
5
45
330
2
100
AcDbSymbolTableRecord
100
AcDbTextStyleTableRecord
2
Standard
70
0
40
0
41
1
50
0
71
0
42
1
3
txt
4

0
ENDTAB
0
TABLE
2
VIEW
5
6
330
0
100
AcDbSymbolTable
70
0
0
ENDTAB
0
TABLE
2
UCS
5
7
330
0
100
AcDbSymbolTable
70
0
0
ENDTAB
0
TABLE
2
APPID
5
9
330
0
100
AcDbSymbolTable
70
1
0
APPID
5
12
330
9
100
AcDbSymbolTableRecord
100
AcDbRegAppTableRecord
2
ACAD
70
0
0
ENDTAB
0
TABLE
2
DIMSTYLE
5
A
330
0
100
AcDbSymbolTable
70
1
100
AcDbDimStyleTable
71
1
0
DIMSTYLE
105
46
330
A
100
AcDbSymbolTableRecord
100
AcDbDimStyleTableRecord
2
Standard
70
0
40
1
41
2.5
42
0.625
43
0.38
44
1.25
45
0
46
0
47
0
48
0
140
2.5
141
0.09
142
0
143
25.4
144
1
145
0
146
1
147
0.625
148
0
71
0
72
0
73
0
74
1
75
0
76
0
77
0
78
0
79
0
170
0
171
2
172
0
173
0
174
0
175
0
176
0
177
0
178
0
179
0
271
4
272
4
273
2
274
2
275
0
276
0
277
2
278
46
279
0
280
0
281
0
282
0
283
1
284
0
285
0
286
0
288
0
289
3
340
Standard
341

371
-2
372
-2
0
ENDTAB
0
TABLE
2
BLOCK_RECORD
5
1
330
0
100
AcDbSymbolTable
70
2
0
BLOCK_RECORD
5
1F
330
1
100
AcDbSymbolTableRecord
100
AcDbBlockTableRecord
2
*Model_Space
70
0
280
1
281
0
0
BLOCK_RECORD
5
1E
330
1
100
AcDbSymbolTableRecord
100
AcDbBlockTableRecord
2
*Paper_Space
70
0
280
1
281
0
0
ENDTAB
0
ENDSEC
0
SECTION
2
BLOCKS
0
BLOCK
5
20
330
1F
100
AcDbEntity
8
0
100
AcDbBlockBegin
2
*Model_Space
70
0
10
0
20
0
30
0
3
*Model_Space
1

0
ENDBLK
5
21
330
1F
100
AcDbEntity
8
0
100
AcDbBlockEnd
0
BLOCK
5
1C
330
1B
100
AcDbEntity
8
0
100
AcDbBlockBegin
2
*Paper_Space
70
0
10
0
20
0
30
0
3
*Paper_Space
1

0
ENDBLK
5
1D
330
1F
100
AcDbEntity
8
0
100
AcDbBlockEnd
0
ENDSEC
0
SECTION
2
ENTITIES
0
LINE
5
47
100
AcDbEntity
8
0
6
ByLayer
62
256
370
-1
100
AcDbLine
10
18
20
71
11
18
21
68.5
0
LINE
5
48
100
AcDbEntity
8
0
6
ByLayer
62
256
370
-1
100
AcDbLine
10
18
20
74.5
11
18.4
21
74.5
0
ARC
5
49
100
AcDbEntity
8
0
6
ByLayer
62
256
370
-1
100
AcDbCircle
10
18.4
20
74.1
40
0.4
100
AcDbArc
50
0
51
90
0
LINE
5
4A
100
AcDbEntity
8
0
6
ByLayer
62
256
370
-1
100
AcDbLine
10
18.4
20
71
11
18
21
71
0
ARC
5
4B
100
AcDbEntity
8
0
6
ByLayer
62
256
370
-1
100
AcDbCircle
10
18.4
20
71.4
40
0.4
100
AcDbArc
50
270
51
0
0
LINE
5
4C
100
AcDbEntity
8
0
6
ByLayer
62
256
370
-1
100
AcDbLine
10
18.8
20
74.1
11
18.8
21
71.4
0
LINE
5
4D
100
AcDbEntity
8
0
6
ByLayer
62
256
370
-1
100
AcDbLine
10
18
20
74.9354248689
11
18
21
74.5
0
ARC
5
4E
100
AcDbEntity
8
0
6
ByLayer
62
256
370
-1
100
AcDbCircle
10
17.7
20
75.2
40
0.4
100
AcDbArc
50
318.590377891
51
131.409622108
0
LINE
5
4F
100
AcDbEntity
8
0
6
ByLayer
62
256
370
-1
100
AcDbLine
10
11
20
75.5
11
17.4354248689
21
75.5
0
LINE
5
50
100
AcDbEntity
8
0
6
ByLayer
62
256
370
-1
100
AcDbLine
10
4
20
71
11
4
21
68.5
0
LINE
5
51
100
AcDbEntity
8
0
6
ByLayer
62
256
370
-1
100
AcDbLine
10
4
20
74.5
11
3.6
21
74.5
0
ARC
5
52
100
AcDbEntity
8
0
6
ByLayer
62
256
370
-1
100
AcDbCircle
10
3.6
20
74.1
40
0.4
100
AcDbArc
50
90
51
180
0
LINE
5
53
100
AcDbEntity
8
0
6
ByLayer
62
256
370
-1
100
AcDbLine
10
3.6
20
71
11
4
21
71
0
ARC
5
54
100
AcDbEntity
8
0
6
ByLayer
62
256
370
-1
100
AcDbCircle
10
3.6
20
71.4
40
0.4
100
AcDbArc
50
180
51
270
0
LINE
5
55
100
AcDbEntity
8
0
6
ByLayer
62
256
370
-1
100
AcDbLine
10
3.2
20
74.1
11
3.2
21
71.4
0
LINE
5
56
100
AcDbEntity
8
0
6
ByLayer
62
256
370
-1
100
AcDbLine
10
4
20
74.9354248689
11
4
21
74.5
0
ARC
5
57
100
AcDbEntity
8
0
6
ByLayer
62
256
370
-1
100
AcDbCircle
10
4.3
20
75.2
40
0.4
100
AcDbArc
50
48.5903778923
51
221.409622109
0
LINE
5
58
100
AcDbEntity
8
0
6
ByLayer
62
256
370
-1
100
AcDbLine
10
11
20
75.5
11
4.56457513109
21
75.5
0
LINE
5
59
100
AcDbEntity
8
0
6
ByLayer
62
256
370
-1
100
AcDbLine
10
18
20
66
11
18
21
68.5
0
LINE
5
5A
100
AcDbEntity
8
0
6
ByLayer
62
256
370
-1
100
AcDbLine
10
18
20
62.5
11
18.4
21
62.5
0
ARC
5
5B
100
AcDbEntity
8
0
6
ByLayer
62
256
370
-1
100
AcDbCircle
10
18.4
20
62.9
40
0.4
100
AcDbArc
50
270
51
0
0
LINE
5
5C
100
AcDbEntity
8
0
6
ByLayer
62
256
370
-1
100
AcDbLine
10
18.4
20
66
11
18
21
66
0
ARC
5
5D
100
AcDbEntity
8
0
6
ByLayer
62
256
370
-1
100
AcDbCircle
10
18.4
20
65.6
40
0.4
100
AcDbArc
50
0
51
90
0
LINE
5
5E
100
AcDbEntity
8
0
6
ByLayer
62
256
370
-1
100
AcDbLine
10
18.8
20
62.9
11
18.8
21
65.6
0
LINE
5
5F
100
AcDbEntity
8
0
6
ByLayer
62
256
370
-1
100
AcDbLine
10
18
20
62.0645751311
11
18
21
62.5
0
ARC
5
60
100
AcDbEntity
8
0
6
ByLayer
62
256
370
-1
100
AcDbCircle
10
17.7
20
61.8
40
0.4
100
AcDbArc
50
228.590377892
51
41.4096221092
0
LINE
5
61
100
AcDbEntity
8
0
6
ByLayer
62
256
370
-1
100
AcDbLine
10
11
20
61.5
11
17.4354248689
21
61.5
0
LINE
5
62
100
AcDbEntity
8
0
6
ByLayer
62
256
370
-1
100
AcDbLine
10
4
20
66
11
4
21
68.5
0
LINE
5
63
100
AcDbEntity
8
0
6
ByLayer
62
256
370
-1
100
AcDbLine
10
4
20
62.5
11
3.6
21
62.5
0
ARC
5
64
100
AcDbEntity
8
0
6
ByLayer
62
256
370
-1
100
AcDbCircle
10
3.6
20
62.9
40
0.4
100
AcDbArc
50
180
51
270
0
LINE
5
65
100
AcDbEntity
8
0
6
ByLayer
62
256
370
-1
100
AcDbLine
10
3.6
20
66
11
4
21
66
0
ARC
5
66
100
AcDbEntity
8
0
6
ByLayer
62
256
370
-1
100
AcDbCircle
10
3.6
20
65.6
40
0.4
100
AcDbArc
50
90
51
180
0
LINE
5
67
100
AcDbEntity
8
0
6
ByLayer
62
256
370
-1
100
AcDbLine
10
3.2
20
62.9
11
3.2
21
65.6
0
LINE
5
68
100
AcDbEntity
8
0
6
ByLayer
62
256
370
-1
100
AcDbLine
10
4
20
62.0645751311
11
4
21
62.5
0
ARC
5
69
100
AcDbEntity
8
0
6
ByLayer
62
256
370
-1
100
AcDbCircle
10
4.3
20
61.8
40
0.4
100
AcDbArc
50
138.590377891
51
311.409622108
0
LINE
5
6A
100
AcDbEntity
8
0
6
ByLayer
62
256
370
-1
100
AcDbLine
10
11
20
61.5
11
4.56457513109
21
61.5
0
LINE
5
6B
100
AcDbEntity
8
0
6
ByLayer
62
256
370
-1
100
AcDbLine
10
37
20
71
11
37
21
68.5
0
LINE
5
6C
100
AcDbEntity
8
0
6
ByLayer
62
256
370
-1
100
AcDbLine
10
37
20
74.5
11
37.4
21
74.5
0
ARC
5
6D
100
AcDbEntity
8
0
6
ByLayer
62
256
370
-1
100
AcDbCircle
10
37.4
20
74.1
40
0.4
100
AcDbArc
50
0
51
90
0
LINE
5
6E
100
AcDbEntity
8
0
6
ByLayer
62
256
370
-1
100
AcDbLine
10
37.4
20
71
11
37
21
71
0
ARC
5
6F
100
AcDbEntity
8
0
6
ByLayer
62
256
370
-1
100
AcDbCircle
10
37.4
20
71.4
40
0.4
100
AcDbArc
50
270
51
0
0
LINE
5
70
100
AcDbEntity
8
0
6
ByLayer
62
256
370
-1
100
AcDbLine
10
37.8
20
74.1
11
37.8
21
71.4
0
LINE
5
71
100
AcDbEntity
8
0
6
ByLayer
62
256
370
-1
100
AcDbLine
10
37
20
74.9354248689
11
37
21
74.5
0
ARC
5
72
100
AcDbEntity
8
0
6
ByLayer
62
256
370
-1
100
AcDbCircle
10
36.7
20
75.2
40
0.4
100
AcDbArc
50
318.590377891
51
131.409622108
0
LINE
5
73
100
AcDbEntity
8
0
6
ByLayer
62
256
370
-1
100
AcDbLine
10
30
20
75.5
11
36.4354248689
21
75.5
0
LINE
5
74
100
AcDbEntity
8
0
6
ByLayer
62
256
370
-1
100
AcDbLine
10
23
20
71
11
23
21
68.5
0
LINE
5
75
100
AcDbEntity
8
0
6
ByLayer
62
256
370
-1
100
AcDbLine
10
23
20
74.5
11
22.6
21
74.5
0
ARC
5
76
100
AcDbEntity
8
0
6
ByLayer
62
256
370
-1
100
AcDbCircle
10
22.6
20
74.1
40
0.4
100
AcDbArc
50
90
51
180
0
LINE
5
77
100
AcDbEntity
8
0
6
ByLayer
62
256
370
-1
100
AcDbLine
10
22.6
20
71
11
23
21
71
0
ARC
5
78
100
AcDbEntity
8
0
6
ByLayer
62
256
370
-1
100
AcDbCircle
10
22.6
20
71.4
40
0.4
100
AcDbArc
50
180
51
270
0
LINE
5
79
100
AcDbEntity
8
0
6
ByLayer
62
256
370
-1
100
AcDbLine
10
22.2
20
74.1
11
22.2
21
71.4
0
LINE
5
7A
100
AcDbEntity
8
0
6
ByLayer
62
256
370
-1
100
AcDbLine
10
23
20
74.9354248689
11
23
21
74.5
0
ARC
5
7B
100
AcDbEntity
8
0
6
ByLayer
62
256
370
-1
100
AcDbCircle
10
23.3
20
75.2
40
0.4
100
AcDbArc
50
48.5903778923
51
221.409622109
0
LINE
5
7C
100
AcDbEntity
8
0
6
ByLayer
62
256
370
-1
100
AcDbLine
10
30
20
75.5
11
23.5645751311
21
75.5
0
LINE
5
7D
100
AcDbEntity
8
0
6
ByLayer
62
256
370
-1
100
AcDbLine
10
37
20
66
11
37
21
68.5
0
LINE
5
7E
100
AcDbEntity
8
0
6
ByLayer
62
256
370
-1
100
AcDbLine
10
37
20
62.5
11
37.4
21
62.5
0
ARC
5
7F
100
AcDbEntity
8
0
6
ByLayer
62
256
370
-1
100
AcDbCircle
10
37.4
20
62.9
40
0.4
100
AcDbArc
50
270
51
0
0
LINE
5
80
100
AcDbEntity
8
0
6
ByLayer
62
256
370
-1
100
AcDbLine
10
37.4
20
66
11
37
21
66
0
ARC
5
81
100
AcDbEntity
8
0
6
ByLayer
62
256
370
-1
100
AcDbCircle
10
37.4
20
65.6
40
0.4
100
AcDbArc
50
0
51
90
0
LINE
5
82
100
AcDbEntity
8
0
6
ByLayer
62
256
370
-1
100
AcDbLine
10
37.8
20
62.9
11
37.8
21
65.6
0
LINE
5
83
100
AcDbEntity
8
0
6
ByLayer
62
256
370
-1
100
AcDbLine
10
37
20
62.0645751311
11
37
21
62.5
0
ARC
5
84
100
AcDbEntity
8
0
6
ByLayer
62
256
370
-1
100
AcDbCircle
10
36.7
20
61.8
40
0.4
100
AcDbArc
50
228.590377892
51
41.4096221092
0
LINE
5
85
100
AcDbEntity
8
0
6
ByLayer
62
256
370
-1
100
AcDbLine
10
30
20
61.5
11
36.4354248689
21
61.5
0
LINE
5
86
100
AcDbEntity
8
0
6
ByLayer
62
256
370
-1
100
AcDbLine
10
23
20
66
11
23
21
68.5
0
LINE
5
87
100
AcDbEntity
8
0
6
ByLayer
62
256
370
-1
100
AcDbLine
10
23
20
62.5
11
22.6
21
62.5
0
ARC
5
88
100
AcDbEntity
8
0
6
ByLayer
62
256
370
-1
100
AcDbCircle
10
22.6
20
62.9
40
0.4
100
AcDbArc
50
180
51
270
0
LINE
5
89
100
AcDbEntity
8
0
6
ByLayer
62
256
370
-1
100
AcDbLine
10
22.6
20
66
11
23
21
66
0
ARC
5
8A
100
AcDbEntity
8
0
6
ByLayer
62
256
370
-1
100
AcDbCircle
10
22.6
20
65.6
40
0.4
100
AcDbArc
50
90
51
180
0
LINE
5
8B
100
AcDbEntity
8
0
6
ByLayer
62
256
370
-1
100
AcDbLine
10
22.2
20
62.9
11
22.2
21
65.6
0
LINE
5
8C
100
AcDbEntity
8
0
6
ByLayer
62
256
370
-1
100
AcDbLine
10
23
20
62.0645751311
11
23
21
62.5
0
ARC
5
8D
100
AcDbEntity
8
0
6
ByLayer
62
256
370
-1
100
AcDbCircle
10
23.3
20
61.8
40
0.4
100
AcDbArc
50
138.590377891
51
311.409622108
0
LINE
5
8E
100
AcDbEntity
8
0
6
ByLayer
62
256
370
-1
100
AcDbLine
10
30
20
61.5
11
23.5645751311
21
61.5
0
LINE
5
8F
100
AcDbEntity
8
0
6
ByLayer
62
256
370
-1
100
AcDbLine
10
56
20
71
11
56
21
68.5
0
LINE
5
90
100
AcDbEntity
8
0
6
ByLayer
62
256
370
-1
100
AcDbLine
10
56
20
74.5
11
56.4
21
74.5
0
ARC
5
91
100
AcDbEntity
8
0
6
ByLayer
62
256
370
-1
100
AcDbCircle
10
56.4
20
74.1
40
0.4
100
AcDbArc
50
0
51
90
0
LINE
5
92
100
AcDbEntity
8
0
6
ByLayer
62
256
370
-1
100
AcDbLine
10
56.4
20
71
11
56
21
71
0
ARC
5
93
100
AcDbEntity
8
0
6
ByLayer
62
256
370
-1
100
AcDbCircle
10
56.4
20
71.4
40
0.4
100
AcDbArc
50
270
51
0
0
LINE
5
94
100
AcDbEntity
8
0
6
ByLayer
62
256
370
-1
100
AcDbLine
10
56.8
20
74.1
11
56.8
21
71.4
0
LINE
5
95
100
AcDbEntity
8
0
6
ByLayer
62
256
370
-1
100
AcDbLine
10
56
20
74.9354248689
11
56
21
74.5
0
ARC
5
96
100
AcDbEntity
8
0
6
ByLayer
62
256
370
-1
100
AcDbCircle
10
55.7
20
75.2
40
0.4
100
AcDbArc
50
318.590377891
51
131.409622108
0
LINE
5
97
100
AcDbEntity
8
0
6
ByLayer
62
256
370
-1
100
AcDbLine
10
49
20
75.5
11
55.4354248689
21
75.5
0
LINE
5
98
100
AcDbEntity
8
0
6
ByLayer
62
256
370
-1
100
AcDbLine
10
42
20
71
11
42
21
68.5
0
LINE
5
99
100
AcDbEntity
8
0
6
ByLayer
62
256
370
-1
100
AcDbLine
10
42
20
74.5
11
41.6
21
74.5
0
ARC
5
9A
100
AcDbEntity
8
0
6
ByLayer
62
256
370
-1
100
AcDbCircle
10
41.6
20
74.1
40
0.4
100
AcDbArc
50
90
51
180
0
LINE
5
9B
100
AcDbEntity
8
0
6
ByLayer
62
256
370
-1
100
AcDbLine
10
41.6
20
71
11
42
21
71
0
ARC
5
9C
100
AcDbEntity
8
0
6
ByLayer
62
256
370
-1
100
AcDbCircle
10
41.6
20
71.4
40
0.4
100
AcDbArc
50
180
51
270
0
LINE
5
9D
100
AcDbEntity
8
0
6
ByLayer
62
256
370
-1
100
AcDbLine
10
41.2
20
74.1
11
41.2
21
71.4
0
LINE
5
9E
100
AcDbEntity
8
0
6
ByLayer
62
256
370
-1
100
AcDbLine
10
42
20
74.9354248689
11
42
21
74.5
0
ARC
5
9F
100
AcDbEntity
8
0
6
ByLayer
62
256
370
-1
100
AcDbCircle
10
42.3
20
75.2
40
0.4
100
AcDbArc
50
48.5903778923
51
221.409622109
0
LINE
5
A0
100
AcDbEntity
8
0
6
ByLayer
62
256
370
-1
100
AcDbLine
10
49
20
75.5
11
42.5645751311
21
75.5
0
LINE
5
A1
100
AcDbEntity
8
0
6
ByLayer
62
256
370
-1
100
AcDbLine
10
56
20
66
11
56
21
68.5
0
LINE
5
A2
100
AcDbEntity
8
0
6
ByLayer
62
256
370
-1
100
AcDbLine
10
56
20
62.5
11
56.4
21
62.5
0
ARC
5
A3
100
AcDbEntity
8
0
6
ByLayer
62
256
370
-1
100
AcDbCircle
10
56.4
20
62.9
40
0.4
100
AcDbArc
50
270
51
0
0
LINE
5
A4
100
AcDbEntity
8
0
6
ByLayer
62
256
370
-1
100
AcDbLine
10
56.4
20
66
11
56
21
66
0
ARC
5
A5
100
AcDbEntity
8
0
6
ByLayer
62
256
370
-1
100
AcDbCircle
10
56.4
20
65.6
40
0.4
100
AcDbArc
50
0
51
90
0
LINE
5
A6
100
AcDbEntity
8
0
6
ByLayer
62
256
370
-1
100
AcDbLine
10
56.8
20
62.9
11
56.8
21
65.6
0
LINE
5
A7
100
AcDbEntity
8
0
6
ByLayer
62
256
370
-1
100
AcDbLine
10
56
20
62.0645751311
11
56
21
62.5
0
ARC
5
A8
100
AcDbEntity
8
0
6
ByLayer
62
256
370
-1
100
AcDbCircle
10
55.7
20
61.8
40
0.4
100
AcDbArc
50
228.590377892
51
41.4096221092
0
LINE
5
A9
100
AcDbEntity
8
0
6
ByLayer
62
256
370
-1
100
AcDbLine
10
49
20
61.5
11
55.4354248689
21
61.5
0
LINE
5
AA
100
AcDbEntity
8
0
6
ByLayer
62
256
370
-1
100
AcDbLine
10
42
20
66
11
42
21
68.5
0
LINE
5
AB
100
AcDbEntity
8
0
6
ByLayer
62
256
370
-1
100
AcDbLine
10
42
20
62.5
11
41.6
21
62.5
0
ARC
5
AC
100
AcDbEntity
8
0
6
ByLayer
62
256
370
-1
100
AcDbCircle
10
41.6
20
62.9
40
0.4
100
AcDbArc
50
180
51
270
0
LINE
5
AD
100
AcDbEntity
8
0
6
ByLayer
62
256
370
-1
100
AcDbLine
10
41.6
20
66
11
42
21
66
0
ARC
5
AE
100
AcDbEntity
8
0
6
ByLayer
62
256
370
-1
100
AcDbCircle
10
41.6
20
65.6
40
0.4
100
AcDbArc
50
90
51
180
0
LINE
5
AF
100
AcDbEntity
8
0
6
ByLayer
62
256
370
-1
100
AcDbLine
10
41.2
20
62.9
11
41.2
21
65.6
0
LINE
5
B0
100
AcDbEntity
8
0
6
ByLayer
62
256
370
-1
100
AcDbLine
10
42
20
62.0645751311
11
42
21
62.5
0
ARC
5
B1
100
AcDbEntity
8
0
6
ByLayer
62
256
370
-1
100
AcDbCircle
10
42.3
20
61.8
40
0.4
100
AcDbArc
50
138.590377891
51
311.409622108
0
LINE
5
B2
100
AcDbEntity
8
0
6
ByLayer
62
256
370
-1
100
AcDbLine
10
49
20
61.5
11
42.5645751311
21
61.5
0
LINE
5
B3
100
AcDbEntity
8
0
6
ByLayer
62
256
370
-1
100
AcDbLine
10
75
20
71
11
75
21
68.5
0
LINE
5
B4
100
AcDbEntity
8
0
6
ByLayer
62
256
370
-1
100
AcDbLine
10
75
20
74.5
11
75.4
21
74.5
0
ARC
5
B5
100
AcDbEntity
8
0
6
ByLayer
62
256
370
-1
100
AcDbCircle
10
75.4
20
74.1
40
0.4
100
AcDbArc
50
0
51
90
0
LINE
5
B6
100
AcDbEntity
8
0
6
ByLayer
62
256
370
-1
100
AcDbLine
10
75.4
20
71
11
75
21
71
0
ARC
5
B7
100
AcDbEntity
8
0
6
ByLayer
62
256
370
-1
100
AcDbCircle
10
75.4
20
71.4
40
0.4
100
AcDbArc
50
270
51
0
0
LINE
5
B8
100
AcDbEntity
8
0
6
ByLayer
62
256
370
-1
100
AcDbLine
10
75.8
20
74.1
11
75.8
21
71.4
0
LINE
5
B9
100
AcDbEntity
8
0
6
ByLayer
62
256
370
-1
100
AcDbLine
10
75
20
74.9354248689
11
75
21
74.5
0
ARC
5
BA
100
AcDbEntity
8
0
6
ByLayer
62
256
370
-1
100
AcDbCircle
10
74.7
20
75.2
40
0.4
100
AcDbArc
50
318.590377891
51
131.409622108
0
LINE
5
BB
100
AcDbEntity
8
0
6
ByLayer
62
256
370
-1
100
AcDbLine
10
68
20
75.5
11
74.4354248689
21
75.5
0
LINE
5
BC
100
AcDbEntity
8
0
6
ByLayer
62
256
370
-1
100
AcDbLine
10
61
20
71
11
61
21
68.5
0
LINE
5
BD
100
AcDbEntity
8
0
6
ByLayer
62
256
370
-1
100
AcDbLine
10
61
20
74.5
11
60.6
21
74.5
0
ARC
5
BE
100
AcDbEntity
8
0
6
ByLayer
62
256
370
-1
100
AcDbCircle
10
60.6
20
74.1
40
0.4
100
AcDbArc
50
90
51
180
0
LINE
5
BF
100
AcDbEntity
8
0
6
ByLayer
62
256
370
-1
100
AcDbLine
10
60.6
20
71
11
61
21
71
0
ARC
5
C0
100
AcDbEntity
8
0
6
ByLayer
62
256
370
-1
100
AcDbCircle
10
60.6
20
71.4
40
0.4
100
AcDbArc
50
180
51
270
0
LINE
5
C1
100
AcDbEntity
8
0
6
ByLayer
62
256
370
-1
100
AcDbLine
10
60.2
20
74.1
11
60.2
21
71.4
0
LINE
5
C2
100
AcDbEntity
8
0
6
ByLayer
62
256
370
-1
100
AcDbLine
10
61
20
74.9354248689
11
61
21
74.5
0
ARC
5
C3
100
AcDbEntity
8
0
6
ByLayer
62
256
370
-1
100
AcDbCircle
10
61.3
20
75.2
40
0.4
100
AcDbArc
50
48.5903778923
51
221.409622109
0
LINE
5
C4
100
AcDbEntity
8
0
6
ByLayer
62
256
370
-1
100
AcDbLine
10
68
20
75.5
11
61.5645751311
21
75.5
0
LINE
5
C5
100
AcDbEntity
8
0
6
ByLayer
62
256
370
-1
100
AcDbLine
10
75
20
66
11
75
21
68.5
0
LINE
5
C6
100
AcDbEntity
8
0
6
ByLayer
62
256
370
-1
100
AcDbLine
10
75
20
62.5
11
75.4
21
62.5
0
ARC
5
C7
100
AcDbEntity
8
0
6
ByLayer
62
256
370
-1
100
AcDbCircle
10
75.4
20
62.9
40
0.4
100
AcDbArc
50
270
51
0
0
LINE
5
C8
100
AcDbEntity
8
0
6
ByLayer
62
256
370
-1
100
AcDbLine
10
75.4
20
66
11
75
21
66
0
ARC
5
C9
100
AcDbEntity
8
0
6
ByLayer
62
256
370
-1
100
AcDbCircle
10
75.4
20
65.6
40
0.4
100
AcDbArc
50
0
51
90
0
LINE
5
CA
100
AcDbEntity
8
0
6
ByLayer
62
256
370
-1
100
AcDbLine
10
75.8
20
62.9
11
75.8
21
65.6
0
LINE
5
CB
100
AcDbEntity
8
0
6
ByLayer
62
256
370
-1
100
AcDbLine
10
75
20
62.0645751311
11
75
21
62.5
0
ARC
5
CC
100
AcDbEntity
8
0
6
ByLayer
62
256
370
-1
100
AcDbCircle
10
74.7
20
61.8
40
0.4
100
AcDbArc
50
228.590377892
51
41.4096221092
0
LINE
5
CD
100
AcDbEntity
8
0
6
ByLayer
62
256
370
-1
100
AcDbLine
10
68
20
61.5
11
74.4354248689
21
61.5
0
LINE
5
CE
100
AcDbEntity
8
0
6
ByLayer
62
256
370
-1
100
AcDbLine
10
61
20
66
11
61
21
68.5
0
LINE
5
CF
100
AcDbEntity
8
0
6
ByLayer
62
256
370
-1
100
AcDbLine
10
61
20
62.5
11
60.6
21
62.5
0
ARC
5
D0
100
AcDbEntity
8
0
6
ByLayer
62
256
370
-1
100
AcDbCircle
10
60.6
20
62.9
40
0.4
100
AcDbArc
50
180
51
270
0
LINE
5
D1
100
AcDbEntity
8
0
6
ByLayer
62
256
370
-1
100
AcDbLine
10
60.6
20
66
11
61
21
66
0
ARC
5
D2
100
AcDbEntity
8
0
6
ByLayer
62
256
370
-1
100
AcDbCircle
10
60.6
20
65.6
40
0.4
100
AcDbArc
50
90
51
180
0
LINE
5
D3
100
AcDbEntity
8
0
6
ByLayer
62
256
370
-1
100
AcDbLine
10
60.2
20
62.9
11
60.2
21
65.6
0
LINE
5
D4
100
AcDbEntity
8
0
6
ByLayer
62
256
370
-1
100
AcDbLine
10
61
20
62.0645751311
11
61
21
62.5
0
ARC
5
D5
100
AcDbEntity
8
0
6
ByLayer
62
256
370
-1
100
AcDbCircle
10
61.3
20
61.8
40
0.4
100
AcDbArc
50
138.590377891
51
311.409622108
0
LINE
5
D6
100
AcDbEntity
8
0
6
ByLayer
62
256
370
-1
100
AcDbLine
10
68
20
61.5
11
61.5645751311
21
61.5
0
LINE
5
D7
100
AcDbEntity
8
0
6
ByLayer
62
256
370
-1
100
AcDbLine
10
94
20
71
11
94
21
68.5
0
LINE
5
D8
100
AcDbEntity
8
0
6
ByLayer
62
256
370
-1
100
AcDbLine
10
94
20
74.5
11
94.4
21
74.5
0
ARC
5
D9
100
AcDbEntity
8
0
6
ByLayer
62
256
370
-1
100
AcDbCircle
10
94.4
20
74.1
40
0.4
100
AcDbArc
50
0
51
90
0
LINE
5
DA
100
AcDbEntity
8
0
6
ByLayer
62
256
370
-1
100
AcDbLine
10
94.4
20
71
11
94
21
71
0
ARC
5
DB
100
AcDbEntity
8
0
6
ByLayer
62
256
370
-1
100
AcDbCircle
10
94.4
20
71.4
40
0.4
100
AcDbArc
50
270
51
0
0
LINE
5
DC
100
AcDbEntity
8
0
6
ByLayer
62
256
370
-1
100
AcDbLine
10
94.8
20
74.1
11
94.8
21
71.4
0
LINE
5
DD
100
AcDbEntity
8
0
6
ByLayer
62
256
370
-1
100
AcDbLine
10
94
20
74.9354248689
11
94
21
74.5
0
ARC
5
DE
100
AcDbEntity
8
0
6
ByLayer
62
256
370
-1
100
AcDbCircle
10
93.7
20
75.2
40
0.4
100
AcDbArc
50
318.590377891
51
131.409622108
0
LINE
5
DF
100
AcDbEntity
8
0
6
ByLayer
62
256
370
-1
100
AcDbLine
10
87
20
75.5
11
93.4354248689
21
75.5
0
LINE
5
E0
100
AcDbEntity
8
0
6
ByLayer
62
256
370
-1
100
AcDbLine
10
80
20
71
11
80
21
68.5
0
LINE
5
E1
100
AcDbEntity
8
0
6
ByLayer
62
256
370
-1
100
AcDbLine
10
80
20
74.5
11
79.6
21
74.5
0
ARC
5
E2
100
AcDbEntity
8
0
6
ByLayer
62
256
370
-1
100
AcDbCircle
10
79.6
20
74.1
40
0.4
100
AcDbArc
50
90
51
180
0
LINE
5
E3
100
AcDbEntity
8
0
6
ByLayer
62
256
370
-1
100
AcDbLine
10
79.6
20
71
11
80
21
71
0
ARC
5
E4
100
AcDbEntity
8
0
6
ByLayer
62
256
370
-1
100
AcDbCircle
10
79.6
20
71.4
40
0.4
100
AcDbArc
50
180
51
270
0
LINE
5
E5
100
AcDbEntity
8
0
6
ByLayer
62
256
370
-1
100
AcDbLine
10
79.2
20
74.1
11
79.2
21
71.4
0
LINE
5
E6
100
AcDbEntity
8
0
6
ByLayer
62
256
370
-1
100
AcDbLine
10
80
20
74.9354248689
11
80
21
74.5
0
ARC
5
E7
100
AcDbEntity
8
0
6
ByLayer
62
256
370
-1
100
AcDbCircle
10
80.3
20
75.2
40
0.4
100
AcDbArc
50
48.5903778923
51
221.409622109
0
LINE
5
E8
100
AcDbEntity
8
0
6
ByLayer
62
256
370
-1
100
AcDbLine
10
87
20
75.5
11
80.5645751311
21
75.5
0
LINE
5
E9
100
AcDbEntity
8
0
6
ByLayer
62
256
370
-1
100
AcDbLine
10
94
20
66
11
94
21
68.5
0
LINE
5
EA
100
AcDbEntity
8
0
6
ByLayer
62
256
370
-1
100
AcDbLine
10
94
20
62.5
11
94.4
21
62.5
0
ARC
5
EB
100
AcDbEntity
8
0
6
ByLayer
62
256
370
-1
100
AcDbCircle
10
94.4
20
62.9
40
0.4
100
AcDbArc
50
270
51
0
0
LINE
5
EC
100
AcDbEntity
8
0
6
ByLayer
62
256
370
-1
100
AcDbLine
10
94.4
20
66
11
94
21
66
0
ARC
5
ED
100
AcDbEntity
8
0
6
ByLayer
62
256
370
-1
100
AcDbCircle
10
94.4
20
65.6
40
0.4
100
AcDbArc
50
0
51
90
0
LINE
5
EE
100
AcDbEntity
8
0
6
ByLayer
62
256
370
-1
100
AcDbLine
10
94.8
20
62.9
11
94.8
21
65.6
0
LINE
5
EF
100
AcDbEntity
8
0
6
ByLayer
62
256
370
-1
100
AcDbLine
10
94
20
62.0645751311
11
94
21
62.5
0
ARC
5
F0
100
AcDbEntity
8
0
6
ByLayer
62
256
370
-1
100
AcDbCircle
10
93.7
20
61.8
40
0.4
100
AcDbArc
50
228.590377892
51
41.4096221092
0
LINE
5
F1
100
AcDbEntity
8
0
6
ByLayer
62
256
370
-1
100
AcDbLine
10
87
20
61.5
11
93.4354248689
21
61.5
0
LINE
5
F2
100
AcDbEntity
8
0
6
ByLayer
62
256
370
-1
100
AcDbLine
10
80
20
66
11
80
21
68.5
0
LINE
5
F3
100
AcDbEntity
8
0
6
ByLayer
62
256
370
-1
100
AcDbLine
10
80
20
62.5
11
79.6
21
62.5
0
ARC
5
F4
100
AcDbEntity
8
0
6
ByLayer
62
256
370
-1
100
AcDbCircle
10
79.6
20
62.9
40
0.4
100
AcDbArc
50
180
51
270
0
LINE
5
F5
100
AcDbEntity
8
0
6
ByLayer
62
256
370
-1
100
AcDbLine
10
79.6
20
66
11
80
21
66
0
ARC
5
F6
100
AcDbEntity
8
0
6
ByLayer
62
256
370
-1
100
AcDbCircle
10
79.6
20
65.6
40
0.4
100
AcDbArc
50
90
51
180
0
LINE
5
F7
100
AcDbEntity
8
0
6
ByLayer
62
256
370
-1
100
AcDbLine
10
79.2
20
62.9
11
79.2
21
65.6
0
LINE
5
F8
100
AcDbEntity
8
0
6
ByLayer
62
256
370
-1
100
AcDbLine
10
80
20
62.0645751311
11
80
21
62.5
0
ARC
5
F9
100
AcDbEntity
8
0
6
ByLayer
62
256
370
-1
100
AcDbCircle
10
80.3
20
61.8
40
0.4
100
AcDbArc
50
138.590377891
51
311.409622108
0
LINE
5
FA
100
AcDbEntity
8
0
6
ByLayer
62
256
370
-1
100
AcDbLine
10
87
20
61.5
11
80.5645751311
21
61.5
0
LINE
5
FB
100
AcDbEntity
8
0
6
ByLayer
62
256
370
-1
100
AcDbLine
10
113
20
71
11
113
21
68.5
0
LINE
5
FC
100
AcDbEntity
8
0
6
ByLayer
62
256
370
-1
100
AcDbLine
10
113
20
74.5
11
113.4
21
74.5
0
ARC
5
FD
100
AcDbEntity
8
0
6
ByLayer
62
256
370
-1
100
AcDbCircle
10
113.4
20
74.1
40
0.4
100
AcDbArc
50
0
51
90
0
LINE
5
FE
100
AcDbEntity
8
0
6
ByLayer
62
256
370
-1
100
AcDbLine
10
113.4
20
71
11
113
21
71
0
ARC
5
FF
100
AcDbEntity
8
0
6
ByLayer
62
256
370
-1
100
AcDbCircle
10
113.4
20
71.4
40
0.4
100
AcDbArc
50
270
51
0
0
LINE
5
100
100
AcDbEntity
8
0
6
ByLayer
62
256
370
-1
100
AcDbLine
10
113.8
20
74.1
11
113.8
21
71.4
0
LINE
5
101
100
AcDbEntity
8
0
6
ByLayer
62
256
370
-1
100
AcDbLine
10
113
20
74.9354248689
11
113
21
74.5
0
ARC
5
102
100
AcDbEntity
8
0
6
ByLayer
62
256
370
-1
100
AcDbCircle
10
112.7
20
75.2
40
0.4
100
AcDbArc
50
318.590377891
51
131.409622108
0
LINE
5
103
100
AcDbEntity
8
0
6
ByLayer
62
256
370
-1
100
AcDbLine
10
106
20
75.5
11
112.435424869
21
75.5
0
LINE
5
104
100
AcDbEntity
8
0
6
ByLayer
62
256
370
-1
100
AcDbLine
10
99
20
71
11
99
21
68.5
0
LINE
5
105
100
AcDbEntity
8
0
6
ByLayer
62
256
370
-1
100
AcDbLine
10
99
20
74.5
11
98.6
21
74.5
0
ARC
5
106
100
AcDbEntity
8
0
6
ByLayer
62
256
370
-1
100
AcDbCircle
10
98.6
20
74.1
40
0.4
100
AcDbArc
50
90
51
180
0
LINE
5
107
100
AcDbEntity
8
0
6
ByLayer
62
256
370
-1
100
AcDbLine
10
98.6
20
71
11
99
21
71
0
ARC
5
108
100
AcDbEntity
8
0
6
ByLayer
62
256
370
-1
100
AcDbCircle
10
98.6
20
71.4
40
0.4
100
AcDbArc
50
180
51
270
0
LINE
5
109
100
AcDbEntity
8
0
6
ByLayer
62
256
370
-1
100
AcDbLine
10
98.2
20
74.1
11
98.2
21
71.4
0
LINE
5
10A
100
AcDbEntity
8
0
6
ByLayer
62
256
370
-1
100
AcDbLine
10
99
20
74.9354248689
11
99
21
74.5
0
ARC
5
10B
100
AcDbEntity
8
0
6
ByLayer
62
256
370
-1
100
AcDbCircle
10
99.3
20
75.2
40
0.4
100
AcDbArc
50
48.5903778923
51
221.409622109
0
LINE
5
10C
100
AcDbEntity
8
0
6
ByLayer
62
256
370
-1
100
AcDbLine
10
106
20
75.5
11
99.5645751311
21
75.5
0
LINE
5
10D
100
AcDbEntity
8
0
6
ByLayer
62
256
370
-1
100
AcDbLine
10
113
20
66
11
113
21
68.5
0
LINE
5
10E
100
AcDbEntity
8
0
6
ByLayer
62
256
370
-1
100
AcDbLine
10
113
20
62.5
11
113.4
21
62.5
0
ARC
5
10F
100
AcDbEntity
8
0
6
ByLayer
62
256
370
-1
100
AcDbCircle
10
113.4
20
62.9
40
0.4
100
AcDbArc
50
270
51
0
0
LINE
5
110
100
AcDbEntity
8
0
6
ByLayer
62
256
370
-1
100
AcDbLine
10
113.4
20
66
11
113
21
66
0
ARC
5
111
100
AcDbEntity
8
0
6
ByLayer
62
256
370
-1
100
AcDbCircle
10
113.4
20
65.6
40
0.4
100
AcDbArc
50
0
51
90
0
LINE
5
112
100
AcDbEntity
8
0
6
ByLayer
62
256
370
-1
100
AcDbLine
10
113.8
20
62.9
11
113.8
21
65.6
0
LINE
5
113
100
AcDbEntity
8
0
6
ByLayer
62
256
370
-1
100
AcDbLine
10
113
20
62.0645751311
11
113
21
62.5
0
ARC
5
114
100
AcDbEntity
8
0
6
ByLayer
62
256
370
-1
100
AcDbCircle
10
112.7
20
61.8
40
0.4
100
AcDbArc
50
228.590377892
51
41.4096221092
0
LINE
5
115
100
AcDbEntity
8
0
6
ByLayer
62
256
370
-1
100
AcDbLine
10
106
20
61.5
11
112.435424869
21
61.5
0
LINE
5
116
100
AcDbEntity
8
0
6
ByLayer
62
256
370
-1
100
AcDbLine
10
99
20
66
11
99
21
68.5
0
LINE
5
117
100
AcDbEntity
8
0
6
ByLayer
62
256
370
-1
100
AcDbLine
10
99
20
62.5
11
98.6
21
62.5
0
ARC
5
118
100
AcDbEntity
8
0
6
ByLayer
62
256
370
-1
100
AcDbCircle
10
98.6
20
62.9
40
0.4
100
AcDbArc
50
180
51
270
0
LINE
5
119
100
AcDbEntity
8
0
6
ByLayer
62
256
370
-1
100
AcDbLine
10
98.6
20
66
11
99
21
66
0
ARC
5
11A
100
AcDbEntity
8
0
6
ByLayer
62
256
370
-1
100
AcDbCircle
10
98.6
20
65.6
40
0.4
100
AcDbArc
50
90
51
180
0
LINE
5
11B
100
AcDbEntity
8
0
6
ByLayer
62
256
370
-1
100
AcDbLine
10
98.2
20
62.9
11
98.2
21
65.6
0
LINE
5
11C
100
AcDbEntity
8
0
6
ByLayer
62
256
370
-1
100
AcDbLine
10
99
20
62.0645751311
11
99
21
62.5
0
ARC
5
11D
100
AcDbEntity
8
0
6
ByLayer
62
256
370
-1
100
AcDbCircle
10
99.3
20
61.8
40
0.4
100
AcDbArc
50
138.590377891
51
311.409622108
0
LINE
5
11E
100
AcDbEntity
8
0
6
ByLayer
62
256
370
-1
100
AcDbLine
10
106
20
61.5
11
99.5645751311
21
61.5
0
LINE
5
11F
100
AcDbEntity
8
0
6
ByLayer
62
256
370
-1
100
AcDbLine
10
132
20
71
11
132
21
68.5
0
LINE
5
120
100
AcDbEntity
8
0
6
ByLayer
62
256
370
-1
100
AcDbLine
10
132
20
74.5
11
132.4
21
74.5
0
ARC
5
121
100
AcDbEntity
8
0
6
ByLayer
62
256
370
-1
100
AcDbCircle
10
132.4
20
74.1
40
0.4
100
AcDbArc
50
0
51
90
0
LINE
5
122
100
AcDbEntity
8
0
6
ByLayer
62
256
370
-1
100
AcDbLine
10
132.4
20
71
11
132
21
71
0
ARC
5
123
100
AcDbEntity
8
0
6
ByLayer
62
256
370
-1
100
AcDbCircle
10
132.4
20
71.4
40
0.4
100
AcDbArc
50
270
51
0
0
LINE
5
124
100
AcDbEntity
8
0
6
ByLayer
62
256
370
-1
100
AcDbLine
10
132.8
20
74.1
11
132.8
21
71.4
0
LINE
5
125
100
AcDbEntity
8
0
6
ByLayer
62
256
370
-1
100
AcDbLine
10
132
20
74.9354248689
11
132
21
74.5
0
ARC
5
126
100
AcDbEntity
8
0
6
ByLayer
62
256
370
-1
100
AcDbCircle
10
131.7
20
75.2
40
0.4
100
AcDbArc
50
318.590377891
51
131.409622108
0
LINE
5
127
100
AcDbEntity
8
0
6
ByLayer
62
256
370
-1
100
AcDbLine
10
125
20
75.5
11
131.435424869
21
75.5
0
LINE
5
128
100
AcDbEntity
8
0
6
ByLayer
62
256
370
-1
100
AcDbLine
10
118
20
71
11
118
21
68.5
0
LINE
5
129
100
AcDbEntity
8
0
6
ByLayer
62
256
370
-1
100
AcDbLine
10
118
20
74.5
11
117.6
21
74.5
0
ARC
5
12A
100
AcDbEntity
8
0
6
ByLayer
62
256
370
-1
100
AcDbCircle
10
117.6
20
74.1
40
0.4
100
AcDbArc
50
90
51
180
0
LINE
5
12B
100
AcDbEntity
8
0
6
ByLayer
62
256
370
-1
100
AcDbLine
10
117.6
20
71
11
118
21
71
0
ARC
5
12C
100
AcDbEntity
8
0
6
ByLayer
62
256
370
-1
100
AcDbCircle
10
117.6
20
71.4
40
0.4
100
AcDbArc
50
180
51
270
0
LINE
5
12D
100
AcDbEntity
8
0
6
ByLayer
62
256
370
-1
100
AcDbLine
10
117.2
20
74.1
11
117.2
21
71.4
0
LINE
5
12E
100
AcDbEntity
8
0
6
ByLayer
62
256
370
-1
100
AcDbLine
10
118
20
74.9354248689
11
118
21
74.5
0
ARC
5
12F
100
AcDbEntity
8
0
6
ByLayer
62
256
370
-1
100
AcDbCircle
10
118.3
20
75.2
40
0.4
100
AcDbArc
50
48.5903778923
51
221.409622109
0
LINE
5
130
100
AcDbEntity
8
0
6
ByLayer
62
256
370
-1
100
AcDbLine
10
125
20
75.5
11
118.564575131
21
75.5
0
LINE
5
131
100
AcDbEntity
8
0
6
ByLayer
62
256
370
-1
100
AcDbLine
10
132
20
66
11
132
21
68.5
0
LINE
5
132
100
AcDbEntity
8
0
6
ByLayer
62
256
370
-1
100
AcDbLine
10
132
20
62.5
11
132.4
21
62.5
0
ARC
5
133
100
AcDbEntity
8
0
6
ByLayer
62
256
370
-1
100
AcDbCircle
10
132.4
20
62.9
40
0.4
100
AcDbArc
50
270
51
0
0
LINE
5
134
100
AcDbEntity
8
0
6
ByLayer
62
256
370
-1
100
AcDbLine
10
132.4
20
66
11
132
21
66
0
ARC
5
135
100
AcDbEntity
8
0
6
ByLayer
62
256
370
-1
100
AcDbCircle
10
132.4
20
65.6
40
0.4
100
AcDbArc
50
0
51
90
0
LINE
5
136
100
AcDbEntity
8
0
6
ByLayer
62
256
370
-1
100
AcDbLine
10
132.8
20
62.9
11
132.8
21
65.6
0
LINE
5
137
100
AcDbEntity
8
0
6
ByLayer
62
256
370
-1
100
AcDbLine
10
132
20
62.0645751311
11
132
21
62.5
0
ARC
5
138
100
AcDbEntity
8
0
6
ByLayer
62
256
370
-1
100
AcDbCircle
10
131.7
20
61.8
40
0.4
100
AcDbArc
50
228.590377892
51
41.4096221092
0
LINE
5
139
100
AcDbEntity
8
0
6
ByLayer
62
256
370
-1
100
AcDbLine
10
125
20
61.5
11
131.435424869
21
61.5
0
LINE
5
13A
100
AcDbEntity
8
0
6
ByLayer
62
256
370
-1
100
AcDbLine
10
118
20
66
11
118
21
68.5
0
LINE
5
13B
100
AcDbEntity
8
0
6
ByLayer
62
256
370
-1
100
AcDbLine
10
118
20
62.5
11
117.6
21
62.5
0
ARC
5
13C
100
AcDbEntity
8
0
6
ByLayer
62
256
370
-1
100
AcDbCircle
10
117.6
20
62.9
40
0.4
100
AcDbArc
50
180
51
270
0
LINE
5
13D
100
AcDbEntity
8
0
6
ByLayer
62
256
370
-1
100
AcDbLine
10
117.6
20
66
11
118
21
66
0
ARC
5
13E
100
AcDbEntity
8
0
6
ByLayer
62
256
370
-1
100
AcDbCircle
10
117.6
20
65.6
40
0.4
100
AcDbArc
50
90
51
180
0
LINE
5
13F
100
AcDbEntity
8
0
6
ByLayer
62
256
370
-1
100
AcDbLine
10
117.2
20
62.9
11
117.2
21
65.6
0
LINE
5
140
100
AcDbEntity
8
0
6
ByLayer
62
256
370
-1
100
AcDbLine
10
118
20
62.0645751311
11
118
21
62.5
0
ARC
5
141
100
AcDbEntity
8
0
6
ByLayer
62
256
370
-1
100
AcDbCircle
10
118.3
20
61.8
40
0.4
100
AcDbArc
50
138.590377891
51
311.409622108
0
LINE
5
142
100
AcDbEntity
8
0
6
ByLayer
62
256
370
-1
100
AcDbLine
10
125
20
61.5
11
118.564575131
21
61.5
0
LINE
5
143
100
AcDbEntity
8
0
6
ByLayer
62
256
370
-1
100
AcDbLine
10
151
20
71
11
151
21
68.5
0
LINE
5
144
100
AcDbEntity
8
0
6
ByLayer
62
256
370
-1
100
AcDbLine
10
151
20
74.5
11
151.4
21
74.5
0
ARC
5
145
100
AcDbEntity
8
0
6
ByLayer
62
256
370
-1
100
AcDbCircle
10
151.4
20
74.1
40
0.4
100
AcDbArc
50
0
51
90
0
LINE
5
146
100
AcDbEntity
8
0
6
ByLayer
62
256
370
-1
100
AcDbLine
10
151.4
20
71
11
151
21
71
0
ARC
5
147
100
AcDbEntity
8
0
6
ByLayer
62
256
370
-1
100
AcDbCircle
10
151.4
20
71.4
40
0.4
100
AcDbArc
50
270
51
0
0
LINE
5
148
100
AcDbEntity
8
0
6
ByLayer
62
256
370
-1
100
AcDbLine
10
151.8
20
74.1
11
151.8
21
71.4
0
LINE
5
149
100
AcDbEntity
8
0
6
ByLayer
62
256
370
-1
100
AcDbLine
10
151
20
74.9354248689
11
151
21
74.5
0
ARC
5
14A
100
AcDbEntity
8
0
6
ByLayer
62
256
370
-1
100
AcDbCircle
10
150.7
20
75.2
40
0.4
100
AcDbArc
50
318.590377891
51
131.409622108
0
LINE
5
14B
100
AcDbEntity
8
0
6
ByLayer
62
256
370
-1
100
AcDbLine
10
144
20
75.5
11
150.435424869
21
75.5
0
LINE
5
14C
100
AcDbEntity
8
0
6
ByLayer
62
256
370
-1
100
AcDbLine
10
137
20
71
11
137
21
68.5
0
LINE
5
14D
100
AcDbEntity
8
0
6
ByLayer
62
256
370
-1
100
AcDbLine
10
137
20
74.5
11
136.6
21
74.5
0
ARC
5
14E
100
AcDbEntity
8
0
6
ByLayer
62
256
370
-1
100
AcDbCircle
10
136.6
20
74.1
40
0.4
100
AcDbArc
50
90
51
180
0
LINE
5
14F
100
AcDbEntity
8
0
6
ByLayer
62
256
370
-1
100
AcDbLine
10
136.6
20
71
11
137
21
71
0
ARC
5
150
100
AcDbEntity
8
0
6
ByLayer
62
256
370
-1
100
AcDbCircle
10
136.6
20
71.4
40
0.4
100
AcDbArc
50
180
51
270
0
LINE
5
151
100
AcDbEntity
8
0
6
ByLayer
62
256
370
-1
100
AcDbLine
10
136.2
20
74.1
11
136.2
21
71.4
0
LINE
5
152
100
AcDbEntity
8
0
6
ByLayer
62
256
370
-1
100
AcDbLine
10
137
20
74.9354248689
11
137
21
74.5
0
ARC
5
153
100
AcDbEntity
8
0
6
ByLayer
62
256
370
-1
100
AcDbCircle
10
137.3
20
75.2
40
0.4
100
AcDbArc
50
48.5903778923
51
221.409622109
0
LINE
5
154
100
AcDbEntity
8
0
6
ByLayer
62
256
370
-1
100
AcDbLine
10
144
20
75.5
11
137.564575131
21
75.5
0
LINE
5
155
100
AcDbEntity
8
0
6
ByLayer
62
256
370
-1
100
AcDbLine
10
151
20
66
11
151
21
68.5
0
LINE
5
156
100
AcDbEntity
8
0
6
ByLayer
62
256
370
-1
100
AcDbLine
10
151
20
62.5
11
151.4
21
62.5
0
ARC
5
157
100
AcDbEntity
8
0
6
ByLayer
62
256
370
-1
100
AcDbCircle
10
151.4
20
62.9
40
0.4
100
AcDbArc
50
270
51
0
0
LINE
5
158
100
AcDbEntity
8
0
6
ByLayer
62
256
370
-1
100
AcDbLine
10
151.4
20
66
11
151
21
66
0
ARC
5
159
100
AcDbEntity
8
0
6
ByLayer
62
256
370
-1
100
AcDbCircle
10
151.4
20
65.6
40
0.4
100
AcDbArc
50
0
51
90
0
LINE
5
15A
100
AcDbEntity
8
0
6
ByLayer
62
256
370
-1
100
AcDbLine
10
151.8
20
62.9
11
151.8
21
65.6
0
LINE
5
15B
100
AcDbEntity
8
0
6
ByLayer
62
256
370
-1
100
AcDbLine
10
151
20
62.0645751311
11
151
21
62.5
0
ARC
5
15C
100
AcDbEntity
8
0
6
ByLayer
62
256
370
-1
100
AcDbCircle
10
150.7
20
61.8
40
0.4
100
AcDbArc
50
228.590377892
51
41.4096221092
0
LINE
5
15D
100
AcDbEntity
8
0
6
ByLayer
62
256
370
-1
100
AcDbLine
10
144
20
61.5
11
150.435424869
21
61.5
0
LINE
5
15E
100
AcDbEntity
8
0
6
ByLayer
62
256
370
-1
100
AcDbLine
10
137
20
66
11
137
21
68.5
0
LINE
5
15F
100
AcDbEntity
8
0
6
ByLayer
62
256
370
-1
100
AcDbLine
10
137
20
62.5
11
136.6
21
62.5
0
ARC
5
160
100
AcDbEntity
8
0
6
ByLayer
62
256
370
-1
100
AcDbCircle
10
136.6
20
62.9
40
0.4
100
AcDbArc
50
180
51
270
0
LINE
5
161
100
AcDbEntity
8
0
6
ByLayer
62
256
370
-1
100
AcDbLine
10
136.6
20
66
11
137
21
66
0
ARC
5
162
100
AcDbEntity
8
0
6
ByLayer
62
256
370
-1
100
AcDbCircle
10
136.6
20
65.6
40
0.4
100
AcDbArc
50
90
51
180
0
LINE
5
163
100
AcDbEntity
8
0
6
ByLayer
62
256
370
-1
100
AcDbLine
10
136.2
20
62.9
11
136.2
21
65.6
0
LINE
5
164
100
AcDbEntity
8
0
6
ByLayer
62
256
370
-1
100
AcDbLine
10
137
20
62.0645751311
11
137
21
62.5
0
ARC
5
165
100
AcDbEntity
8
0
6
ByLayer
62
256
370
-1
100
AcDbCircle
10
137.3
20
61.8
40
0.4
100
AcDbArc
50
138.590377891
51
311.409622108
0
LINE
5
166
100
AcDbEntity
8
0
6
ByLayer
62
256
370
-1
100
AcDbLine
10
144
20
61.5
11
137.564575131
21
61.5
0
LINE
5
167
100
AcDbEntity
8
0
6
ByLayer
62
256
370
-1
100
AcDbLine
10
170
20
71
11
170
21
68.5
0
LINE
5
168
100
AcDbEntity
8
0
6
ByLayer
62
256
370
-1
100
AcDbLine
10
170
20
74.5
11
170.4
21
74.5
0
ARC
5
169
100
AcDbEntity
8
0
6
ByLayer
62
256
370
-1
100
AcDbCircle
10
170.4
20
74.1
40
0.4
100
AcDbArc
50
0
51
90
0
LINE
5
16A
100
AcDbEntity
8
0
6
ByLayer
62
256
370
-1
100
AcDbLine
10
170.4
20
71
11
170
21
71
0
ARC
5
16B
100
AcDbEntity
8
0
6
ByLayer
62
256
370
-1
100
AcDbCircle
10
170.4
20
71.4
40
0.4
100
AcDbArc
50
270
51
0
0
LINE
5
16C
100
AcDbEntity
8
0
6
ByLayer
62
256
370
-1
100
AcDbLine
10
170.8
20
74.1
11
170.8
21
71.4
0
LINE
5
16D
100
AcDbEntity
8
0
6
ByLayer
62
256
370
-1
100
AcDbLine
10
170
20
74.9354248689
11
170
21
74.5
0
ARC
5
16E
100
AcDbEntity
8
0
6
ByLayer
62
256
370
-1
100
AcDbCircle
10
169.7
20
75.2
40
0.4
100
AcDbArc
50
318.590377891
51
131.409622108
0
LINE
5
16F
100
AcDbEntity
8
0
6
ByLayer
62
256
370
-1
100
AcDbLine
10
163
20
75.5
11
169.435424869
21
75.5
0
LINE
5
170
100
AcDbEntity
8
0
6
ByLayer
62
256
370
-1
100
AcDbLine
10
156
20
71
11
156
21
68.5
0
LINE
5
171
100
AcDbEntity
8
0
6
ByLayer
62
256
370
-1
100
AcDbLine
10
156
20
74.5
11
155.6
21
74.5
0
ARC
5
172
100
AcDbEntity
8
0
6
ByLayer
62
256
370
-1
100
AcDbCircle
10
155.6
20
74.1
40
0.4
100
AcDbArc
50
90
51
180
0
LINE
5
173
100
AcDbEntity
8
0
6
ByLayer
62
256
370
-1
100
AcDbLine
10
155.6
20
71
11
156
21
71
0
ARC
5
174
100
AcDbEntity
8
0
6
ByLayer
62
256
370
-1
100
AcDbCircle
10
155.6
20
71.4
40
0.4
100
AcDbArc
50
180
51
270
0
LINE
5
175
100
AcDbEntity
8
0
6
ByLayer
62
256
370
-1
100
AcDbLine
10
155.2
20
74.1
11
155.2
21
71.4
0
LINE
5
176
100
AcDbEntity
8
0
6
ByLayer
62
256
370
-1
100
AcDbLine
10
156
20
74.9354248689
11
156
21
74.5
0
ARC
5
177
100
AcDbEntity
8
0
6
ByLayer
62
256
370
-1
100
AcDbCircle
10
156.3
20
75.2
40
0.4
100
AcDbArc
50
48.5903778923
51
221.409622109
0
LINE
5
178
100
AcDbEntity
8
0
6
ByLayer
62
256
370
-1
100
AcDbLine
10
163
20
75.5
11
156.564575131
21
75.5
0
LINE
5
179
100
AcDbEntity
8
0
6
ByLayer
62
256
370
-1
100
AcDbLine
10
170
20
66
11
170
21
68.5
0
LINE
5
17A
100
AcDbEntity
8
0
6
ByLayer
62
256
370
-1
100
AcDbLine
10
170
20
62.5
11
170.4
21
62.5
0
ARC
5
17B
100
AcDbEntity
8
0
6
ByLayer
62
256
370
-1
100
AcDbCircle
10
170.4
20
62.9
40
0.4
100
AcDbArc
50
270
51
0
0
LINE
5
17C
100
AcDbEntity
8
0
6
ByLayer
62
256
370
-1
100
AcDbLine
10
170.4
20
66
11
170
21
66
0
ARC
5
17D
100
AcDbEntity
8
0
6
ByLayer
62
256
370
-1
100
AcDbCircle
10
170.4
20
65.6
40
0.4
100
AcDbArc
50
0
51
90
0
LINE
5
17E
100
AcDbEntity
8
0
6
ByLayer
62
256
370
-1
100
AcDbLine
10
170.8
20
62.9
11
170.8
21
65.6
0
LINE
5
17F
100
AcDbEntity
8
0
6
ByLayer
62
256
370
-1
100
AcDbLine
10
170
20
62.0645751311
11
170
21
62.5
0
ARC
5
180
100
AcDbEntity
8
0
6
ByLayer
62
256
370
-1
100
AcDbCircle
10
169.7
20
61.8
40
0.4
100
AcDbArc
50
228.590377892
51
41.4096221092
0
LINE
5
181
100
AcDbEntity
8
0
6
ByLayer
62
256
370
-1
100
AcDbLine
10
163
20
61.5
11
169.435424869
21
61.5
0
LINE
5
182
100
AcDbEntity
8
0
6
ByLayer
62
256
370
-1
100
AcDbLine
10
156
20
66
11
156
21
68.5
0
LINE
5
183
100
AcDbEntity
8
0
6
ByLayer
62
256
370
-1
100
AcDbLine
10
156
20
62.5
11
155.6
21
62.5
0
ARC
5
184
100
AcDbEntity
8
0
6
ByLayer
62
256
370
-1
100
AcDbCircle
10
155.6
20
62.9
40
0.4
100
AcDbArc
50
180
51
270
0
LINE
5
185
100
AcDbEntity
8
0
6
ByLayer
62
256
370
-1
100
AcDbLine
10
155.6
20
66
11
156
21
66
0
ARC
5
186
100
AcDbEntity
8
0
6
ByLayer
62
256
370
-1
100
AcDbCircle
10
155.6
20
65.6
40
0.4
100
AcDbArc
50
90
51
180
0
LINE
5
187
100
AcDbEntity
8
0
6
ByLayer
62
256
370
-1
100
AcDbLine
10
155.2
20
62.9
11
155.2
21
65.6
0
LINE
5
188
100
AcDbEntity
8
0
6
ByLayer
62
256
370
-1
100
AcDbLine
10
156
20
62.0645751311
11
156
21
62.5
0
ARC
5
189
100
AcDbEntity
8
0
6
ByLayer
62
256
370
-1
100
AcDbCircle
10
156.3
20
61.8
40
0.4
100
AcDbArc
50
138.590377891
51
311.409622108
0
LINE
5
18A
100
AcDbEntity
8
0
6
ByLayer
62
256
370
-1
100
AcDbLine
10
163
20
61.5
11
156.564575131
21
61.5
0
LINE
5
18B
100
AcDbEntity
8
0
6
ByLayer
62
256
370
-1
100
AcDbLine
10
189
20
71
11
189
21
68.5
0
LINE
5
18C
100
AcDbEntity
8
0
6
ByLayer
62
256
370
-1
100
AcDbLine
10
189
20
74.5
11
189.4
21
74.5
0
ARC
5
18D
100
AcDbEntity
8
0
6
ByLayer
62
256
370
-1
100
AcDbCircle
10
189.4
20
74.1
40
0.4
100
AcDbArc
50
0
51
90
0
LINE
5
18E
100
AcDbEntity
8
0
6
ByLayer
62
256
370
-1
100
AcDbLine
10
189.4
20
71
11
189
21
71
0
ARC
5
18F
100
AcDbEntity
8
0
6
ByLayer
62
256
370
-1
100
AcDbCircle
10
189.4
20
71.4
40
0.4
100
AcDbArc
50
270
51
0
0
LINE
5
190
100
AcDbEntity
8
0
6
ByLayer
62
256
370
-1
100
AcDbLine
10
189.8
20
74.1
11
189.8
21
71.4
0
LINE
5
191
100
AcDbEntity
8
0
6
ByLayer
62
256
370
-1
100
AcDbLine
10
189
20
74.9354248689
11
189
21
74.5
0
ARC
5
192
100
AcDbEntity
8
0
6
ByLayer
62
256
370
-1
100
AcDbCircle
10
188.7
20
75.2
40
0.4
100
AcDbArc
50
318.590377891
51
131.409622108
0
LINE
5
193
100
AcDbEntity
8
0
6
ByLayer
62
256
370
-1
100
AcDbLine
10
182
20
75.5
11
188.435424869
21
75.5
0
LINE
5
194
100
AcDbEntity
8
0
6
ByLayer
62
256
370
-1
100
AcDbLine
10
175
20
71
11
175
21
68.5
0
LINE
5
195
100
AcDbEntity
8
0
6
ByLayer
62
256
370
-1
100
AcDbLine
10
175
20
74.5
11
174.6
21
74.5
0
ARC
5
196
100
AcDbEntity
8
0
6
ByLayer
62
256
370
-1
100
AcDbCircle
10
174.6
20
74.1
40
0.4
100
AcDbArc
50
90
51
180
0
LINE
5
197
100
AcDbEntity
8
0
6
ByLayer
62
256
370
-1
100
AcDbLine
10
174.6
20
71
11
175
21
71
0
ARC
5
198
100
AcDbEntity
8
0
6
ByLayer
62
256
370
-1
100
AcDbCircle
10
174.6
20
71.4
40
0.4
100
AcDbArc
50
180
51
270
0
LINE
5
199
100
AcDbEntity
8
0
6
ByLayer
62
256
370
-1
100
AcDbLine
10
174.2
20
74.1
11
174.2
21
71.4
0
LINE
5
19A
100
AcDbEntity
8
0
6
ByLayer
62
256
370
-1
100
AcDbLine
10
175
20
74.9354248689
11
175
21
74.5
0
ARC
5
19B
100
AcDbEntity
8
0
6
ByLayer
62
256
370
-1
100
AcDbCircle
10
175.3
20
75.2
40
0.4
100
AcDbArc
50
48.5903778923
51
221.409622109
0
LINE
5
19C
100
AcDbEntity
8
0
6
ByLayer
62
256
370
-1
100
AcDbLine
10
182
20
75.5
11
175.564575131
21
75.5
0
LINE
5
19D
100
AcDbEntity
8
0
6
ByLayer
62
256
370
-1
100
AcDbLine
10
189
20
66
11
189
21
68.5
0
LINE
5
19E
100
AcDbEntity
8
0
6
ByLayer
62
256
370
-1
100
AcDbLine
10
189
20
62.5
11
189.4
21
62.5
0
ARC
5
19F
100
AcDbEntity
8
0
6
ByLayer
62
256
370
-1
100
AcDbCircle
10
189.4
20
62.9
40
0.4
100
AcDbArc
50
270
51
0
0
LINE
5
1A0
100
AcDbEntity
8
0
6
ByLayer
62
256
370
-1
100
AcDbLine
10
189.4
20
66
11
189
21
66
0
ARC
5
1A1
100
AcDbEntity
8
0
6
ByLayer
62
256
370
-1
100
AcDbCircle
10
189.4
20
65.6
40
0.4
100
AcDbArc
50
0
51
90
0
LINE
5
1A2
100
AcDbEntity
8
0
6
ByLayer
62
256
370
-1
100
AcDbLine
10
189.8
20
62.9
11
189.8
21
65.6
0
LINE
5
1A3
100
AcDbEntity
8
0
6
ByLayer
62
256
370
-1
100
AcDbLine
10
189
20
62.0645751311
11
189
21
62.5
0
ARC
5
1A4
100
AcDbEntity
8
0
6
ByLayer
62
256
370
-1
100
AcDbCircle
10
188.7
20
61.8
40
0.4
100
AcDbArc
50
228.590377892
51
41.4096221092
0
LINE
5
1A5
100
AcDbEntity
8
0
6
ByLayer
62
256
370
-1
100
AcDbLine
10
182
20
61.5
11
188.435424869
21
61.5
0
LINE
5
1A6
100
AcDbEntity
8
0
6
ByLayer
62
256
370
-1
100
AcDbLine
10
175
20
66
11
175
21
68.5
0
LINE
5
1A7
100
AcDbEntity
8
0
6
ByLayer
62
256
370
-1
100
AcDbLine
10
175
20
62.5
11
174.6
21
62.5
0
ARC
5
1A8
100
AcDbEntity
8
0
6
ByLayer
62
256
370
-1
100
AcDbCircle
10
174.6
20
62.9
40
0.4
100
AcDbArc
50
180
51
270
0
LINE
5
1A9
100
AcDbEntity
8
0
6
ByLayer
62
256
370
-1
100
AcDbLine
10
174.6
20
66
11
175
21
66
0
ARC
5
1AA
100
AcDbEntity
8
0
6
ByLayer
62
256
370
-1
100
AcDbCircle
10
174.6
20
65.6
40
0.4
100
AcDbArc
50
90
51
180
0
LINE
5
1AB
100
AcDbEntity
8
0
6
ByLayer
62
256
370
-1
100
AcDbLine
10
174.2
20
62.9
11
174.2
21
65.6
0
LINE
5
1AC
100
AcDbEntity
8
0
6
ByLayer
62
256
370
-1
100
AcDbLine
10
175
20
62.0645751311
11
175
21
62.5
0
ARC
5
1AD
100
AcDbEntity
8
0
6
ByLayer
62
256
370
-1
100
AcDbCircle
10
175.3
20
61.8
40
0.4
100
AcDbArc
50
138.590377891
51
311.409622108
0
LINE
5
1AE
100
AcDbEntity
8
0
6
ByLayer
62
256
370
-1
100
AcDbLine
10
182
20
61.5
11
175.564575131
21
61.5
0
LINE
5
1AF
100
AcDbEntity
8
0
6
ByLayer
62
256
370
-1
100
AcDbLine
10
208
20
71
11
208
21
68.5
0
LINE
5
1B0
100
AcDbEntity
8
0
6
ByLayer
62
256
370
-1
100
AcDbLine
10
208
20
74.5
11
208.4
21
74.5
0
ARC
5
1B1
100
AcDbEntity
8
0
6
ByLayer
62
256
370
-1
100
AcDbCircle
10
208.4
20
74.1
40
0.4
100
AcDbArc
50
0
51
90
0
LINE
5
1B2
100
AcDbEntity
8
0
6
ByLayer
62
256
370
-1
100
AcDbLine
10
208.4
20
71
11
208
21
71
0
ARC
5
1B3
100
AcDbEntity
8
0
6
ByLayer
62
256
370
-1
100
AcDbCircle
10
208.4
20
71.4
40
0.4
100
AcDbArc
50
270
51
0
0
LINE
5
1B4
100
AcDbEntity
8
0
6
ByLayer
62
256
370
-1
100
AcDbLine
10
208.8
20
74.1
11
208.8
21
71.4
0
LINE
5
1B5
100
AcDbEntity
8
0
6
ByLayer
62
256
370
-1
100
AcDbLine
10
208
20
74.9354248689
11
208
21
74.5
0
ARC
5
1B6
100
AcDbEntity
8
0
6
ByLayer
62
256
370
-1
100
AcDbCircle
10
207.7
20
75.2
40
0.4
100
AcDbArc
50
318.590377891
51
131.409622108
0
LINE
5
1B7
100
AcDbEntity
8
0
6
ByLayer
62
256
370
-1
100
AcDbLine
10
201
20
75.5
11
207.435424869
21
75.5
0
LINE
5
1B8
100
AcDbEntity
8
0
6
ByLayer
62
256
370
-1
100
AcDbLine
10
194
20
71
11
194
21
68.5
0
LINE
5
1B9
100
AcDbEntity
8
0
6
ByLayer
62
256
370
-1
100
AcDbLine
10
194
20
74.5
11
193.6
21
74.5
0
ARC
5
1BA
100
AcDbEntity
8
0
6
ByLayer
62
256
370
-1
100
AcDbCircle
10
193.6
20
74.1
40
0.4
100
AcDbArc
50
90
51
180
0
LINE
5
1BB
100
AcDbEntity
8
0
6
ByLayer
62
256
370
-1
100
AcDbLine
10
193.6
20
71
11
194
21
71
0
ARC
5
1BC
100
AcDbEntity
8
0
6
ByLayer
62
256
370
-1
100
AcDbCircle
10
193.6
20
71.4
40
0.4
100
AcDbArc
50
180
51
270
0
LINE
5
1BD
100
AcDbEntity
8
0
6
ByLayer
62
256
370
-1
100
AcDbLine
10
193.2
20
74.1
11
193.2
21
71.4
0
LINE
5
1BE
100
AcDbEntity
8
0
6
ByLayer
62
256
370
-1
100
AcDbLine
10
194
20
74.9354248689
11
194
21
74.5
0
ARC
5
1BF
100
AcDbEntity
8
0
6
ByLayer
62
256
370
-1
100
AcDbCircle
10
194.3
20
75.2
40
0.4
100
AcDbArc
50
48.5903778923
51
221.409622109
0
LINE
5
1C0
100
AcDbEntity
8
0
6
ByLayer
62
256
370
-1
100
AcDbLine
10
201
20
75.5
11
194.564575131
21
75.5
0
LINE
5
1C1
100
AcDbEntity
8
0
6
ByLayer
62
256
370
-1
100
AcDbLine
10
208
20
66
11
208
21
68.5
0
LINE
5
1C2
100
AcDbEntity
8
0
6
ByLayer
62
256
370
-1
100
AcDbLine
10
208
20
62.5
11
208.4
21
62.5
0
ARC
5
1C3
100
AcDbEntity
8
0
6
ByLayer
62
256
370
-1
100
AcDbCircle
10
208.4
20
62.9
40
0.4
100
AcDbArc
50
270
51
0
0
LINE
5
1C4
100
AcDbEntity
8
0
6
ByLayer
62
256
370
-1
100
AcDbLine
10
208.4
20
66
11
208
21
66
0
ARC
5
1C5
100
AcDbEntity
8
0
6
ByLayer
62
256
370
-1
100
AcDbCircle
10
208.4
20
65.6
40
0.4
100
AcDbArc
50
0
51
90
0
LINE
5
1C6
100
AcDbEntity
8
0
6
ByLayer
62
256
370
-1
100
AcDbLine
10
208.8
20
62.9
11
208.8
21
65.6
0
LINE
5
1C7
100
AcDbEntity
8
0
6
ByLayer
62
256
370
-1
100
AcDbLine
10
208
20
62.0645751311
11
208
21
62.5
0
ARC
5
1C8
100
AcDbEntity
8
0
6
ByLayer
62
256
370
-1
100
AcDbCircle
10
207.7
20
61.8
40
0.4
100
AcDbArc
50
228.590377892
51
41.4096221092
0
LINE
5
1C9
100
AcDbEntity
8
0
6
ByLayer
62
256
370
-1
100
AcDbLine
10
201
20
61.5
11
207.435424869
21
61.5
0
LINE
5
1CA
100
AcDbEntity
8
0
6
ByLayer
62
256
370
-1
100
AcDbLine
10
194
20
66
11
194
21
68.5
0
LINE
5
1CB
100
AcDbEntity
8
0
6
ByLayer
62
256
370
-1
100
AcDbLine
10
194
20
62.5
11
193.6
21
62.5
0
ARC
5
1CC
100
AcDbEntity
8
0
6
ByLayer
62
256
370
-1
100
AcDbCircle
10
193.6
20
62.9
40
0.4
100
AcDbArc
50
180
51
270
0
LINE
5
1CD
100
AcDbEntity
8
0
6
ByLayer
62
256
370
-1
100
AcDbLine
10
193.6
20
66
11
194
21
66
0
ARC
5
1CE
100
AcDbEntity
8
0
6
ByLayer
62
256
370
-1
100
AcDbCircle
10
193.6
20
65.6
40
0.4
100
AcDbArc
50
90
51
180
0
LINE
5
1CF
100
AcDbEntity
8
0
6
ByLayer
62
256
370
-1
100
AcDbLine
10
193.2
20
62.9
11
193.2
21
65.6
0
LINE
5
1D0
100
AcDbEntity
8
0
6
ByLayer
62
256
370
-1
100
AcDbLine
10
194
20
62.0645751311
11
194
21
62.5
0
ARC
5
1D1
100
AcDbEntity
8
0
6
ByLayer
62
256
370
-1
100
AcDbCircle
10
194.3
20
61.8
40
0.4
100
AcDbArc
50
138.590377891
51
311.409622108
0
LINE
5
1D2
100
AcDbEntity
8
0
6
ByLayer
62
256
370
-1
100
AcDbLine
10
201
20
61.5
11
194.564575131
21
61.5
0
LINE
5
1D3
100
AcDbEntity
8
0
6
ByLayer
62
256
370
-1
100
AcDbLine
10
227
20
71
11
227
21
68.5
0
LINE
5
1D4
100
AcDbEntity
8
0
6
ByLayer
62
256
370
-1
100
AcDbLine
10
227
20
74.5
11
227.4
21
74.5
0
ARC
5
1D5
100
AcDbEntity
8
0
6
ByLayer
62
256
370
-1
100
AcDbCircle
10
227.4
20
74.1
40
0.4
100
AcDbArc
50
0
51
90
0
LINE
5
1D6
100
AcDbEntity
8
0
6
ByLayer
62
256
370
-1
100
AcDbLine
10
227.4
20
71
11
227
21
71
0
ARC
5
1D7
100
AcDbEntity
8
0
6
ByLayer
62
256
370
-1
100
AcDbCircle
10
227.4
20
71.4
40
0.4
100
AcDbArc
50
270
51
0
0
LINE
5
1D8
100
AcDbEntity
8
0
6
ByLayer
62
256
370
-1
100
AcDbLine
10
227.8
20
74.1
11
227.8
21
71.4
0
LINE
5
1D9
100
AcDbEntity
8
0
6
ByLayer
62
256
370
-1
100
AcDbLine
10
227
20
74.9354248689
11
227
21
74.5
0
ARC
5
1DA
100
AcDbEntity
8
0
6
ByLayer
62
256
370
-1
100
AcDbCircle
10
226.7
20
75.2
40
0.4
100
AcDbArc
50
318.590377891
51
131.409622108
0
LINE
5
1DB
100
AcDbEntity
8
0
6
ByLayer
62
256
370
-1
100
AcDbLine
10
220
20
75.5
11
226.435424869
21
75.5
0
LINE
5
1DC
100
AcDbEntity
8
0
6
ByLayer
62
256
370
-1
100
AcDbLine
10
213
20
71
11
213
21
68.5
0
LINE
5
1DD
100
AcDbEntity
8
0
6
ByLayer
62
256
370
-1
100
AcDbLine
10
213
20
74.5
11
212.6
21
74.5
0
ARC
5
1DE
100
AcDbEntity
8
0
6
ByLayer
62
256
370
-1
100
AcDbCircle
10
212.6
20
74.1
40
0.4
100
AcDbArc
50
90
51
180
0
LINE
5
1DF
100
AcDbEntity
8
0
6
ByLayer
62
256
370
-1
100
AcDbLine
10
212.6
20
71
11
213
21
71
0
ARC
5
1E0
100
AcDbEntity
8
0
6
ByLayer
62
256
370
-1
100
AcDbCircle
10
212.6
20
71.4
40
0.4
100
AcDbArc
50
180
51
270
0
LINE
5
1E1
100
AcDbEntity
8
0
6
ByLayer
62
256
370
-1
100
AcDbLine
10
212.2
20
74.1
11
212.2
21
71.4
0
LINE
5
1E2
100
AcDbEntity
8
0
6
ByLayer
62
256
370
-1
100
AcDbLine
10
213
20
74.9354248689
11
213
21
74.5
0
ARC
5
1E3
100
AcDbEntity
8
0
6
ByLayer
62
256
370
-1
100
AcDbCircle
10
213.3
20
75.2
40
0.4
100
AcDbArc
50
48.5903778923
51
221.409622109
0
LINE
5
1E4
100
AcDbEntity
8
0
6
ByLayer
62
256
370
-1
100
AcDbLine
10
220
20
75.5
11
213.564575131
21
75.5
0
LINE
5
1E5
100
AcDbEntity
8
0
6
ByLayer
62
256
370
-1
100
AcDbLine
10
227
20
66
11
227
21
68.5
0
LINE
5
1E6
100
AcDbEntity
8
0
6
ByLayer
62
256
370
-1
100
AcDbLine
10
227
20
62.5
11
227.4
21
62.5
0
ARC
5
1E7
100
AcDbEntity
8
0
6
ByLayer
62
256
370
-1
100
AcDbCircle
10
227.4
20
62.9
40
0.4
100
AcDbArc
50
270
51
0
0
LINE
5
1E8
100
AcDbEntity
8
0
6
ByLayer
62
256
370
-1
100
AcDbLine
10
227.4
20
66
11
227
21
66
0
ARC
5
1E9
100
AcDbEntity
8
0
6
ByLayer
62
256
370
-1
100
AcDbCircle
10
227.4
20
65.6
40
0.4
100
AcDbArc
50
0
51
90
0
LINE
5
1EA
100
AcDbEntity
8
0
6
ByLayer
62
256
370
-1
100
AcDbLine
10
227.8
20
62.9
11
227.8
21
65.6
0
LINE
5
1EB
100
AcDbEntity
8
0
6
ByLayer
62
256
370
-1
100
AcDbLine
10
227
20
62.0645751311
11
227
21
62.5
0
ARC
5
1EC
100
AcDbEntity
8
0
6
ByLayer
62
256
370
-1
100
AcDbCircle
10
226.7
20
61.8
40
0.4
100
AcDbArc
50
228.590377892
51
41.4096221092
0
LINE
5
1ED
100
AcDbEntity
8
0
6
ByLayer
62
256
370
-1
100
AcDbLine
10
220
20
61.5
11
226.435424869
21
61.5
0
LINE
5
1EE
100
AcDbEntity
8
0
6
ByLayer
62
256
370
-1
100
AcDbLine
10
213
20
66
11
213
21
68.5
0
LINE
5
1EF
100
AcDbEntity
8
0
6
ByLayer
62
256
370
-1
100
AcDbLine
10
213
20
62.5
11
212.6
21
62.5
0
ARC
5
1F0
100
AcDbEntity
8
0
6
ByLayer
62
256
370
-1
100
AcDbCircle
10
212.6
20
62.9
40
0.4
100
AcDbArc
50
180
51
270
0
LINE
5
1F1
100
AcDbEntity
8
0
6
ByLayer
62
256
370
-1
100
AcDbLine
10
212.6
20
66
11
213
21
66
0
ARC
5
1F2
100
AcDbEntity
8
0
6
ByLayer
62
256
370
-1
100
AcDbCircle
10
212.6
20
65.6
40
0.4
100
AcDbArc
50
90
51
180
0
LINE
5
1F3
100
AcDbEntity
8
0
6
ByLayer
62
256
370
-1
100
AcDbLine
10
212.2
20
62.9
11
212.2
21
65.6
0
LINE
5
1F4
100
AcDbEntity
8
0
6
ByLayer
62
256
370
-1
100
AcDbLine
10
213
20
62.0645751311
11
213
21
62.5
0
ARC
5
1F5
100
AcDbEntity
8
0
6
ByLayer
62
256
370
-1
100
AcDbCircle
10
213.3
20
61.8
40
0.4
100
AcDbArc
50
138.590377891
51
311.409622108
0
LINE
5
1F6
100
AcDbEntity
8
0
6
ByLayer
62
256
370
-1
100
AcDbLine
10
220
20
61.5
11
213.564575131
21
61.5
0
LINE
5
1F7
100
AcDbEntity
8
0
6
ByLayer
62
256
370
-1
100
AcDbLine
10
246
20
71
11
246
21
68.5
0
LINE
5
1F8
100
AcDbEntity
8
0
6
ByLayer
62
256
370
-1
100
AcDbLine
10
246
20
74.5
11
246.4
21
74.5
0
ARC
5
1F9
100
AcDbEntity
8
0
6
ByLayer
62
256
370
-1
100
AcDbCircle
10
246.4
20
74.1
40
0.4
100
AcDbArc
50
0
51
90
0
LINE
5
1FA
100
AcDbEntity
8
0
6
ByLayer
62
256
370
-1
100
AcDbLine
10
246.4
20
71
11
246
21
71
0
ARC
5
1FB
100
AcDbEntity
8
0
6
ByLayer
62
256
370
-1
100
AcDbCircle
10
246.4
20
71.4
40
0.4
100
AcDbArc
50
270
51
0
0
LINE
5
1FC
100
AcDbEntity
8
0
6
ByLayer
62
256
370
-1
100
AcDbLine
10
246.8
20
74.1
11
246.8
21
71.4
0
LINE
5
1FD
100
AcDbEntity
8
0
6
ByLayer
62
256
370
-1
100
AcDbLine
10
246
20
74.9354248689
11
246
21
74.5
0
ARC
5
1FE
100
AcDbEntity
8
0
6
ByLayer
62
256
370
-1
100
AcDbCircle
10
245.7
20
75.2
40
0.4
100
AcDbArc
50
318.590377891
51
131.409622108
0
LINE
5
1FF
100
AcDbEntity
8
0
6
ByLayer
62
256
370
-1
100
AcDbLine
10
239
20
75.5
11
245.435424869
21
75.5
0
LINE
5
200
100
AcDbEntity
8
0
6
ByLayer
62
256
370
-1
100
AcDbLine
10
232
20
71
11
232
21
68.5
0
LINE
5
201
100
AcDbEntity
8
0
6
ByLayer
62
256
370
-1
100
AcDbLine
10
232
20
74.5
11
231.6
21
74.5
0
ARC
5
202
100
AcDbEntity
8
0
6
ByLayer
62
256
370
-1
100
AcDbCircle
10
231.6
20
74.1
40
0.4
100
AcDbArc
50
90
51
180
0
LINE
5
203
100
AcDbEntity
8
0
6
ByLayer
62
256
370
-1
100
AcDbLine
10
231.6
20
71
11
232
21
71
0
ARC
5
204
100
AcDbEntity
8
0
6
ByLayer
62
256
370
-1
100
AcDbCircle
10
231.6
20
71.4
40
0.4
100
AcDbArc
50
180
51
270
0
LINE
5
205
100
AcDbEntity
8
0
6
ByLayer
62
256
370
-1
100
AcDbLine
10
231.2
20
74.1
11
231.2
21
71.4
0
LINE
5
206
100
AcDbEntity
8
0
6
ByLayer
62
256
370
-1
100
AcDbLine
10
232
20
74.9354248689
11
232
21
74.5
0
ARC
5
207
100
AcDbEntity
8
0
6
ByLayer
62
256
370
-1
100
AcDbCircle
10
232.3
20
75.2
40
0.4
100
AcDbArc
50
48.5903778923
51
221.409622109
0
LINE
5
208
100
AcDbEntity
8
0
6
ByLayer
62
256
370
-1
100
AcDbLine
10
239
20
75.5
11
232.564575131
21
75.5
0
LINE
5
209
100
AcDbEntity
8
0
6
ByLayer
62
256
370
-1
100
AcDbLine
10
246
20
66
11
246
21
68.5
0
LINE
5
20A
100
AcDbEntity
8
0
6
ByLayer
62
256
370
-1
100
AcDbLine
10
246
20
62.5
11
246.4
21
62.5
0
ARC
5
20B
100
AcDbEntity
8
0
6
ByLayer
62
256
370
-1
100
AcDbCircle
10
246.4
20
62.9
40
0.4
100
AcDbArc
50
270
51
0
0
LINE
5
20C
100
AcDbEntity
8
0
6
ByLayer
62
256
370
-1
100
AcDbLine
10
246.4
20
66
11
246
21
66
0
ARC
5
20D
100
AcDbEntity
8
0
6
ByLayer
62
256
370
-1
100
AcDbCircle
10
246.4
20
65.6
40
0.4
100
AcDbArc
50
0
51
90
0
LINE
5
20E
100
AcDbEntity
8
0
6
ByLayer
62
256
370
-1
100
AcDbLine
10
246.8
20
62.9
11
246.8
21
65.6
0
LINE
5
20F
100
AcDbEntity
8
0
6
ByLayer
62
256
370
-1
100
AcDbLine
10
246
20
62.0645751311
11
246
21
62.5
0
ARC
5
210
100
AcDbEntity
8
0
6
ByLayer
62
256
370
-1
100
AcDbCircle
10
245.7
20
61.8
40
0.4
100
AcDbArc
50
228.590377892
51
41.4096221092
0
LINE
5
211
100
AcDbEntity
8
0
6
ByLayer
62
256
370
-1
100
AcDbLine
10
239
20
61.5
11
245.435424869
21
61.5
0
LINE
5
212
100
AcDbEntity
8
0
6
ByLayer
62
256
370
-1
100
AcDbLine
10
232
20
66
11
232
21
68.5
0
LINE
5
213
100
AcDbEntity
8
0
6
ByLayer
62
256
370
-1
100
AcDbLine
10
232
20
62.5
11
231.6
21
62.5
0
ARC
5
214
100
AcDbEntity
8
0
6
ByLayer
62
256
370
-1
100
AcDbCircle
10
231.6
20
62.9
40
0.4
100
AcDbArc
50
180
51
270
0
LINE
5
215
100
AcDbEntity
8
0
6
ByLayer
62
256
370
-1
100
AcDbLine
10
231.6
20
66
11
232
21
66
0
ARC
5
216
100
AcDbEntity
8
0
6
ByLayer
62
256
370
-1
100
AcDbCircle
10
231.6
20
65.6
40
0.4
100
AcDbArc
50
90
51
180
0
LINE
5
217
100
AcDbEntity
8
0
6
ByLayer
62
256
370
-1
100
AcDbLine
10
231.2
20
62.9
11
231.2
21
65.6
0
LINE
5
218
100
AcDbEntity
8
0
6
ByLayer
62
256
370
-1
100
AcDbLine
10
232
20
62.0645751311
11
232
21
62.5
0
ARC
5
219
100
AcDbEntity
8
0
6
ByLayer
62
256
370
-1
100
AcDbCircle
10
232.3
20
61.8
40
0.4
100
AcDbArc
50
138.590377891
51
311.409622108
0
LINE
5
21A
100
AcDbEntity
8
0
6
ByLayer
62
256
370
-1
100
AcDbLine
10
239
20
61.5
11
232.564575131
21
61.5
0
LINE
5
21B
100
AcDbEntity
8
0
6
ByLayer
62
256
370
-1
100
AcDbLine
10
20.375
20
52
11
20.375
21
49.5
0
LINE
5
21C
100
AcDbEntity
8
0
6
ByLayer
62
256
370
-1
100
AcDbLine
10
20.375
20
55.5
11
20.775
21
55.5
0
ARC
5
21D
100
AcDbEntity
8
0
6
ByLayer
62
256
370
-1
100
AcDbCircle
10
20.775
20
55.1
40
0.4
100
AcDbArc
50
0
51
90
0
LINE
5
21E
100
AcDbEntity
8
0
6
ByLayer
62
256
370
-1
100
AcDbLine
10
20.775
20
52
11
20.375
21
52
0
ARC
5
21F
100
AcDbEntity
8
0
6
ByLayer
62
256
370
-1
100
AcDbCircle
10
20.775
20
52.4
40
0.4
100
AcDbArc
50
270
51
0
0
LINE
5
220
100
AcDbEntity
8
0
6
ByLayer
62
256
370
-1
100
AcDbLine
10
21.175
20
55.1
11
21.175
21
52.4
0
LINE
5
221
100
AcDbEntity
8
0
6
ByLayer
62
256
370
-1
100
AcDbLine
10
20.375
20
55.9354248689
11
20.375
21
55.5
0
ARC
5
222
100
AcDbEntity
8
0
6
ByLayer
62
256
370
-1
100
AcDbCircle
10
20.075
20
56.2
40
0.4
100
AcDbArc
50
318.590377891
51
131.409622108
0
LINE
5
223
100
AcDbEntity
8
0
6
ByLayer
62
256
370
-1
100
AcDbLine
10
13.375
20
56.5
11
19.8104248689
21
56.5
0
LINE
5
224
100
AcDbEntity
8
0
6
ByLayer
62
256
370
-1
100
AcDbLine
10
6.375
20
52
11
6.375
21
49.5
0
LINE
5
225
100
AcDbEntity
8
0
6
ByLayer
62
256
370
-1
100
AcDbLine
10
6.375
20
55.5
11
5.975
21
55.5
0
ARC
5
226
100
AcDbEntity
8
0
6
ByLayer
62
256
370
-1
100
AcDbCircle
10
5.975
20
55.1
40
0.4
100
AcDbArc
50
90
51
180
0
LINE
5
227
100
AcDbEntity
8
0
6
ByLayer
62
256
370
-1
100
AcDbLine
10
5.975
20
52
11
6.375
21
52
0
ARC
5
228
100
AcDbEntity
8
0
6
ByLayer
62
256
370
-1
100
AcDbCircle
10
5.975
20
52.4
40
0.4
100
AcDbArc
50
180
51
270
0
LINE
5
229
100
AcDbEntity
8
0
6
ByLayer
62
256
370
-1
100
AcDbLine
10
5.575
20
55.1
11
5.575
21
52.4
0
LINE
5
22A
100
AcDbEntity
8
0
6
ByLayer
62
256
370
-1
100
AcDbLine
10
6.375
20
55.9354248689
11
6.375
21
55.5
0
ARC
5
22B
100
AcDbEntity
8
0
6
ByLayer
62
256
370
-1
100
AcDbCircle
10
6.675
20
56.2
40
0.4
100
AcDbArc
50
48.5903778923
51
221.409622109
0
LINE
5
22C
100
AcDbEntity
8
0
6
ByLayer
62
256
370
-1
100
AcDbLine
10
13.375
20
56.5
11
6.93957513109
21
56.5
0
LINE
5
22D
100
AcDbEntity
8
0
6
ByLayer
62
256
370
-1
100
AcDbLine
10
20.375
20
47
11
20.375
21
49.5
0
LINE
5
22E
100
AcDbEntity
8
0
6
ByLayer
62
256
370
-1
100
AcDbLine
10
20.375
20
43.5
11
20.775
21
43.5
0
ARC
5
22F
100
AcDbEntity
8
0
6
ByLayer
62
256
370
-1
100
AcDbCircle
10
20.775
20
43.9
40
0.4
100
AcDbArc
50
270
51
0
0
LINE
5
230
100
AcDbEntity
8
0
6
ByLayer
62
256
370
-1
100
AcDbLine
10
20.775
20
47
11
20.375
21
47
0
ARC
5
231
100
AcDbEntity
8
0
6
ByLayer
62
256
370
-1
100
AcDbCircle
10
20.775
20
46.6
40
0.4
100
AcDbArc
50
0
51
90
0
LINE
5
232
100
AcDbEntity
8
0
6
ByLayer
62
256
370
-1
100
AcDbLine
10
21.175
20
43.9
11
21.175
21
46.6
0
LINE
5
233
100
AcDbEntity
8
0
6
ByLayer
62
256
370
-1
100
AcDbLine
10
20.375
20
43.0645751311
11
20.375
21
43.5
0
ARC
5
234
100
AcDbEntity
8
0
6
ByLayer
62
256
370
-1
100
AcDbCircle
10
20.075
20
42.8
40
0.4
100
AcDbArc
50
228.590377892
51
41.4096221092
0
LINE
5
235
100
AcDbEntity
8
0
6
ByLayer
62
256
370
-1
100
AcDbLine
10
13.375
20
42.5
11
19.8104248689
21
42.5
0
LINE
5
236
100
AcDbEntity
8
0
6
ByLayer
62
256
370
-1
100
AcDbLine
10
6.375
20
47
11
6.375
21
49.5
0
LINE
5
237
100
AcDbEntity
8
0
6
ByLayer
62
256
370
-1
100
AcDbLine
10
6.375
20
43.5
11
5.975
21
43.5
0
ARC
5
238
100
AcDbEntity
8
0
6
ByLayer
62
256
370
-1
100
AcDbCircle
10
5.975
20
43.9
40
0.4
100
AcDbArc
50
180
51
270
0
LINE
5
239
100
AcDbEntity
8
0
6
ByLayer
62
256
370
-1
100
AcDbLine
10
5.975
20
47
11
6.375
21
47
0
ARC
5
23A
100
AcDbEntity
8
0
6
ByLayer
62
256
370
-1
100
AcDbCircle
10
5.975
20
46.6
40
0.4
100
AcDbArc
50
90
51
180
0
LINE
5
23B
100
AcDbEntity
8
0
6
ByLayer
62
256
370
-1
100
AcDbLine
10
5.575
20
43.9
11
5.575
21
46.6
0
LINE
5
23C
100
AcDbEntity
8
0
6
ByLayer
62
256
370
-1
100
AcDbLine
10
6.375
20
43.0645751311
11
6.375
21
43.5
0
ARC
5
23D
100
AcDbEntity
8
0
6
ByLayer
62
256
370
-1
100
AcDbCircle
10
6.675
20
42.8
40
0.4
100
AcDbArc
50
138.590377891
51
311.409622108
0
LINE
5
23E
100
AcDbEntity
8
0
6
ByLayer
62
256
370
-1
100
AcDbLine
10
13.375
20
42.5
11
6.93957513109
21
42.5
0
LINE
5
23F
100
AcDbEntity
8
0
6
ByLayer
62
256
370
-1
100
AcDbLine
10
41.75
20
52
11
41.75
21
49.5
0
LINE
5
240
100
AcDbEntity
8
0
6
ByLayer
62
256
370
-1
100
AcDbLine
10
41.75
20
55.5
11
42.15
21
55.5
0
ARC
5
241
100
AcDbEntity
8
0
6
ByLayer
62
256
370
-1
100
AcDbCircle
10
42.15
20
55.1
40
0.4
100
AcDbArc
50
0
51
90
0
LINE
5
242
100
AcDbEntity
8
0
6
ByLayer
62
256
370
-1
100
AcDbLine
10
42.15
20
52
11
41.75
21
52
0
ARC
5
243
100
AcDbEntity
8
0
6
ByLayer
62
256
370
-1
100
AcDbCircle
10
42.15
20
52.4
40
0.4
100
AcDbArc
50
270
51
0
0
LINE
5
244
100
AcDbEntity
8
0
6
ByLayer
62
256
370
-1
100
AcDbLine
10
42.55
20
55.1
11
42.55
21
52.4
0
LINE
5
245
100
AcDbEntity
8
0
6
ByLayer
62
256
370
-1
100
AcDbLine
10
41.75
20
55.9354248689
11
41.75
21
55.5
0
ARC
5
246
100
AcDbEntity
8
0
6
ByLayer
62
256
370
-1
100
AcDbCircle
10
41.45
20
56.2
40
0.4
100
AcDbArc
50
318.590377891
51
131.409622108
0
LINE
5
247
100
AcDbEntity
8
0
6
ByLayer
62
256
370
-1
100
AcDbLine
10
34.75
20
56.5
11
41.1854248689
21
56.5
0
LINE
5
248
100
AcDbEntity
8
0
6
ByLayer
62
256
370
-1
100
AcDbLine
10
27.75
20
52
11
27.75
21
49.5
0
LINE
5
249
100
AcDbEntity
8
0
6
ByLayer
62
256
370
-1
100
AcDbLine
10
27.75
20
55.5
11
27.35
21
55.5
0
ARC
5
24A
100
AcDbEntity
8
0
6
ByLayer
62
256
370
-1
100
AcDbCircle
10
27.35
20
55.1
40
0.4
100
AcDbArc
50
90
51
180
0
LINE
5
24B
100
AcDbEntity
8
0
6
ByLayer
62
256
370
-1
100
AcDbLine
10
27.35
20
52
11
27.75
21
52
0
ARC
5
24C
100
AcDbEntity
8
0
6
ByLayer
62
256
370
-1
100
AcDbCircle
10
27.35
20
52.4
40
0.4
100
AcDbArc
50
180
51
270
0
LINE
5
24D
100
AcDbEntity
8
0
6
ByLayer
62
256
370
-1
100
AcDbLine
10
26.95
20
55.1
11
26.95
21
52.4
0
LINE
5
24E
100
AcDbEntity
8
0
6
ByLayer
62
256
370
-1
100
AcDbLine
10
27.75
20
55.9354248689
11
27.75
21
55.5
0
ARC
5
24F
100
AcDbEntity
8
0
6
ByLayer
62
256
370
-1
100
AcDbCircle
10
28.05
20
56.2
40
0.4
100
AcDbArc
50
48.5903778923
51
221.409622109
0
LINE
5
250
100
AcDbEntity
8
0
6
ByLayer
62
256
370
-1
100
AcDbLine
10
34.75
20
56.5
11
28.3145751311
21
56.5
0
LINE
5
251
100
AcDbEntity
8
0
6
ByLayer
62
256
370
-1
100
AcDbLine
10
41.75
20
47
11
41.75
21
49.5
0
LINE
5
252
100
AcDbEntity
8
0
6
ByLayer
62
256
370
-1
100
AcDbLine
10
41.75
20
43.5
11
42.15
21
43.5
0
ARC
5
253
100
AcDbEntity
8
0
6
ByLayer
62
256
370
-1
100
AcDbCircle
10
42.15
20
43.9
40
0.4
100
AcDbArc
50
270
51
0
0
LINE
5
254
100
AcDbEntity
8
0
6
ByLayer
62
256
370
-1
100
AcDbLine
10
42.15
20
47
11
41.75
21
47
0
ARC
5
255
100
AcDbEntity
8
0
6
ByLayer
62
256
370
-1
100
AcDbCircle
10
42.15
20
46.6
40
0.4
100
AcDbArc
50
0
51
90
0
LINE
5
256
100
AcDbEntity
8
0
6
ByLayer
62
256
370
-1
100
AcDbLine
10
42.55
20
43.9
11
42.55
21
46.6
0
LINE
5
257
100
AcDbEntity
8
0
6
ByLayer
62
256
370
-1
100
AcDbLine
10
41.75
20
43.0645751311
11
41.75
21
43.5
0
ARC
5
258
100
AcDbEntity
8
0
6
ByLayer
62
256
370
-1
100
AcDbCircle
10
41.45
20
42.8
40
0.4
100
AcDbArc
50
228.590377892
51
41.4096221092
0
LINE
5
259
100
AcDbEntity
8
0
6
ByLayer
62
256
370
-1
100
AcDbLine
10
34.75
20
42.5
11
41.1854248689
21
42.5
0
LINE
5
25A
100
AcDbEntity
8
0
6
ByLayer
62
256
370
-1
100
AcDbLine
10
27.75
20
47
11
27.75
21
49.5
0
LINE
5
25B
100
AcDbEntity
8
0
6
ByLayer
62
256
370
-1
100
AcDbLine
10
27.75
20
43.5
11
27.35
21
43.5
0
ARC
5
25C
100
AcDbEntity
8
0
6
ByLayer
62
256
370
-1
100
AcDbCircle
10
27.35
20
43.9
40
0.4
100
AcDbArc
50
180
51
270
0
LINE
5
25D
100
AcDbEntity
8
0
6
ByLayer
62
256
370
-1
100
AcDbLine
10
27.35
20
47
11
27.75
21
47
0
ARC
5
25E
100
AcDbEntity
8
0
6
ByLayer
62
256
370
-1
100
AcDbCircle
10
27.35
20
46.6
40
0.4
100
AcDbArc
50
90
51
180
0
LINE
5
25F
100
AcDbEntity
8
0
6
ByLayer
62
256
370
-1
100
AcDbLine
10
26.95
20
43.9
11
26.95
21
46.6
0
LINE
5
260
100
AcDbEntity
8
0
6
ByLayer
62
256
370
-1
100
AcDbLine
10
27.75
20
43.0645751311
11
27.75
21
43.5
0
ARC
5
261
100
AcDbEntity
8
0
6
ByLayer
62
256
370
-1
100
AcDbCircle
10
28.05
20
42.8
40
0.4
100
AcDbArc
50
138.590377891
51
311.409622108
0
LINE
5
262
100
AcDbEntity
8
0
6
ByLayer
62
256
370
-1
100
AcDbLine
10
34.75
20
42.5
11
28.3145751311
21
42.5
0
LINE
5
263
100
AcDbEntity
8
0
6
ByLayer
62
256
370
-1
100
AcDbLine
10
60.75
20
52
11
60.75
21
49.5
0
LINE
5
264
100
AcDbEntity
8
0
6
ByLayer
62
256
370
-1
100
AcDbLine
10
60.75
20
55.5
11
61.15
21
55.5
0
ARC
5
265
100
AcDbEntity
8
0
6
ByLayer
62
256
370
-1
100
AcDbCircle
10
61.15
20
55.1
40
0.4
100
AcDbArc
50
0
51
90
0
LINE
5
266
100
AcDbEntity
8
0
6
ByLayer
62
256
370
-1
100
AcDbLine
10
61.15
20
52
11
60.75
21
52
0
ARC
5
267
100
AcDbEntity
8
0
6
ByLayer
62
256
370
-1
100
AcDbCircle
10
61.15
20
52.4
40
0.4
100
AcDbArc
50
270
51
0
0
LINE
5
268
100
AcDbEntity
8
0
6
ByLayer
62
256
370
-1
100
AcDbLine
10
61.55
20
55.1
11
61.55
21
52.4
0
LINE
5
269
100
AcDbEntity
8
0
6
ByLayer
62
256
370
-1
100
AcDbLine
10
60.75
20
55.9354248689
11
60.75
21
55.5
0
ARC
5
26A
100
AcDbEntity
8
0
6
ByLayer
62
256
370
-1
100
AcDbCircle
10
60.45
20
56.2
40
0.4
100
AcDbArc
50
318.590377891
51
131.409622108
0
LINE
5
26B
100
AcDbEntity
8
0
6
ByLayer
62
256
370
-1
100
AcDbLine
10
53.75
20
56.5
11
60.1854248689
21
56.5
0
LINE
5
26C
100
AcDbEntity
8
0
6
ByLayer
62
256
370
-1
100
AcDbLine
10
46.75
20
52
11
46.75
21
49.5
0
LINE
5
26D
100
AcDbEntity
8
0
6
ByLayer
62
256
370
-1
100
AcDbLine
10
46.75
20
55.5
11
46.35
21
55.5
0
ARC
5
26E
100
AcDbEntity
8
0
6
ByLayer
62
256
370
-1
100
AcDbCircle
10
46.35
20
55.1
40
0.4
100
AcDbArc
50
90
51
180
0
LINE
5
26F
100
AcDbEntity
8
0
6
ByLayer
62
256
370
-1
100
AcDbLine
10
46.35
20
52
11
46.75
21
52
0
ARC
5
270
100
AcDbEntity
8
0
6
ByLayer
62
256
370
-1
100
AcDbCircle
10
46.35
20
52.4
40
0.4
100
AcDbArc
50
180
51
270
0
LINE
5
271
100
AcDbEntity
8
0
6
ByLayer
62
256
370
-1
100
AcDbLine
10
45.95
20
55.1
11
45.95
21
52.4
0
LINE
5
272
100
AcDbEntity
8
0
6
ByLayer
62
256
370
-1
100
AcDbLine
10
46.75
20
55.9354248689
11
46.75
21
55.5
0
ARC
5
273
100
AcDbEntity
8
0
6
ByLayer
62
256
370
-1
100
AcDbCircle
10
47.05
20
56.2
40
0.4
100
AcDbArc
50
48.5903778923
51
221.409622109
0
LINE
5
274
100
AcDbEntity
8
0
6
ByLayer
62
256
370
-1
100
AcDbLine
10
53.75
20
56.5
11
47.3145751311
21
56.5
0
LINE
5
275
100
AcDbEntity
8
0
6
ByLayer
62
256
370
-1
100
AcDbLine
10
60.75
20
47
11
60.75
21
49.5
0
LINE
5
276
100
AcDbEntity
8
0
6
ByLayer
62
256
370
-1
100
AcDbLine
10
60.75
20
43.5
11
61.15
21
43.5
0
ARC
5
277
100
AcDbEntity
8
0
6
ByLayer
62
256
370
-1
100
AcDbCircle
10
61.15
20
43.9
40
0.4
100
AcDbArc
50
270
51
0
0
LINE
5
278
100
AcDbEntity
8
0
6
ByLayer
62
256
370
-1
100
AcDbLine
10
61.15
20
47
11
60.75
21
47
0
ARC
5
279
100
AcDbEntity
8
0
6
ByLayer
62
256
370
-1
100
AcDbCircle
10
61.15
20
46.6
40
0.4
100
AcDbArc
50
0
51
90
0
LINE
5
27A
100
AcDbEntity
8
0
6
ByLayer
62
256
370
-1
100
AcDbLine
10
61.55
20
43.9
11
61.55
21
46.6
0
LINE
5
27B
100
AcDbEntity
8
0
6
ByLayer
62
256
370
-1
100
AcDbLine
10
60.75
20
43.0645751311
11
60.75
21
43.5
0
ARC
5
27C
100
AcDbEntity
8
0
6
ByLayer
62
256
370
-1
100
AcDbCircle
10
60.45
20
42.8
40
0.4
100
AcDbArc
50
228.590377892
51
41.4096221092
0
LINE
5
27D
100
AcDbEntity
8
0
6
ByLayer
62
256
370
-1
100
AcDbLine
10
53.75
20
42.5
11
60.1854248689
21
42.5
0
LINE
5
27E
100
AcDbEntity
8
0
6
ByLayer
62
256
370
-1
100
AcDbLine
10
46.75
20
47
11
46.75
21
49.5
0
LINE
5
27F
100
AcDbEntity
8
0
6
ByLayer
62
256
370
-1
100
AcDbLine
10
46.75
20
43.5
11
46.35
21
43.5
0
ARC
5
280
100
AcDbEntity
8
0
6
ByLayer
62
256
370
-1
100
AcDbCircle
10
46.35
20
43.9
40
0.4
100
AcDbArc
50
180
51
270
0
LINE
5
281
100
AcDbEntity
8
0
6
ByLayer
62
256
370
-1
100
AcDbLine
10
46.35
20
47
11
46.75
21
47
0
ARC
5
282
100
AcDbEntity
8
0
6
ByLayer
62
256
370
-1
100
AcDbCircle
10
46.35
20
46.6
40
0.4
100
AcDbArc
50
90
51
180
0
LINE
5
283
100
AcDbEntity
8
0
6
ByLayer
62
256
370
-1
100
AcDbLine
10
45.95
20
43.9
11
45.95
21
46.6
0
LINE
5
284
100
AcDbEntity
8
0
6
ByLayer
62
256
370
-1
100
AcDbLine
10
46.75
20
43.0645751311
11
46.75
21
43.5
0
ARC
5
285
100
AcDbEntity
8
0
6
ByLayer
62
256
370
-1
100
AcDbCircle
10
47.05
20
42.8
40
0.4
100
AcDbArc
50
138.590377891
51
311.409622108
0
LINE
5
286
100
AcDbEntity
8
0
6
ByLayer
62
256
370
-1
100
AcDbLine
10
53.75
20
42.5
11
47.3145751311
21
42.5
0
LINE
5
287
100
AcDbEntity
8
0
6
ByLayer
62
256
370
-1
100
AcDbLine
10
79.75
20
52
11
79.75
21
49.5
0
LINE
5
288
100
AcDbEntity
8
0
6
ByLayer
62
256
370
-1
100
AcDbLine
10
79.75
20
55.5
11
80.15
21
55.5
0
ARC
5
289
100
AcDbEntity
8
0
6
ByLayer
62
256
370
-1
100
AcDbCircle
10
80.15
20
55.1
40
0.4
100
AcDbArc
50
0
51
90
0
LINE
5
28A
100
AcDbEntity
8
0
6
ByLayer
62
256
370
-1
100
AcDbLine
10
80.15
20
52
11
79.75
21
52
0
ARC
5
28B
100
AcDbEntity
8
0
6
ByLayer
62
256
370
-1
100
AcDbCircle
10
80.15
20
52.4
40
0.4
100
AcDbArc
50
270
51
0
0
LINE
5
28C
100
AcDbEntity
8
0
6
ByLayer
62
256
370
-1
100
AcDbLine
10
80.55
20
55.1
11
80.55
21
52.4
0
LINE
5
28D
100
AcDbEntity
8
0
6
ByLayer
62
256
370
-1
100
AcDbLine
10
79.75
20
55.9354248689
11
79.75
21
55.5
0
ARC
5
28E
100
AcDbEntity
8
0
6
ByLayer
62
256
370
-1
100
AcDbCircle
10
79.45
20
56.2
40
0.4
100
AcDbArc
50
318.590377891
51
131.409622108
0
LINE
5
28F
100
AcDbEntity
8
0
6
ByLayer
62
256
370
-1
100
AcDbLine
10
72.75
20
56.5
11
79.1854248689
21
56.5
0
LINE
5
290
100
AcDbEntity
8
0
6
ByLayer
62
256
370
-1
100
AcDbLine
10
65.75
20
52
11
65.75
21
49.5
0
LINE
5
291
100
AcDbEntity
8
0
6
ByLayer
62
256
370
-1
100
AcDbLine
10
65.75
20
55.5
11
65.35
21
55.5
0
ARC
5
292
100
AcDbEntity
8
0
6
ByLayer
62
256
370
-1
100
AcDbCircle
10
65.35
20
55.1
40
0.4
100
AcDbArc
50
90
51
180
0
LINE
5
293
100
AcDbEntity
8
0
6
ByLayer
62
256
370
-1
100
AcDbLine
10
65.35
20
52
11
65.75
21
52
0
ARC
5
294
100
AcDbEntity
8
0
6
ByLayer
62
256
370
-1
100
AcDbCircle
10
65.35
20
52.4
40
0.4
100
AcDbArc
50
180
51
270
0
LINE
5
295
100
AcDbEntity
8
0
6
ByLayer
62
256
370
-1
100
AcDbLine
10
64.95
20
55.1
11
64.95
21
52.4
0
LINE
5
296
100
AcDbEntity
8
0
6
ByLayer
62
256
370
-1
100
AcDbLine
10
65.75
20
55.9354248689
11
65.75
21
55.5
0
ARC
5
297
100
AcDbEntity
8
0
6
ByLayer
62
256
370
-1
100
AcDbCircle
10
66.05
20
56.2
40
0.4
100
AcDbArc
50
48.5903778923
51
221.409622109
0
LINE
5
298
100
AcDbEntity
8
0
6
ByLayer
62
256
370
-1
100
AcDbLine
10
72.75
20
56.5
11
66.3145751311
21
56.5
0
LINE
5
299
100
AcDbEntity
8
0
6
ByLayer
62
256
370
-1
100
AcDbLine
10
79.75
20
47
11
79.75
21
49.5
0
LINE
5
29A
100
AcDbEntity
8
0
6
ByLayer
62
256
370
-1
100
AcDbLine
10
79.75
20
43.5
11
80.15
21
43.5
0
ARC
5
29B
100
AcDbEntity
8
0
6
ByLayer
62
256
370
-1
100
AcDbCircle
10
80.15
20
43.9
40
0.4
100
AcDbArc
50
270
51
0
0
LINE
5
29C
100
AcDbEntity
8
0
6
ByLayer
62
256
370
-1
100
AcDbLine
10
80.15
20
47
11
79.75
21
47
0
ARC
5
29D
100
AcDbEntity
8
0
6
ByLayer
62
256
370
-1
100
AcDbCircle
10
80.15
20
46.6
40
0.4
100
AcDbArc
50
0
51
90
0
LINE
5
29E
100
AcDbEntity
8
0
6
ByLayer
62
256
370
-1
100
AcDbLine
10
80.55
20
43.9
11
80.55
21
46.6
0
LINE
5
29F
100
AcDbEntity
8
0
6
ByLayer
62
256
370
-1
100
AcDbLine
10
79.75
20
43.0645751311
11
79.75
21
43.5
0
ARC
5
2A0
100
AcDbEntity
8
0
6
ByLayer
62
256
370
-1
100
AcDbCircle
10
79.45
20
42.8
40
0.4
100
AcDbArc
50
228.590377892
51
41.4096221092
0
LINE
5
2A1
100
AcDbEntity
8
0
6
ByLayer
62
256
370
-1
100
AcDbLine
10
72.75
20
42.5
11
79.1854248689
21
42.5
0
LINE
5
2A2
100
AcDbEntity
8
0
6
ByLayer
62
256
370
-1
100
AcDbLine
10
65.75
20
47
11
65.75
21
49.5
0
LINE
5
2A3
100
AcDbEntity
8
0
6
ByLayer
62
256
370
-1
100
AcDbLine
10
65.75
20
43.5
11
65.35
21
43.5
0
ARC
5
2A4
100
AcDbEntity
8
0
6
ByLayer
62
256
370
-1
100
AcDbCircle
10
65.35
20
43.9
40
0.4
100
AcDbArc
50
180
51
270
0
LINE
5
2A5
100
AcDbEntity
8
0
6
ByLayer
62
256
370
-1
100
AcDbLine
10
65.35
20
47
11
65.75
21
47
0
ARC
5
2A6
100
AcDbEntity
8
0
6
ByLayer
62
256
370
-1
100
AcDbCircle
10
65.35
20
46.6
40
0.4
100
AcDbArc
50
90
51
180
0
LINE
5
2A7
100
AcDbEntity
8
0
6
ByLayer
62
256
370
-1
100
AcDbLine
10
64.95
20
43.9
11
64.95
21
46.6
0
LINE
5
2A8
100
AcDbEntity
8
0
6
ByLayer
62
256
370
-1
100
AcDbLine
10
65.75
20
43.0645751311
11
65.75
21
43.5
0
ARC
5
2A9
100
AcDbEntity
8
0
6
ByLayer
62
256
370
-1
100
AcDbCircle
10
66.05
20
42.8
40
0.4
100
AcDbArc
50
138.590377891
51
311.409622108
0
LINE
5
2AA
100
AcDbEntity
8
0
6
ByLayer
62
256
370
-1
100
AcDbLine
10
72.75
20
42.5
11
66.3145751311
21
42.5
0
LINE
5
2AB
100
AcDbEntity
8
0
6
ByLayer
62
256
370
-1
100
AcDbLine
10
98.75
20
52
11
98.75
21
49.5
0
LINE
5
2AC
100
AcDbEntity
8
0
6
ByLayer
62
256
370
-1
100
AcDbLine
10
98.75
20
55.5
11
99.15
21
55.5
0
ARC
5
2AD
100
AcDbEntity
8
0
6
ByLayer
62
256
370
-1
100
AcDbCircle
10
99.15
20
55.1
40
0.4
100
AcDbArc
50
0
51
90
0
LINE
5
2AE
100
AcDbEntity
8
0
6
ByLayer
62
256
370
-1
100
AcDbLine
10
99.15
20
52
11
98.75
21
52
0
ARC
5
2AF
100
AcDbEntity
8
0
6
ByLayer
62
256
370
-1
100
AcDbCircle
10
99.15
20
52.4
40
0.4
100
AcDbArc
50
270
51
0
0
LINE
5
2B0
100
AcDbEntity
8
0
6
ByLayer
62
256
370
-1
100
AcDbLine
10
99.55
20
55.1
11
99.55
21
52.4
0
LINE
5
2B1
100
AcDbEntity
8
0
6
ByLayer
62
256
370
-1
100
AcDbLine
10
98.75
20
55.9354248689
11
98.75
21
55.5
0
ARC
5
2B2
100
AcDbEntity
8
0
6
ByLayer
62
256
370
-1
100
AcDbCircle
10
98.45
20
56.2
40
0.4
100
AcDbArc
50
318.590377891
51
131.409622108
0
LINE
5
2B3
100
AcDbEntity
8
0
6
ByLayer
62
256
370
-1
100
AcDbLine
10
91.75
20
56.5
11
98.1854248689
21
56.5
0
LINE
5
2B4
100
AcDbEntity
8
0
6
ByLayer
62
256
370
-1
100
AcDbLine
10
84.75
20
52
11
84.75
21
49.5
0
LINE
5
2B5
100
AcDbEntity
8
0
6
ByLayer
62
256
370
-1
100
AcDbLine
10
84.75
20
55.5
11
84.35
21
55.5
0
ARC
5
2B6
100
AcDbEntity
8
0
6
ByLayer
62
256
370
-1
100
AcDbCircle
10
84.35
20
55.1
40
0.4
100
AcDbArc
50
90
51
180
0
LINE
5
2B7
100
AcDbEntity
8
0
6
ByLayer
62
256
370
-1
100
AcDbLine
10
84.35
20
52
11
84.75
21
52
0
ARC
5
2B8
100
AcDbEntity
8
0
6
ByLayer
62
256
370
-1
100
AcDbCircle
10
84.35
20
52.4
40
0.4
100
AcDbArc
50
180
51
270
0
LINE
5
2B9
100
AcDbEntity
8
0
6
ByLayer
62
256
370
-1
100
AcDbLine
10
83.95
20
55.1
11
83.95
21
52.4
0
LINE
5
2BA
100
AcDbEntity
8
0
6
ByLayer
62
256
370
-1
100
AcDbLine
10
84.75
20
55.9354248689
11
84.75
21
55.5
0
ARC
5
2BB
100
AcDbEntity
8
0
6
ByLayer
62
256
370
-1
100
AcDbCircle
10
85.05
20
56.2
40
0.4
100
AcDbArc
50
48.5903778923
51
221.409622109
0
LINE
5
2BC
100
AcDbEntity
8
0
6
ByLayer
62
256
370
-1
100
AcDbLine
10
91.75
20
56.5
11
85.3145751311
21
56.5
0
LINE
5
2BD
100
AcDbEntity
8
0
6
ByLayer
62
256
370
-1
100
AcDbLine
10
98.75
20
47
11
98.75
21
49.5
0
LINE
5
2BE
100
AcDbEntity
8
0
6
ByLayer
62
256
370
-1
100
AcDbLine
10
98.75
20
43.5
11
99.15
21
43.5
0
ARC
5
2BF
100
AcDbEntity
8
0
6
ByLayer
62
256
370
-1
100
AcDbCircle
10
99.15
20
43.9
40
0.4
100
AcDbArc
50
270
51
0
0
LINE
5
2C0
100
AcDbEntity
8
0
6
ByLayer
62
256
370
-1
100
AcDbLine
10
99.15
20
47
11
98.75
21
47
0
ARC
5
2C1
100
AcDbEntity
8
0
6
ByLayer
62
256
370
-1
100
AcDbCircle
10
99.15
20
46.6
40
0.4
100
AcDbArc
50
0
51
90
0
LINE
5
2C2
100
AcDbEntity
8
0
6
ByLayer
62
256
370
-1
100
AcDbLine
10
99.55
20
43.9
11
99.55
21
46.6
0
LINE
5
2C3
100
AcDbEntity
8
0
6
ByLayer
62
256
370
-1
100
AcDbLine
10
98.75
20
43.0645751311
11
98.75
21
43.5
0
ARC
5
2C4
100
AcDbEntity
8
0
6
ByLayer
62
256
370
-1
100
AcDbCircle
10
98.45
20
42.8
40
0.4
100
AcDbArc
50
228.590377892
51
41.4096221092
0
LINE
5
2C5
100
AcDbEntity
8
0
6
ByLayer
62
256
370
-1
100
AcDbLine
10
91.75
20
42.5
11
98.1854248689
21
42.5
0
LINE
5
2C6
100
AcDbEntity
8
0
6
ByLayer
62
256
370
-1
100
AcDbLine
10
84.75
20
47
11
84.75
21
49.5
0
LINE
5
2C7
100
AcDbEntity
8
0
6
ByLayer
62
256
370
-1
100
AcDbLine
10
84.75
20
43.5
11
84.35
21
43.5
0
ARC
5
2C8
100
AcDbEntity
8
0
6
ByLayer
62
256
370
-1
100
AcDbCircle
10
84.35
20
43.9
40
0.4
100
AcDbArc
50
180
51
270
0
LINE
5
2C9
100
AcDbEntity
8
0
6
ByLayer
62
256
370
-1
100
AcDbLine
10
84.35
20
47
11
84.75
21
47
0
ARC
5
2CA
100
AcDbEntity
8
0
6
ByLayer
62
256
370
-1
100
AcDbCircle
10
84.35
20
46.6
40
0.4
100
AcDbArc
50
90
51
180
0
LINE
5
2CB
100
AcDbEntity
8
0
6
ByLayer
62
256
370
-1
100
AcDbLine
10
83.95
20
43.9
11
83.95
21
46.6
0
LINE
5
2CC
100
AcDbEntity
8
0
6
ByLayer
62
256
370
-1
100
AcDbLine
10
84.75
20
43.0645751311
11
84.75
21
43.5
0
ARC
5
2CD
100
AcDbEntity
8
0
6
ByLayer
62
256
370
-1
100
AcDbCircle
10
85.05
20
42.8
40
0.4
100
AcDbArc
50
138.590377891
51
311.409622108
0
LINE
5
2CE
100
AcDbEntity
8
0
6
ByLayer
62
256
370
-1
100
AcDbLine
10
91.75
20
42.5
11
85.3145751311
21
42.5
0
LINE
5
2CF
100
AcDbEntity
8
0
6
ByLayer
62
256
370
-1
100
AcDbLine
10
117.75
20
52
11
117.75
21
49.5
0
LINE
5
2D0
100
AcDbEntity
8
0
6
ByLayer
62
256
370
-1
100
AcDbLine
10
117.75
20
55.5
11
118.15
21
55.5
0
ARC
5
2D1
100
AcDbEntity
8
0
6
ByLayer
62
256
370
-1
100
AcDbCircle
10
118.15
20
55.1
40
0.4
100
AcDbArc
50
0
51
90
0
LINE
5
2D2
100
AcDbEntity
8
0
6
ByLayer
62
256
370
-1
100
AcDbLine
10
118.15
20
52
11
117.75
21
52
0
ARC
5
2D3
100
AcDbEntity
8
0
6
ByLayer
62
256
370
-1
100
AcDbCircle
10
118.15
20
52.4
40
0.4
100
AcDbArc
50
270
51
0
0
LINE
5
2D4
100
AcDbEntity
8
0
6
ByLayer
62
256
370
-1
100
AcDbLine
10
118.55
20
55.1
11
118.55
21
52.4
0
LINE
5
2D5
100
AcDbEntity
8
0
6
ByLayer
62
256
370
-1
100
AcDbLine
10
117.75
20
55.9354248689
11
117.75
21
55.5
0
ARC
5
2D6
100
AcDbEntity
8
0
6
ByLayer
62
256
370
-1
100
AcDbCircle
10
117.45
20
56.2
40
0.4
100
AcDbArc
50
318.590377891
51
131.409622108
0
LINE
5
2D7
100
AcDbEntity
8
0
6
ByLayer
62
256
370
-1
100
AcDbLine
10
110.75
20
56.5
11
117.185424869
21
56.5
0
LINE
5
2D8
100
AcDbEntity
8
0
6
ByLayer
62
256
370
-1
100
AcDbLine
10
103.75
20
52
11
103.75
21
49.5
0
LINE
5
2D9
100
AcDbEntity
8
0
6
ByLayer
62
256
370
-1
100
AcDbLine
10
103.75
20
55.5
11
103.35
21
55.5
0
ARC
5
2DA
100
AcDbEntity
8
0
6
ByLayer
62
256
370
-1
100
AcDbCircle
10
103.35
20
55.1
40
0.4
100
AcDbArc
50
90
51
180
0
LINE
5
2DB
100
AcDbEntity
8
0
6
ByLayer
62
256
370
-1
100
AcDbLine
10
103.35
20
52
11
103.75
21
52
0
ARC
5
2DC
100
AcDbEntity
8
0
6
ByLayer
62
256
370
-1
100
AcDbCircle
10
103.35
20
52.4
40
0.4
100
AcDbArc
50
180
51
270
0
LINE
5
2DD
100
AcDbEntity
8
0
6
ByLayer
62
256
370
-1
100
AcDbLine
10
102.95
20
55.1
11
102.95
21
52.4
0
LINE
5
2DE
100
AcDbEntity
8
0
6
ByLayer
62
256
370
-1
100
AcDbLine
10
103.75
20
55.9354248689
11
103.75
21
55.5
0
ARC
5
2DF
100
AcDbEntity
8
0
6
ByLayer
62
256
370
-1
100
AcDbCircle
10
104.05
20
56.2
40
0.4
100
AcDbArc
50
48.5903778923
51
221.409622109
0
LINE
5
2E0
100
AcDbEntity
8
0
6
ByLayer
62
256
370
-1
100
AcDbLine
10
110.75
20
56.5
11
104.314575131
21
56.5
0
LINE
5
2E1
100
AcDbEntity
8
0
6
ByLayer
62
256
370
-1
100
AcDbLine
10
117.75
20
47
11
117.75
21
49.5
0
LINE
5
2E2
100
AcDbEntity
8
0
6
ByLayer
62
256
370
-1
100
AcDbLine
10
117.75
20
43.5
11
118.15
21
43.5
0
ARC
5
2E3
100
AcDbEntity
8
0
6
ByLayer
62
256
370
-1
100
AcDbCircle
10
118.15
20
43.9
40
0.4
100
AcDbArc
50
270
51
0
0
LINE
5
2E4
100
AcDbEntity
8
0
6
ByLayer
62
256
370
-1
100
AcDbLine
10
118.15
20
47
11
117.75
21
47
0
ARC
5
2E5
100
AcDbEntity
8
0
6
ByLayer
62
256
370
-1
100
AcDbCircle
10
118.15
20
46.6
40
0.4
100
AcDbArc
50
0
51
90
0
LINE
5
2E6
100
AcDbEntity
8
0
6
ByLayer
62
256
370
-1
100
AcDbLine
10
118.55
20
43.9
11
118.55
21
46.6
0
LINE
5
2E7
100
AcDbEntity
8
0
6
ByLayer
62
256
370
-1
100
AcDbLine
10
117.75
20
43.0645751311
11
117.75
21
43.5
0
ARC
5
2E8
100
AcDbEntity
8
0
6
ByLayer
62
256
370
-1
100
AcDbCircle
10
117.45
20
42.8
40
0.4
100
AcDbArc
50
228.590377892
51
41.4096221092
0
LINE
5
2E9
100
AcDbEntity
8
0
6
ByLayer
62
256
370
-1
100
AcDbLine
10
110.75
20
42.5
11
117.185424869
21
42.5
0
LINE
5
2EA
100
AcDbEntity
8
0
6
ByLayer
62
256
370
-1
100
AcDbLine
10
103.75
20
47
11
103.75
21
49.5
0
LINE
5
2EB
100
AcDbEntity
8
0
6
ByLayer
62
256
370
-1
100
AcDbLine
10
103.75
20
43.5
11
103.35
21
43.5
0
ARC
5
2EC
100
AcDbEntity
8
0
6
ByLayer
62
256
370
-1
100
AcDbCircle
10
103.35
20
43.9
40
0.4
100
AcDbArc
50
180
51
270
0
LINE
5
2ED
100
AcDbEntity
8
0
6
ByLayer
62
256
370
-1
100
AcDbLine
10
103.35
20
47
11
103.75
21
47
0
ARC
5
2EE
100
AcDbEntity
8
0
6
ByLayer
62
256
370
-1
100
AcDbCircle
10
103.35
20
46.6
40
0.4
100
AcDbArc
50
90
51
180
0
LINE
5
2EF
100
AcDbEntity
8
0
6
ByLayer
62
256
370
-1
100
AcDbLine
10
102.95
20
43.9
11
102.95
21
46.6
0
LINE
5
2F0
100
AcDbEntity
8
0
6
ByLayer
62
256
370
-1
100
AcDbLine
10
103.75
20
43.0645751311
11
103.75
21
43.5
0
ARC
5
2F1
100
AcDbEntity
8
0
6
ByLayer
62
256
370
-1
100
AcDbCircle
10
104.05
20
42.8
40
0.4
100
AcDbArc
50
138.590377891
51
311.409622108
0
LINE
5
2F2
100
AcDbEntity
8
0
6
ByLayer
62
256
370
-1
100
AcDbLine
10
110.75
20
42.5
11
104.314575131
21
42.5
0
LINE
5
2F3
100
AcDbEntity
8
0
6
ByLayer
62
256
370
-1
100
AcDbLine
10
136.75
20
52
11
136.75
21
49.5
0
LINE
5
2F4
100
AcDbEntity
8
0
6
ByLayer
62
256
370
-1
100
AcDbLine
10
136.75
20
55.5
11
137.15
21
55.5
0
ARC
5
2F5
100
AcDbEntity
8
0
6
ByLayer
62
256
370
-1
100
AcDbCircle
10
137.15
20
55.1
40
0.4
100
AcDbArc
50
0
51
90
0
LINE
5
2F6
100
AcDbEntity
8
0
6
ByLayer
62
256
370
-1
100
AcDbLine
10
137.15
20
52
11
136.75
21
52
0
ARC
5
2F7
100
AcDbEntity
8
0
6
ByLayer
62
256
370
-1
100
AcDbCircle
10
137.15
20
52.4
40
0.4
100
AcDbArc
50
270
51
0
0
LINE
5
2F8
100
AcDbEntity
8
0
6
ByLayer
62
256
370
-1
100
AcDbLine
10
137.55
20
55.1
11
137.55
21
52.4
0
LINE
5
2F9
100
AcDbEntity
8
0
6
ByLayer
62
256
370
-1
100
AcDbLine
10
136.75
20
55.9354248689
11
136.75
21
55.5
0
ARC
5
2FA
100
AcDbEntity
8
0
6
ByLayer
62
256
370
-1
100
AcDbCircle
10
136.45
20
56.2
40
0.4
100
AcDbArc
50
318.590377891
51
131.409622108
0
LINE
5
2FB
100
AcDbEntity
8
0
6
ByLayer
62
256
370
-1
100
AcDbLine
10
129.75
20
56.5
11
136.185424869
21
56.5
0
LINE
5
2FC
100
AcDbEntity
8
0
6
ByLayer
62
256
370
-1
100
AcDbLine
10
122.75
20
52
11
122.75
21
49.5
0
LINE
5
2FD
100
AcDbEntity
8
0
6
ByLayer
62
256
370
-1
100
AcDbLine
10
122.75
20
55.5
11
122.35
21
55.5
0
ARC
5
2FE
100
AcDbEntity
8
0
6
ByLayer
62
256
370
-1
100
AcDbCircle
10
122.35
20
55.1
40
0.4
100
AcDbArc
50
90
51
180
0
LINE
5
2FF
100
AcDbEntity
8
0
6
ByLayer
62
256
370
-1
100
AcDbLine
10
122.35
20
52
11
122.75
21
52
0
ARC
5
300
100
AcDbEntity
8
0
6
ByLayer
62
256
370
-1
100
AcDbCircle
10
122.35
20
52.4
40
0.4
100
AcDbArc
50
180
51
270
0
LINE
5
301
100
AcDbEntity
8
0
6
ByLayer
62
256
370
-1
100
AcDbLine
10
121.95
20
55.1
11
121.95
21
52.4
0
LINE
5
302
100
AcDbEntity
8
0
6
ByLayer
62
256
370
-1
100
AcDbLine
10
122.75
20
55.9354248689
11
122.75
21
55.5
0
ARC
5
303
100
AcDbEntity
8
0
6
ByLayer
62
256
370
-1
100
AcDbCircle
10
123.05
20
56.2
40
0.4
100
AcDbArc
50
48.5903778923
51
221.409622109
0
LINE
5
304
100
AcDbEntity
8
0
6
ByLayer
62
256
370
-1
100
AcDbLine
10
129.75
20
56.5
11
123.314575131
21
56.5
0
LINE
5
305
100
AcDbEntity
8
0
6
ByLayer
62
256
370
-1
100
AcDbLine
10
136.75
20
47
11
136.75
21
49.5
0
LINE
5
306
100
AcDbEntity
8
0
6
ByLayer
62
256
370
-1
100
AcDbLine
10
136.75
20
43.5
11
137.15
21
43.5
0
ARC
5
307
100
AcDbEntity
8
0
6
ByLayer
62
256
370
-1
100
AcDbCircle
10
137.15
20
43.9
40
0.4
100
AcDbArc
50
270
51
0
0
LINE
5
308
100
AcDbEntity
8
0
6
ByLayer
62
256
370
-1
100
AcDbLine
10
137.15
20
47
11
136.75
21
47
0
ARC
5
309
100
AcDbEntity
8
0
6
ByLayer
62
256
370
-1
100
AcDbCircle
10
137.15
20
46.6
40
0.4
100
AcDbArc
50
0
51
90
0
LINE
5
30A
100
AcDbEntity
8
0
6
ByLayer
62
256
370
-1
100
AcDbLine
10
137.55
20
43.9
11
137.55
21
46.6
0
LINE
5
30B
100
AcDbEntity
8
0
6
ByLayer
62
256
370
-1
100
AcDbLine
10
136.75
20
43.0645751311
11
136.75
21
43.5
0
ARC
5
30C
100
AcDbEntity
8
0
6
ByLayer
62
256
370
-1
100
AcDbCircle
10
136.45
20
42.8
40
0.4
100
AcDbArc
50
228.590377892
51
41.4096221092
0
LINE
5
30D
100
AcDbEntity
8
0
6
ByLayer
62
256
370
-1
100
AcDbLine
10
129.75
20
42.5
11
136.185424869
21
42.5
0
LINE
5
30E
100
AcDbEntity
8
0
6
ByLayer
62
256
370
-1
100
AcDbLine
10
122.75
20
47
11
122.75
21
49.5
0
LINE
5
30F
100
AcDbEntity
8
0
6
ByLayer
62
256
370
-1
100
AcDbLine
10
122.75
20
43.5
11
122.35
21
43.5
0
ARC
5
310
100
AcDbEntity
8
0
6
ByLayer
62
256
370
-1
100
AcDbCircle
10
122.35
20
43.9
40
0.4
100
AcDbArc
50
180
51
270
0
LINE
5
311
100
AcDbEntity
8
0
6
ByLayer
62
256
370
-1
100
AcDbLine
10
122.35
20
47
11
122.75
21
47
0
ARC
5
312
100
AcDbEntity
8
0
6
ByLayer
62
256
370
-1
100
AcDbCircle
10
122.35
20
46.6
40
0.4
100
AcDbArc
50
90
51
180
0
LINE
5
313
100
AcDbEntity
8
0
6
ByLayer
62
256
370
-1
100
AcDbLine
10
121.95
20
43.9
11
121.95
21
46.6
0
LINE
5
314
100
AcDbEntity
8
0
6
ByLayer
62
256
370
-1
100
AcDbLine
10
122.75
20
43.0645751311
11
122.75
21
43.5
0
ARC
5
315
100
AcDbEntity
8
0
6
ByLayer
62
256
370
-1
100
AcDbCircle
10
123.05
20
42.8
40
0.4
100
AcDbArc
50
138.590377891
51
311.409622108
0
LINE
5
316
100
AcDbEntity
8
0
6
ByLayer
62
256
370
-1
100
AcDbLine
10
129.75
20
42.5
11
123.314575131
21
42.5
0
LINE
5
317
100
AcDbEntity
8
0
6
ByLayer
62
256
370
-1
100
AcDbLine
10
155.75
20
52
11
155.75
21
49.5
0
LINE
5
318
100
AcDbEntity
8
0
6
ByLayer
62
256
370
-1
100
AcDbLine
10
155.75
20
55.5
11
156.15
21
55.5
0
ARC
5
319
100
AcDbEntity
8
0
6
ByLayer
62
256
370
-1
100
AcDbCircle
10
156.15
20
55.1
40
0.4
100
AcDbArc
50
0
51
90
0
LINE
5
31A
100
AcDbEntity
8
0
6
ByLayer
62
256
370
-1
100
AcDbLine
10
156.15
20
52
11
155.75
21
52
0
ARC
5
31B
100
AcDbEntity
8
0
6
ByLayer
62
256
370
-1
100
AcDbCircle
10
156.15
20
52.4
40
0.4
100
AcDbArc
50
270
51
0
0
LINE
5
31C
100
AcDbEntity
8
0
6
ByLayer
62
256
370
-1
100
AcDbLine
10
156.55
20
55.1
11
156.55
21
52.4
0
LINE
5
31D
100
AcDbEntity
8
0
6
ByLayer
62
256
370
-1
100
AcDbLine
10
155.75
20
55.9354248689
11
155.75
21
55.5
0
ARC
5
31E
100
AcDbEntity
8
0
6
ByLayer
62
256
370
-1
100
AcDbCircle
10
155.45
20
56.2
40
0.4
100
AcDbArc
50
318.590377891
51
131.409622108
0
LINE
5
31F
100
AcDbEntity
8
0
6
ByLayer
62
256
370
-1
100
AcDbLine
10
148.75
20
56.5
11
155.185424869
21
56.5
0
LINE
5
320
100
AcDbEntity
8
0
6
ByLayer
62
256
370
-1
100
AcDbLine
10
141.75
20
52
11
141.75
21
49.5
0
LINE
5
321
100
AcDbEntity
8
0
6
ByLayer
62
256
370
-1
100
AcDbLine
10
141.75
20
55.5
11
141.35
21
55.5
0
ARC
5
322
100
AcDbEntity
8
0
6
ByLayer
62
256
370
-1
100
AcDbCircle
10
141.35
20
55.1
40
0.4
100
AcDbArc
50
90
51
180
0
LINE
5
323
100
AcDbEntity
8
0
6
ByLayer
62
256
370
-1
100
AcDbLine
10
141.35
20
52
11
141.75
21
52
0
ARC
5
324
100
AcDbEntity
8
0
6
ByLayer
62
256
370
-1
100
AcDbCircle
10
141.35
20
52.4
40
0.4
100
AcDbArc
50
180
51
270
0
LINE
5
325
100
AcDbEntity
8
0
6
ByLayer
62
256
370
-1
100
AcDbLine
10
140.95
20
55.1
11
140.95
21
52.4
0
LINE
5
326
100
AcDbEntity
8
0
6
ByLayer
62
256
370
-1
100
AcDbLine
10
141.75
20
55.9354248689
11
141.75
21
55.5
0
ARC
5
327
100
AcDbEntity
8
0
6
ByLayer
62
256
370
-1
100
AcDbCircle
10
142.05
20
56.2
40
0.4
100
AcDbArc
50
48.5903778923
51
221.409622109
0
LINE
5
328
100
AcDbEntity
8
0
6
ByLayer
62
256
370
-1
100
AcDbLine
10
148.75
20
56.5
11
142.314575131
21
56.5
0
LINE
5
329
100
AcDbEntity
8
0
6
ByLayer
62
256
370
-1
100
AcDbLine
10
155.75
20
47
11
155.75
21
49.5
0
LINE
5
32A
100
AcDbEntity
8
0
6
ByLayer
62
256
370
-1
100
AcDbLine
10
155.75
20
43.5
11
156.15
21
43.5
0
ARC
5
32B
100
AcDbEntity
8
0
6
ByLayer
62
256
370
-1
100
AcDbCircle
10
156.15
20
43.9
40
0.4
100
AcDbArc
50
270
51
0
0
LINE
5
32C
100
AcDbEntity
8
0
6
ByLayer
62
256
370
-1
100
AcDbLine
10
156.15
20
47
11
155.75
21
47
0
ARC
5
32D
100
AcDbEntity
8
0
6
ByLayer
62
256
370
-1
100
AcDbCircle
10
156.15
20
46.6
40
0.4
100
AcDbArc
50
0
51
90
0
LINE
5
32E
100
AcDbEntity
8
0
6
ByLayer
62
256
370
-1
100
AcDbLine
10
156.55
20
43.9
11
156.55
21
46.6
0
LINE
5
32F
100
AcDbEntity
8
0
6
ByLayer
62
256
370
-1
100
AcDbLine
10
155.75
20
43.0645751311
11
155.75
21
43.5
0
ARC
5
330
100
AcDbEntity
8
0
6
ByLayer
62
256
370
-1
100
AcDbCircle
10
155.45
20
42.8
40
0.4
100
AcDbArc
50
228.590377892
51
41.4096221092
0
LINE
5
331
100
AcDbEntity
8
0
6
ByLayer
62
256
370
-1
100
AcDbLine
10
148.75
20
42.5
11
155.185424869
21
42.5
0
LINE
5
332
100
AcDbEntity
8
0
6
ByLayer
62
256
370
-1
100
AcDbLine
10
141.75
20
47
11
141.75
21
49.5
0
LINE
5
333
100
AcDbEntity
8
0
6
ByLayer
62
256
370
-1
100
AcDbLine
10
141.75
20
43.5
11
141.35
21
43.5
0
ARC
5
334
100
AcDbEntity
8
0
6
ByLayer
62
256
370
-1
100
AcDbCircle
10
141.35
20
43.9
40
0.4
100
AcDbArc
50
180
51
270
0
LINE
5
335
100
AcDbEntity
8
0
6
ByLayer
62
256
370
-1
100
AcDbLine
10
141.35
20
47
11
141.75
21
47
0
ARC
5
336
100
AcDbEntity
8
0
6
ByLayer
62
256
370
-1
100
AcDbCircle
10
141.35
20
46.6
40
0.4
100
AcDbArc
50
90
51
180
0
LINE
5
337
100
AcDbEntity
8
0
6
ByLayer
62
256
370
-1
100
AcDbLine
10
140.95
20
43.9
11
140.95
21
46.6
0
LINE
5
338
100
AcDbEntity
8
0
6
ByLayer
62
256
370
-1
100
AcDbLine
10
141.75
20
43.0645751311
11
141.75
21
43.5
0
ARC
5
339
100
AcDbEntity
8
0
6
ByLayer
62
256
370
-1
100
AcDbCircle
10
142.05
20
42.8
40
0.4
100
AcDbArc
50
138.590377891
51
311.409622108
0
LINE
5
33A
100
AcDbEntity
8
0
6
ByLayer
62
256
370
-1
100
AcDbLine
10
148.75
20
42.5
11
142.314575131
21
42.5
0
LINE
5
33B
100
AcDbEntity
8
0
6
ByLayer
62
256
370
-1
100
AcDbLine
10
174.75
20
52
11
174.75
21
49.5
0
LINE
5
33C
100
AcDbEntity
8
0
6
ByLayer
62
256
370
-1
100
AcDbLine
10
174.75
20
55.5
11
175.15
21
55.5
0
ARC
5
33D
100
AcDbEntity
8
0
6
ByLayer
62
256
370
-1
100
AcDbCircle
10
175.15
20
55.1
40
0.4
100
AcDbArc
50
0
51
90
0
LINE
5
33E
100
AcDbEntity
8
0
6
ByLayer
62
256
370
-1
100
AcDbLine
10
175.15
20
52
11
174.75
21
52
0
ARC
5
33F
100
AcDbEntity
8
0
6
ByLayer
62
256
370
-1
100
AcDbCircle
10
175.15
20
52.4
40
0.4
100
AcDbArc
50
270
51
0
0
LINE
5
340
100
AcDbEntity
8
0
6
ByLayer
62
256
370
-1
100
AcDbLine
10
175.55
20
55.1
11
175.55
21
52.4
0
LINE
5
341
100
AcDbEntity
8
0
6
ByLayer
62
256
370
-1
100
AcDbLine
10
174.75
20
55.9354248689
11
174.75
21
55.5
0
ARC
5
342
100
AcDbEntity
8
0
6
ByLayer
62
256
370
-1
100
AcDbCircle
10
174.45
20
56.2
40
0.4
100
AcDbArc
50
318.590377891
51
131.409622108
0
LINE
5
343
100
AcDbEntity
8
0
6
ByLayer
62
256
370
-1
100
AcDbLine
10
167.75
20
56.5
11
174.185424869
21
56.5
0
LINE
5
344
100
AcDbEntity
8
0
6
ByLayer
62
256
370
-1
100
AcDbLine
10
160.75
20
52
11
160.75
21
49.5
0
LINE
5
345
100
AcDbEntity
8
0
6
ByLayer
62
256
370
-1
100
AcDbLine
10
160.75
20
55.5
11
160.35
21
55.5
0
ARC
5
346
100
AcDbEntity
8
0
6
ByLayer
62
256
370
-1
100
AcDbCircle
10
160.35
20
55.1
40
0.4
100
AcDbArc
50
90
51
180
0
LINE
5
347
100
AcDbEntity
8
0
6
ByLayer
62
256
370
-1
100
AcDbLine
10
160.35
20
52
11
160.75
21
52
0
ARC
5
348
100
AcDbEntity
8
0
6
ByLayer
62
256
370
-1
100
AcDbCircle
10
160.35
20
52.4
40
0.4
100
AcDbArc
50
180
51
270
0
LINE
5
349
100
AcDbEntity
8
0
6
ByLayer
62
256
370
-1
100
AcDbLine
10
159.95
20
55.1
11
159.95
21
52.4
0
LINE
5
34A
100
AcDbEntity
8
0
6
ByLayer
62
256
370
-1
100
AcDbLine
10
160.75
20
55.9354248689
11
160.75
21
55.5
0
ARC
5
34B
100
AcDbEntity
8
0
6
ByLayer
62
256
370
-1
100
AcDbCircle
10
161.05
20
56.2
40
0.4
100
AcDbArc
50
48.5903778923
51
221.409622109
0
LINE
5
34C
100
AcDbEntity
8
0
6
ByLayer
62
256
370
-1
100
AcDbLine
10
167.75
20
56.5
11
161.314575131
21
56.5
0
LINE
5
34D
100
AcDbEntity
8
0
6
ByLayer
62
256
370
-1
100
AcDbLine
10
174.75
20
47
11
174.75
21
49.5
0
LINE
5
34E
100
AcDbEntity
8
0
6
ByLayer
62
256
370
-1
100
AcDbLine
10
174.75
20
43.5
11
175.15
21
43.5
0
ARC
5
34F
100
AcDbEntity
8
0
6
ByLayer
62
256
370
-1
100
AcDbCircle
10
175.15
20
43.9
40
0.4
100
AcDbArc
50
270
51
0
0
LINE
5
350
100
AcDbEntity
8
0
6
ByLayer
62
256
370
-1
100
AcDbLine
10
175.15
20
47
11
174.75
21
47
0
ARC
5
351
100
AcDbEntity
8
0
6
ByLayer
62
256
370
-1
100
AcDbCircle
10
175.15
20
46.6
40
0.4
100
AcDbArc
50
0
51
90
0
LINE
5
352
100
AcDbEntity
8
0
6
ByLayer
62
256
370
-1
100
AcDbLine
10
175.55
20
43.9
11
175.55
21
46.6
0
LINE
5
353
100
AcDbEntity
8
0
6
ByLayer
62
256
370
-1
100
AcDbLine
10
174.75
20
43.0645751311
11
174.75
21
43.5
0
ARC
5
354
100
AcDbEntity
8
0
6
ByLayer
62
256
370
-1
100
AcDbCircle
10
174.45
20
42.8
40
0.4
100
AcDbArc
50
228.590377892
51
41.4096221092
0
LINE
5
355
100
AcDbEntity
8
0
6
ByLayer
62
256
370
-1
100
AcDbLine
10
167.75
20
42.5
11
174.185424869
21
42.5
0
LINE
5
356
100
AcDbEntity
8
0
6
ByLayer
62
256
370
-1
100
AcDbLine
10
160.75
20
47
11
160.75
21
49.5
0
LINE
5
357
100
AcDbEntity
8
0
6
ByLayer
62
256
370
-1
100
AcDbLine
10
160.75
20
43.5
11
160.35
21
43.5
0
ARC
5
358
100
AcDbEntity
8
0
6
ByLayer
62
256
370
-1
100
AcDbCircle
10
160.35
20
43.9
40
0.4
100
AcDbArc
50
180
51
270
0
LINE
5
359
100
AcDbEntity
8
0
6
ByLayer
62
256
370
-1
100
AcDbLine
10
160.35
20
47
11
160.75
21
47
0
ARC
5
35A
100
AcDbEntity
8
0
6
ByLayer
62
256
370
-1
100
AcDbCircle
10
160.35
20
46.6
40
0.4
100
AcDbArc
50
90
51
180
0
LINE
5
35B
100
AcDbEntity
8
0
6
ByLayer
62
256
370
-1
100
AcDbLine
10
159.95
20
43.9
11
159.95
21
46.6
0
LINE
5
35C
100
AcDbEntity
8
0
6
ByLayer
62
256
370
-1
100
AcDbLine
10
160.75
20
43.0645751311
11
160.75
21
43.5
0
ARC
5
35D
100
AcDbEntity
8
0
6
ByLayer
62
256
370
-1
100
AcDbCircle
10
161.05
20
42.8
40
0.4
100
AcDbArc
50
138.590377891
51
311.409622108
0
LINE
5
35E
100
AcDbEntity
8
0
6
ByLayer
62
256
370
-1
100
AcDbLine
10
167.75
20
42.5
11
161.314575131
21
42.5
0
LINE
5
35F
100
AcDbEntity
8
0
6
ByLayer
62
256
370
-1
100
AcDbLine
10
193.75
20
52
11
193.75
21
49.5
0
LINE
5
360
100
AcDbEntity
8
0
6
ByLayer
62
256
370
-1
100
AcDbLine
10
193.75
20
55.5
11
194.15
21
55.5
0
ARC
5
361
100
AcDbEntity
8
0
6
ByLayer
62
256
370
-1
100
AcDbCircle
10
194.15
20
55.1
40
0.4
100
AcDbArc
50
0
51
90
0
LINE
5
362
100
AcDbEntity
8
0
6
ByLayer
62
256
370
-1
100
AcDbLine
10
194.15
20
52
11
193.75
21
52
0
ARC
5
363
100
AcDbEntity
8
0
6
ByLayer
62
256
370
-1
100
AcDbCircle
10
194.15
20
52.4
40
0.4
100
AcDbArc
50
270
51
0
0
LINE
5
364
100
AcDbEntity
8
0
6
ByLayer
62
256
370
-1
100
AcDbLine
10
194.55
20
55.1
11
194.55
21
52.4
0
LINE
5
365
100
AcDbEntity
8
0
6
ByLayer
62
256
370
-1
100
AcDbLine
10
193.75
20
55.9354248689
11
193.75
21
55.5
0
ARC
5
366
100
AcDbEntity
8
0
6
ByLayer
62
256
370
-1
100
AcDbCircle
10
193.45
20
56.2
40
0.4
100
AcDbArc
50
318.590377891
51
131.409622108
0
LINE
5
367
100
AcDbEntity
8
0
6
ByLayer
62
256
370
-1
100
AcDbLine
10
186.75
20
56.5
11
193.185424869
21
56.5
0
LINE
5
368
100
AcDbEntity
8
0
6
ByLayer
62
256
370
-1
100
AcDbLine
10
179.75
20
52
11
179.75
21
49.5
0
LINE
5
369
100
AcDbEntity
8
0
6
ByLayer
62
256
370
-1
100
AcDbLine
10
179.75
20
55.5
11
179.35
21
55.5
0
ARC
5
36A
100
AcDbEntity
8
0
6
ByLayer
62
256
370
-1
100
AcDbCircle
10
179.35
20
55.1
40
0.4
100
AcDbArc
50
90
51
180
0
LINE
5
36B
100
AcDbEntity
8
0
6
ByLayer
62
256
370
-1
100
AcDbLine
10
179.35
20
52
11
179.75
21
52
0
ARC
5
36C
100
AcDbEntity
8
0
6
ByLayer
62
256
370
-1
100
AcDbCircle
10
179.35
20
52.4
40
0.4
100
AcDbArc
50
180
51
270
0
LINE
5
36D
100
AcDbEntity
8
0
6
ByLayer
62
256
370
-1
100
AcDbLine
10
178.95
20
55.1
11
178.95
21
52.4
0
LINE
5
36E
100
AcDbEntity
8
0
6
ByLayer
62
256
370
-1
100
AcDbLine
10
179.75
20
55.9354248689
11
179.75
21
55.5
0
ARC
5
36F
100
AcDbEntity
8
0
6
ByLayer
62
256
370
-1
100
AcDbCircle
10
180.05
20
56.2
40
0.4
100
AcDbArc
50
48.5903778923
51
221.409622109
0
LINE
5
370
100
AcDbEntity
8
0
6
ByLayer
62
256
370
-1
100
AcDbLine
10
186.75
20
56.5
11
180.314575131
21
56.5
0
LINE
5
371
100
AcDbEntity
8
0
6
ByLayer
62
256
370
-1
100
AcDbLine
10
193.75
20
47
11
193.75
21
49.5
0
LINE
5
372
100
AcDbEntity
8
0
6
ByLayer
62
256
370
-1
100
AcDbLine
10
193.75
20
43.5
11
194.15
21
43.5
0
ARC
5
373
100
AcDbEntity
8
0
6
ByLayer
62
256
370
-1
100
AcDbCircle
10
194.15
20
43.9
40
0.4
100
AcDbArc
50
270
51
0
0
LINE
5
374
100
AcDbEntity
8
0
6
ByLayer
62
256
370
-1
100
AcDbLine
10
194.15
20
47
11
193.75
21
47
0
ARC
5
375
100
AcDbEntity
8
0
6
ByLayer
62
256
370
-1
100
AcDbCircle
10
194.15
20
46.6
40
0.4
100
AcDbArc
50
0
51
90
0
LINE
5
376
100
AcDbEntity
8
0
6
ByLayer
62
256
370
-1
100
AcDbLine
10
194.55
20
43.9
11
194.55
21
46.6
0
LINE
5
377
100
AcDbEntity
8
0
6
ByLayer
62
256
370
-1
100
AcDbLine
10
193.75
20
43.0645751311
11
193.75
21
43.5
0
ARC
5
378
100
AcDbEntity
8
0
6
ByLayer
62
256
370
-1
100
AcDbCircle
10
193.45
20
42.8
40
0.4
100
AcDbArc
50
228.590377892
51
41.4096221092
0
LINE
5
379
100
AcDbEntity
8
0
6
ByLayer
62
256
370
-1
100
AcDbLine
10
186.75
20
42.5
11
193.185424869
21
42.5
0
LINE
5
37A
100
AcDbEntity
8
0
6
ByLayer
62
256
370
-1
100
AcDbLine
10
179.75
20
47
11
179.75
21
49.5
0
LINE
5
37B
100
AcDbEntity
8
0
6
ByLayer
62
256
370
-1
100
AcDbLine
10
179.75
20
43.5
11
179.35
21
43.5
0
ARC
5
37C
100
AcDbEntity
8
0
6
ByLayer
62
256
370
-1
100
AcDbCircle
10
179.35
20
43.9
40
0.4
100
AcDbArc
50
180
51
270
0
LINE
5
37D
100
AcDbEntity
8
0
6
ByLayer
62
256
370
-1
100
AcDbLine
10
179.35
20
47
11
179.75
21
47
0
ARC
5
37E
100
AcDbEntity
8
0
6
ByLayer
62
256
370
-1
100
AcDbCircle
10
179.35
20
46.6
40
0.4
100
AcDbArc
50
90
51
180
0
LINE
5
37F
100
AcDbEntity
8
0
6
ByLayer
62
256
370
-1
100
AcDbLine
10
178.95
20
43.9
11
178.95
21
46.6
0
LINE
5
380
100
AcDbEntity
8
0
6
ByLayer
62
256
370
-1
100
AcDbLine
10
179.75
20
43.0645751311
11
179.75
21
43.5
0
ARC
5
381
100
AcDbEntity
8
0
6
ByLayer
62
256
370
-1
100
AcDbCircle
10
180.05
20
42.8
40
0.4
100
AcDbArc
50
138.590377891
51
311.409622108
0
LINE
5
382
100
AcDbEntity
8
0
6
ByLayer
62
256
370
-1
100
AcDbLine
10
186.75
20
42.5
11
180.314575131
21
42.5
0
LINE
5
383
100
AcDbEntity
8
0
6
ByLayer
62
256
370
-1
100
AcDbLine
10
212.75
20
52
11
212.75
21
49.5
0
LINE
5
384
100
AcDbEntity
8
0
6
ByLayer
62
256
370
-1
100
AcDbLine
10
212.75
20
55.5
11
213.15
21
55.5
0
ARC
5
385
100
AcDbEntity
8
0
6
ByLayer
62
256
370
-1
100
AcDbCircle
10
213.15
20
55.1
40
0.4
100
AcDbArc
50
0
51
90
0
LINE
5
386
100
AcDbEntity
8
0
6
ByLayer
62
256
370
-1
100
AcDbLine
10
213.15
20
52
11
212.75
21
52
0
ARC
5
387
100
AcDbEntity
8
0
6
ByLayer
62
256
370
-1
100
AcDbCircle
10
213.15
20
52.4
40
0.4
100
AcDbArc
50
270
51
0
0
LINE
5
388
100
AcDbEntity
8
0
6
ByLayer
62
256
370
-1
100
AcDbLine
10
213.55
20
55.1
11
213.55
21
52.4
0
LINE
5
389
100
AcDbEntity
8
0
6
ByLayer
62
256
370
-1
100
AcDbLine
10
212.75
20
55.9354248689
11
212.75
21
55.5
0
ARC
5
38A
100
AcDbEntity
8
0
6
ByLayer
62
256
370
-1
100
AcDbCircle
10
212.45
20
56.2
40
0.4
100
AcDbArc
50
318.590377891
51
131.409622108
0
LINE
5
38B
100
AcDbEntity
8
0
6
ByLayer
62
256
370
-1
100
AcDbLine
10
205.75
20
56.5
11
212.185424869
21
56.5
0
LINE
5
38C
100
AcDbEntity
8
0
6
ByLayer
62
256
370
-1
100
AcDbLine
10
198.75
20
52
11
198.75
21
49.5
0
LINE
5
38D
100
AcDbEntity
8
0
6
ByLayer
62
256
370
-1
100
AcDbLine
10
198.75
20
55.5
11
198.35
21
55.5
0
ARC
5
38E
100
AcDbEntity
8
0
6
ByLayer
62
256
370
-1
100
AcDbCircle
10
198.35
20
55.1
40
0.4
100
AcDbArc
50
90
51
180
0
LINE
5
38F
100
AcDbEntity
8
0
6
ByLayer
62
256
370
-1
100
AcDbLine
10
198.35
20
52
11
198.75
21
52
0
ARC
5
390
100
AcDbEntity
8
0
6
ByLayer
62
256
370
-1
100
AcDbCircle
10
198.35
20
52.4
40
0.4
100
AcDbArc
50
180
51
270
0
LINE
5
391
100
AcDbEntity
8
0
6
ByLayer
62
256
370
-1
100
AcDbLine
10
197.95
20
55.1
11
197.95
21
52.4
0
LINE
5
392
100
AcDbEntity
8
0
6
ByLayer
62
256
370
-1
100
AcDbLine
10
198.75
20
55.9354248689
11
198.75
21
55.5
0
ARC
5
393
100
AcDbEntity
8
0
6
ByLayer
62
256
370
-1
100
AcDbCircle
10
199.05
20
56.2
40
0.4
100
AcDbArc
50
48.5903778923
51
221.409622109
0
LINE
5
394
100
AcDbEntity
8
0
6
ByLayer
62
256
370
-1
100
AcDbLine
10
205.75
20
56.5
11
199.314575131
21
56.5
0
LINE
5
395
100
AcDbEntity
8
0
6
ByLayer
62
256
370
-1
100
AcDbLine
10
212.75
20
47
11
212.75
21
49.5
0
LINE
5
396
100
AcDbEntity
8
0
6
ByLayer
62
256
370
-1
100
AcDbLine
10
212.75
20
43.5
11
213.15
21
43.5
0
ARC
5
397
100
AcDbEntity
8
0
6
ByLayer
62
256
370
-1
100
AcDbCircle
10
213.15
20
43.9
40
0.4
100
AcDbArc
50
270
51
0
0
LINE
5
398
100
AcDbEntity
8
0
6
ByLayer
62
256
370
-1
100
AcDbLine
10
213.15
20
47
11
212.75
21
47
0
ARC
5
399
100
AcDbEntity
8
0
6
ByLayer
62
256
370
-1
100
AcDbCircle
10
213.15
20
46.6
40
0.4
100
AcDbArc
50
0
51
90
0
LINE
5
39A
100
AcDbEntity
8
0
6
ByLayer
62
256
370
-1
100
AcDbLine
10
213.55
20
43.9
11
213.55
21
46.6
0
LINE
5
39B
100
AcDbEntity
8
0
6
ByLayer
62
256
370
-1
100
AcDbLine
10
212.75
20
43.0645751311
11
212.75
21
43.5
0
ARC
5
39C
100
AcDbEntity
8
0
6
ByLayer
62
256
370
-1
100
AcDbCircle
10
212.45
20
42.8
40
0.4
100
AcDbArc
50
228.590377892
51
41.4096221092
0
LINE
5
39D
100
AcDbEntity
8
0
6
ByLayer
62
256
370
-1
100
AcDbLine
10
205.75
20
42.5
11
212.185424869
21
42.5
0
LINE
5
39E
100
AcDbEntity
8
0
6
ByLayer
62
256
370
-1
100
AcDbLine
10
198.75
20
47
11
198.75
21
49.5
0
LINE
5
39F
100
AcDbEntity
8
0
6
ByLayer
62
256
370
-1
100
AcDbLine
10
198.75
20
43.5
11
198.35
21
43.5
0
ARC
5
3A0
100
AcDbEntity
8
0
6
ByLayer
62
256
370
-1
100
AcDbCircle
10
198.35
20
43.9
40
0.4
100
AcDbArc
50
180
51
270
0
LINE
5
3A1
100
AcDbEntity
8
0
6
ByLayer
62
256
370
-1
100
AcDbLine
10
198.35
20
47
11
198.75
21
47
0
ARC
5
3A2
100
AcDbEntity
8
0
6
ByLayer
62
256
370
-1
100
AcDbCircle
10
198.35
20
46.6
40
0.4
100
AcDbArc
50
90
51
180
0
LINE
5
3A3
100
AcDbEntity
8
0
6
ByLayer
62
256
370
-1
100
AcDbLine
10
197.95
20
43.9
11
197.95
21
46.6
0
LINE
5
3A4
100
AcDbEntity
8
0
6
ByLayer
62
256
370
-1
100
AcDbLine
10
198.75
20
43.0645751311
11
198.75
21
43.5
0
ARC
5
3A5
100
AcDbEntity
8
0
6
ByLayer
62
256
370
-1
100
AcDbCircle
10
199.05
20
42.8
40
0.4
100
AcDbArc
50
138.590377891
51
311.409622108
0
LINE
5
3A6
100
AcDbEntity
8
0
6
ByLayer
62
256
370
-1
100
AcDbLine
10
205.75
20
42.5
11
199.314575131
21
42.5
0
LINE
5
3A7
100
AcDbEntity
8
0
6
ByLayer
62
256
370
-1
100
AcDbLine
10
51.25
20
33
11
51.25
21
30.5
0
LINE
5
3A8
100
AcDbEntity
8
0
6
ByLayer
62
256
370
-1
100
AcDbLine
10
51.25
20
36.5
11
51.65
21
36.5
0
ARC
5
3A9
100
AcDbEntity
8
0
6
ByLayer
62
256
370
-1
100
AcDbCircle
10
51.65
20
36.1
40
0.4
100
AcDbArc
50
0
51
90
0
LINE
5
3AA
100
AcDbEntity
8
0
6
ByLayer
62
256
370
-1
100
AcDbLine
10
51.65
20
33
11
51.25
21
33
0
ARC
5
3AB
100
AcDbEntity
8
0
6
ByLayer
62
256
370
-1
100
AcDbCircle
10
51.65
20
33.4
40
0.4
100
AcDbArc
50
270
51
0
0
LINE
5
3AC
100
AcDbEntity
8
0
6
ByLayer
62
256
370
-1
100
AcDbLine
10
52.05
20
36.1
11
52.05
21
33.4
0
LINE
5
3AD
100
AcDbEntity
8
0
6
ByLayer
62
256
370
-1
100
AcDbLine
10
51.25
20
36.9354248689
11
51.25
21
36.5
0
ARC
5
3AE
100
AcDbEntity
8
0
6
ByLayer
62
256
370
-1
100
AcDbCircle
10
50.95
20
37.2
40
0.4
100
AcDbArc
50
318.590377891
51
131.409622108
0
LINE
5
3AF
100
AcDbEntity
8
0
6
ByLayer
62
256
370
-1
100
AcDbLine
10
44.25
20
37.5
11
50.6854248689
21
37.5
0
LINE
5
3B0
100
AcDbEntity
8
0
6
ByLayer
62
256
370
-1
100
AcDbLine
10
37.25
20
33
11
37.25
21
30.5
0
LINE
5
3B1
100
AcDbEntity
8
0
6
ByLayer
62
256
370
-1
100
AcDbLine
10
37.25
20
36.5
11
36.85
21
36.5
0
ARC
5
3B2
100
AcDbEntity
8
0
6
ByLayer
62
256
370
-1
100
AcDbCircle
10
36.85
20
36.1
40
0.4
100
AcDbArc
50
90
51
180
0
LINE
5
3B3
100
AcDbEntity
8
0
6
ByLayer
62
256
370
-1
100
AcDbLine
10
36.85
20
33
11
37.25
21
33
0
ARC
5
3B4
100
AcDbEntity
8
0
6
ByLayer
62
256
370
-1
100
AcDbCircle
10
36.85
20
33.4
40
0.4
100
AcDbArc
50
180
51
270
0
LINE
5
3B5
100
AcDbEntity
8
0
6
ByLayer
62
256
370
-1
100
AcDbLine
10
36.45
20
36.1
11
36.45
21
33.4
0
LINE
5
3B6
100
AcDbEntity
8
0
6
ByLayer
62
256
370
-1
100
AcDbLine
10
37.25
20
36.9354248689
11
37.25
21
36.5
0
ARC
5
3B7
100
AcDbEntity
8
0
6
ByLayer
62
256
370
-1
100
AcDbCircle
10
37.55
20
37.2
40
0.4
100
AcDbArc
50
48.5903778923
51
221.409622109
0
LINE
5
3B8
100
AcDbEntity
8
0
6
ByLayer
62
256
370
-1
100
AcDbLine
10
44.25
20
37.5
11
37.8145751311
21
37.5
0
LINE
5
3B9
100
AcDbEntity
8
0
6
ByLayer
62
256
370
-1
100
AcDbLine
10
51.25
20
28
11
51.25
21
30.5
0
LINE
5
3BA
100
AcDbEntity
8
0
6
ByLayer
62
256
370
-1
100
AcDbLine
10
51.25
20
24.5
11
51.65
21
24.5
0
ARC
5
3BB
100
AcDbEntity
8
0
6
ByLayer
62
256
370
-1
100
AcDbCircle
10
51.65
20
24.9
40
0.4
100
AcDbArc
50
270
51
0
0
LINE
5
3BC
100
AcDbEntity
8
0
6
ByLayer
62
256
370
-1
100
AcDbLine
10
51.65
20
28
11
51.25
21
28
0
ARC
5
3BD
100
AcDbEntity
8
0
6
ByLayer
62
256
370
-1
100
AcDbCircle
10
51.65
20
27.6
40
0.4
100
AcDbArc
50
0
51
90
0
LINE
5
3BE
100
AcDbEntity
8
0
6
ByLayer
62
256
370
-1
100
AcDbLine
10
52.05
20
24.9
11
52.05
21
27.6
0
LINE
5
3BF
100
AcDbEntity
8
0
6
ByLayer
62
256
370
-1
100
AcDbLine
10
51.25
20
24.0645751311
11
51.25
21
24.5
0
ARC
5
3C0
100
AcDbEntity
8
0
6
ByLayer
62
256
370
-1
100
AcDbCircle
10
50.95
20
23.8
40
0.4
100
AcDbArc
50
228.590377892
51
41.4096221092
0
LINE
5
3C1
100
AcDbEntity
8
0
6
ByLayer
62
256
370
-1
100
AcDbLine
10
44.25
20
23.5
11
50.6854248689
21
23.5
0
LINE
5
3C2
100
AcDbEntity
8
0
6
ByLayer
62
256
370
-1
100
AcDbLine
10
37.25
20
28
11
37.25
21
30.5
0
LINE
5
3C3
100
AcDbEntity
8
0
6
ByLayer
62
256
370
-1
100
AcDbLine
10
37.25
20
24.5
11
36.85
21
24.5
0
ARC
5
3C4
100
AcDbEntity
8
0
6
ByLayer
62
256
370
-1
100
AcDbCircle
10
36.85
20
24.9
40
0.4
100
AcDbArc
50
180
51
270
0
LINE
5
3C5
100
AcDbEntity
8
0
6
ByLayer
62
256
370
-1
100
AcDbLine
10
36.85
20
28
11
37.25
21
28
0
ARC
5
3C6
100
AcDbEntity
8
0
6
ByLayer
62
256
370
-1
100
AcDbCircle
10
36.85
20
27.6
40
0.4
100
AcDbArc
50
90
51
180
0
LINE
5
3C7
100
AcDbEntity
8
0
6
ByLayer
62
256
370
-1
100
AcDbLine
10
36.45
20
24.9
11
36.45
21
27.6
0
LINE
5
3C8
100
AcDbEntity
8
0
6
ByLayer
62
256
370
-1
100
AcDbLine
10
37.25
20
24.0645751311
11
37.25
21
24.5
0
ARC
5
3C9
100
AcDbEntity
8
0
6
ByLayer
62
256
370
-1
100
AcDbCircle
10
37.55
20
23.8
40
0.4
100
AcDbArc
50
138.590377891
51
311.409622108
0
LINE
5
3CA
100
AcDbEntity
8
0
6
ByLayer
62
256
370
-1
100
AcDbLine
10
44.25
20
23.5
11
37.8145751311
21
23.5
0
LINE
5
3CB
100
AcDbEntity
8
0
6
ByLayer
62
256
370
-1
100
AcDbLine
10
70.25
20
33
11
70.25
21
30.5
0
LINE
5
3CC
100
AcDbEntity
8
0
6
ByLayer
62
256
370
-1
100
AcDbLine
10
70.25
20
36.5
11
70.65
21
36.5
0
ARC
5
3CD
100
AcDbEntity
8
0
6
ByLayer
62
256
370
-1
100
AcDbCircle
10
70.65
20
36.1
40
0.4
100
AcDbArc
50
0
51
90
0
LINE
5
3CE
100
AcDbEntity
8
0
6
ByLayer
62
256
370
-1
100
AcDbLine
10
70.65
20
33
11
70.25
21
33
0
ARC
5
3CF
100
AcDbEntity
8
0
6
ByLayer
62
256
370
-1
100
AcDbCircle
10
70.65
20
33.4
40
0.4
100
AcDbArc
50
270
51
0
0
LINE
5
3D0
100
AcDbEntity
8
0
6
ByLayer
62
256
370
-1
100
AcDbLine
10
71.05
20
36.1
11
71.05
21
33.4
0
LINE
5
3D1
100
AcDbEntity
8
0
6
ByLayer
62
256
370
-1
100
AcDbLine
10
70.25
20
36.9354248689
11
70.25
21
36.5
0
ARC
5
3D2
100
AcDbEntity
8
0
6
ByLayer
62
256
370
-1
100
AcDbCircle
10
69.95
20
37.2
40
0.4
100
AcDbArc
50
318.590377891
51
131.409622108
0
LINE
5
3D3
100
AcDbEntity
8
0
6
ByLayer
62
256
370
-1
100
AcDbLine
10
63.25
20
37.5
11
69.6854248689
21
37.5
0
LINE
5
3D4
100
AcDbEntity
8
0
6
ByLayer
62
256
370
-1
100
AcDbLine
10
56.25
20
33
11
56.25
21
30.5
0
LINE
5
3D5
100
AcDbEntity
8
0
6
ByLayer
62
256
370
-1
100
AcDbLine
10
56.25
20
36.5
11
55.85
21
36.5
0
ARC
5
3D6
100
AcDbEntity
8
0
6
ByLayer
62
256
370
-1
100
AcDbCircle
10
55.85
20
36.1
40
0.4
100
AcDbArc
50
90
51
180
0
LINE
5
3D7
100
AcDbEntity
8
0
6
ByLayer
62
256
370
-1
100
AcDbLine
10
55.85
20
33
11
56.25
21
33
0
ARC
5
3D8
100
AcDbEntity
8
0
6
ByLayer
62
256
370
-1
100
AcDbCircle
10
55.85
20
33.4
40
0.4
100
AcDbArc
50
180
51
270
0
LINE
5
3D9
100
AcDbEntity
8
0
6
ByLayer
62
256
370
-1
100
AcDbLine
10
55.45
20
36.1
11
55.45
21
33.4
0
LINE
5
3DA
100
AcDbEntity
8
0
6
ByLayer
62
256
370
-1
100
AcDbLine
10
56.25
20
36.9354248689
11
56.25
21
36.5
0
ARC
5
3DB
100
AcDbEntity
8
0
6
ByLayer
62
256
370
-1
100
AcDbCircle
10
56.55
20
37.2
40
0.4
100
AcDbArc
50
48.5903778923
51
221.409622109
0
LINE
5
3DC
100
AcDbEntity
8
0
6
ByLayer
62
256
370
-1
100
AcDbLine
10
63.25
20
37.5
11
56.8145751311
21
37.5
0
LINE
5
3DD
100
AcDbEntity
8
0
6
ByLayer
62
256
370
-1
100
AcDbLine
10
70.25
20
28
11
70.25
21
30.5
0
LINE
5
3DE
100
AcDbEntity
8
0
6
ByLayer
62
256
370
-1
100
AcDbLine
10
70.25
20
24.5
11
70.65
21
24.5
0
ARC
5
3DF
100
AcDbEntity
8
0
6
ByLayer
62
256
370
-1
100
AcDbCircle
10
70.65
20
24.9
40
0.4
100
AcDbArc
50
270
51
0
0
LINE
5
3E0
100
AcDbEntity
8
0
6
ByLayer
62
256
370
-1
100
AcDbLine
10
70.65
20
28
11
70.25
21
28
0
ARC
5
3E1
100
AcDbEntity
8
0
6
ByLayer
62
256
370
-1
100
AcDbCircle
10
70.65
20
27.6
40
0.4
100
AcDbArc
50
0
51
90
0
LINE
5
3E2
100
AcDbEntity
8
0
6
ByLayer
62
256
370
-1
100
AcDbLine
10
71.05
20
24.9
11
71.05
21
27.6
0
LINE
5
3E3
100
AcDbEntity
8
0
6
ByLayer
62
256
370
-1
100
AcDbLine
10
70.25
20
24.0645751311
11
70.25
21
24.5
0
ARC
5
3E4
100
AcDbEntity
8
0
6
ByLayer
62
256
370
-1
100
AcDbCircle
10
69.95
20
23.8
40
0.4
100
AcDbArc
50
228.590377892
51
41.4096221092
0
LINE
5
3E5
100
AcDbEntity
8
0
6
ByLayer
62
256
370
-1
100
AcDbLine
10
63.25
20
23.5
11
69.6854248689
21
23.5
0
LINE
5
3E6
100
AcDbEntity
8
0
6
ByLayer
62
256
370
-1
100
AcDbLine
10
56.25
20
28
11
56.25
21
30.5
0
LINE
5
3E7
100
AcDbEntity
8
0
6
ByLayer
62
256
370
-1
100
AcDbLine
10
56.25
20
24.5
11
55.85
21
24.5
0
ARC
5
3E8
100
AcDbEntity
8
0
6
ByLayer
62
256
370
-1
100
AcDbCircle
10
55.85
20
24.9
40
0.4
100
AcDbArc
50
180
51
270
0
LINE
5
3E9
100
AcDbEntity
8
0
6
ByLayer
62
256
370
-1
100
AcDbLine
10
55.85
20
28
11
56.25
21
28
0
ARC
5
3EA
100
AcDbEntity
8
0
6
ByLayer
62
256
370
-1
100
AcDbCircle
10
55.85
20
27.6
40
0.4
100
AcDbArc
50
90
51
180
0
LINE
5
3EB
100
AcDbEntity
8
0
6
ByLayer
62
256
370
-1
100
AcDbLine
10
55.45
20
24.9
11
55.45
21
27.6
0
LINE
5
3EC
100
AcDbEntity
8
0
6
ByLayer
62
256
370
-1
100
AcDbLine
10
56.25
20
24.0645751311
11
56.25
21
24.5
0
ARC
5
3ED
100
AcDbEntity
8
0
6
ByLayer
62
256
370
-1
100
AcDbCircle
10
56.55
20
23.8
40
0.4
100
AcDbArc
50
138.590377891
51
311.409622108
0
LINE
5
3EE
100
AcDbEntity
8
0
6
ByLayer
62
256
370
-1
100
AcDbLine
10
63.25
20
23.5
11
56.8145751311
21
23.5
0
LINE
5
3EF
100
AcDbEntity
8
0
6
ByLayer
62
256
370
-1
100
AcDbLine
10
89.25
20
33
11
89.25
21
30.5
0
LINE
5
3F0
100
AcDbEntity
8
0
6
ByLayer
62
256
370
-1
100
AcDbLine
10
89.25
20
36.5
11
89.65
21
36.5
0
ARC
5
3F1
100
AcDbEntity
8
0
6
ByLayer
62
256
370
-1
100
AcDbCircle
10
89.65
20
36.1
40
0.4
100
AcDbArc
50
0
51
90
0
LINE
5
3F2
100
AcDbEntity
8
0
6
ByLayer
62
256
370
-1
100
AcDbLine
10
89.65
20
33
11
89.25
21
33
0
ARC
5
3F3
100
AcDbEntity
8
0
6
ByLayer
62
256
370
-1
100
AcDbCircle
10
89.65
20
33.4
40
0.4
100
AcDbArc
50
270
51
0
0
LINE
5
3F4
100
AcDbEntity
8
0
6
ByLayer
62
256
370
-1
100
AcDbLine
10
90.05
20
36.1
11
90.05
21
33.4
0
LINE
5
3F5
100
AcDbEntity
8
0
6
ByLayer
62
256
370
-1
100
AcDbLine
10
89.25
20
36.9354248689
11
89.25
21
36.5
0
ARC
5
3F6
100
AcDbEntity
8
0
6
ByLayer
62
256
370
-1
100
AcDbCircle
10
88.95
20
37.2
40
0.4
100
AcDbArc
50
318.590377891
51
131.409622108
0
LINE
5
3F7
100
AcDbEntity
8
0
6
ByLayer
62
256
370
-1
100
AcDbLine
10
82.25
20
37.5
11
88.6854248689
21
37.5
0
LINE
5
3F8
100
AcDbEntity
8
0
6
ByLayer
62
256
370
-1
100
AcDbLine
10
75.25
20
33
11
75.25
21
30.5
0
LINE
5
3F9
100
AcDbEntity
8
0
6
ByLayer
62
256
370
-1
100
AcDbLine
10
75.25
20
36.5
11
74.85
21
36.5
0
ARC
5
3FA
100
AcDbEntity
8
0
6
ByLayer
62
256
370
-1
100
AcDbCircle
10
74.85
20
36.1
40
0.4
100
AcDbArc
50
90
51
180
0
LINE
5
3FB
100
AcDbEntity
8
0
6
ByLayer
62
256
370
-1
100
AcDbLine
10
74.85
20
33
11
75.25
21
33
0
ARC
5
3FC
100
AcDbEntity
8
0
6
ByLayer
62
256
370
-1
100
AcDbCircle
10
74.85
20
33.4
40
0.4
100
AcDbArc
50
180
51
270
0
LINE
5
3FD
100
AcDbEntity
8
0
6
ByLayer
62
256
370
-1
100
AcDbLine
10
74.45
20
36.1
11
74.45
21
33.4
0
LINE
5
3FE
100
AcDbEntity
8
0
6
ByLayer
62
256
370
-1
100
AcDbLine
10
75.25
20
36.9354248689
11
75.25
21
36.5
0
ARC
5
3FF
100
AcDbEntity
8
0
6
ByLayer
62
256
370
-1
100
AcDbCircle
10
75.55
20
37.2
40
0.4
100
AcDbArc
50
48.5903778923
51
221.409622109
0
LINE
5
400
100
AcDbEntity
8
0
6
ByLayer
62
256
370
-1
100
AcDbLine
10
82.25
20
37.5
11
75.8145751311
21
37.5
0
LINE
5
401
100
AcDbEntity
8
0
6
ByLayer
62
256
370
-1
100
AcDbLine
10
89.25
20
28
11
89.25
21
30.5
0
LINE
5
402
100
AcDbEntity
8
0
6
ByLayer
62
256
370
-1
100
AcDbLine
10
89.25
20
24.5
11
89.65
21
24.5
0
ARC
5
403
100
AcDbEntity
8
0
6
ByLayer
62
256
370
-1
100
AcDbCircle
10
89.65
20
24.9
40
0.4
100
AcDbArc
50
270
51
0
0
LINE
5
404
100
AcDbEntity
8
0
6
ByLayer
62
256
370
-1
100
AcDbLine
10
89.65
20
28
11
89.25
21
28
0
ARC
5
405
100
AcDbEntity
8
0
6
ByLayer
62
256
370
-1
100
AcDbCircle
10
89.65
20
27.6
40
0.4
100
AcDbArc
50
0
51
90
0
LINE
5
406
100
AcDbEntity
8
0
6
ByLayer
62
256
370
-1
100
AcDbLine
10
90.05
20
24.9
11
90.05
21
27.6
0
LINE
5
407
100
AcDbEntity
8
0
6
ByLayer
62
256
370
-1
100
AcDbLine
10
89.25
20
24.0645751311
11
89.25
21
24.5
0
ARC
5
408
100
AcDbEntity
8
0
6
ByLayer
62
256
370
-1
100
AcDbCircle
10
88.95
20
23.8
40
0.4
100
AcDbArc
50
228.590377892
51
41.4096221092
0
LINE
5
409
100
AcDbEntity
8
0
6
ByLayer
62
256
370
-1
100
AcDbLine
10
82.25
20
23.5
11
88.6854248689
21
23.5
0
LINE
5
40A
100
AcDbEntity
8
0
6
ByLayer
62
256
370
-1
100
AcDbLine
10
75.25
20
28
11
75.25
21
30.5
0
LINE
5
40B
100
AcDbEntity
8
0
6
ByLayer
62
256
370
-1
100
AcDbLine
10
75.25
20
24.5
11
74.85
21
24.5
0
ARC
5
40C
100
AcDbEntity
8
0
6
ByLayer
62
256
370
-1
100
AcDbCircle
10
74.85
20
24.9
40
0.4
100
AcDbArc
50
180
51
270
0
LINE
5
40D
100
AcDbEntity
8
0
6
ByLayer
62
256
370
-1
100
AcDbLine
10
74.85
20
28
11
75.25
21
28
0
ARC
5
40E
100
AcDbEntity
8
0
6
ByLayer
62
256
370
-1
100
AcDbCircle
10
74.85
20
27.6
40
0.4
100
AcDbArc
50
90
51
180
0
LINE
5
40F
100
AcDbEntity
8
0
6
ByLayer
62
256
370
-1
100
AcDbLine
10
74.45
20
24.9
11
74.45
21
27.6
0
LINE
5
410
100
AcDbEntity
8
0
6
ByLayer
62
256
370
-1
100
AcDbLine
10
75.25
20
24.0645751311
11
75.25
21
24.5
0
ARC
5
411
100
AcDbEntity
8
0
6
ByLayer
62
256
370
-1
100
AcDbCircle
10
75.55
20
23.8
40
0.4
100
AcDbArc
50
138.590377891
51
311.409622108
0
LINE
5
412
100
AcDbEntity
8
0
6
ByLayer
62
256
370
-1
100
AcDbLine
10
82.25
20
23.5
11
75.8145751311
21
23.5
0
LINE
5
413
100
AcDbEntity
8
0
6
ByLayer
62
256
370
-1
100
AcDbLine
10
108.25
20
33
11
108.25
21
30.5
0
LINE
5
414
100
AcDbEntity
8
0
6
ByLayer
62
256
370
-1
100
AcDbLine
10
108.25
20
36.5
11
108.65
21
36.5
0
ARC
5
415
100
AcDbEntity
8
0
6
ByLayer
62
256
370
-1
100
AcDbCircle
10
108.65
20
36.1
40
0.4
100
AcDbArc
50
0
51
90
0
LINE
5
416
100
AcDbEntity
8
0
6
ByLayer
62
256
370
-1
100
AcDbLine
10
108.65
20
33
11
108.25
21
33
0
ARC
5
417
100
AcDbEntity
8
0
6
ByLayer
62
256
370
-1
100
AcDbCircle
10
108.65
20
33.4
40
0.4
100
AcDbArc
50
270
51
0
0
LINE
5
418
100
AcDbEntity
8
0
6
ByLayer
62
256
370
-1
100
AcDbLine
10
109.05
20
36.1
11
109.05
21
33.4
0
LINE
5
419
100
AcDbEntity
8
0
6
ByLayer
62
256
370
-1
100
AcDbLine
10
108.25
20
36.9354248689
11
108.25
21
36.5
0
ARC
5
41A
100
AcDbEntity
8
0
6
ByLayer
62
256
370
-1
100
AcDbCircle
10
107.95
20
37.2
40
0.4
100
AcDbArc
50
318.590377891
51
131.409622108
0
LINE
5
41B
100
AcDbEntity
8
0
6
ByLayer
62
256
370
-1
100
AcDbLine
10
101.25
20
37.5
11
107.685424869
21
37.5
0
LINE
5
41C
100
AcDbEntity
8
0
6
ByLayer
62
256
370
-1
100
AcDbLine
10
94.25
20
33
11
94.25
21
30.5
0
LINE
5
41D
100
AcDbEntity
8
0
6
ByLayer
62
256
370
-1
100
AcDbLine
10
94.25
20
36.5
11
93.85
21
36.5
0
ARC
5
41E
100
AcDbEntity
8
0
6
ByLayer
62
256
370
-1
100
AcDbCircle
10
93.85
20
36.1
40
0.4
100
AcDbArc
50
90
51
180
0
LINE
5
41F
100
AcDbEntity
8
0
6
ByLayer
62
256
370
-1
100
AcDbLine
10
93.85
20
33
11
94.25
21
33
0
ARC
5
420
100
AcDbEntity
8
0
6
ByLayer
62
256
370
-1
100
AcDbCircle
10
93.85
20
33.4
40
0.4
100
AcDbArc
50
180
51
270
0
LINE
5
421
100
AcDbEntity
8
0
6
ByLayer
62
256
370
-1
100
AcDbLine
10
93.45
20
36.1
11
93.45
21
33.4
0
LINE
5
422
100
AcDbEntity
8
0
6
ByLayer
62
256
370
-1
100
AcDbLine
10
94.25
20
36.9354248689
11
94.25
21
36.5
0
ARC
5
423
100
AcDbEntity
8
0
6
ByLayer
62
256
370
-1
100
AcDbCircle
10
94.55
20
37.2
40
0.4
100
AcDbArc
50
48.5903778923
51
221.409622109
0
LINE
5
424
100
AcDbEntity
8
0
6
ByLayer
62
256
370
-1
100
AcDbLine
10
101.25
20
37.5
11
94.8145751311
21
37.5
0
LINE
5
425
100
AcDbEntity
8
0
6
ByLayer
62
256
370
-1
100
AcDbLine
10
108.25
20
28
11
108.25
21
30.5
0
LINE
5
426
100
AcDbEntity
8
0
6
ByLayer
62
256
370
-1
100
AcDbLine
10
108.25
20
24.5
11
108.65
21
24.5
0
ARC
5
427
100
AcDbEntity
8
0
6
ByLayer
62
256
370
-1
100
AcDbCircle
10
108.65
20
24.9
40
0.4
100
AcDbArc
50
270
51
0
0
LINE
5
428
100
AcDbEntity
8
0
6
ByLayer
62
256
370
-1
100
AcDbLine
10
108.65
20
28
11
108.25
21
28
0
ARC
5
429
100
AcDbEntity
8
0
6
ByLayer
62
256
370
-1
100
AcDbCircle
10
108.65
20
27.6
40
0.4
100
AcDbArc
50
0
51
90
0
LINE
5
42A
100
AcDbEntity
8
0
6
ByLayer
62
256
370
-1
100
AcDbLine
10
109.05
20
24.9
11
109.05
21
27.6
0
LINE
5
42B
100
AcDbEntity
8
0
6
ByLayer
62
256
370
-1
100
AcDbLine
10
108.25
20
24.0645751311
11
108.25
21
24.5
0
ARC
5
42C
100
AcDbEntity
8
0
6
ByLayer
62
256
370
-1
100
AcDbCircle
10
107.95
20
23.8
40
0.4
100
AcDbArc
50
228.590377892
51
41.4096221092
0
LINE
5
42D
100
AcDbEntity
8
0
6
ByLayer
62
256
370
-1
100
AcDbLine
10
101.25
20
23.5
11
107.685424869
21
23.5
0
LINE
5
42E
100
AcDbEntity
8
0
6
ByLayer
62
256
370
-1
100
AcDbLine
10
94.25
20
28
11
94.25
21
30.5
0
LINE
5
42F
100
AcDbEntity
8
0
6
ByLayer
62
256
370
-1
100
AcDbLine
10
94.25
20
24.5
11
93.85
21
24.5
0
ARC
5
430
100
AcDbEntity
8
0
6
ByLayer
62
256
370
-1
100
AcDbCircle
10
93.85
20
24.9
40
0.4
100
AcDbArc
50
180
51
270
0
LINE
5
431
100
AcDbEntity
8
0
6
ByLayer
62
256
370
-1
100
AcDbLine
10
93.85
20
28
11
94.25
21
28
0
ARC
5
432
100
AcDbEntity
8
0
6
ByLayer
62
256
370
-1
100
AcDbCircle
10
93.85
20
27.6
40
0.4
100
AcDbArc
50
90
51
180
0
LINE
5
433
100
AcDbEntity
8
0
6
ByLayer
62
256
370
-1
100
AcDbLine
10
93.45
20
24.9
11
93.45
21
27.6
0
LINE
5
434
100
AcDbEntity
8
0
6
ByLayer
62
256
370
-1
100
AcDbLine
10
94.25
20
24.0645751311
11
94.25
21
24.5
0
ARC
5
435
100
AcDbEntity
8
0
6
ByLayer
62
256
370
-1
100
AcDbCircle
10
94.55
20
23.8
40
0.4
100
AcDbArc
50
138.590377891
51
311.409622108
0
LINE
5
436
100
AcDbEntity
8
0
6
ByLayer
62
256
370
-1
100
AcDbLine
10
101.25
20
23.5
11
94.8145751311
21
23.5
0
LINE
5
437
100
AcDbEntity
8
0
6
ByLayer
62
256
370
-1
100
AcDbLine
10
127.25
20
33
11
127.25
21
30.5
0
LINE
5
438
100
AcDbEntity
8
0
6
ByLayer
62
256
370
-1
100
AcDbLine
10
127.25
20
36.5
11
127.65
21
36.5
0
ARC
5
439
100
AcDbEntity
8
0
6
ByLayer
62
256
370
-1
100
AcDbCircle
10
127.65
20
36.1
40
0.4
100
AcDbArc
50
0
51
90
0
LINE
5
43A
100
AcDbEntity
8
0
6
ByLayer
62
256
370
-1
100
AcDbLine
10
127.65
20
33
11
127.25
21
33
0
ARC
5
43B
100
AcDbEntity
8
0
6
ByLayer
62
256
370
-1
100
AcDbCircle
10
127.65
20
33.4
40
0.4
100
AcDbArc
50
270
51
0
0
LINE
5
43C
100
AcDbEntity
8
0
6
ByLayer
62
256
370
-1
100
AcDbLine
10
128.05
20
36.1
11
128.05
21
33.4
0
LINE
5
43D
100
AcDbEntity
8
0
6
ByLayer
62
256
370
-1
100
AcDbLine
10
127.25
20
36.9354248689
11
127.25
21
36.5
0
ARC
5
43E
100
AcDbEntity
8
0
6
ByLayer
62
256
370
-1
100
AcDbCircle
10
126.95
20
37.2
40
0.4
100
AcDbArc
50
318.590377891
51
131.409622108
0
LINE
5
43F
100
AcDbEntity
8
0
6
ByLayer
62
256
370
-1
100
AcDbLine
10
120.25
20
37.5
11
126.685424869
21
37.5
0
LINE
5
440
100
AcDbEntity
8
0
6
ByLayer
62
256
370
-1
100
AcDbLine
10
113.25
20
33
11
113.25
21
30.5
0
LINE
5
441
100
AcDbEntity
8
0
6
ByLayer
62
256
370
-1
100
AcDbLine
10
113.25
20
36.5
11
112.85
21
36.5
0
ARC
5
442
100
AcDbEntity
8
0
6
ByLayer
62
256
370
-1
100
AcDbCircle
10
112.85
20
36.1
40
0.4
100
AcDbArc
50
90
51
180
0
LINE
5
443
100
AcDbEntity
8
0
6
ByLayer
62
256
370
-1
100
AcDbLine
10
112.85
20
33
11
113.25
21
33
0
ARC
5
444
100
AcDbEntity
8
0
6
ByLayer
62
256
370
-1
100
AcDbCircle
10
112.85
20
33.4
40
0.4
100
AcDbArc
50
180
51
270
0
LINE
5
445
100
AcDbEntity
8
0
6
ByLayer
62
256
370
-1
100
AcDbLine
10
112.45
20
36.1
11
112.45
21
33.4
0
LINE
5
446
100
AcDbEntity
8
0
6
ByLayer
62
256
370
-1
100
AcDbLine
10
113.25
20
36.9354248689
11
113.25
21
36.5
0
ARC
5
447
100
AcDbEntity
8
0
6
ByLayer
62
256
370
-1
100
AcDbCircle
10
113.55
20
37.2
40
0.4
100
AcDbArc
50
48.5903778923
51
221.409622109
0
LINE
5
448
100
AcDbEntity
8
0
6
ByLayer
62
256
370
-1
100
AcDbLine
10
120.25
20
37.5
11
113.814575131
21
37.5
0
LINE
5
449
100
AcDbEntity
8
0
6
ByLayer
62
256
370
-1
100
AcDbLine
10
127.25
20
28
11
127.25
21
30.5
0
LINE
5
44A
100
AcDbEntity
8
0
6
ByLayer
62
256
370
-1
100
AcDbLine
10
127.25
20
24.5
11
127.65
21
24.5
0
ARC
5
44B
100
AcDbEntity
8
0
6
ByLayer
62
256
370
-1
100
AcDbCircle
10
127.65
20
24.9
40
0.4
100
AcDbArc
50
270
51
0
0
LINE
5
44C
100
AcDbEntity
8
0
6
ByLayer
62
256
370
-1
100
AcDbLine
10
127.65
20
28
11
127.25
21
28
0
ARC
5
44D
100
AcDbEntity
8
0
6
ByLayer
62
256
370
-1
100
AcDbCircle
10
127.65
20
27.6
40
0.4
100
AcDbArc
50
0
51
90
0
LINE
5
44E
100
AcDbEntity
8
0
6
ByLayer
62
256
370
-1
100
AcDbLine
10
128.05
20
24.9
11
128.05
21
27.6
0
LINE
5
44F
100
AcDbEntity
8
0
6
ByLayer
62
256
370
-1
100
AcDbLine
10
127.25
20
24.0645751311
11
127.25
21
24.5
0
ARC
5
450
100
AcDbEntity
8
0
6
ByLayer
62
256
370
-1
100
AcDbCircle
10
126.95
20
23.8
40
0.4
100
AcDbArc
50
228.590377892
51
41.4096221092
0
LINE
5
451
100
AcDbEntity
8
0
6
ByLayer
62
256
370
-1
100
AcDbLine
10
120.25
20
23.5
11
126.685424869
21
23.5
0
LINE
5
452
100
AcDbEntity
8
0
6
ByLayer
62
256
370
-1
100
AcDbLine
10
113.25
20
28
11
113.25
21
30.5
0
LINE
5
453
100
AcDbEntity
8
0
6
ByLayer
62
256
370
-1
100
AcDbLine
10
113.25
20
24.5
11
112.85
21
24.5
0
ARC
5
454
100
AcDbEntity
8
0
6
ByLayer
62
256
370
-1
100
AcDbCircle
10
112.85
20
24.9
40
0.4
100
AcDbArc
50
180
51
270
0
LINE
5
455
100
AcDbEntity
8
0
6
ByLayer
62
256
370
-1
100
AcDbLine
10
112.85
20
28
11
113.25
21
28
0
ARC
5
456
100
AcDbEntity
8
0
6
ByLayer
62
256
370
-1
100
AcDbCircle
10
112.85
20
27.6
40
0.4
100
AcDbArc
50
90
51
180
0
LINE
5
457
100
AcDbEntity
8
0
6
ByLayer
62
256
370
-1
100
AcDbLine
10
112.45
20
24.9
11
112.45
21
27.6
0
LINE
5
458
100
AcDbEntity
8
0
6
ByLayer
62
256
370
-1
100
AcDbLine
10
113.25
20
24.0645751311
11
113.25
21
24.5
0
ARC
5
459
100
AcDbEntity
8
0
6
ByLayer
62
256
370
-1
100
AcDbCircle
10
113.55
20
23.8
40
0.4
100
AcDbArc
50
138.590377891
51
311.409622108
0
LINE
5
45A
100
AcDbEntity
8
0
6
ByLayer
62
256
370
-1
100
AcDbLine
10
120.25
20
23.5
11
113.814575131
21
23.5
0
LINE
5
45B
100
AcDbEntity
8
0
6
ByLayer
62
256
370
-1
100
AcDbLine
10
146.25
20
33
11
146.25
21
30.5
0
LINE
5
45C
100
AcDbEntity
8
0
6
ByLayer
62
256
370
-1
100
AcDbLine
10
146.25
20
36.5
11
146.65
21
36.5
0
ARC
5
45D
100
AcDbEntity
8
0
6
ByLayer
62
256
370
-1
100
AcDbCircle
10
146.65
20
36.1
40
0.4
100
AcDbArc
50
0
51
90
0
LINE
5
45E
100
AcDbEntity
8
0
6
ByLayer
62
256
370
-1
100
AcDbLine
10
146.65
20
33
11
146.25
21
33
0
ARC
5
45F
100
AcDbEntity
8
0
6
ByLayer
62
256
370
-1
100
AcDbCircle
10
146.65
20
33.4
40
0.4
100
AcDbArc
50
270
51
0
0
LINE
5
460
100
AcDbEntity
8
0
6
ByLayer
62
256
370
-1
100
AcDbLine
10
147.05
20
36.1
11
147.05
21
33.4
0
LINE
5
461
100
AcDbEntity
8
0
6
ByLayer
62
256
370
-1
100
AcDbLine
10
146.25
20
36.9354248689
11
146.25
21
36.5
0
ARC
5
462
100
AcDbEntity
8
0
6
ByLayer
62
256
370
-1
100
AcDbCircle
10
145.95
20
37.2
40
0.4
100
AcDbArc
50
318.590377891
51
131.409622108
0
LINE
5
463
100
AcDbEntity
8
0
6
ByLayer
62
256
370
-1
100
AcDbLine
10
139.25
20
37.5
11
145.685424869
21
37.5
0
LINE
5
464
100
AcDbEntity
8
0
6
ByLayer
62
256
370
-1
100
AcDbLine
10
132.25
20
33
11
132.25
21
30.5
0
LINE
5
465
100
AcDbEntity
8
0
6
ByLayer
62
256
370
-1
100
AcDbLine
10
132.25
20
36.5
11
131.85
21
36.5
0
ARC
5
466
100
AcDbEntity
8
0
6
ByLayer
62
256
370
-1
100
AcDbCircle
10
131.85
20
36.1
40
0.4
100
AcDbArc
50
90
51
180
0
LINE
5
467
100
AcDbEntity
8
0
6
ByLayer
62
256
370
-1
100
AcDbLine
10
131.85
20
33
11
132.25
21
33
0
ARC
5
468
100
AcDbEntity
8
0
6
ByLayer
62
256
370
-1
100
AcDbCircle
10
131.85
20
33.4
40
0.4
100
AcDbArc
50
180
51
270
0
LINE
5
469
100
AcDbEntity
8
0
6
ByLayer
62
256
370
-1
100
AcDbLine
10
131.45
20
36.1
11
131.45
21
33.4
0
LINE
5
46A
100
AcDbEntity
8
0
6
ByLayer
62
256
370
-1
100
AcDbLine
10
132.25
20
36.9354248689
11
132.25
21
36.5
0
ARC
5
46B
100
AcDbEntity
8
0
6
ByLayer
62
256
370
-1
100
AcDbCircle
10
132.55
20
37.2
40
0.4
100
AcDbArc
50
48.5903778923
51
221.409622109
0
LINE
5
46C
100
AcDbEntity
8
0
6
ByLayer
62
256
370
-1
100
AcDbLine
10
139.25
20
37.5
11
132.814575131
21
37.5
0
LINE
5
46D
100
AcDbEntity
8
0
6
ByLayer
62
256
370
-1
100
AcDbLine
10
146.25
20
28
11
146.25
21
30.5
0
LINE
5
46E
100
AcDbEntity
8
0
6
ByLayer
62
256
370
-1
100
AcDbLine
10
146.25
20
24.5
11
146.65
21
24.5
0
ARC
5
46F
100
AcDbEntity
8
0
6
ByLayer
62
256
370
-1
100
AcDbCircle
10
146.65
20
24.9
40
0.4
100
AcDbArc
50
270
51
0
0
LINE
5
470
100
AcDbEntity
8
0
6
ByLayer
62
256
370
-1
100
AcDbLine
10
146.65
20
28
11
146.25
21
28
0
ARC
5
471
100
AcDbEntity
8
0
6
ByLayer
62
256
370
-1
100
AcDbCircle
10
146.65
20
27.6
40
0.4
100
AcDbArc
50
0
51
90
0
LINE
5
472
100
AcDbEntity
8
0
6
ByLayer
62
256
370
-1
100
AcDbLine
10
147.05
20
24.9
11
147.05
21
27.6
0
LINE
5
473
100
AcDbEntity
8
0
6
ByLayer
62
256
370
-1
100
AcDbLine
10
146.25
20
24.0645751311
11
146.25
21
24.5
0
ARC
5
474
100
AcDbEntity
8
0
6
ByLayer
62
256
370
-1
100
AcDbCircle
10
145.95
20
23.8
40
0.4
100
AcDbArc
50
228.590377892
51
41.4096221092
0
LINE
5
475
100
AcDbEntity
8
0
6
ByLayer
62
256
370
-1
100
AcDbLine
10
139.25
20
23.5
11
145.685424869
21
23.5
0
LINE
5
476
100
AcDbEntity
8
0
6
ByLayer
62
256
370
-1
100
AcDbLine
10
132.25
20
28
11
132.25
21
30.5
0
LINE
5
477
100
AcDbEntity
8
0
6
ByLayer
62
256
370
-1
100
AcDbLine
10
132.25
20
24.5
11
131.85
21
24.5
0
ARC
5
478
100
AcDbEntity
8
0
6
ByLayer
62
256
370
-1
100
AcDbCircle
10
131.85
20
24.9
40
0.4
100
AcDbArc
50
180
51
270
0
LINE
5
479
100
AcDbEntity
8
0
6
ByLayer
62
256
370
-1
100
AcDbLine
10
131.85
20
28
11
132.25
21
28
0
ARC
5
47A
100
AcDbEntity
8
0
6
ByLayer
62
256
370
-1
100
AcDbCircle
10
131.85
20
27.6
40
0.4
100
AcDbArc
50
90
51
180
0
LINE
5
47B
100
AcDbEntity
8
0
6
ByLayer
62
256
370
-1
100
AcDbLine
10
131.45
20
24.9
11
131.45
21
27.6
0
LINE
5
47C
100
AcDbEntity
8
0
6
ByLayer
62
256
370
-1
100
AcDbLine
10
132.25
20
24.0645751311
11
132.25
21
24.5
0
ARC
5
47D
100
AcDbEntity
8
0
6
ByLayer
62
256
370
-1
100
AcDbCircle
10
132.55
20
23.8
40
0.4
100
AcDbArc
50
138.590377891
51
311.409622108
0
LINE
5
47E
100
AcDbEntity
8
0
6
ByLayer
62
256
370
-1
100
AcDbLine
10
139.25
20
23.5
11
132.814575131
21
23.5
0
LINE
5
47F
100
AcDbEntity
8
0
6
ByLayer
62
256
370
-1
100
AcDbLine
10
165.25
20
33
11
165.25
21
30.5
0
LINE
5
480
100
AcDbEntity
8
0
6
ByLayer
62
256
370
-1
100
AcDbLine
10
165.25
20
36.5
11
165.65
21
36.5
0
ARC
5
481
100
AcDbEntity
8
0
6
ByLayer
62
256
370
-1
100
AcDbCircle
10
165.65
20
36.1
40
0.4
100
AcDbArc
50
0
51
90
0
LINE
5
482
100
AcDbEntity
8
0
6
ByLayer
62
256
370
-1
100
AcDbLine
10
165.65
20
33
11
165.25
21
33
0
ARC
5
483
100
AcDbEntity
8
0
6
ByLayer
62
256
370
-1
100
AcDbCircle
10
165.65
20
33.4
40
0.4
100
AcDbArc
50
270
51
0
0
LINE
5
484
100
AcDbEntity
8
0
6
ByLayer
62
256
370
-1
100
AcDbLine
10
166.05
20
36.1
11
166.05
21
33.4
0
LINE
5
485
100
AcDbEntity
8
0
6
ByLayer
62
256
370
-1
100
AcDbLine
10
165.25
20
36.9354248689
11
165.25
21
36.5
0
ARC
5
486
100
AcDbEntity
8
0
6
ByLayer
62
256
370
-1
100
AcDbCircle
10
164.95
20
37.2
40
0.4
100
AcDbArc
50
318.590377891
51
131.409622108
0
LINE
5
487
100
AcDbEntity
8
0
6
ByLayer
62
256
370
-1
100
AcDbLine
10
158.25
20
37.5
11
164.685424869
21
37.5
0
LINE
5
488
100
AcDbEntity
8
0
6
ByLayer
62
256
370
-1
100
AcDbLine
10
151.25
20
33
11
151.25
21
30.5
0
LINE
5
489
100
AcDbEntity
8
0
6
ByLayer
62
256
370
-1
100
AcDbLine
10
151.25
20
36.5
11
150.85
21
36.5
0
ARC
5
48A
100
AcDbEntity
8
0
6
ByLayer
62
256
370
-1
100
AcDbCircle
10
150.85
20
36.1
40
0.4
100
AcDbArc
50
90
51
180
0
LINE
5
48B
100
AcDbEntity
8
0
6
ByLayer
62
256
370
-1
100
AcDbLine
10
150.85
20
33
11
151.25
21
33
0
ARC
5
48C
100
AcDbEntity
8
0
6
ByLayer
62
256
370
-1
100
AcDbCircle
10
150.85
20
33.4
40
0.4
100
AcDbArc
50
180
51
270
0
LINE
5
48D
100
AcDbEntity
8
0
6
ByLayer
62
256
370
-1
100
AcDbLine
10
150.45
20
36.1
11
150.45
21
33.4
0
LINE
5
48E
100
AcDbEntity
8
0
6
ByLayer
62
256
370
-1
100
AcDbLine
10
151.25
20
36.9354248689
11
151.25
21
36.5
0
ARC
5
48F
100
AcDbEntity
8
0
6
ByLayer
62
256
370
-1
100
AcDbCircle
10
151.55
20
37.2
40
0.4
100
AcDbArc
50
48.5903778923
51
221.409622109
0
LINE
5
490
100
AcDbEntity
8
0
6
ByLayer
62
256
370
-1
100
AcDbLine
10
158.25
20
37.5
11
151.814575131
21
37.5
0
LINE
5
491
100
AcDbEntity
8
0
6
ByLayer
62
256
370
-1
100
AcDbLine
10
165.25
20
28
11
165.25
21
30.5
0
LINE
5
492
100
AcDbEntity
8
0
6
ByLayer
62
256
370
-1
100
AcDbLine
10
165.25
20
24.5
11
165.65
21
24.5
0
ARC
5
493
100
AcDbEntity
8
0
6
ByLayer
62
256
370
-1
100
AcDbCircle
10
165.65
20
24.9
40
0.4
100
AcDbArc
50
270
51
0
0
LINE
5
494
100
AcDbEntity
8
0
6
ByLayer
62
256
370
-1
100
AcDbLine
10
165.65
20
28
11
165.25
21
28
0
ARC
5
495
100
AcDbEntity
8
0
6
ByLayer
62
256
370
-1
100
AcDbCircle
10
165.65
20
27.6
40
0.4
100
AcDbArc
50
0
51
90
0
LINE
5
496
100
AcDbEntity
8
0
6
ByLayer
62
256
370
-1
100
AcDbLine
10
166.05
20
24.9
11
166.05
21
27.6
0
LINE
5
497
100
AcDbEntity
8
0
6
ByLayer
62
256
370
-1
100
AcDbLine
10
165.25
20
24.0645751311
11
165.25
21
24.5
0
ARC
5
498
100
AcDbEntity
8
0
6
ByLayer
62
256
370
-1
100
AcDbCircle
10
164.95
20
23.8
40
0.4
100
AcDbArc
50
228.590377892
51
41.4096221092
0
LINE
5
499
100
AcDbEntity
8
0
6
ByLayer
62
256
370
-1
100
AcDbLine
10
158.25
20
23.5
11
164.685424869
21
23.5
0
LINE
5
49A
100
AcDbEntity
8
0
6
ByLayer
62
256
370
-1
100
AcDbLine
10
151.25
20
28
11
151.25
21
30.5
0
LINE
5
49B
100
AcDbEntity
8
0
6
ByLayer
62
256
370
-1
100
AcDbLine
10
151.25
20
24.5
11
150.85
21
24.5
0
ARC
5
49C
100
AcDbEntity
8
0
6
ByLayer
62
256
370
-1
100
AcDbCircle
10
150.85
20
24.9
40
0.4
100
AcDbArc
50
180
51
270
0
LINE
5
49D
100
AcDbEntity
8
0
6
ByLayer
62
256
370
-1
100
AcDbLine
10
150.85
20
28
11
151.25
21
28
0
ARC
5
49E
100
AcDbEntity
8
0
6
ByLayer
62
256
370
-1
100
AcDbCircle
10
150.85
20
27.6
40
0.4
100
AcDbArc
50
90
51
180
0
LINE
5
49F
100
AcDbEntity
8
0
6
ByLayer
62
256
370
-1
100
AcDbLine
10
150.45
20
24.9
11
150.45
21
27.6
0
LINE
5
4A0
100
AcDbEntity
8
0
6
ByLayer
62
256
370
-1
100
AcDbLine
10
151.25
20
24.0645751311
11
151.25
21
24.5
0
ARC
5
4A1
100
AcDbEntity
8
0
6
ByLayer
62
256
370
-1
100
AcDbCircle
10
151.55
20
23.8
40
0.4
100
AcDbArc
50
138.590377891
51
311.409622108
0
LINE
5
4A2
100
AcDbEntity
8
0
6
ByLayer
62
256
370
-1
100
AcDbLine
10
158.25
20
23.5
11
151.814575131
21
23.5
0
LINE
5
4A3
100
AcDbEntity
8
0
6
ByLayer
62
256
370
-1
100
AcDbLine
10
184.25
20
33
11
184.25
21
30.5
0
LINE
5
4A4
100
AcDbEntity
8
0
6
ByLayer
62
256
370
-1
100
AcDbLine
10
184.25
20
36.5
11
184.65
21
36.5
0
ARC
5
4A5
100
AcDbEntity
8
0
6
ByLayer
62
256
370
-1
100
AcDbCircle
10
184.65
20
36.1
40
0.4
100
AcDbArc
50
0
51
90
0
LINE
5
4A6
100
AcDbEntity
8
0
6
ByLayer
62
256
370
-1
100
AcDbLine
10
184.65
20
33
11
184.25
21
33
0
ARC
5
4A7
100
AcDbEntity
8
0
6
ByLayer
62
256
370
-1
100
AcDbCircle
10
184.65
20
33.4
40
0.4
100
AcDbArc
50
270
51
0
0
LINE
5
4A8
100
AcDbEntity
8
0
6
ByLayer
62
256
370
-1
100
AcDbLine
10
185.05
20
36.1
11
185.05
21
33.4
0
LINE
5
4A9
100
AcDbEntity
8
0
6
ByLayer
62
256
370
-1
100
AcDbLine
10
184.25
20
36.9354248689
11
184.25
21
36.5
0
ARC
5
4AA
100
AcDbEntity
8
0
6
ByLayer
62
256
370
-1
100
AcDbCircle
10
183.95
20
37.2
40
0.4
100
AcDbArc
50
318.590377891
51
131.409622108
0
LINE
5
4AB
100
AcDbEntity
8
0
6
ByLayer
62
256
370
-1
100
AcDbLine
10
177.25
20
37.5
11
183.685424869
21
37.5
0
LINE
5
4AC
100
AcDbEntity
8
0
6
ByLayer
62
256
370
-1
100
AcDbLine
10
170.25
20
33
11
170.25
21
30.5
0
LINE
5
4AD
100
AcDbEntity
8
0
6
ByLayer
62
256
370
-1
100
AcDbLine
10
170.25
20
36.5
11
169.85
21
36.5
0
ARC
5
4AE
100
AcDbEntity
8
0
6
ByLayer
62
256
370
-1
100
AcDbCircle
10
169.85
20
36.1
40
0.4
100
AcDbArc
50
90
51
180
0
LINE
5
4AF
100
AcDbEntity
8
0
6
ByLayer
62
256
370
-1
100
AcDbLine
10
169.85
20
33
11
170.25
21
33
0
ARC
5
4B0
100
AcDbEntity
8
0
6
ByLayer
62
256
370
-1
100
AcDbCircle
10
169.85
20
33.4
40
0.4
100
AcDbArc
50
180
51
270
0
LINE
5
4B1
100
AcDbEntity
8
0
6
ByLayer
62
256
370
-1
100
AcDbLine
10
169.45
20
36.1
11
169.45
21
33.4
0
LINE
5
4B2
100
AcDbEntity
8
0
6
ByLayer
62
256
370
-1
100
AcDbLine
10
170.25
20
36.9354248689
11
170.25
21
36.5
0
ARC
5
4B3
100
AcDbEntity
8
0
6
ByLayer
62
256
370
-1
100
AcDbCircle
10
170.55
20
37.2
40
0.4
100
AcDbArc
50
48.5903778923
51
221.409622109
0
LINE
5
4B4
100
AcDbEntity
8
0
6
ByLayer
62
256
370
-1
100
AcDbLine
10
177.25
20
37.5
11
170.814575131
21
37.5
0
LINE
5
4B5
100
AcDbEntity
8
0
6
ByLayer
62
256
370
-1
100
AcDbLine
10
184.25
20
28
11
184.25
21
30.5
0
LINE
5
4B6
100
AcDbEntity
8
0
6
ByLayer
62
256
370
-1
100
AcDbLine
10
184.25
20
24.5
11
184.65
21
24.5
0
ARC
5
4B7
100
AcDbEntity
8
0
6
ByLayer
62
256
370
-1
100
AcDbCircle
10
184.65
20
24.9
40
0.4
100
AcDbArc
50
270
51
0
0
LINE
5
4B8
100
AcDbEntity
8
0
6
ByLayer
62
256
370
-1
100
AcDbLine
10
184.65
20
28
11
184.25
21
28
0
ARC
5
4B9
100
AcDbEntity
8
0
6
ByLayer
62
256
370
-1
100
AcDbCircle
10
184.65
20
27.6
40
0.4
100
AcDbArc
50
0
51
90
0
LINE
5
4BA
100
AcDbEntity
8
0
6
ByLayer
62
256
370
-1
100
AcDbLine
10
185.05
20
24.9
11
185.05
21
27.6
0
LINE
5
4BB
100
AcDbEntity
8
0
6
ByLayer
62
256
370
-1
100
AcDbLine
10
184.25
20
24.0645751311
11
184.25
21
24.5
0
ARC
5
4BC
100
AcDbEntity
8
0
6
ByLayer
62
256
370
-1
100
AcDbCircle
10
183.95
20
23.8
40
0.4
100
AcDbArc
50
228.590377892
51
41.4096221092
0
LINE
5
4BD
100
AcDbEntity
8
0
6
ByLayer
62
256
370
-1
100
AcDbLine
10
177.25
20
23.5
11
183.685424869
21
23.5
0
LINE
5
4BE
100
AcDbEntity
8
0
6
ByLayer
62
256
370
-1
100
AcDbLine
10
170.25
20
28
11
170.25
21
30.5
0
LINE
5
4BF
100
AcDbEntity
8
0
6
ByLayer
62
256
370
-1
100
AcDbLine
10
170.25
20
24.5
11
169.85
21
24.5
0
ARC
5
4C0
100
AcDbEntity
8
0
6
ByLayer
62
256
370
-1
100
AcDbCircle
10
169.85
20
24.9
40
0.4
100
AcDbArc
50
180
51
270
0
LINE
5
4C1
100
AcDbEntity
8
0
6
ByLayer
62
256
370
-1
100
AcDbLine
10
169.85
20
28
11
170.25
21
28
0
ARC
5
4C2
100
AcDbEntity
8
0
6
ByLayer
62
256
370
-1
100
AcDbCircle
10
169.85
20
27.6
40
0.4
100
AcDbArc
50
90
51
180
0
LINE
5
4C3
100
AcDbEntity
8
0
6
ByLayer
62
256
370
-1
100
AcDbLine
10
169.45
20
24.9
11
169.45
21
27.6
0
LINE
5
4C4
100
AcDbEntity
8
0
6
ByLayer
62
256
370
-1
100
AcDbLine
10
170.25
20
24.0645751311
11
170.25
21
24.5
0
ARC
5
4C5
100
AcDbEntity
8
0
6
ByLayer
62
256
370
-1
100
AcDbCircle
10
170.55
20
23.8
40
0.4
100
AcDbArc
50
138.590377891
51
311.409622108
0
LINE
5
4C6
100
AcDbEntity
8
0
6
ByLayer
62
256
370
-1
100
AcDbLine
10
177.25
20
23.5
11
170.814575131
21
23.5
0
LINE
5
4C7
100
AcDbEntity
8
0
6
ByLayer
62
256
370
-1
100
AcDbLine
10
203.25
20
33
11
203.25
21
30.5
0
LINE
5
4C8
100
AcDbEntity
8
0
6
ByLayer
62
256
370
-1
100
AcDbLine
10
203.25
20
36.5
11
203.65
21
36.5
0
ARC
5
4C9
100
AcDbEntity
8
0
6
ByLayer
62
256
370
-1
100
AcDbCircle
10
203.65
20
36.1
40
0.4
100
AcDbArc
50
0
51
90
0
LINE
5
4CA
100
AcDbEntity
8
0
6
ByLayer
62
256
370
-1
100
AcDbLine
10
203.65
20
33
11
203.25
21
33
0
ARC
5
4CB
100
AcDbEntity
8
0
6
ByLayer
62
256
370
-1
100
AcDbCircle
10
203.65
20
33.4
40
0.4
100
AcDbArc
50
270
51
0
0
LINE
5
4CC
100
AcDbEntity
8
0
6
ByLayer
62
256
370
-1
100
AcDbLine
10
204.05
20
36.1
11
204.05
21
33.4
0
LINE
5
4CD
100
AcDbEntity
8
0
6
ByLayer
62
256
370
-1
100
AcDbLine
10
203.25
20
36.9354248689
11
203.25
21
36.5
0
ARC
5
4CE
100
AcDbEntity
8
0
6
ByLayer
62
256
370
-1
100
AcDbCircle
10
202.95
20
37.2
40
0.4
100
AcDbArc
50
318.590377891
51
131.409622108
0
LINE
5
4CF
100
AcDbEntity
8
0
6
ByLayer
62
256
370
-1
100
AcDbLine
10
196.25
20
37.5
11
202.685424869
21
37.5
0
LINE
5
4D0
100
AcDbEntity
8
0
6
ByLayer
62
256
370
-1
100
AcDbLine
10
189.25
20
33
11
189.25
21
30.5
0
LINE
5
4D1
100
AcDbEntity
8
0
6
ByLayer
62
256
370
-1
100
AcDbLine
10
189.25
20
36.5
11
188.85
21
36.5
0
ARC
5
4D2
100
AcDbEntity
8
0
6
ByLayer
62
256
370
-1
100
AcDbCircle
10
188.85
20
36.1
40
0.4
100
AcDbArc
50
90
51
180
0
LINE
5
4D3
100
AcDbEntity
8
0
6
ByLayer
62
256
370
-1
100
AcDbLine
10
188.85
20
33
11
189.25
21
33
0
ARC
5
4D4
100
AcDbEntity
8
0
6
ByLayer
62
256
370
-1
100
AcDbCircle
10
188.85
20
33.4
40
0.4
100
AcDbArc
50
180
51
270
0
LINE
5
4D5
100
AcDbEntity
8
0
6
ByLayer
62
256
370
-1
100
AcDbLine
10
188.45
20
36.1
11
188.45
21
33.4
0
LINE
5
4D6
100
AcDbEntity
8
0
6
ByLayer
62
256
370
-1
100
AcDbLine
10
189.25
20
36.9354248689
11
189.25
21
36.5
0
ARC
5
4D7
100
AcDbEntity
8
0
6
ByLayer
62
256
370
-1
100
AcDbCircle
10
189.55
20
37.2
40
0.4
100
AcDbArc
50
48.5903778923
51
221.409622109
0
LINE
5
4D8
100
AcDbEntity
8
0
6
ByLayer
62
256
370
-1
100
AcDbLine
10
196.25
20
37.5
11
189.814575131
21
37.5
0
LINE
5
4D9
100
AcDbEntity
8
0
6
ByLayer
62
256
370
-1
100
AcDbLine
10
203.25
20
28
11
203.25
21
30.5
0
LINE
5
4DA
100
AcDbEntity
8
0
6
ByLayer
62
256
370
-1
100
AcDbLine
10
203.25
20
24.5
11
203.65
21
24.5
0
ARC
5
4DB
100
AcDbEntity
8
0
6
ByLayer
62
256
370
-1
100
AcDbCircle
10
203.65
20
24.9
40
0.4
100
AcDbArc
50
270
51
0
0
LINE
5
4DC
100
AcDbEntity
8
0
6
ByLayer
62
256
370
-1
100
AcDbLine
10
203.65
20
28
11
203.25
21
28
0
ARC
5
4DD
100
AcDbEntity
8
0
6
ByLayer
62
256
370
-1
100
AcDbCircle
10
203.65
20
27.6
40
0.4
100
AcDbArc
50
0
51
90
0
LINE
5
4DE
100
AcDbEntity
8
0
6
ByLayer
62
256
370
-1
100
AcDbLine
10
204.05
20
24.9
11
204.05
21
27.6
0
LINE
5
4DF
100
AcDbEntity
8
0
6
ByLayer
62
256
370
-1
100
AcDbLine
10
203.25
20
24.0645751311
11
203.25
21
24.5
0
ARC
5
4E0
100
AcDbEntity
8
0
6
ByLayer
62
256
370
-1
100
AcDbCircle
10
202.95
20
23.8
40
0.4
100
AcDbArc
50
228.590377892
51
41.4096221092
0
LINE
5
4E1
100
AcDbEntity
8
0
6
ByLayer
62
256
370
-1
100
AcDbLine
10
196.25
20
23.5
11
202.685424869
21
23.5
0
LINE
5
4E2
100
AcDbEntity
8
0
6
ByLayer
62
256
370
-1
100
AcDbLine
10
189.25
20
28
11
189.25
21
30.5
0
LINE
5
4E3
100
AcDbEntity
8
0
6
ByLayer
62
256
370
-1
100
AcDbLine
10
189.25
20
24.5
11
188.85
21
24.5
0
ARC
5
4E4
100
AcDbEntity
8
0
6
ByLayer
62
256
370
-1
100
AcDbCircle
10
188.85
20
24.9
40
0.4
100
AcDbArc
50
180
51
270
0
LINE
5
4E5
100
AcDbEntity
8
0
6
ByLayer
62
256
370
-1
100
AcDbLine
10
188.85
20
28
11
189.25
21
28
0
ARC
5
4E6
100
AcDbEntity
8
0
6
ByLayer
62
256
370
-1
100
AcDbCircle
10
188.85
20
27.6
40
0.4
100
AcDbArc
50
90
51
180
0
LINE
5
4E7
100
AcDbEntity
8
0
6
ByLayer
62
256
370
-1
100
AcDbLine
10
188.45
20
24.9
11
188.45
21
27.6
0
LINE
5
4E8
100
AcDbEntity
8
0
6
ByLayer
62
256
370
-1
100
AcDbLine
10
189.25
20
24.0645751311
11
189.25
21
24.5
0
ARC
5
4E9
100
AcDbEntity
8
0
6
ByLayer
62
256
370
-1
100
AcDbCircle
10
189.55
20
23.8
40
0.4
100
AcDbArc
50
138.590377891
51
311.409622108
0
LINE
5
4EA
100
AcDbEntity
8
0
6
ByLayer
62
256
370
-1
100
AcDbLine
10
196.25
20
23.5
11
189.814575131
21
23.5
0
LINE
5
4EB
100
AcDbEntity
8
0
6
ByLayer
62
256
370
-1
100
AcDbLine
10
25.125
20
33
11
25.125
21
30.5
0
LINE
5
4EC
100
AcDbEntity
8
0
6
ByLayer
62
256
370
-1
100
AcDbLine
10
25.125
20
36.5
11
25.525
21
36.5
0
ARC
5
4ED
100
AcDbEntity
8
0
6
ByLayer
62
256
370
-1
100
AcDbCircle
10
25.525
20
36.1
40
0.4
100
AcDbArc
50
0
51
90
0
LINE
5
4EE
100
AcDbEntity
8
0
6
ByLayer
62
256
370
-1
100
AcDbLine
10
25.525
20
33
11
25.125
21
33
0
ARC
5
4EF
100
AcDbEntity
8
0
6
ByLayer
62
256
370
-1
100
AcDbCircle
10
25.525
20
33.4
40
0.4
100
AcDbArc
50
270
51
0
0
LINE
5
4F0
100
AcDbEntity
8
0
6
ByLayer
62
256
370
-1
100
AcDbLine
10
25.925
20
36.1
11
25.925
21
33.4
0
LINE
5
4F1
100
AcDbEntity
8
0
6
ByLayer
62
256
370
-1
100
AcDbLine
10
25.125
20
36.9354248689
11
25.125
21
36.5
0
ARC
5
4F2
100
AcDbEntity
8
0
6
ByLayer
62
256
370
-1
100
AcDbCircle
10
24.825
20
37.2
40
0.4
100
AcDbArc
50
318.590377891
51
131.409622108
0
LINE
5
4F3
100
AcDbEntity
8
0
6
ByLayer
62
256
370
-1
100
AcDbLine
10
18.125
20
37.5
11
24.5604248689
21
37.5
0
LINE
5
4F4
100
AcDbEntity
8
0
6
ByLayer
62
256
370
-1
100
AcDbLine
10
11.125
20
33
11
11.125
21
30.5
0
LINE
5
4F5
100
AcDbEntity
8
0
6
ByLayer
62
256
370
-1
100
AcDbLine
10
11.125
20
36.5
11
10.725
21
36.5
0
ARC
5
4F6
100
AcDbEntity
8
0
6
ByLayer
62
256
370
-1
100
AcDbCircle
10
10.725
20
36.1
40
0.4
100
AcDbArc
50
90
51
180
0
LINE
5
4F7
100
AcDbEntity
8
0
6
ByLayer
62
256
370
-1
100
AcDbLine
10
10.725
20
33
11
11.125
21
33
0
ARC
5
4F8
100
AcDbEntity
8
0
6
ByLayer
62
256
370
-1
100
AcDbCircle
10
10.725
20
33.4
40
0.4
100
AcDbArc
50
180
51
270
0
LINE
5
4F9
100
AcDbEntity
8
0
6
ByLayer
62
256
370
-1
100
AcDbLine
10
10.325
20
36.1
11
10.325
21
33.4
0
LINE
5
4FA
100
AcDbEntity
8
0
6
ByLayer
62
256
370
-1
100
AcDbLine
10
11.125
20
36.9354248689
11
11.125
21
36.5
0
ARC
5
4FB
100
AcDbEntity
8
0
6
ByLayer
62
256
370
-1
100
AcDbCircle
10
11.425
20
37.2
40
0.4
100
AcDbArc
50
48.5903778923
51
221.409622109
0
LINE
5
4FC
100
AcDbEntity
8
0
6
ByLayer
62
256
370
-1
100
AcDbLine
10
18.125
20
37.5
11
11.6895751311
21
37.5
0
LINE
5
4FD
100
AcDbEntity
8
0
6
ByLayer
62
256
370
-1
100
AcDbLine
10
25.125
20
28
11
25.125
21
30.5
0
LINE
5
4FE
100
AcDbEntity
8
0
6
ByLayer
62
256
370
-1
100
AcDbLine
10
25.125
20
24.5
11
25.525
21
24.5
0
ARC
5
4FF
100
AcDbEntity
8
0
6
ByLayer
62
256
370
-1
100
AcDbCircle
10
25.525
20
24.9
40
0.4
100
AcDbArc
50
270
51
0
0
LINE
5
500
100
AcDbEntity
8
0
6
ByLayer
62
256
370
-1
100
AcDbLine
10
25.525
20
28
11
25.125
21
28
0
ARC
5
501
100
AcDbEntity
8
0
6
ByLayer
62
256
370
-1
100
AcDbCircle
10
25.525
20
27.6
40
0.4
100
AcDbArc
50
0
51
90
0
LINE
5
502
100
AcDbEntity
8
0
6
ByLayer
62
256
370
-1
100
AcDbLine
10
25.925
20
24.9
11
25.925
21
27.6
0
LINE
5
503
100
AcDbEntity
8
0
6
ByLayer
62
256
370
-1
100
AcDbLine
10
25.125
20
24.0645751311
11
25.125
21
24.5
0
ARC
5
504
100
AcDbEntity
8
0
6
ByLayer
62
256
370
-1
100
AcDbCircle
10
24.825
20
23.8
40
0.4
100
AcDbArc
50
228.590377892
51
41.4096221092
0
LINE
5
505
100
AcDbEntity
8
0
6
ByLayer
62
256
370
-1
100
AcDbLine
10
18.125
20
23.5
11
24.5604248689
21
23.5
0
LINE
5
506
100
AcDbEntity
8
0
6
ByLayer
62
256
370
-1
100
AcDbLine
10
11.125
20
28
11
11.125
21
30.5
0
LINE
5
507
100
AcDbEntity
8
0
6
ByLayer
62
256
370
-1
100
AcDbLine
10
11.125
20
24.5
11
10.725
21
24.5
0
ARC
5
508
100
AcDbEntity
8
0
6
ByLayer
62
256
370
-1
100
AcDbCircle
10
10.725
20
24.9
40
0.4
100
AcDbArc
50
180
51
270
0
LINE
5
509
100
AcDbEntity
8
0
6
ByLayer
62
256
370
-1
100
AcDbLine
10
10.725
20
28
11
11.125
21
28
0
ARC
5
50A
100
AcDbEntity
8
0
6
ByLayer
62
256
370
-1
100
AcDbCircle
10
10.725
20
27.6
40
0.4
100
AcDbArc
50
90
51
180
0
LINE
5
50B
100
AcDbEntity
8
0
6
ByLayer
62
256
370
-1
100
AcDbLine
10
10.325
20
24.9
11
10.325
21
27.6
0
LINE
5
50C
100
AcDbEntity
8
0
6
ByLayer
62
256
370
-1
100
AcDbLine
10
11.125
20
24.0645751311
11
11.125
21
24.5
0
ARC
5
50D
100
AcDbEntity
8
0
6
ByLayer
62
256
370
-1
100
AcDbCircle
10
11.425
20
23.8
40
0.4
100
AcDbArc
50
138.590377891
51
311.409622108
0
LINE
5
50E
100
AcDbEntity
8
0
6
ByLayer
62
256
370
-1
100
AcDbLine
10
18.125
20
23.5
11
11.6895751311
21
23.5
0
LINE
5
50F
100
AcDbEntity
8
0
6
ByLayer
62
256
370
-1
100
AcDbLine
10
20.375
20
14
11
20.375
21
11.5
0
LINE
5
510
100
AcDbEntity
8
0
6
ByLayer
62
256
370
-1
100
AcDbLine
10
20.375
20
17.5
11
20.775
21
17.5
0
ARC
5
511
100
AcDbEntity
8
0
6
ByLayer
62
256
370
-1
100
AcDbCircle
10
20.775
20
17.1
40
0.4
100
AcDbArc
50
0
51
90
0
LINE
5
512
100
AcDbEntity
8
0
6
ByLayer
62
256
370
-1
100
AcDbLine
10
20.775
20
14
11
20.375
21
14
0
ARC
5
513
100
AcDbEntity
8
0
6
ByLayer
62
256
370
-1
100
AcDbCircle
10
20.775
20
14.4
40
0.4
100
AcDbArc
50
270
51
0
0
LINE
5
514
100
AcDbEntity
8
0
6
ByLayer
62
256
370
-1
100
AcDbLine
10
21.175
20
17.1
11
21.175
21
14.4
0
LINE
5
515
100
AcDbEntity
8
0
6
ByLayer
62
256
370
-1
100
AcDbLine
10
20.375
20
17.9354248689
11
20.375
21
17.5
0
ARC
5
516
100
AcDbEntity
8
0
6
ByLayer
62
256
370
-1
100
AcDbCircle
10
20.075
20
18.2
40
0.4
100
AcDbArc
50
318.590377891
51
131.409622108
0
LINE
5
517
100
AcDbEntity
8
0
6
ByLayer
62
256
370
-1
100
AcDbLine
10
13.375
20
18.5
11
19.8104248689
21
18.5
0
LINE
5
518
100
AcDbEntity
8
0
6
ByLayer
62
256
370
-1
100
AcDbLine
10
6.375
20
14
11
6.375
21
11.5
0
LINE
5
519
100
AcDbEntity
8
0
6
ByLayer
62
256
370
-1
100
AcDbLine
10
6.375
20
17.5
11
5.975
21
17.5
0
ARC
5
51A
100
AcDbEntity
8
0
6
ByLayer
62
256
370
-1
100
AcDbCircle
10
5.975
20
17.1
40
0.4
100
AcDbArc
50
90
51
180
0
LINE
5
51B
100
AcDbEntity
8
0
6
ByLayer
62
256
370
-1
100
AcDbLine
10
5.975
20
14
11
6.375
21
14
0
ARC
5
51C
100
AcDbEntity
8
0
6
ByLayer
62
256
370
-1
100
AcDbCircle
10
5.975
20
14.4
40
0.4
100
AcDbArc
50
180
51
270
0
LINE
5
51D
100
AcDbEntity
8
0
6
ByLayer
62
256
370
-1
100
AcDbLine
10
5.575
20
17.1
11
5.575
21
14.4
0
LINE
5
51E
100
AcDbEntity
8
0
6
ByLayer
62
256
370
-1
100
AcDbLine
10
6.375
20
17.9354248689
11
6.375
21
17.5
0
ARC
5
51F
100
AcDbEntity
8
0
6
ByLayer
62
256
370
-1
100
AcDbCircle
10
6.675
20
18.2
40
0.4
100
AcDbArc
50
48.5903778923
51
221.409622109
0
LINE
5
520
100
AcDbEntity
8
0
6
ByLayer
62
256
370
-1
100
AcDbLine
10
13.375
20
18.5
11
6.93957513109
21
18.5
0
LINE
5
521
100
AcDbEntity
8
0
6
ByLayer
62
256
370
-1
100
AcDbLine
10
20.375
20
9
11
20.375
21
11.5
0
LINE
5
522
100
AcDbEntity
8
0
6
ByLayer
62
256
370
-1
100
AcDbLine
10
20.375
20
5.5
11
20.775
21
5.5
0
ARC
5
523
100
AcDbEntity
8
0
6
ByLayer
62
256
370
-1
100
AcDbCircle
10
20.775
20
5.9
40
0.4
100
AcDbArc
50
270
51
0
0
LINE
5
524
100
AcDbEntity
8
0
6
ByLayer
62
256
370
-1
100
AcDbLine
10
20.775
20
9
11
20.375
21
9
0
ARC
5
525
100
AcDbEntity
8
0
6
ByLayer
62
256
370
-1
100
AcDbCircle
10
20.775
20
8.6
40
0.4
100
AcDbArc
50
0
51
90
0
LINE
5
526
100
AcDbEntity
8
0
6
ByLayer
62
256
370
-1
100
AcDbLine
10
21.175
20
5.9
11
21.175
21
8.6
0
LINE
5
527
100
AcDbEntity
8
0
6
ByLayer
62
256
370
-1
100
AcDbLine
10
20.375
20
5.06457513111
11
20.375
21
5.5
0
ARC
5
528
100
AcDbEntity
8
0
6
ByLayer
62
256
370
-1
100
AcDbCircle
10
20.075
20
4.8
40
0.4
100
AcDbArc
50
228.590377892
51
41.4096221092
0
LINE
5
529
100
AcDbEntity
8
0
6
ByLayer
62
256
370
-1
100
AcDbLine
10
13.375
20
4.5
11
19.8104248689
21
4.5
0
LINE
5
52A
100
AcDbEntity
8
0
6
ByLayer
62
256
370
-1
100
AcDbLine
10
6.375
20
9
11
6.375
21
11.5
0
LINE
5
52B
100
AcDbEntity
8
0
6
ByLayer
62
256
370
-1
100
AcDbLine
10
6.375
20
5.5
11
5.975
21
5.5
0
ARC
5
52C
100
AcDbEntity
8
0
6
ByLayer
62
256
370
-1
100
AcDbCircle
10
5.975
20
5.9
40
0.4
100
AcDbArc
50
180
51
270
0
LINE
5
52D
100
AcDbEntity
8
0
6
ByLayer
62
256
370
-1
100
AcDbLine
10
5.975
20
9
11
6.375
21
9
0
ARC
5
52E
100
AcDbEntity
8
0
6
ByLayer
62
256
370
-1
100
AcDbCircle
10
5.975
20
8.6
40
0.4
100
AcDbArc
50
90
51
180
0
LINE
5
52F
100
AcDbEntity
8
0
6
ByLayer
62
256
370
-1
100
AcDbLine
10
5.575
20
5.9
11
5.575
21
8.6
0
LINE
5
530
100
AcDbEntity
8
0
6
ByLayer
62
256
370
-1
100
AcDbLine
10
6.375
20
5.06457513111
11
6.375
21
5.5
0
ARC
5
531
100
AcDbEntity
8
0
6
ByLayer
62
256
370
-1
100
AcDbCircle
10
6.675
20
4.8
40
0.4
100
AcDbArc
50
138.590377891
51
311.409622108
0
LINE
5
532
100
AcDbEntity
8
0
6
ByLayer
62
256
370
-1
100
AcDbLine
10
13.375
20
4.5
11
6.93957513109
21
4.5
0
LINE
5
533
100
AcDbEntity
8
0
6
ByLayer
62
256
370
-1
100
AcDbLine
10
44.125
20
14
11
44.125
21
11.5
0
LINE
5
534
100
AcDbEntity
8
0
6
ByLayer
62
256
370
-1
100
AcDbLine
10
44.125
20
17.5
11
44.525
21
17.5
0
ARC
5
535
100
AcDbEntity
8
0
6
ByLayer
62
256
370
-1
100
AcDbCircle
10
44.525
20
17.1
40
0.4
100
AcDbArc
50
0
51
90
0
LINE
5
536
100
AcDbEntity
8
0
6
ByLayer
62
256
370
-1
100
AcDbLine
10
44.525
20
14
11
44.125
21
14
0
ARC
5
537
100
AcDbEntity
8
0
6
ByLayer
62
256
370
-1
100
AcDbCircle
10
44.525
20
14.4
40
0.4
100
AcDbArc
50
270
51
0
0
LINE
5
538
100
AcDbEntity
8
0
6
ByLayer
62
256
370
-1
100
AcDbLine
10
44.925
20
17.1
11
44.925
21
14.4
0
LINE
5
539
100
AcDbEntity
8
0
6
ByLayer
62
256
370
-1
100
AcDbLine
10
44.125
20
17.9354248689
11
44.125
21
17.5
0
ARC
5
53A
100
AcDbEntity
8
0
6
ByLayer
62
256
370
-1
100
AcDbCircle
10
43.825
20
18.2
40
0.4
100
AcDbArc
50
318.590377891
51
131.409622108
0
LINE
5
53B
100
AcDbEntity
8
0
6
ByLayer
62
256
370
-1
100
AcDbLine
10
37.125
20
18.5
11
43.5604248689
21
18.5
0
LINE
5
53C
100
AcDbEntity
8
0
6
ByLayer
62
256
370
-1
100
AcDbLine
10
30.125
20
14
11
30.125
21
11.5
0
LINE
5
53D
100
AcDbEntity
8
0
6
ByLayer
62
256
370
-1
100
AcDbLine
10
30.125
20
17.5
11
29.725
21
17.5
0
ARC
5
53E
100
AcDbEntity
8
0
6
ByLayer
62
256
370
-1
100
AcDbCircle
10
29.725
20
17.1
40
0.4
100
AcDbArc
50
90
51
180
0
LINE
5
53F
100
AcDbEntity
8
0
6
ByLayer
62
256
370
-1
100
AcDbLine
10
29.725
20
14
11
30.125
21
14
0
ARC
5
540
100
AcDbEntity
8
0
6
ByLayer
62
256
370
-1
100
AcDbCircle
10
29.725
20
14.4
40
0.4
100
AcDbArc
50
180
51
270
0
LINE
5
541
100
AcDbEntity
8
0
6
ByLayer
62
256
370
-1
100
AcDbLine
10
29.325
20
17.1
11
29.325
21
14.4
0
LINE
5
542
100
AcDbEntity
8
0
6
ByLayer
62
256
370
-1
100
AcDbLine
10
30.125
20
17.9354248689
11
30.125
21
17.5
0
ARC
5
543
100
AcDbEntity
8
0
6
ByLayer
62
256
370
-1
100
AcDbCircle
10
30.425
20
18.2
40
0.4
100
AcDbArc
50
48.5903778923
51
221.409622109
0
LINE
5
544
100
AcDbEntity
8
0
6
ByLayer
62
256
370
-1
100
AcDbLine
10
37.125
20
18.5
11
30.6895751311
21
18.5
0
LINE
5
545
100
AcDbEntity
8
0
6
ByLayer
62
256
370
-1
100
AcDbLine
10
44.125
20
9
11
44.125
21
11.5
0
LINE
5
546
100
AcDbEntity
8
0
6
ByLayer
62
256
370
-1
100
AcDbLine
10
44.125
20
5.5
11
44.525
21
5.5
0
ARC
5
547
100
AcDbEntity
8
0
6
ByLayer
62
256
370
-1
100
AcDbCircle
10
44.525
20
5.9
40
0.4
100
AcDbArc
50
270
51
0
0
LINE
5
548
100
AcDbEntity
8
0
6
ByLayer
62
256
370
-1
100
AcDbLine
10
44.525
20
9
11
44.125
21
9
0
ARC
5
549
100
AcDbEntity
8
0
6
ByLayer
62
256
370
-1
100
AcDbCircle
10
44.525
20
8.6
40
0.4
100
AcDbArc
50
0
51
90
0
LINE
5
54A
100
AcDbEntity
8
0
6
ByLayer
62
256
370
-1
100
AcDbLine
10
44.925
20
5.9
11
44.925
21
8.6
0
LINE
5
54B
100
AcDbEntity
8
0
6
ByLayer
62
256
370
-1
100
AcDbLine
10
44.125
20
5.06457513111
11
44.125
21
5.5
0
ARC
5
54C
100
AcDbEntity
8
0
6
ByLayer
62
256
370
-1
100
AcDbCircle
10
43.825
20
4.8
40
0.4
100
AcDbArc
50
228.590377892
51
41.4096221092
0
LINE
5
54D
100
AcDbEntity
8
0
6
ByLayer
62
256
370
-1
100
AcDbLine
10
37.125
20
4.5
11
43.5604248689
21
4.5
0
LINE
5
54E
100
AcDbEntity
8
0
6
ByLayer
62
256
370
-1
100
AcDbLine
10
30.125
20
9
11
30.125
21
11.5
0
LINE
5
54F
100
AcDbEntity
8
0
6
ByLayer
62
256
370
-1
100
AcDbLine
10
30.125
20
5.5
11
29.725
21
5.5
0
ARC
5
550
100
AcDbEntity
8
0
6
ByLayer
62
256
370
-1
100
AcDbCircle
10
29.725
20
5.9
40
0.4
100
AcDbArc
50
180
51
270
0
LINE
5
551
100
AcDbEntity
8
0
6
ByLayer
62
256
370
-1
100
AcDbLine
10
29.725
20
9
11
30.125
21
9
0
ARC
5
552
100
AcDbEntity
8
0
6
ByLayer
62
256
370
-1
100
AcDbCircle
10
29.725
20
8.6
40
0.4
100
AcDbArc
50
90
51
180
0
LINE
5
553
100
AcDbEntity
8
0
6
ByLayer
62
256
370
-1
100
AcDbLine
10
29.325
20
5.9
11
29.325
21
8.6
0
LINE
5
554
100
AcDbEntity
8
0
6
ByLayer
62
256
370
-1
100
AcDbLine
10
30.125
20
5.06457513111
11
30.125
21
5.5
0
ARC
5
555
100
AcDbEntity
8
0
6
ByLayer
62
256
370
-1
100
AcDbCircle
10
30.425
20
4.8
40
0.4
100
AcDbArc
50
138.590377891
51
311.409622108
0
LINE
5
556
100
AcDbEntity
8
0
6
ByLayer
62
256
370
-1
100
AcDbLine
10
37.125
20
4.5
11
30.6895751311
21
4.5
0
LINE
5
557
100
AcDbEntity
8
0
6
ByLayer
62
256
370
-1
100
AcDbLine
10
67.875
20
14
11
67.875
21
11.5
0
LINE
5
558
100
AcDbEntity
8
0
6
ByLayer
62
256
370
-1
100
AcDbLine
10
67.875
20
17.5
11
68.275
21
17.5
0
ARC
5
559
100
AcDbEntity
8
0
6
ByLayer
62
256
370
-1
100
AcDbCircle
10
68.275
20
17.1
40
0.4
100
AcDbArc
50
0
51
90
0
LINE
5
55A
100
AcDbEntity
8
0
6
ByLayer
62
256
370
-1
100
AcDbLine
10
68.275
20
14
11
67.875
21
14
0
ARC
5
55B
100
AcDbEntity
8
0
6
ByLayer
62
256
370
-1
100
AcDbCircle
10
68.275
20
14.4
40
0.4
100
AcDbArc
50
270
51
0
0
LINE
5
55C
100
AcDbEntity
8
0
6
ByLayer
62
256
370
-1
100
AcDbLine
10
68.675
20
17.1
11
68.675
21
14.4
0
LINE
5
55D
100
AcDbEntity
8
0
6
ByLayer
62
256
370
-1
100
AcDbLine
10
67.875
20
17.9354248689
11
67.875
21
17.5
0
ARC
5
55E
100
AcDbEntity
8
0
6
ByLayer
62
256
370
-1
100
AcDbCircle
10
67.575
20
18.2
40
0.4
100
AcDbArc
50
318.590377891
51
131.409622108
0
LINE
5
55F
100
AcDbEntity
8
0
6
ByLayer
62
256
370
-1
100
AcDbLine
10
60.875
20
18.5
11
67.3104248689
21
18.5
0
LINE
5
560
100
AcDbEntity
8
0
6
ByLayer
62
256
370
-1
100
AcDbLine
10
53.875
20
14
11
53.875
21
11.5
0
LINE
5
561
100
AcDbEntity
8
0
6
ByLayer
62
256
370
-1
100
AcDbLine
10
53.875
20
17.5
11
53.475
21
17.5
0
ARC
5
562
100
AcDbEntity
8
0
6
ByLayer
62
256
370
-1
100
AcDbCircle
10
53.475
20
17.1
40
0.4
100
AcDbArc
50
90
51
180
0
LINE
5
563
100
AcDbEntity
8
0
6
ByLayer
62
256
370
-1
100
AcDbLine
10
53.475
20
14
11
53.875
21
14
0
ARC
5
564
100
AcDbEntity
8
0
6
ByLayer
62
256
370
-1
100
AcDbCircle
10
53.475
20
14.4
40
0.4
100
AcDbArc
50
180
51
270
0
LINE
5
565
100
AcDbEntity
8
0
6
ByLayer
62
256
370
-1
100
AcDbLine
10
53.075
20
17.1
11
53.075
21
14.4
0
LINE
5
566
100
AcDbEntity
8
0
6
ByLayer
62
256
370
-1
100
AcDbLine
10
53.875
20
17.9354248689
11
53.875
21
17.5
0
ARC
5
567
100
AcDbEntity
8
0
6
ByLayer
62
256
370
-1
100
AcDbCircle
10
54.175
20
18.2
40
0.4
100
AcDbArc
50
48.5903778923
51
221.409622109
0
LINE
5
568
100
AcDbEntity
8
0
6
ByLayer
62
256
370
-1
100
AcDbLine
10
60.875
20
18.5
11
54.4395751311
21
18.5
0
LINE
5
569
100
AcDbEntity
8
0
6
ByLayer
62
256
370
-1
100
AcDbLine
10
67.875
20
9
11
67.875
21
11.5
0
LINE
5
56A
100
AcDbEntity
8
0
6
ByLayer
62
256
370
-1
100
AcDbLine
10
67.875
20
5.5
11
68.275
21
5.5
0
ARC
5
56B
100
AcDbEntity
8
0
6
ByLayer
62
256
370
-1
100
AcDbCircle
10
68.275
20
5.9
40
0.4
100
AcDbArc
50
270
51
0
0
LINE
5
56C
100
AcDbEntity
8
0
6
ByLayer
62
256
370
-1
100
AcDbLine
10
68.275
20
9
11
67.875
21
9
0
ARC
5
56D
100
AcDbEntity
8
0
6
ByLayer
62
256
370
-1
100
AcDbCircle
10
68.275
20
8.6
40
0.4
100
AcDbArc
50
0
51
90
0
LINE
5
56E
100
AcDbEntity
8
0
6
ByLayer
62
256
370
-1
100
AcDbLine
10
68.675
20
5.9
11
68.675
21
8.6
0
LINE
5
56F
100
AcDbEntity
8
0
6
ByLayer
62
256
370
-1
100
AcDbLine
10
67.875
20
5.06457513111
11
67.875
21
5.5
0
ARC
5
570
100
AcDbEntity
8
0
6
ByLayer
62
256
370
-1
100
AcDbCircle
10
67.575
20
4.8
40
0.4
100
AcDbArc
50
228.590377892
51
41.4096221092
0
LINE
5
571
100
AcDbEntity
8
0
6
ByLayer
62
256
370
-1
100
AcDbLine
10
60.875
20
4.5
11
67.3104248689
21
4.5
0
LINE
5
572
100
AcDbEntity
8
0
6
ByLayer
62
256
370
-1
100
AcDbLine
10
53.875
20
9
11
53.875
21
11.5
0
LINE
5
573
100
AcDbEntity
8
0
6
ByLayer
62
256
370
-1
100
AcDbLine
10
53.875
20
5.5
11
53.475
21
5.5
0
ARC
5
574
100
AcDbEntity
8
0
6
ByLayer
62
256
370
-1
100
AcDbCircle
10
53.475
20
5.9
40
0.4
100
AcDbArc
50
180
51
270
0
LINE
5
575
100
AcDbEntity
8
0
6
ByLayer
62
256
370
-1
100
AcDbLine
10
53.475
20
9
11
53.875
21
9
0
ARC
5
576
100
AcDbEntity
8
0
6
ByLayer
62
256
370
-1
100
AcDbCircle
10
53.475
20
8.6
40
0.4
100
AcDbArc
50
90
51
180
0
LINE
5
577
100
AcDbEntity
8
0
6
ByLayer
62
256
370
-1
100
AcDbLine
10
53.075
20
5.9
11
53.075
21
8.6
0
LINE
5
578
100
AcDbEntity
8
0
6
ByLayer
62
256
370
-1
100
AcDbLine
10
53.875
20
5.06457513111
11
53.875
21
5.5
0
ARC
5
579
100
AcDbEntity
8
0
6
ByLayer
62
256
370
-1
100
AcDbCircle
10
54.175
20
4.8
40
0.4
100
AcDbArc
50
138.590377891
51
311.409622108
0
LINE
5
57A
100
AcDbEntity
8
0
6
ByLayer
62
256
370
-1
100
AcDbLine
10
60.875
20
4.5
11
54.4395751311
21
4.5
0
LINE
5
57B
100
AcDbEntity
8
0
6
ByLayer
62
256
370
-1
100
AcDbLine
10
96.375
20
14
11
96.375
21
11.5
0
LINE
5
57C
100
AcDbEntity
8
0
6
ByLayer
62
256
370
-1
100
AcDbLine
10
96.375
20
17.5
11
96.775
21
17.5
0
ARC
5
57D
100
AcDbEntity
8
0
6
ByLayer
62
256
370
-1
100
AcDbCircle
10
96.775
20
17.1
40
0.4
100
AcDbArc
50
0
51
90
0
LINE
5
57E
100
AcDbEntity
8
0
6
ByLayer
62
256
370
-1
100
AcDbLine
10
96.775
20
14
11
96.375
21
14
0
ARC
5
57F
100
AcDbEntity
8
0
6
ByLayer
62
256
370
-1
100
AcDbCircle
10
96.775
20
14.4
40
0.4
100
AcDbArc
50
270
51
0
0
LINE
5
580
100
AcDbEntity
8
0
6
ByLayer
62
256
370
-1
100
AcDbLine
10
97.175
20
17.1
11
97.175
21
14.4
0
LINE
5
581
100
AcDbEntity
8
0
6
ByLayer
62
256
370
-1
100
AcDbLine
10
96.375
20
17.9354248689
11
96.375
21
17.5
0
ARC
5
582
100
AcDbEntity
8
0
6
ByLayer
62
256
370
-1
100
AcDbCircle
10
96.075
20
18.2
40
0.4
100
AcDbArc
50
318.590377891
51
131.409622108
0
LINE
5
583
100
AcDbEntity
8
0
6
ByLayer
62
256
370
-1
100
AcDbLine
10
89.375
20
18.5
11
95.8104248689
21
18.5
0
LINE
5
584
100
AcDbEntity
8
0
6
ByLayer
62
256
370
-1
100
AcDbLine
10
82.375
20
14
11
82.375
21
11.5
0
LINE
5
585
100
AcDbEntity
8
0
6
ByLayer
62
256
370
-1
100
AcDbLine
10
82.375
20
17.5
11
81.975
21
17.5
0
ARC
5
586
100
AcDbEntity
8
0
6
ByLayer
62
256
370
-1
100
AcDbCircle
10
81.975
20
17.1
40
0.4
100
AcDbArc
50
90
51
180
0
LINE
5
587
100
AcDbEntity
8
0
6
ByLayer
62
256
370
-1
100
AcDbLine
10
81.975
20
14
11
82.375
21
14
0
ARC
5
588
100
AcDbEntity
8
0
6
ByLayer
62
256
370
-1
100
AcDbCircle
10
81.975
20
14.4
40
0.4
100
AcDbArc
50
180
51
270
0
LINE
5
589
100
AcDbEntity
8
0
6
ByLayer
62
256
370
-1
100
AcDbLine
10
81.575
20
17.1
11
81.575
21
14.4
0
LINE
5
58A
100
AcDbEntity
8
0
6
ByLayer
62
256
370
-1
100
AcDbLine
10
82.375
20
17.9354248689
11
82.375
21
17.5
0
ARC
5
58B
100
AcDbEntity
8
0
6
ByLayer
62
256
370
-1
100
AcDbCircle
10
82.675
20
18.2
40
0.4
100
AcDbArc
50
48.5903778923
51
221.409622109
0
LINE
5
58C
100
AcDbEntity
8
0
6
ByLayer
62
256
370
-1
100
AcDbLine
10
89.375
20
18.5
11
82.9395751311
21
18.5
0
LINE
5
58D
100
AcDbEntity
8
0
6
ByLayer
62
256
370
-1
100
AcDbLine
10
96.375
20
9
11
96.375
21
11.5
0
LINE
5
58E
100
AcDbEntity
8
0
6
ByLayer
62
256
370
-1
100
AcDbLine
10
96.375
20
5.5
11
96.775
21
5.5
0
ARC
5
58F
100
AcDbEntity
8
0
6
ByLayer
62
256
370
-1
100
AcDbCircle
10
96.775
20
5.9
40
0.4
100
AcDbArc
50
270
51
0
0
LINE
5
590
100
AcDbEntity
8
0
6
ByLayer
62
256
370
-1
100
AcDbLine
10
96.775
20
9
11
96.375
21
9
0
ARC
5
591
100
AcDbEntity
8
0
6
ByLayer
62
256
370
-1
100
AcDbCircle
10
96.775
20
8.6
40
0.4
100
AcDbArc
50
0
51
90
0
LINE
5
592
100
AcDbEntity
8
0
6
ByLayer
62
256
370
-1
100
AcDbLine
10
97.175
20
5.9
11
97.175
21
8.6
0
LINE
5
593
100
AcDbEntity
8
0
6
ByLayer
62
256
370
-1
100
AcDbLine
10
96.375
20
5.06457513111
11
96.375
21
5.5
0
ARC
5
594
100
AcDbEntity
8
0
6
ByLayer
62
256
370
-1
100
AcDbCircle
10
96.075
20
4.8
40
0.4
100
AcDbArc
50
228.590377892
51
41.4096221092
0
LINE
5
595
100
AcDbEntity
8
0
6
ByLayer
62
256
370
-1
100
AcDbLine
10
89.375
20
4.5
11
95.8104248689
21
4.5
0
LINE
5
596
100
AcDbEntity
8
0
6
ByLayer
62
256
370
-1
100
AcDbLine
10
82.375
20
9
11
82.375
21
11.5
0
LINE
5
597
100
AcDbEntity
8
0
6
ByLayer
62
256
370
-1
100
AcDbLine
10
82.375
20
5.5
11
81.975
21
5.5
0
ARC
5
598
100
AcDbEntity
8
0
6
ByLayer
62
256
370
-1
100
AcDbCircle
10
81.975
20
5.9
40
0.4
100
AcDbArc
50
180
51
270
0
LINE
5
599
100
AcDbEntity
8
0
6
ByLayer
62
256
370
-1
100
AcDbLine
10
81.975
20
9
11
82.375
21
9
0
ARC
5
59A
100
AcDbEntity
8
0
6
ByLayer
62
256
370
-1
100
AcDbCircle
10
81.975
20
8.6
40
0.4
100
AcDbArc
50
90
51
180
0
LINE
5
59B
100
AcDbEntity
8
0
6
ByLayer
62
256
370
-1
100
AcDbLine
10
81.575
20
5.9
11
81.575
21
8.6
0
LINE
5
59C
100
AcDbEntity
8
0
6
ByLayer
62
256
370
-1
100
AcDbLine
10
82.375
20
5.06457513111
11
82.375
21
5.5
0
ARC
5
59D
100
AcDbEntity
8
0
6
ByLayer
62
256
370
-1
100
AcDbCircle
10
82.675
20
4.8
40
0.4
100
AcDbArc
50
138.590377891
51
311.409622108
0
LINE
5
59E
100
AcDbEntity
8
0
6
ByLayer
62
256
370
-1
100
AcDbLine
10
89.375
20
4.5
11
82.9395751311
21
4.5
0
LINE
5
59F
100
AcDbEntity
8
0
6
ByLayer
62
256
370
-1
100
AcDbLine
10
139.125
20
14
11
139.125
21
11.5
0
LINE
5
5A0
100
AcDbEntity
8
0
6
ByLayer
62
256
370
-1
100
AcDbLine
10
139.125
20
17.5
11
139.525
21
17.5
0
ARC
5
5A1
100
AcDbEntity
8
0
6
ByLayer
62
256
370
-1
100
AcDbCircle
10
139.525
20
17.1
40
0.4
100
AcDbArc
50
0
51
90
0
LINE
5
5A2
100
AcDbEntity
8
0
6
ByLayer
62
256
370
-1
100
AcDbLine
10
139.525
20
14
11
139.125
21
14
0
ARC
5
5A3
100
AcDbEntity
8
0
6
ByLayer
62
256
370
-1
100
AcDbCircle
10
139.525
20
14.4
40
0.4
100
AcDbArc
50
270
51
0
0
LINE
5
5A4
100
AcDbEntity
8
0
6
ByLayer
62
256
370
-1
100
AcDbLine
10
139.925
20
17.1
11
139.925
21
14.4
0
LINE
5
5A5
100
AcDbEntity
8
0
6
ByLayer
62
256
370
-1
100
AcDbLine
10
139.125
20
17.9354248689
11
139.125
21
17.5
0
ARC
5
5A6
100
AcDbEntity
8
0
6
ByLayer
62
256
370
-1
100
AcDbCircle
10
138.825
20
18.2
40
0.4
100
AcDbArc
50
318.590377891
51
131.409622108
0
LINE
5
5A7
100
AcDbEntity
8
0
6
ByLayer
62
256
370
-1
100
AcDbLine
10
132.125
20
18.5
11
138.560424869
21
18.5
0
LINE
5
5A8
100
AcDbEntity
8
0
6
ByLayer
62
256
370
-1
100
AcDbLine
10
125.125
20
14
11
125.125
21
11.5
0
LINE
5
5A9
100
AcDbEntity
8
0
6
ByLayer
62
256
370
-1
100
AcDbLine
10
125.125
20
17.5
11
124.725
21
17.5
0
ARC
5
5AA
100
AcDbEntity
8
0
6
ByLayer
62
256
370
-1
100
AcDbCircle
10
124.725
20
17.1
40
0.4
100
AcDbArc
50
90
51
180
0
LINE
5
5AB
100
AcDbEntity
8
0
6
ByLayer
62
256
370
-1
100
AcDbLine
10
124.725
20
14
11
125.125
21
14
0
ARC
5
5AC
100
AcDbEntity
8
0
6
ByLayer
62
256
370
-1
100
AcDbCircle
10
124.725
20
14.4
40
0.4
100
AcDbArc
50
180
51
270
0
LINE
5
5AD
100
AcDbEntity
8
0
6
ByLayer
62
256
370
-1
100
AcDbLine
10
124.325
20
17.1
11
124.325
21
14.4
0
LINE
5
5AE
100
AcDbEntity
8
0
6
ByLayer
62
256
370
-1
100
AcDbLine
10
125.125
20
17.9354248689
11
125.125
21
17.5
0
ARC
5
5AF
100
AcDbEntity
8
0
6
ByLayer
62
256
370
-1
100
AcDbCircle
10
125.425
20
18.2
40
0.4
100
AcDbArc
50
48.5903778923
51
221.409622109
0
LINE
5
5B0
100
AcDbEntity
8
0
6
ByLayer
62
256
370
-1
100
AcDbLine
10
132.125
20
18.5
11
125.689575131
21
18.5
0
LINE
5
5B1
100
AcDbEntity
8
0
6
ByLayer
62
256
370
-1
100
AcDbLine
10
139.125
20
9
11
139.125
21
11.5
0
LINE
5
5B2
100
AcDbEntity
8
0
6
ByLayer
62
256
370
-1
100
AcDbLine
10
139.125
20
5.5
11
139.525
21
5.5
0
ARC
5
5B3
100
AcDbEntity
8
0
6
ByLayer
62
256
370
-1
100
AcDbCircle
10
139.525
20
5.9
40
0.4
100
AcDbArc
50
270
51
0
0
LINE
5
5B4
100
AcDbEntity
8
0
6
ByLayer
62
256
370
-1
100
AcDbLine
10
139.525
20
9
11
139.125
21
9
0
ARC
5
5B5
100
AcDbEntity
8
0
6
ByLayer
62
256
370
-1
100
AcDbCircle
10
139.525
20
8.6
40
0.4
100
AcDbArc
50
0
51
90
0
LINE
5
5B6
100
AcDbEntity
8
0
6
ByLayer
62
256
370
-1
100
AcDbLine
10
139.925
20
5.9
11
139.925
21
8.6
0
LINE
5
5B7
100
AcDbEntity
8
0
6
ByLayer
62
256
370
-1
100
AcDbLine
10
139.125
20
5.06457513111
11
139.125
21
5.5
0
ARC
5
5B8
100
AcDbEntity
8
0
6
ByLayer
62
256
370
-1
100
AcDbCircle
10
138.825
20
4.8
40
0.4
100
AcDbArc
50
228.590377892
51
41.4096221092
0
LINE
5
5B9
100
AcDbEntity
8
0
6
ByLayer
62
256
370
-1
100
AcDbLine
10
132.125
20
4.5
11
138.560424869
21
4.5
0
LINE
5
5BA
100
AcDbEntity
8
0
6
ByLayer
62
256
370
-1
100
AcDbLine
10
125.125
20
9
11
125.125
21
11.5
0
LINE
5
5BB
100
AcDbEntity
8
0
6
ByLayer
62
256
370
-1
100
AcDbLine
10
125.125
20
5.5
11
124.725
21
5.5
0
ARC
5
5BC
100
AcDbEntity
8
0
6
ByLayer
62
256
370
-1
100
AcDbCircle
10
124.725
20
5.9
40
0.4
100
AcDbArc
50
180
51
270
0
LINE
5
5BD
100
AcDbEntity
8
0
6
ByLayer
62
256
370
-1
100
AcDbLine
10
124.725
20
9
11
125.125
21
9
0
ARC
5
5BE
100
AcDbEntity
8
0
6
ByLayer
62
256
370
-1
100
AcDbCircle
10
124.725
20
8.6
40
0.4
100
AcDbArc
50
90
51
180
0
LINE
5
5BF
100
AcDbEntity
8
0
6
ByLayer
62
256
370
-1
100
AcDbLine
10
124.325
20
5.9
11
124.325
21
8.6
0
LINE
5
5C0
100
AcDbEntity
8
0
6
ByLayer
62
256
370
-1
100
AcDbLine
10
125.125
20
5.06457513111
11
125.125
21
5.5
0
ARC
5
5C1
100
AcDbEntity
8
0
6
ByLayer
62
256
370
-1
100
AcDbCircle
10
125.425
20
4.8
40
0.4
100
AcDbArc
50
138.590377891
51
311.409622108
0
LINE
5
5C2
100
AcDbEntity
8
0
6
ByLayer
62
256
370
-1
100
AcDbLine
10
132.125
20
4.5
11
125.689575131
21
4.5
0
LINE
5
5C3
100
AcDbEntity
8
0
6
ByLayer
62
256
370
-1
100
AcDbLine
10
177.125
20
14
11
177.125
21
11.5
0
LINE
5
5C4
100
AcDbEntity
8
0
6
ByLayer
62
256
370
-1
100
AcDbLine
10
177.125
20
17.5
11
177.525
21
17.5
0
ARC
5
5C5
100
AcDbEntity
8
0
6
ByLayer
62
256
370
-1
100
AcDbCircle
10
177.525
20
17.1
40
0.4
100
AcDbArc
50
0
51
90
0
LINE
5
5C6
100
AcDbEntity
8
0
6
ByLayer
62
256
370
-1
100
AcDbLine
10
177.525
20
14
11
177.125
21
14
0
ARC
5
5C7
100
AcDbEntity
8
0
6
ByLayer
62
256
370
-1
100
AcDbCircle
10
177.525
20
14.4
40
0.4
100
AcDbArc
50
270
51
0
0
LINE
5
5C8
100
AcDbEntity
8
0
6
ByLayer
62
256
370
-1
100
AcDbLine
10
177.925
20
17.1
11
177.925
21
14.4
0
LINE
5
5C9
100
AcDbEntity
8
0
6
ByLayer
62
256
370
-1
100
AcDbLine
10
177.125
20
17.9354248689
11
177.125
21
17.5
0
ARC
5
5CA
100
AcDbEntity
8
0
6
ByLayer
62
256
370
-1
100
AcDbCircle
10
176.825
20
18.2
40
0.4
100
AcDbArc
50
318.590377891
51
131.409622108
0
LINE
5
5CB
100
AcDbEntity
8
0
6
ByLayer
62
256
370
-1
100
AcDbLine
10
170.125
20
18.5
11
176.560424869
21
18.5
0
LINE
5
5CC
100
AcDbEntity
8
0
6
ByLayer
62
256
370
-1
100
AcDbLine
10
163.125
20
14
11
163.125
21
11.5
0
LINE
5
5CD
100
AcDbEntity
8
0
6
ByLayer
62
256
370
-1
100
AcDbLine
10
163.125
20
17.5
11
162.725
21
17.5
0
ARC
5
5CE
100
AcDbEntity
8
0
6
ByLayer
62
256
370
-1
100
AcDbCircle
10
162.725
20
17.1
40
0.4
100
AcDbArc
50
90
51
180
0
LINE
5
5CF
100
AcDbEntity
8
0
6
ByLayer
62
256
370
-1
100
AcDbLine
10
162.725
20
14
11
163.125
21
14
0
ARC
5
5D0
100
AcDbEntity
8
0
6
ByLayer
62
256
370
-1
100
AcDbCircle
10
162.725
20
14.4
40
0.4
100
AcDbArc
50
180
51
270
0
LINE
5
5D1
100
AcDbEntity
8
0
6
ByLayer
62
256
370
-1
100
AcDbLine
10
162.325
20
17.1
11
162.325
21
14.4
0
LINE
5
5D2
100
AcDbEntity
8
0
6
ByLayer
62
256
370
-1
100
AcDbLine
10
163.125
20
17.9354248689
11
163.125
21
17.5
0
ARC
5
5D3
100
AcDbEntity
8
0
6
ByLayer
62
256
370
-1
100
AcDbCircle
10
163.425
20
18.2
40
0.4
100
AcDbArc
50
48.5903778923
51
221.409622109
0
LINE
5
5D4
100
AcDbEntity
8
0
6
ByLayer
62
256
370
-1
100
AcDbLine
10
170.125
20
18.5
11
163.689575131
21
18.5
0
LINE
5
5D5
100
AcDbEntity
8
0
6
ByLayer
62
256
370
-1
100
AcDbLine
10
177.125
20
9
11
177.125
21
11.5
0
LINE
5
5D6
100
AcDbEntity
8
0
6
ByLayer
62
256
370
-1
100
AcDbLine
10
177.125
20
5.5
11
177.525
21
5.5
0
ARC
5
5D7
100
AcDbEntity
8
0
6
ByLayer
62
256
370
-1
100
AcDbCircle
10
177.525
20
5.9
40
0.4
100
AcDbArc
50
270
51
0
0
LINE
5
5D8
100
AcDbEntity
8
0
6
ByLayer
62
256
370
-1
100
AcDbLine
10
177.525
20
9
11
177.125
21
9
0
ARC
5
5D9
100
AcDbEntity
8
0
6
ByLayer
62
256
370
-1
100
AcDbCircle
10
177.525
20
8.6
40
0.4
100
AcDbArc
50
0
51
90
0
LINE
5
5DA
100
AcDbEntity
8
0
6
ByLayer
62
256
370
-1
100
AcDbLine
10
177.925
20
5.9
11
177.925
21
8.6
0
LINE
5
5DB
100
AcDbEntity
8
0
6
ByLayer
62
256
370
-1
100
AcDbLine
10
177.125
20
5.06457513111
11
177.125
21
5.5
0
ARC
5
5DC
100
AcDbEntity
8
0
6
ByLayer
62
256
370
-1
100
AcDbCircle
10
176.825
20
4.8
40
0.4
100
AcDbArc
50
228.590377892
51
41.4096221092
0
LINE
5
5DD
100
AcDbEntity
8
0
6
ByLayer
62
256
370
-1
100
AcDbLine
10
170.125
20
4.5
11
176.560424869
21
4.5
0
LINE
5
5DE
100
AcDbEntity
8
0
6
ByLayer
62
256
370
-1
100
AcDbLine
10
163.125
20
9
11
163.125
21
11.5
0
LINE
5
5DF
100
AcDbEntity
8
0
6
ByLayer
62
256
370
-1
100
AcDbLine
10
163.125
20
5.5
11
162.725
21
5.5
0
ARC
5
5E0
100
AcDbEntity
8
0
6
ByLayer
62
256
370
-1
100
AcDbCircle
10
162.725
20
5.9
40
0.4
100
AcDbArc
50
180
51
270
0
LINE
5
5E1
100
AcDbEntity
8
0
6
ByLayer
62
256
370
-1
100
AcDbLine
10
162.725
20
9
11
163.125
21
9
0
ARC
5
5E2
100
AcDbEntity
8
0
6
ByLayer
62
256
370
-1
100
AcDbCircle
10
162.725
20
8.6
40
0.4
100
AcDbArc
50
90
51
180
0
LINE
5
5E3
100
AcDbEntity
8
0
6
ByLayer
62
256
370
-1
100
AcDbLine
10
162.325
20
5.9
11
162.325
21
8.6
0
LINE
5
5E4
100
AcDbEntity
8
0
6
ByLayer
62
256
370
-1
100
AcDbLine
10
163.125
20
5.06457513111
11
163.125
21
5.5
0
ARC
5
5E5
100
AcDbEntity
8
0
6
ByLayer
62
256
370
-1
100
AcDbCircle
10
163.425
20
4.8
40
0.4
100
AcDbArc
50
138.590377891
51
311.409622108
0
LINE
5
5E6
100
AcDbEntity
8
0
6
ByLayer
62
256
370
-1
100
AcDbLine
10
170.125
20
4.5
11
163.689575131
21
4.5
0
LINE
5
5E7
100
AcDbEntity
8
0
6
ByLayer
62
256
370
-1
100
AcDbLine
10
200.875
20
14
11
200.875
21
11.5
0
LINE
5
5E8
100
AcDbEntity
8
0
6
ByLayer
62
256
370
-1
100
AcDbLine
10
200.875
20
17.5
11
201.275
21
17.5
0
ARC
5
5E9
100
AcDbEntity
8
0
6
ByLayer
62
256
370
-1
100
AcDbCircle
10
201.275
20
17.1
40
0.4
100
AcDbArc
50
0
51
90
0
LINE
5
5EA
100
AcDbEntity
8
0
6
ByLayer
62
256
370
-1
100
AcDbLine
10
201.275
20
14
11
200.875
21
14
0
ARC
5
5EB
100
AcDbEntity
8
0
6
ByLayer
62
256
370
-1
100
AcDbCircle
10
201.275
20
14.4
40
0.4
100
AcDbArc
50
270
51
0
0
LINE
5
5EC
100
AcDbEntity
8
0
6
ByLayer
62
256
370
-1
100
AcDbLine
10
201.675
20
17.1
11
201.675
21
14.4
0
LINE
5
5ED
100
AcDbEntity
8
0
6
ByLayer
62
256
370
-1
100
AcDbLine
10
200.875
20
17.9354248689
11
200.875
21
17.5
0
ARC
5
5EE
100
AcDbEntity
8
0
6
ByLayer
62
256
370
-1
100
AcDbCircle
10
200.575
20
18.2
40
0.4
100
AcDbArc
50
318.590377891
51
131.409622108
0
LINE
5
5EF
100
AcDbEntity
8
0
6
ByLayer
62
256
370
-1
100
AcDbLine
10
193.875
20
18.5
11
200.310424869
21
18.5
0
LINE
5
5F0
100
AcDbEntity
8
0
6
ByLayer
62
256
370
-1
100
AcDbLine
10
186.875
20
14
11
186.875
21
11.5
0
LINE
5
5F1
100
AcDbEntity
8
0
6
ByLayer
62
256
370
-1
100
AcDbLine
10
186.875
20
17.5
11
186.475
21
17.5
0
ARC
5
5F2
100
AcDbEntity
8
0
6
ByLayer
62
256
370
-1
100
AcDbCircle
10
186.475
20
17.1
40
0.4
100
AcDbArc
50
90
51
180
0
LINE
5
5F3
100
AcDbEntity
8
0
6
ByLayer
62
256
370
-1
100
AcDbLine
10
186.475
20
14
11
186.875
21
14
0
ARC
5
5F4
100
AcDbEntity
8
0
6
ByLayer
62
256
370
-1
100
AcDbCircle
10
186.475
20
14.4
40
0.4
100
AcDbArc
50
180
51
270
0
LINE
5
5F5
100
AcDbEntity
8
0
6
ByLayer
62
256
370
-1
100
AcDbLine
10
186.075
20
17.1
11
186.075
21
14.4
0
LINE
5
5F6
100
AcDbEntity
8
0
6
ByLayer
62
256
370
-1
100
AcDbLine
10
186.875
20
17.9354248689
11
186.875
21
17.5
0
ARC
5
5F7
100
AcDbEntity
8
0
6
ByLayer
62
256
370
-1
100
AcDbCircle
10
187.175
20
18.2
40
0.4
100
AcDbArc
50
48.5903778923
51
221.409622109
0
LINE
5
5F8
100
AcDbEntity
8
0
6
ByLayer
62
256
370
-1
100
AcDbLine
10
193.875
20
18.5
11
187.439575131
21
18.5
0
LINE
5
5F9
100
AcDbEntity
8
0
6
ByLayer
62
256
370
-1
100
AcDbLine
10
200.875
20
9
11
200.875
21
11.5
0
LINE
5
5FA
100
AcDbEntity
8
0
6
ByLayer
62
256
370
-1
100
AcDbLine
10
200.875
20
5.5
11
201.275
21
5.5
0
ARC
5
5FB
100
AcDbEntity
8
0
6
ByLayer
62
256
370
-1
100
AcDbCircle
10
201.275
20
5.9
40
0.4
100
AcDbArc
50
270
51
0
0
LINE
5
5FC
100
AcDbEntity
8
0
6
ByLayer
62
256
370
-1
100
AcDbLine
10
201.275
20
9
11
200.875
21
9
0
ARC
5
5FD
100
AcDbEntity
8
0
6
ByLayer
62
256
370
-1
100
AcDbCircle
10
201.275
20
8.6
40
0.4
100
AcDbArc
50
0
51
90
0
LINE
5
5FE
100
AcDbEntity
8
0
6
ByLayer
62
256
370
-1
100
AcDbLine
10
201.675
20
5.9
11
201.675
21
8.6
0
LINE
5
5FF
100
AcDbEntity
8
0
6
ByLayer
62
256
370
-1
100
AcDbLine
10
200.875
20
5.06457513111
11
200.875
21
5.5
0
ARC
5
600
100
AcDbEntity
8
0
6
ByLayer
62
256
370
-1
100
AcDbCircle
10
200.575
20
4.8
40
0.4
100
AcDbArc
50
228.590377892
51
41.4096221092
0
LINE
5
601
100
AcDbEntity
8
0
6
ByLayer
62
256
370
-1
100
AcDbLine
10
193.875
20
4.5
11
200.310424869
21
4.5
0
LINE
5
602
100
AcDbEntity
8
0
6
ByLayer
62
256
370
-1
100
AcDbLine
10
186.875
20
9
11
186.875
21
11.5
0
LINE
5
603
100
AcDbEntity
8
0
6
ByLayer
62
256
370
-1
100
AcDbLine
10
186.875
20
5.5
11
186.475
21
5.5
0
ARC
5
604
100
AcDbEntity
8
0
6
ByLayer
62
256
370
-1
100
AcDbCircle
10
186.475
20
5.9
40
0.4
100
AcDbArc
50
180
51
270
0
LINE
5
605
100
AcDbEntity
8
0
6
ByLayer
62
256
370
-1
100
AcDbLine
10
186.475
20
9
11
186.875
21
9
0
ARC
5
606
100
AcDbEntity
8
0
6
ByLayer
62
256
370
-1
100
AcDbCircle
10
186.475
20
8.6
40
0.4
100
AcDbArc
50
90
51
180
0
LINE
5
607
100
AcDbEntity
8
0
6
ByLayer
62
256
370
-1
100
AcDbLine
10
186.075
20
5.9
11
186.075
21
8.6
0
LINE
5
608
100
AcDbEntity
8
0
6
ByLayer
62
256
370
-1
100
AcDbLine
10
186.875
20
5.06457513111
11
186.875
21
5.5
0
ARC
5
609
100
AcDbEntity
8
0
6
ByLayer
62
256
370
-1
100
AcDbCircle
10
187.175
20
4.8
40
0.4
100
AcDbArc
50
138.590377891
51
311.409622108
0
LINE
5
60A
100
AcDbEntity
8
0
6
ByLayer
62
256
370
-1
100
AcDbLine
10
193.875
20
4.5
11
187.439575131
21
4.5
0
LINE
5
60B
100
AcDbEntity
8
0
6
ByLayer
62
256
370
-1
100
AcDbLine
10
224.625
20
14
11
224.625
21
11.5
0
LINE
5
60C
100
AcDbEntity
8
0
6
ByLayer
62
256
370
-1
100
AcDbLine
10
224.625
20
17.5
11
225.025
21
17.5
0
ARC
5
60D
100
AcDbEntity
8
0
6
ByLayer
62
256
370
-1
100
AcDbCircle
10
225.025
20
17.1
40
0.4
100
AcDbArc
50
0
51
90
0
LINE
5
60E
100
AcDbEntity
8
0
6
ByLayer
62
256
370
-1
100
AcDbLine
10
225.025
20
14
11
224.625
21
14
0
ARC
5
60F
100
AcDbEntity
8
0
6
ByLayer
62
256
370
-1
100
AcDbCircle
10
225.025
20
14.4
40
0.4
100
AcDbArc
50
270
51
0
0
LINE
5
610
100
AcDbEntity
8
0
6
ByLayer
62
256
370
-1
100
AcDbLine
10
225.425
20
17.1
11
225.425
21
14.4
0
LINE
5
611
100
AcDbEntity
8
0
6
ByLayer
62
256
370
-1
100
AcDbLine
10
224.625
20
17.9354248689
11
224.625
21
17.5
0
ARC
5
612
100
AcDbEntity
8
0
6
ByLayer
62
256
370
-1
100
AcDbCircle
10
224.325
20
18.2
40
0.4
100
AcDbArc
50
318.590377891
51
131.409622108
0
LINE
5
613
100
AcDbEntity
8
0
6
ByLayer
62
256
370
-1
100
AcDbLine
10
217.625
20
18.5
11
224.060424869
21
18.5
0
LINE
5
614
100
AcDbEntity
8
0
6
ByLayer
62
256
370
-1
100
AcDbLine
10
210.625
20
14
11
210.625
21
11.5
0
LINE
5
615
100
AcDbEntity
8
0
6
ByLayer
62
256
370
-1
100
AcDbLine
10
210.625
20
17.5
11
210.225
21
17.5
0
ARC
5
616
100
AcDbEntity
8
0
6
ByLayer
62
256
370
-1
100
AcDbCircle
10
210.225
20
17.1
40
0.4
100
AcDbArc
50
90
51
180
0
LINE
5
617
100
AcDbEntity
8
0
6
ByLayer
62
256
370
-1
100
AcDbLine
10
210.225
20
14
11
210.625
21
14
0
ARC
5
618
100
AcDbEntity
8
0
6
ByLayer
62
256
370
-1
100
AcDbCircle
10
210.225
20
14.4
40
0.4
100
AcDbArc
50
180
51
270
0
LINE
5
619
100
AcDbEntity
8
0
6
ByLayer
62
256
370
-1
100
AcDbLine
10
209.825
20
17.1
11
209.825
21
14.4
0
LINE
5
61A
100
AcDbEntity
8
0
6
ByLayer
62
256
370
-1
100
AcDbLine
10
210.625
20
17.9354248689
11
210.625
21
17.5
0
ARC
5
61B
100
AcDbEntity
8
0
6
ByLayer
62
256
370
-1
100
AcDbCircle
10
210.925
20
18.2
40
0.4
100
AcDbArc
50
48.5903778923
51
221.409622109
0
LINE
5
61C
100
AcDbEntity
8
0
6
ByLayer
62
256
370
-1
100
AcDbLine
10
217.625
20
18.5
11
211.189575131
21
18.5
0
LINE
5
61D
100
AcDbEntity
8
0
6
ByLayer
62
256
370
-1
100
AcDbLine
10
224.625
20
9
11
224.625
21
11.5
0
LINE
5
61E
100
AcDbEntity
8
0
6
ByLayer
62
256
370
-1
100
AcDbLine
10
224.625
20
5.5
11
225.025
21
5.5
0
ARC
5
61F
100
AcDbEntity
8
0
6
ByLayer
62
256
370
-1
100
AcDbCircle
10
225.025
20
5.9
40
0.4
100
AcDbArc
50
270
51
0
0
LINE
5
620
100
AcDbEntity
8
0
6
ByLayer
62
256
370
-1
100
AcDbLine
10
225.025
20
9
11
224.625
21
9
0
ARC
5
621
100
AcDbEntity
8
0
6
ByLayer
62
256
370
-1
100
AcDbCircle
10
225.025
20
8.6
40
0.4
100
AcDbArc
50
0
51
90
0
LINE
5
622
100
AcDbEntity
8
0
6
ByLayer
62
256
370
-1
100
AcDbLine
10
225.425
20
5.9
11
225.425
21
8.6
0
LINE
5
623
100
AcDbEntity
8
0
6
ByLayer
62
256
370
-1
100
AcDbLine
10
224.625
20
5.06457513111
11
224.625
21
5.5
0
ARC
5
624
100
AcDbEntity
8
0
6
ByLayer
62
256
370
-1
100
AcDbCircle
10
224.325
20
4.8
40
0.4
100
AcDbArc
50
228.590377892
51
41.4096221092
0
LINE
5
625
100
AcDbEntity
8
0
6
ByLayer
62
256
370
-1
100
AcDbLine
10
217.625
20
4.5
11
224.060424869
21
4.5
0
LINE
5
626
100
AcDbEntity
8
0
6
ByLayer
62
256
370
-1
100
AcDbLine
10
210.625
20
9
11
210.625
21
11.5
0
LINE
5
627
100
AcDbEntity
8
0
6
ByLayer
62
256
370
-1
100
AcDbLine
10
210.625
20
5.5
11
210.225
21
5.5
0
ARC
5
628
100
AcDbEntity
8
0
6
ByLayer
62
256
370
-1
100
AcDbCircle
10
210.225
20
5.9
40
0.4
100
AcDbArc
50
180
51
270
0
LINE
5
629
100
AcDbEntity
8
0
6
ByLayer
62
256
370
-1
100
AcDbLine
10
210.225
20
9
11
210.625
21
9
0
ARC
5
62A
100
AcDbEntity
8
0
6
ByLayer
62
256
370
-1
100
AcDbCircle
10
210.225
20
8.6
40
0.4
100
AcDbArc
50
90
51
180
0
LINE
5
62B
100
AcDbEntity
8
0
6
ByLayer
62
256
370
-1
100
AcDbLine
10
209.825
20
5.9
11
209.825
21
8.6
0
LINE
5
62C
100
AcDbEntity
8
0
6
ByLayer
62
256
370
-1
100
AcDbLine
10
210.625
20
5.06457513111
11
210.625
21
5.5
0
ARC
5
62D
100
AcDbEntity
8
0
6
ByLayer
62
256
370
-1
100
AcDbCircle
10
210.925
20
4.8
40
0.4
100
AcDbArc
50
138.590377891
51
311.409622108
0
LINE
5
62E
100
AcDbEntity
8
0
6
ByLayer
62
256
370
-1
100
AcDbLine
10
217.625
20
4.5
11
211.189575131
21
4.5
0
LINE
5
62F
100
AcDbEntity
8
0
6
ByLayer
62
256
370
-1
100
AcDbLine
10
246
20
14
11
246
21
11.5
0
LINE
5
630
100
AcDbEntity
8
0
6
ByLayer
62
256
370
-1
100
AcDbLine
10
246
20
17.5
11
246.4
21
17.5
0
ARC
5
631
100
AcDbEntity
8
0
6
ByLayer
62
256
370
-1
100
AcDbCircle
10
246.4
20
17.1
40
0.4
100
AcDbArc
50
0
51
90
0
LINE
5
632
100
AcDbEntity
8
0
6
ByLayer
62
256
370
-1
100
AcDbLine
10
246.4
20
14
11
246
21
14
0
ARC
5
633
100
AcDbEntity
8
0
6
ByLayer
62
256
370
-1
100
AcDbCircle
10
246.4
20
14.4
40
0.4
100
AcDbArc
50
270
51
0
0
LINE
5
634
100
AcDbEntity
8
0
6
ByLayer
62
256
370
-1
100
AcDbLine
10
246.8
20
17.1
11
246.8
21
14.4
0
LINE
5
635
100
AcDbEntity
8
0
6
ByLayer
62
256
370
-1
100
AcDbLine
10
246
20
17.9354248689
11
246
21
17.5
0
ARC
5
636
100
AcDbEntity
8
0
6
ByLayer
62
256
370
-1
100
AcDbCircle
10
245.7
20
18.2
40
0.4
100
AcDbArc
50
318.590377891
51
131.409622108
0
LINE
5
637
100
AcDbEntity
8
0
6
ByLayer
62
256
370
-1
100
AcDbLine
10
239
20
18.5
11
245.435424869
21
18.5
0
LINE
5
638
100
AcDbEntity
8
0
6
ByLayer
62
256
370
-1
100
AcDbLine
10
232
20
14
11
232
21
11.5
0
LINE
5
639
100
AcDbEntity
8
0
6
ByLayer
62
256
370
-1
100
AcDbLine
10
232
20
17.5
11
231.6
21
17.5
0
ARC
5
63A
100
AcDbEntity
8
0
6
ByLayer
62
256
370
-1
100
AcDbCircle
10
231.6
20
17.1
40
0.4
100
AcDbArc
50
90
51
180
0
LINE
5
63B
100
AcDbEntity
8
0
6
ByLayer
62
256
370
-1
100
AcDbLine
10
231.6
20
14
11
232
21
14
0
ARC
5
63C
100
AcDbEntity
8
0
6
ByLayer
62
256
370
-1
100
AcDbCircle
10
231.6
20
14.4
40
0.4
100
AcDbArc
50
180
51
270
0
LINE
5
63D
100
AcDbEntity
8
0
6
ByLayer
62
256
370
-1
100
AcDbLine
10
231.2
20
17.1
11
231.2
21
14.4
0
LINE
5
63E
100
AcDbEntity
8
0
6
ByLayer
62
256
370
-1
100
AcDbLine
10
232
20
17.9354248689
11
232
21
17.5
0
ARC
5
63F
100
AcDbEntity
8
0
6
ByLayer
62
256
370
-1
100
AcDbCircle
10
232.3
20
18.2
40
0.4
100
AcDbArc
50
48.5903778923
51
221.409622109
0
LINE
5
640
100
AcDbEntity
8
0
6
ByLayer
62
256
370
-1
100
AcDbLine
10
239
20
18.5
11
232.564575131
21
18.5
0
LINE
5
641
100
AcDbEntity
8
0
6
ByLayer
62
256
370
-1
100
AcDbLine
10
246
20
9
11
246
21
11.5
0
LINE
5
642
100
AcDbEntity
8
0
6
ByLayer
62
256
370
-1
100
AcDbLine
10
246
20
5.5
11
246.4
21
5.5
0
ARC
5
643
100
AcDbEntity
8
0
6
ByLayer
62
256
370
-1
100
AcDbCircle
10
246.4
20
5.9
40
0.4
100
AcDbArc
50
270
51
0
0
LINE
5
644
100
AcDbEntity
8
0
6
ByLayer
62
256
370
-1
100
AcDbLine
10
246.4
20
9
11
246
21
9
0
ARC
5
645
100
AcDbEntity
8
0
6
ByLayer
62
256
370
-1
100
AcDbCircle
10
246.4
20
8.6
40
0.4
100
AcDbArc
50
0
51
90
0
LINE
5
646
100
AcDbEntity
8
0
6
ByLayer
62
256
370
-1
100
AcDbLine
10
246.8
20
5.9
11
246.8
21
8.6
0
LINE
5
647
100
AcDbEntity
8
0
6
ByLayer
62
256
370
-1
100
AcDbLine
10
246
20
5.06457513111
11
246
21
5.5
0
ARC
5
648
100
AcDbEntity
8
0
6
ByLayer
62
256
370
-1
100
AcDbCircle
10
245.7
20
4.8
40
0.4
100
AcDbArc
50
228.590377892
51
41.4096221092
0
LINE
5
649
100
AcDbEntity
8
0
6
ByLayer
62
256
370
-1
100
AcDbLine
10
239
20
4.5
11
245.435424869
21
4.5
0
LINE
5
64A
100
AcDbEntity
8
0
6
ByLayer
62
256
370
-1
100
AcDbLine
10
232
20
9
11
232
21
11.5
0
LINE
5
64B
100
AcDbEntity
8
0
6
ByLayer
62
256
370
-1
100
AcDbLine
10
232
20
5.5
11
231.6
21
5.5
0
ARC
5
64C
100
AcDbEntity
8
0
6
ByLayer
62
256
370
-1
100
AcDbCircle
10
231.6
20
5.9
40
0.4
100
AcDbArc
50
180
51
270
0
LINE
5
64D
100
AcDbEntity
8
0
6
ByLayer
62
256
370
-1
100
AcDbLine
10
231.6
20
9
11
232
21
9
0
ARC
5
64E
100
AcDbEntity
8
0
6
ByLayer
62
256
370
-1
100
AcDbCircle
10
231.6
20
8.6
40
0.4
100
AcDbArc
50
90
51
180
0
LINE
5
64F
100
AcDbEntity
8
0
6
ByLayer
62
256
370
-1
100
AcDbLine
10
231.2
20
5.9
11
231.2
21
8.6
0
LINE
5
650
100
AcDbEntity
8
0
6
ByLayer
62
256
370
-1
100
AcDbLine
10
232
20
5.06457513111
11
232
21
5.5
0
ARC
5
651
100
AcDbEntity
8
0
6
ByLayer
62
256
370
-1
100
AcDbCircle
10
232.3
20
4.8
40
0.4
100
AcDbArc
50
138.590377891
51
311.409622108
0
LINE
5
652
100
AcDbEntity
8
0
6
ByLayer
62
256
370
-1
100
AcDbLine
10
239
20
4.5
11
232.564575131
21
4.5
0
LINE
5
653
100
AcDbEntity
8
0
6
ByLayer
62
256
370
-1
100
AcDbLine
10
246
20
33
11
246
21
30.5
0
LINE
5
654
100
AcDbEntity
8
0
6
ByLayer
62
256
370
-1
100
AcDbLine
10
246
20
36.5
11
246.4
21
36.5
0
ARC
5
655
100
AcDbEntity
8
0
6
ByLayer
62
256
370
-1
100
AcDbCircle
10
246.4
20
36.1
40
0.4
100
AcDbArc
50
0
51
90
0
LINE
5
656
100
AcDbEntity
8
0
6
ByLayer
62
256
370
-1
100
AcDbLine
10
246.4
20
33
11
246
21
33
0
ARC
5
657
100
AcDbEntity
8
0
6
ByLayer
62
256
370
-1
100
AcDbCircle
10
246.4
20
33.4
40
0.4
100
AcDbArc
50
270
51
0
0
LINE
5
658
100
AcDbEntity
8
0
6
ByLayer
62
256
370
-1
100
AcDbLine
10
246.8
20
36.1
11
246.8
21
33.4
0
LINE
5
659
100
AcDbEntity
8
0
6
ByLayer
62
256
370
-1
100
AcDbLine
10
246
20
36.9354248689
11
246
21
36.5
0
ARC
5
65A
100
AcDbEntity
8
0
6
ByLayer
62
256
370
-1
100
AcDbCircle
10
245.7
20
37.2
40
0.4
100
AcDbArc
50
318.590377891
51
131.409622108
0
LINE
5
65B
100
AcDbEntity
8
0
6
ByLayer
62
256
370
-1
100
AcDbLine
10
239
20
37.5
11
245.435424869
21
37.5
0
LINE
5
65C
100
AcDbEntity
8
0
6
ByLayer
62
256
370
-1
100
AcDbLine
10
232
20
33
11
232
21
30.5
0
LINE
5
65D
100
AcDbEntity
8
0
6
ByLayer
62
256
370
-1
100
AcDbLine
10
232
20
36.5
11
231.6
21
36.5
0
ARC
5
65E
100
AcDbEntity
8
0
6
ByLayer
62
256
370
-1
100
AcDbCircle
10
231.6
20
36.1
40
0.4
100
AcDbArc
50
90
51
180
0
LINE
5
65F
100
AcDbEntity
8
0
6
ByLayer
62
256
370
-1
100
AcDbLine
10
231.6
20
33
11
232
21
33
0
ARC
5
660
100
AcDbEntity
8
0
6
ByLayer
62
256
370
-1
100
AcDbCircle
10
231.6
20
33.4
40
0.4
100
AcDbArc
50
180
51
270
0
LINE
5
661
100
AcDbEntity
8
0
6
ByLayer
62
256
370
-1
100
AcDbLine
10
231.2
20
36.1
11
231.2
21
33.4
0
LINE
5
662
100
AcDbEntity
8
0
6
ByLayer
62
256
370
-1
100
AcDbLine
10
232
20
36.9354248689
11
232
21
36.5
0
ARC
5
663
100
AcDbEntity
8
0
6
ByLayer
62
256
370
-1
100
AcDbCircle
10
232.3
20
37.2
40
0.4
100
AcDbArc
50
48.5903778923
51
221.409622109
0
LINE
5
664
100
AcDbEntity
8
0
6
ByLayer
62
256
370
-1
100
AcDbLine
10
239
20
37.5
11
232.564575131
21
37.5
0
LINE
5
665
100
AcDbEntity
8
0
6
ByLayer
62
256
370
-1
100
AcDbLine
10
246
20
28
11
246
21
30.5
0
LINE
5
666
100
AcDbEntity
8
0
6
ByLayer
62
256
370
-1
100
AcDbLine
10
246
20
24.5
11
246.4
21
24.5
0
ARC
5
667
100
AcDbEntity
8
0
6
ByLayer
62
256
370
-1
100
AcDbCircle
10
246.4
20
24.9
40
0.4
100
AcDbArc
50
270
51
0
0
LINE
5
668
100
AcDbEntity
8
0
6
ByLayer
62
256
370
-1
100
AcDbLine
10
246.4
20
28
11
246
21
28
0
ARC
5
669
100
AcDbEntity
8
0
6
ByLayer
62
256
370
-1
100
AcDbCircle
10
246.4
20
27.6
40
0.4
100
AcDbArc
50
0
51
90
0
LINE
5
66A
100
AcDbEntity
8
0
6
ByLayer
62
256
370
-1
100
AcDbLine
10
246.8
20
24.9
11
246.8
21
27.6
0
LINE
5
66B
100
AcDbEntity
8
0
6
ByLayer
62
256
370
-1
100
AcDbLine
10
246
20
24.0645751311
11
246
21
24.5
0
ARC
5
66C
100
AcDbEntity
8
0
6
ByLayer
62
256
370
-1
100
AcDbCircle
10
245.7
20
23.8
40
0.4
100
AcDbArc
50
228.590377892
51
41.4096221092
0
LINE
5
66D
100
AcDbEntity
8
0
6
ByLayer
62
256
370
-1
100
AcDbLine
10
239
20
23.5
11
245.435424869
21
23.5
0
LINE
5
66E
100
AcDbEntity
8
0
6
ByLayer
62
256
370
-1
100
AcDbLine
10
232
20
28
11
232
21
30.5
0
LINE
5
66F
100
AcDbEntity
8
0
6
ByLayer
62
256
370
-1
100
AcDbLine
10
232
20
24.5
11
231.6
21
24.5
0
ARC
5
670
100
AcDbEntity
8
0
6
ByLayer
62
256
370
-1
100
AcDbCircle
10
231.6
20
24.9
40
0.4
100
AcDbArc
50
180
51
270
0
LINE
5
671
100
AcDbEntity
8
0
6
ByLayer
62
256
370
-1
100
AcDbLine
10
231.6
20
28
11
232
21
28
0
ARC
5
672
100
AcDbEntity
8
0
6
ByLayer
62
256
370
-1
100
AcDbCircle
10
231.6
20
27.6
40
0.4
100
AcDbArc
50
90
51
180
0
LINE
5
673
100
AcDbEntity
8
0
6
ByLayer
62
256
370
-1
100
AcDbLine
10
231.2
20
24.9
11
231.2
21
27.6
0
LINE
5
674
100
AcDbEntity
8
0
6
ByLayer
62
256
370
-1
100
AcDbLine
10
232
20
24.0645751311
11
232
21
24.5
0
ARC
5
675
100
AcDbEntity
8
0
6
ByLayer
62
256
370
-1
100
AcDbCircle
10
232.3
20
23.8
40
0.4
100
AcDbArc
50
138.590377891
51
311.409622108
0
LINE
5
676
100
AcDbEntity
8
0
6
ByLayer
62
256
370
-1
100
AcDbLine
10
239
20
23.5
11
232.564575131
21
23.5
0
LINE
5
677
100
AcDbEntity
8
0
6
ByLayer
62
256
370
-1
100
AcDbLine
10
222.25
20
33
11
222.25
21
30.5
0
LINE
5
678
100
AcDbEntity
8
0
6
ByLayer
62
256
370
-1
100
AcDbLine
10
222.25
20
36.5
11
222.65
21
36.5
0
ARC
5
679
100
AcDbEntity
8
0
6
ByLayer
62
256
370
-1
100
AcDbCircle
10
222.65
20
36.1
40
0.4
100
AcDbArc
50
0
51
90
0
LINE
5
67A
100
AcDbEntity
8
0
6
ByLayer
62
256
370
-1
100
AcDbLine
10
222.65
20
33
11
222.25
21
33
0
ARC
5
67B
100
AcDbEntity
8
0
6
ByLayer
62
256
370
-1
100
AcDbCircle
10
222.65
20
33.4
40
0.4
100
AcDbArc
50
270
51
0
0
LINE
5
67C
100
AcDbEntity
8
0
6
ByLayer
62
256
370
-1
100
AcDbLine
10
223.05
20
36.1
11
223.05
21
33.4
0
LINE
5
67D
100
AcDbEntity
8
0
6
ByLayer
62
256
370
-1
100
AcDbLine
10
222.25
20
36.9354248689
11
222.25
21
36.5
0
ARC
5
67E
100
AcDbEntity
8
0
6
ByLayer
62
256
370
-1
100
AcDbCircle
10
221.95
20
37.2
40
0.4
100
AcDbArc
50
318.590377891
51
131.409622108
0
LINE
5
67F
100
AcDbEntity
8
0
6
ByLayer
62
256
370
-1
100
AcDbLine
10
215.25
20
37.5
11
221.685424869
21
37.5
0
LINE
5
680
100
AcDbEntity
8
0
6
ByLayer
62
256
370
-1
100
AcDbLine
10
208.25
20
33
11
208.25
21
30.5
0
LINE
5
681
100
AcDbEntity
8
0
6
ByLayer
62
256
370
-1
100
AcDbLine
10
208.25
20
36.5
11
207.85
21
36.5
0
ARC
5
682
100
AcDbEntity
8
0
6
ByLayer
62
256
370
-1
100
AcDbCircle
10
207.85
20
36.1
40
0.4
100
AcDbArc
50
90
51
180
0
LINE
5
683
100
AcDbEntity
8
0
6
ByLayer
62
256
370
-1
100
AcDbLine
10
207.85
20
33
11
208.25
21
33
0
ARC
5
684
100
AcDbEntity
8
0
6
ByLayer
62
256
370
-1
100
AcDbCircle
10
207.85
20
33.4
40
0.4
100
AcDbArc
50
180
51
270
0
LINE
5
685
100
AcDbEntity
8
0
6
ByLayer
62
256
370
-1
100
AcDbLine
10
207.45
20
36.1
11
207.45
21
33.4
0
LINE
5
686
100
AcDbEntity
8
0
6
ByLayer
62
256
370
-1
100
AcDbLine
10
208.25
20
36.9354248689
11
208.25
21
36.5
0
ARC
5
687
100
AcDbEntity
8
0
6
ByLayer
62
256
370
-1
100
AcDbCircle
10
208.55
20
37.2
40
0.4
100
AcDbArc
50
48.5903778923
51
221.409622109
0
LINE
5
688
100
AcDbEntity
8
0
6
ByLayer
62
256
370
-1
100
AcDbLine
10
215.25
20
37.5
11
208.814575131
21
37.5
0
LINE
5
689
100
AcDbEntity
8
0
6
ByLayer
62
256
370
-1
100
AcDbLine
10
222.25
20
28
11
222.25
21
30.5
0
LINE
5
68A
100
AcDbEntity
8
0
6
ByLayer
62
256
370
-1
100
AcDbLine
10
222.25
20
24.5
11
222.65
21
24.5
0
ARC
5
68B
100
AcDbEntity
8
0
6
ByLayer
62
256
370
-1
100
AcDbCircle
10
222.65
20
24.9
40
0.4
100
AcDbArc
50
270
51
0
0
LINE
5
68C
100
AcDbEntity
8
0
6
ByLayer
62
256
370
-1
100
AcDbLine
10
222.65
20
28
11
222.25
21
28
0
ARC
5
68D
100
AcDbEntity
8
0
6
ByLayer
62
256
370
-1
100
AcDbCircle
10
222.65
20
27.6
40
0.4
100
AcDbArc
50
0
51
90
0
LINE
5
68E
100
AcDbEntity
8
0
6
ByLayer
62
256
370
-1
100
AcDbLine
10
223.05
20
24.9
11
223.05
21
27.6
0
LINE
5
68F
100
AcDbEntity
8
0
6
ByLayer
62
256
370
-1
100
AcDbLine
10
222.25
20
24.0645751311
11
222.25
21
24.5
0
ARC
5
690
100
AcDbEntity
8
0
6
ByLayer
62
256
370
-1
100
AcDbCircle
10
221.95
20
23.8
40
0.4
100
AcDbArc
50
228.590377892
51
41.4096221092
0
LINE
5
691
100
AcDbEntity
8
0
6
ByLayer
62
256
370
-1
100
AcDbLine
10
215.25
20
23.5
11
221.685424869
21
23.5
0
LINE
5
692
100
AcDbEntity
8
0
6
ByLayer
62
256
370
-1
100
AcDbLine
10
208.25
20
28
11
208.25
21
30.5
0
LINE
5
693
100
AcDbEntity
8
0
6
ByLayer
62
256
370
-1
100
AcDbLine
10
208.25
20
24.5
11
207.85
21
24.5
0
ARC
5
694
100
AcDbEntity
8
0
6
ByLayer
62
256
370
-1
100
AcDbCircle
10
207.85
20
24.9
40
0.4
100
AcDbArc
50
180
51
270
0
LINE
5
695
100
AcDbEntity
8
0
6
ByLayer
62
256
370
-1
100
AcDbLine
10
207.85
20
28
11
208.25
21
28
0
ARC
5
696
100
AcDbEntity
8
0
6
ByLayer
62
256
370
-1
100
AcDbCircle
10
207.85
20
27.6
40
0.4
100
AcDbArc
50
90
51
180
0
LINE
5
697
100
AcDbEntity
8
0
6
ByLayer
62
256
370
-1
100
AcDbLine
10
207.45
20
24.9
11
207.45
21
27.6
0
LINE
5
698
100
AcDbEntity
8
0
6
ByLayer
62
256
370
-1
100
AcDbLine
10
208.25
20
24.0645751311
11
208.25
21
24.5
0
ARC
5
699
100
AcDbEntity
8
0
6
ByLayer
62
256
370
-1
100
AcDbCircle
10
208.55
20
23.8
40
0.4
100
AcDbArc
50
138.590377891
51
311.409622108
0
LINE
5
69A
100
AcDbEntity
8
0
6
ByLayer
62
256
370
-1
100
AcDbLine
10
215.25
20
23.5
11
208.814575131
21
23.5
0
LINE
5
69B
100
AcDbEntity
8
0
6
ByLayer
62
256
370
-1
100
AcDbLine
10
238.875
20
52
11
238.875
21
49.5
0
LINE
5
69C
100
AcDbEntity
8
0
6
ByLayer
62
256
370
-1
100
AcDbLine
10
238.875
20
55.5
11
239.275
21
55.5
0
ARC
5
69D
100
AcDbEntity
8
0
6
ByLayer
62
256
370
-1
100
AcDbCircle
10
239.275
20
55.1
40
0.4
100
AcDbArc
50
0
51
90
0
LINE
5
69E
100
AcDbEntity
8
0
6
ByLayer
62
256
370
-1
100
AcDbLine
10
239.275
20
52
11
238.875
21
52
0
ARC
5
69F
100
AcDbEntity
8
0
6
ByLayer
62
256
370
-1
100
AcDbCircle
10
239.275
20
52.4
40
0.4
100
AcDbArc
50
270
51
0
0
LINE
5
6A0
100
AcDbEntity
8
0
6
ByLayer
62
256
370
-1
100
AcDbLine
10
239.675
20
55.1
11
239.675
21
52.4
0
LINE
5
6A1
100
AcDbEntity
8
0
6
ByLayer
62
256
370
-1
100
AcDbLine
10
238.875
20
55.9354248689
11
238.875
21
55.5
0
ARC
5
6A2
100
AcDbEntity
8
0
6
ByLayer
62
256
370
-1
100
AcDbCircle
10
238.575
20
56.2
40
0.4
100
AcDbArc
50
318.590377891
51
131.409622108
0
LINE
5
6A3
100
AcDbEntity
8
0
6
ByLayer
62
256
370
-1
100
AcDbLine
10
231.875
20
56.5
11
238.310424869
21
56.5
0
LINE
5
6A4
100
AcDbEntity
8
0
6
ByLayer
62
256
370
-1
100
AcDbLine
10
224.875
20
52
11
224.875
21
49.5
0
LINE
5
6A5
100
AcDbEntity
8
0
6
ByLayer
62
256
370
-1
100
AcDbLine
10
224.875
20
55.5
11
224.475
21
55.5
0
ARC
5
6A6
100
AcDbEntity
8
0
6
ByLayer
62
256
370
-1
100
AcDbCircle
10
224.475
20
55.1
40
0.4
100
AcDbArc
50
90
51
180
0
LINE
5
6A7
100
AcDbEntity
8
0
6
ByLayer
62
256
370
-1
100
AcDbLine
10
224.475
20
52
11
224.875
21
52
0
ARC
5
6A8
100
AcDbEntity
8
0
6
ByLayer
62
256
370
-1
100
AcDbCircle
10
224.475
20
52.4
40
0.4
100
AcDbArc
50
180
51
270
0
LINE
5
6A9
100
AcDbEntity
8
0
6
ByLayer
62
256
370
-1
100
AcDbLine
10
224.075
20
55.1
11
224.075
21
52.4
0
LINE
5
6AA
100
AcDbEntity
8
0
6
ByLayer
62
256
370
-1
100
AcDbLine
10
224.875
20
55.9354248689
11
224.875
21
55.5
0
ARC
5
6AB
100
AcDbEntity
8
0
6
ByLayer
62
256
370
-1
100
AcDbCircle
10
225.175
20
56.2
40
0.4
100
AcDbArc
50
48.5903778923
51
221.409622109
0
LINE
5
6AC
100
AcDbEntity
8
0
6
ByLayer
62
256
370
-1
100
AcDbLine
10
231.875
20
56.5
11
225.439575131
21
56.5
0
LINE
5
6AD
100
AcDbEntity
8
0
6
ByLayer
62
256
370
-1
100
AcDbLine
10
238.875
20
47
11
238.875
21
49.5
0
LINE
5
6AE
100
AcDbEntity
8
0
6
ByLayer
62
256
370
-1
100
AcDbLine
10
238.875
20
43.5
11
239.275
21
43.5
0
ARC
5
6AF
100
AcDbEntity
8
0
6
ByLayer
62
256
370
-1
100
AcDbCircle
10
239.275
20
43.9
40
0.4
100
AcDbArc
50
270
51
0
0
LINE
5
6B0
100
AcDbEntity
8
0
6
ByLayer
62
256
370
-1
100
AcDbLine
10
239.275
20
47
11
238.875
21
47
0
ARC
5
6B1
100
AcDbEntity
8
0
6
ByLayer
62
256
370
-1
100
AcDbCircle
10
239.275
20
46.6
40
0.4
100
AcDbArc
50
0
51
90
0
LINE
5
6B2
100
AcDbEntity
8
0
6
ByLayer
62
256
370
-1
100
AcDbLine
10
239.675
20
43.9
11
239.675
21
46.6
0
LINE
5
6B3
100
AcDbEntity
8
0
6
ByLayer
62
256
370
-1
100
AcDbLine
10
238.875
20
43.0645751311
11
238.875
21
43.5
0
ARC
5
6B4
100
AcDbEntity
8
0
6
ByLayer
62
256
370
-1
100
AcDbCircle
10
238.575
20
42.8
40
0.4
100
AcDbArc
50
228.590377892
51
41.4096221092
0
LINE
5
6B5
100
AcDbEntity
8
0
6
ByLayer
62
256
370
-1
100
AcDbLine
10
231.875
20
42.5
11
238.310424869
21
42.5
0
LINE
5
6B6
100
AcDbEntity
8
0
6
ByLayer
62
256
370
-1
100
AcDbLine
10
224.875
20
47
11
224.875
21
49.5
0
LINE
5
6B7
100
AcDbEntity
8
0
6
ByLayer
62
256
370
-1
100
AcDbLine
10
224.875
20
43.5
11
224.475
21
43.5
0
ARC
5
6B8
100
AcDbEntity
8
0
6
ByLayer
62
256
370
-1
100
AcDbCircle
10
224.475
20
43.9
40
0.4
100
AcDbArc
50
180
51
270
0
LINE
5
6B9
100
AcDbEntity
8
0
6
ByLayer
62
256
370
-1
100
AcDbLine
10
224.475
20
47
11
224.875
21
47
0
ARC
5
6BA
100
AcDbEntity
8
0
6
ByLayer
62
256
370
-1
100
AcDbCircle
10
224.475
20
46.6
40
0.4
100
AcDbArc
50
90
51
180
0
LINE
5
6BB
100
AcDbEntity
8
0
6
ByLayer
62
256
370
-1
100
AcDbLine
10
224.075
20
43.9
11
224.075
21
46.6
0
LINE
5
6BC
100
AcDbEntity
8
0
6
ByLayer
62
256
370
-1
100
AcDbLine
10
224.875
20
43.0645751311
11
224.875
21
43.5
0
ARC
5
6BD
100
AcDbEntity
8
0
6
ByLayer
62
256
370
-1
100
AcDbCircle
10
225.175
20
42.8
40
0.4
100
AcDbArc
50
138.590377891
51
311.409622108
0
LINE
5
6BE
100
AcDbEntity
8
0
6
ByLayer
62
256
370
-1
100
AcDbLine
10
231.875
20
42.5
11
225.439575131
21
42.5
0
CIRCLE
5
6BF
100
AcDbEntity
8
0
6
ByLayer
62
256
370
-1
100
AcDbCircle
10
40
20
70
40
1.6
0
CIRCLE
5
6C0
100
AcDbEntity
8
0
6
ByLayer
62
256
370
-1
100
AcDbCircle
10
49
20
15
40
1.6
0
CIRCLE
5
6C1
100
AcDbEntity
8
0
6
ByLayer
62
256
370
-1
100
AcDbCircle
10
78.3476
20
67
40
1.6
0
CIRCLE
5
6C2
100
AcDbEntity
8
0
6
ByLayer
62
256
370
-1
100
AcDbCircle
10
182
20
20
40
1.6
0
CIRCLE
5
6C3
100
AcDbEntity
8
0
6
ByLayer
62
256
370
-1
100
AcDbCircle
10
228
20
14
40
1.6
0
CIRCLE
5
6C4
100
AcDbEntity
8
0
6
ByLayer
62
256
370
-1
100
AcDbCircle
10
191.5
20
72
40
1.6
0
ARC
5
6C5
100
AcDbEntity
8
0
6
ByLayer
62
256
370
-1
100
AcDbCircle
10
244
20
56
40
1
100
AcDbArc
50
90
51
180
0
ARC
5
6C6
100
AcDbEntity
8
0
6
ByLayer
62
256
370
-1
100
AcDbCircle
10
244
20
43
40
1
100
AcDbArc
50
180
51
270
0
ARC
5
6C7
100
AcDbEntity
8
0
6
ByLayer
62
256
370
-1
100
AcDbCircle
10
247
20
77
40
3
100
AcDbArc
50
0
51
90
0
ARC
5
6C8
100
AcDbEntity
8
0
6
ByLayer
62
256
370
-1
100
AcDbCircle
10
3
20
77
40
3
100
AcDbArc
50
90
51
180
0
ARC
5
6C9
100
AcDbEntity
8
0
6
ByLayer
62
256
370
-1
100
AcDbCircle
10
3
20
3
40
3
100
AcDbArc
50
180
51
270
0
ARC
5
6CA
100
AcDbEntity
8
0
6
ByLayer
62
256
370
-1
100
AcDbCircle
10
247
20
3
40
3
100
AcDbArc
50
270
51
0
0
ARC
5
6CB
100
AcDbEntity
8
0
6
ByLayer
62
256
370
-1
100
AcDbCircle
10
249
20
41
40
1
100
AcDbArc
50
0
51
90
0
ARC
5
6CC
100
AcDbEntity
8
0
6
ByLayer
62
256
370
-1
100
AcDbCircle
10
249
20
58
40
1
100
AcDbArc
50
270
51
0
0
LINE
5
6CD
100
AcDbEntity
8
0
6
ByLayer
62
256
370
-1
100
AcDbLine
10
3
20
80
11
247
21
80
0
LINE
5
6CE
100
AcDbEntity
8
0
6
ByLayer
62
256
370
-1
100
AcDbLine
10
250
20
77
11
250
21
58
0
LINE
5
6CF
100
AcDbEntity
8
0
6
ByLayer
62
256
370
-1
100
AcDbLine
10
249
20
57
11
244
21
57
0
LINE
5
6D0
100
AcDbEntity
8
0
6
ByLayer
62
256
370
-1
100
AcDbLine
10
243
20
56
11
243
21
43
0
LINE
5
6D1
100
AcDbEntity
8
0
6
ByLayer
62
256
370
-1
100
AcDbLine
10
244
20
42
11
249
21
42
0
LINE
5
6D2
100
AcDbEntity
8
0
6
ByLayer
62
256
370
-1
100
AcDbLine
10
250
20
41
11
250
21
3
0
LINE
5
6D3
100
AcDbEntity
8
0
6
ByLayer
62
256
370
-1
100
AcDbLine
10
247
20
0
11
3
21
0
0
LINE
5
6D4
100
AcDbEntity
8
0
6
ByLayer
62
256
370
-1
100
AcDbLine
10
0
20
3
11
0
21
77
0
LWPOLYLINE
5
6D5
100
AcDbEntity
8
0
6
ByLayer
62
256
370
-1
100
AcDbPolyline
90
8
70
1
43
0
10
76.125
20
3.75
10
78.625
20
3.75
42
0.414213562373
10
79.025
20
4.15
10
79.025
20
17.35
42
0.414213562373
10
78.625
20
17.75
10
76.125
20
17.75
42
0.414213562373
10
75.725
20
17.35
10
75.725
20
4.15
42
0.414213562373
0
LWPOLYLINE
5
6D6
100
AcDbEntity
8
0
6
ByLayer
62
256
370
-1
100
AcDbPolyline
90
8
70
1
43
0
10
100.125
20
3.75
10
102.625
20
3.75
42
0.414213562373
10
103.025
20
4.15
10
103.025
20
17.35
42
0.414213562373
10
102.625
20
17.75
10
100.125
20
17.75
42
0.414213562373
10
99.725
20
17.35
10
99.725
20
4.15
42
0.414213562373
0
LWPOLYLINE
5
6D7
100
AcDbEntity
8
0
6
ByLayer
62
256
370
-1
100
AcDbPolyline
90
8
70
1
43
0
10
118.875
20
3.75
10
121.375
20
3.75
42
0.414213562373
10
121.775
20
4.15
10
121.775
20
17.35
42
0.414213562373
10
121.375
20
17.75
10
118.875
20
17.75
42
0.414213562373
10
118.475
20
17.35
10
118.475
20
4.15
42
0.414213562373
0
LWPOLYLINE
5
6D8
100
AcDbEntity
8
0
6
ByLayer
62
256
370
-1
100
AcDbPolyline
90
8
70
1
43
0
10
142.875
20
3.75
10
145.375
20
3.75
42
0.414213562373
10
145.775
20
4.15
10
145.775
20
17.35
42
0.414213562373
10
145.375
20
17.75
10
142.875
20
17.75
42
0.414213562373
10
142.475
20
17.35
10
142.475
20
4.15
42
0.414213562373
0
ENDSEC
0
SECTION
2
OBJECTS
0
DICTIONARY
5
C
330
0
100
AcDbDictionary
281
1
3
ACAD_GROUP
350
D
0
DICTIONARY
5
D
330
C
100
AcDbDictionary
281
1
0
ENDSEC
0
EOF
