%
M48
M72
T01C0.01200
T02C0.01969
T03C0.03150
T04C0.03543
T05C0.04000
T06C0.05906
T07C0.06693
T08C0.08268
T09C0.15750
%
T01
X105800Y22367
X113750Y22817
X103750Y40317
X102500Y50317
X88200Y57567
X63750Y82817
X63750Y94067
X91400Y89567
X115000Y92817
X158750Y114067
X137800Y119967
X122500Y135317
X113750Y132817
X143000Y145567
X153200Y145567
X166600Y147167
X180200Y143767
X217800Y151967
X205000Y159967
X195400Y159967
X185800Y156767
X182600Y159967
X217800Y163167
X217800Y172767
X254600Y150367
X233400Y137167
X235400Y132967
X227600Y131767
X194600Y128767
X190200Y129167
X217800Y110367
X275400Y89167
X297000Y85317
X302600Y74767
X293750Y66567
X296250Y59067
X274550Y59067
X286600Y47967
X302600Y43567
X285000Y35167
X277000Y25567
X296250Y22767
X213750Y35317
X182500Y40317
X196250Y21567
X210850Y21667
X326600Y59167
X328200Y67167
X349400Y63967
X350600Y70567
X380000Y77817
X366600Y79967
X351200Y78367
X371250Y88467
X358600Y94367
X362500Y101567
X376250Y111567
X428750Y95317
X433400Y95767
X438150Y94667
X428750Y90317
X448750Y96567
X439450Y99067
X448800Y105217
X452500Y105317
X456250Y105317
X452500Y112767
X448800Y115917
X409400Y138967
X413150Y141417
X437550Y140817
X416000Y155167
X399900Y155317
X362300Y153717
X352200Y151967
X357500Y145317
X330000Y154067
X311250Y146567
X290150Y143967
X288200Y135367
X347400Y131167
X433300Y160317
X439450Y172817
X453750Y170317
X487500Y171567
X507500Y165317
X507500Y155317
X508750Y151567
X501250Y147817
X487500Y155317
X519200Y135367
X541000Y145567
X565400Y156367
X570850Y156567
X581600Y156967
X595000Y161567
X587000Y169567
X563750Y174067
X544400Y183667
X514050Y176567
X417500Y172817
X399150Y169067
X330000Y165317
X311250Y170317
X281250Y177817
X316450Y187817
X329800Y183967
X325000Y196767
X331250Y197817
X405000Y201567
X412600Y222317
X402200Y224167
X425650Y227867
X394600Y239617
X396150Y244067
X389600Y234967
X437000Y252367
X448400Y248167
X455200Y267967
X461000Y276367
X461000Y290767
X455800Y296267
X450000Y300317
X396800Y288367
X396200Y281767
X378200Y278167
X320355Y265246
X318455Y270346
X313655Y272246
X308555Y270146
X306455Y265346
X308455Y260446
X313255Y258346
X318455Y260346
X347500Y257817
X318750Y239067
X320000Y225367
X253000Y231967
X275000Y257817
X201250Y257817
X141000Y232752
X115000Y221567
X105000Y234067
X89800Y225567
X83750Y227817
X85000Y244067
X126250Y257817
X26600Y258967
X92500Y211567
X99400Y212767
X72500Y202817
X25680Y198317
X23780Y203417
X18980Y205317
X13880Y203217
X11780Y198417
X13780Y193517
X18580Y191417
X23780Y193417
X86250Y174067
X129800Y177567
X155400Y177567
X83400Y154317
X24885Y99018
X29685Y97118
X31585Y92018
X29685Y87118
X24485Y85118
X19685Y87218
X17685Y92118
X19785Y96918
X215000Y62817
X220000Y85317
X382400Y61567
X386600Y63967
X406250Y73067
X405000Y77817
X411550Y70017
X419200Y68767
X423850Y67717
X423750Y62817
X429000Y62367
X432200Y59167
X432200Y54367
X438600Y55967
X443400Y63967
X448200Y63967
X454600Y67167
X457500Y70317
X453750Y74067
X447500Y74067
X444800Y70367
X428750Y75317
X430000Y79067
X454650Y80667
X465450Y80667
X467500Y84067
X476250Y82817
X480000Y82817
X488600Y90367
X510000Y75317
X505000Y74067
X500000Y71567
X483950Y72667
X477500Y70317
X465000Y65317
X415000Y58817
X392200Y49567
X406250Y29067
X411250Y27817
X416250Y27817
X423750Y27817
X429000Y27167
X462600Y24517
X491250Y26917
X496250Y20317
X543750Y27817
X561250Y40317
X605000Y47817
X600000Y57817
X596250Y59067
X573750Y57817
X573750Y61567
X551250Y72817
X564350Y79067
X590000Y87817
X600000Y87817
X617500Y87817
X600000Y100317
X575600Y99967
X555400Y94367
X550600Y94367
X533750Y100317
X532500Y96567
X551200Y105367
X555400Y106767
X587500Y119067
X642200Y140167
X630600Y145567
X652500Y147817
X673800Y143967
X682500Y131567
X740000Y119067
X671600Y107767
X665000Y91567
X675800Y83767
X665000Y73567
X640000Y66567
X638600Y46367
X651800Y36367
X623750Y27817
X636800Y22567
X644600Y21967
X598750Y14067
X567200Y20167
X564800Y10567
X555800Y8767
X478750Y42817
X546250Y57817
X524000Y71167
X518600Y110767
X645000Y175417
X653000Y179167
X666200Y177967
X682500Y175317
X702800Y182167
X706400Y168967
X706400Y156967
X777800Y168967
X828200Y152767
X857500Y148517
X889400Y144367
X867800Y161167
X809575Y140742
X816200Y111967
X810000Y90317
X833600Y77167
X810000Y57767
X740000Y57817
X721335Y73307
X716535Y75407
X714535Y80307
X726535Y75307
X728435Y80207
X726535Y85307
X721735Y87207
X716635Y85107
X703050Y90317
X895638Y56685
X897638Y51785
X902438Y49685
X907638Y51685
X909538Y56585
X907638Y61685
X902838Y63585
X897738Y61485
X926811Y77817
X940000Y90317
X898750Y31567
X941250Y150317
X963750Y171567
X950600Y181567
X907500Y220317
X977500Y227817
X907500Y257817
X873800Y257567
X837500Y259067
X825000Y249067
X832500Y237817
X796250Y247817
X765000Y260317
X758737Y278031
X753937Y280131
X751937Y285031
X763937Y280031
X765837Y284931
X763937Y290031
X759137Y291931
X754037Y289831
X690000Y259067
X633850Y239617
X638600Y222967
X611250Y209067
X630000Y199067
X636250Y177817
X696250Y205317
X701600Y226567
X696200Y231967
X765000Y215317
X777800Y201367
X613750Y257817
X545000Y259067
X498750Y246467
X516200Y215167
X302500Y282867
X366200Y297967
X162200Y304567
X141000Y212767
X178400Y207967
X217500Y210317
X257500Y196567
X961250Y295317
T02
X977500Y206567
X982500Y206567
X982500Y201567
X977500Y201567
X977500Y196567
X982500Y196567
X982500Y191567
X977500Y191567
T03
X910512Y280602
X910512Y291429
X602606Y80767
X583394Y80767
X237850Y151160
X237850Y170373
X42756Y175172
X15630Y175172
X15630Y113361
X42756Y113361
X113452Y82767
X121326Y82767
X129200Y82767
X137074Y82767
X144948Y82767
X83740Y280602
X83740Y291429
T04
X483740Y301017
X510512Y301017
T05
X52657Y31842
X62657Y31842
X146161Y31842
X156161Y31842
X239665Y31842
X249665Y31842
X351870Y31842
X361870Y31842
X520177Y31842
X530177Y31842
X669783Y31842
X679783Y31842
X763287Y31842
X773287Y31842
X856791Y31842
X866791Y31842
X940945Y31842
X950945Y31842
X950945Y136645
X940945Y136645
X866791Y136645
X856791Y136645
X912894Y181449
X922894Y181449
X940945Y286252
X950945Y286252
X81358Y136645
X71358Y136645
X62657Y181449
X52657Y181449
X53307Y286252
X43307Y286252
T06
X63307Y261252
X38307Y251252
X48172Y228717
X24550Y228717
X67657Y216449
X42657Y206449
X126811Y206449
X151811Y216449
X201614Y206449
X226614Y216449
X276417Y206449
X301417Y216449
X351220Y206449
X376220Y216449
X426024Y206449
X451024Y216449
X500827Y206449
X525827Y216449
X575630Y206449
X600630Y216449
X650433Y206449
X675433Y216449
X725236Y206449
X750236Y216449
X800039Y206449
X825039Y216449
X902894Y206449
X927894Y216449
X935945Y251252
X960945Y261252
X886142Y261252
X861142Y251252
X811339Y261252
X786339Y251252
X736535Y261252
X711535Y251252
X661732Y261252
X636732Y251252
X586929Y261252
X561929Y251252
X512126Y260267
X487126Y250267
X437323Y261252
X412323Y251252
X362520Y261252
X337520Y251252
X287717Y261252
X262717Y251252
X212913Y261252
X187913Y251252
X138110Y261252
X113110Y251252
X91358Y111645
X66358Y101645
X67657Y66842
X42657Y56842
X136161Y56842
X161161Y66842
X229665Y56842
X254665Y66842
X341870Y56842
X366870Y66842
X393622Y101645
X418622Y111645
X468425Y101645
X493425Y111645
X543228Y101645
X568228Y111645
X618031Y101645
X643031Y111645
X692835Y101645
X717835Y111645
X767638Y101645
X792638Y111645
X851791Y101645
X876791Y111645
X935945Y101645
X960945Y111645
X955945Y66842
X930945Y56842
X871791Y66842
X846791Y56842
X778287Y66842
X753287Y56842
X684783Y66842
X659783Y56842
X535177Y66842
X510177Y56842
X343819Y111645
X318819Y101645
X269016Y111645
X244016Y101645
X194213Y111645
X169213Y101645
T07
X159213Y121645
X199213Y121645
X234016Y121645
X274016Y121645
X308819Y121645
X348819Y121645
X383622Y121645
X423622Y121645
X458425Y121645
X498425Y121645
X533228Y121645
X573228Y121645
X608031Y121645
X648031Y121645
X682835Y121645
X722835Y121645
X757638Y121645
X797638Y121645
X841791Y121645
X881791Y121645
X925945Y121645
X965945Y121645
X965945Y46842
X925945Y46842
X881791Y46842
X841791Y46842
X788287Y46842
X748287Y46842
X694783Y46842
X654783Y46842
X545177Y46842
X505177Y46842
X376870Y46842
X336870Y46842
X264665Y46842
X224665Y46842
X171161Y46842
X131161Y46842
X77657Y46842
X37657Y46842
X56358Y121645
X96358Y121645
X77657Y196449
X37657Y196449
X121811Y196449
X161811Y196449
X196614Y196449
X236614Y196449
X271417Y196449
X311417Y196449
X346220Y196449
X386220Y196449
X421024Y196449
X461024Y196449
X495827Y196449
X535827Y196449
X570630Y196449
X610630Y196449
X645433Y196449
X685433Y196449
X720236Y196449
X760236Y196449
X795039Y196449
X835039Y196449
X897894Y196449
X937894Y196449
X925945Y271252
X891142Y271252
X851142Y271252
X816339Y271252
X776339Y271252
X741535Y271252
X701535Y271252
X666732Y271252
X626732Y271252
X591929Y271252
X551929Y271252
X517126Y270267
X477126Y270267
X442323Y271252
X402323Y271252
X367520Y271252
X327520Y271252
X292717Y271252
X252717Y271252
X217913Y271252
X177913Y271252
X143110Y271252
X103110Y271252
X68307Y271252
X28307Y271252
X965945Y271252
T08
X758937Y285031
X313455Y265346
X18780Y198417
X24685Y92118
X721535Y80307
X902638Y56685
T09
X861791Y46842
X945945Y46842
X768287Y46842
X674783Y46842
X525177Y46842
X356870Y46842
X244665Y46842
X151161Y46842
X57657Y46842
X76358Y121645
X179213Y121645
X254016Y121645
X328819Y121645
X403622Y121645
X478425Y121645
X553228Y121645
X628031Y121645
X702835Y121645
X777638Y121645
X861791Y121645
X945945Y121645
X917894Y196449
X815039Y196449
X740236Y196449
X665433Y196449
X590630Y196449
X515827Y196449
X441024Y196449
X366220Y196449
X291417Y196449
X216614Y196449
X141811Y196449
X57657Y196449
X48307Y271252
X123110Y271252
X197913Y271252
X272717Y271252
X347520Y271252
X422323Y271252
X497126Y270267
X571929Y271252
X646732Y271252
X721535Y271252
X796339Y271252
X871142Y271252
X945945Y271252
M30
