G75*
%MOIN*%
%OFA0B0*%
%FSLAX25Y25*%
%IPPOS*%
%LPD*%
%AMOC8*
5,1,8,0,0,1.08239X$1,22.5*
%
%ADD10C,0.10000*%
%ADD11C,0.06600*%
%ADD12C,0.05150*%
%ADD13R,0.05150X0.05150*%
%ADD14C,0.06600*%
%ADD15C,0.03969*%
%ADD16C,0.03937*%
%ADD17C,0.03200*%
%ADD18C,0.02800*%
%ADD19C,0.01600*%
%ADD20C,0.00600*%
D10*
X0042657Y0056842D03*
X0067657Y0066842D03*
X0136161Y0056842D03*
X0161161Y0066842D03*
X0229665Y0056842D03*
X0254665Y0066842D03*
X0341870Y0056842D03*
X0366870Y0066842D03*
X0393622Y0101645D03*
X0418622Y0111645D03*
X0468425Y0101645D03*
X0493425Y0111645D03*
X0543228Y0101645D03*
X0568228Y0111645D03*
X0618031Y0101645D03*
X0643031Y0111645D03*
X0692835Y0101645D03*
X0717835Y0111645D03*
X0767638Y0101645D03*
X0792638Y0111645D03*
X0851791Y0101645D03*
X0876791Y0111645D03*
X0935945Y0101645D03*
X0960945Y0111645D03*
X0955945Y0066842D03*
X0930945Y0056842D03*
X0871791Y0066842D03*
X0846791Y0056842D03*
X0778287Y0066842D03*
X0753287Y0056842D03*
X0684783Y0066842D03*
X0659783Y0056842D03*
X0535177Y0066842D03*
X0510177Y0056842D03*
X0343819Y0111645D03*
X0318819Y0101645D03*
X0269016Y0111645D03*
X0244016Y0101645D03*
X0194213Y0111645D03*
X0169213Y0101645D03*
X0091358Y0111645D03*
X0066358Y0101645D03*
X0042657Y0206449D03*
X0067657Y0216449D03*
X0126811Y0206449D03*
X0151811Y0216449D03*
X0201614Y0206449D03*
X0226614Y0216449D03*
X0276417Y0206449D03*
X0301417Y0216449D03*
X0351220Y0206449D03*
X0376220Y0216449D03*
X0426024Y0206449D03*
X0451024Y0216449D03*
X0500827Y0206449D03*
X0525827Y0216449D03*
X0575630Y0206449D03*
X0600630Y0216449D03*
X0650433Y0206449D03*
X0675433Y0216449D03*
X0725236Y0206449D03*
X0750236Y0216449D03*
X0800039Y0206449D03*
X0825039Y0216449D03*
X0902894Y0206449D03*
X0927894Y0216449D03*
X0935945Y0251252D03*
X0960945Y0261252D03*
X0886142Y0261252D03*
X0861142Y0251252D03*
X0811339Y0261252D03*
X0786339Y0251252D03*
X0736535Y0261252D03*
X0711535Y0251252D03*
X0661732Y0261252D03*
X0636732Y0251252D03*
X0586929Y0261252D03*
X0561929Y0251252D03*
X0512126Y0260267D03*
X0487126Y0250267D03*
X0437323Y0261252D03*
X0412323Y0251252D03*
X0362520Y0261252D03*
X0337520Y0251252D03*
X0287717Y0261252D03*
X0262717Y0251252D03*
X0212913Y0261252D03*
X0187913Y0251252D03*
X0138110Y0261252D03*
X0113110Y0251252D03*
X0063307Y0261252D03*
X0038307Y0251252D03*
D11*
X0052657Y0031842D03*
X0062657Y0031842D03*
X0146161Y0031842D03*
X0156161Y0031842D03*
X0239665Y0031842D03*
X0249665Y0031842D03*
X0351870Y0031842D03*
X0361870Y0031842D03*
X0520177Y0031842D03*
X0530177Y0031842D03*
X0669783Y0031842D03*
X0679783Y0031842D03*
X0763287Y0031842D03*
X0773287Y0031842D03*
X0856791Y0031842D03*
X0866791Y0031842D03*
X0940945Y0031842D03*
X0950945Y0031842D03*
X0950945Y0136645D03*
X0940945Y0136645D03*
X0866791Y0136645D03*
X0856791Y0136645D03*
X0912894Y0181449D03*
X0922894Y0181449D03*
X0940945Y0286252D03*
X0950945Y0286252D03*
X0081358Y0136645D03*
X0071358Y0136645D03*
X0062657Y0181449D03*
X0052657Y0181449D03*
X0053307Y0286252D03*
X0043307Y0286252D03*
D12*
X0237850Y0170373D03*
X0237850Y0151160D03*
X0144948Y0082767D03*
X0137074Y0082767D03*
X0129200Y0082767D03*
X0121326Y0082767D03*
X0583394Y0080767D03*
X0602606Y0080767D03*
D13*
X0113452Y0082767D03*
D14*
X0046056Y0113361D02*
X0039456Y0113361D01*
X0018930Y0113361D02*
X0012330Y0113361D01*
X0012330Y0175172D02*
X0018930Y0175172D01*
X0039456Y0175172D02*
X0046056Y0175172D01*
D15*
X0977500Y0191567D03*
X0977500Y0196567D03*
X0982500Y0196567D03*
X0982500Y0191567D03*
X0982500Y0201567D03*
X0982500Y0206567D03*
X0977500Y0206567D03*
X0977500Y0201567D03*
D16*
X0751850Y0285031D02*
X0751852Y0285205D01*
X0751859Y0285379D01*
X0751869Y0285552D01*
X0751884Y0285726D01*
X0751903Y0285899D01*
X0751927Y0286071D01*
X0751954Y0286243D01*
X0751986Y0286414D01*
X0752022Y0286584D01*
X0752062Y0286753D01*
X0752107Y0286921D01*
X0752155Y0287088D01*
X0752208Y0287254D01*
X0752264Y0287419D01*
X0752325Y0287582D01*
X0752389Y0287743D01*
X0752458Y0287903D01*
X0752530Y0288061D01*
X0752607Y0288217D01*
X0752687Y0288372D01*
X0752771Y0288524D01*
X0752858Y0288674D01*
X0752950Y0288823D01*
X0753044Y0288968D01*
X0753143Y0289112D01*
X0753245Y0289253D01*
X0753350Y0289391D01*
X0753459Y0289527D01*
X0753571Y0289660D01*
X0753686Y0289790D01*
X0753804Y0289918D01*
X0753926Y0290042D01*
X0754050Y0290164D01*
X0754178Y0290282D01*
X0754308Y0290397D01*
X0754441Y0290509D01*
X0754577Y0290618D01*
X0754715Y0290723D01*
X0754856Y0290825D01*
X0755000Y0290924D01*
X0755145Y0291018D01*
X0755294Y0291110D01*
X0755444Y0291197D01*
X0755596Y0291281D01*
X0755751Y0291361D01*
X0755907Y0291438D01*
X0756065Y0291510D01*
X0756225Y0291579D01*
X0756386Y0291643D01*
X0756549Y0291704D01*
X0756714Y0291760D01*
X0756880Y0291813D01*
X0757047Y0291861D01*
X0757215Y0291906D01*
X0757384Y0291946D01*
X0757554Y0291982D01*
X0757725Y0292014D01*
X0757897Y0292041D01*
X0758069Y0292065D01*
X0758242Y0292084D01*
X0758416Y0292099D01*
X0758589Y0292109D01*
X0758763Y0292116D01*
X0758937Y0292118D01*
X0759111Y0292116D01*
X0759285Y0292109D01*
X0759458Y0292099D01*
X0759632Y0292084D01*
X0759805Y0292065D01*
X0759977Y0292041D01*
X0760149Y0292014D01*
X0760320Y0291982D01*
X0760490Y0291946D01*
X0760659Y0291906D01*
X0760827Y0291861D01*
X0760994Y0291813D01*
X0761160Y0291760D01*
X0761325Y0291704D01*
X0761488Y0291643D01*
X0761649Y0291579D01*
X0761809Y0291510D01*
X0761967Y0291438D01*
X0762123Y0291361D01*
X0762278Y0291281D01*
X0762430Y0291197D01*
X0762580Y0291110D01*
X0762729Y0291018D01*
X0762874Y0290924D01*
X0763018Y0290825D01*
X0763159Y0290723D01*
X0763297Y0290618D01*
X0763433Y0290509D01*
X0763566Y0290397D01*
X0763696Y0290282D01*
X0763824Y0290164D01*
X0763948Y0290042D01*
X0764070Y0289918D01*
X0764188Y0289790D01*
X0764303Y0289660D01*
X0764415Y0289527D01*
X0764524Y0289391D01*
X0764629Y0289253D01*
X0764731Y0289112D01*
X0764830Y0288968D01*
X0764924Y0288823D01*
X0765016Y0288674D01*
X0765103Y0288524D01*
X0765187Y0288372D01*
X0765267Y0288217D01*
X0765344Y0288061D01*
X0765416Y0287903D01*
X0765485Y0287743D01*
X0765549Y0287582D01*
X0765610Y0287419D01*
X0765666Y0287254D01*
X0765719Y0287088D01*
X0765767Y0286921D01*
X0765812Y0286753D01*
X0765852Y0286584D01*
X0765888Y0286414D01*
X0765920Y0286243D01*
X0765947Y0286071D01*
X0765971Y0285899D01*
X0765990Y0285726D01*
X0766005Y0285552D01*
X0766015Y0285379D01*
X0766022Y0285205D01*
X0766024Y0285031D01*
X0766022Y0284857D01*
X0766015Y0284683D01*
X0766005Y0284510D01*
X0765990Y0284336D01*
X0765971Y0284163D01*
X0765947Y0283991D01*
X0765920Y0283819D01*
X0765888Y0283648D01*
X0765852Y0283478D01*
X0765812Y0283309D01*
X0765767Y0283141D01*
X0765719Y0282974D01*
X0765666Y0282808D01*
X0765610Y0282643D01*
X0765549Y0282480D01*
X0765485Y0282319D01*
X0765416Y0282159D01*
X0765344Y0282001D01*
X0765267Y0281845D01*
X0765187Y0281690D01*
X0765103Y0281538D01*
X0765016Y0281388D01*
X0764924Y0281239D01*
X0764830Y0281094D01*
X0764731Y0280950D01*
X0764629Y0280809D01*
X0764524Y0280671D01*
X0764415Y0280535D01*
X0764303Y0280402D01*
X0764188Y0280272D01*
X0764070Y0280144D01*
X0763948Y0280020D01*
X0763824Y0279898D01*
X0763696Y0279780D01*
X0763566Y0279665D01*
X0763433Y0279553D01*
X0763297Y0279444D01*
X0763159Y0279339D01*
X0763018Y0279237D01*
X0762874Y0279138D01*
X0762729Y0279044D01*
X0762580Y0278952D01*
X0762430Y0278865D01*
X0762278Y0278781D01*
X0762123Y0278701D01*
X0761967Y0278624D01*
X0761809Y0278552D01*
X0761649Y0278483D01*
X0761488Y0278419D01*
X0761325Y0278358D01*
X0761160Y0278302D01*
X0760994Y0278249D01*
X0760827Y0278201D01*
X0760659Y0278156D01*
X0760490Y0278116D01*
X0760320Y0278080D01*
X0760149Y0278048D01*
X0759977Y0278021D01*
X0759805Y0277997D01*
X0759632Y0277978D01*
X0759458Y0277963D01*
X0759285Y0277953D01*
X0759111Y0277946D01*
X0758937Y0277944D01*
X0758763Y0277946D01*
X0758589Y0277953D01*
X0758416Y0277963D01*
X0758242Y0277978D01*
X0758069Y0277997D01*
X0757897Y0278021D01*
X0757725Y0278048D01*
X0757554Y0278080D01*
X0757384Y0278116D01*
X0757215Y0278156D01*
X0757047Y0278201D01*
X0756880Y0278249D01*
X0756714Y0278302D01*
X0756549Y0278358D01*
X0756386Y0278419D01*
X0756225Y0278483D01*
X0756065Y0278552D01*
X0755907Y0278624D01*
X0755751Y0278701D01*
X0755596Y0278781D01*
X0755444Y0278865D01*
X0755294Y0278952D01*
X0755145Y0279044D01*
X0755000Y0279138D01*
X0754856Y0279237D01*
X0754715Y0279339D01*
X0754577Y0279444D01*
X0754441Y0279553D01*
X0754308Y0279665D01*
X0754178Y0279780D01*
X0754050Y0279898D01*
X0753926Y0280020D01*
X0753804Y0280144D01*
X0753686Y0280272D01*
X0753571Y0280402D01*
X0753459Y0280535D01*
X0753350Y0280671D01*
X0753245Y0280809D01*
X0753143Y0280950D01*
X0753044Y0281094D01*
X0752950Y0281239D01*
X0752858Y0281388D01*
X0752771Y0281538D01*
X0752687Y0281690D01*
X0752607Y0281845D01*
X0752530Y0282001D01*
X0752458Y0282159D01*
X0752389Y0282319D01*
X0752325Y0282480D01*
X0752264Y0282643D01*
X0752208Y0282808D01*
X0752155Y0282974D01*
X0752107Y0283141D01*
X0752062Y0283309D01*
X0752022Y0283478D01*
X0751986Y0283648D01*
X0751954Y0283819D01*
X0751927Y0283991D01*
X0751903Y0284163D01*
X0751884Y0284336D01*
X0751869Y0284510D01*
X0751859Y0284683D01*
X0751852Y0284857D01*
X0751850Y0285031D01*
X0306368Y0265346D02*
X0306370Y0265520D01*
X0306377Y0265694D01*
X0306387Y0265867D01*
X0306402Y0266041D01*
X0306421Y0266214D01*
X0306445Y0266386D01*
X0306472Y0266558D01*
X0306504Y0266729D01*
X0306540Y0266899D01*
X0306580Y0267068D01*
X0306625Y0267236D01*
X0306673Y0267403D01*
X0306726Y0267569D01*
X0306782Y0267734D01*
X0306843Y0267897D01*
X0306907Y0268058D01*
X0306976Y0268218D01*
X0307048Y0268376D01*
X0307125Y0268532D01*
X0307205Y0268687D01*
X0307289Y0268839D01*
X0307376Y0268989D01*
X0307468Y0269138D01*
X0307562Y0269283D01*
X0307661Y0269427D01*
X0307763Y0269568D01*
X0307868Y0269706D01*
X0307977Y0269842D01*
X0308089Y0269975D01*
X0308204Y0270105D01*
X0308322Y0270233D01*
X0308444Y0270357D01*
X0308568Y0270479D01*
X0308696Y0270597D01*
X0308826Y0270712D01*
X0308959Y0270824D01*
X0309095Y0270933D01*
X0309233Y0271038D01*
X0309374Y0271140D01*
X0309518Y0271239D01*
X0309663Y0271333D01*
X0309812Y0271425D01*
X0309962Y0271512D01*
X0310114Y0271596D01*
X0310269Y0271676D01*
X0310425Y0271753D01*
X0310583Y0271825D01*
X0310743Y0271894D01*
X0310904Y0271958D01*
X0311067Y0272019D01*
X0311232Y0272075D01*
X0311398Y0272128D01*
X0311565Y0272176D01*
X0311733Y0272221D01*
X0311902Y0272261D01*
X0312072Y0272297D01*
X0312243Y0272329D01*
X0312415Y0272356D01*
X0312587Y0272380D01*
X0312760Y0272399D01*
X0312934Y0272414D01*
X0313107Y0272424D01*
X0313281Y0272431D01*
X0313455Y0272433D01*
X0313629Y0272431D01*
X0313803Y0272424D01*
X0313976Y0272414D01*
X0314150Y0272399D01*
X0314323Y0272380D01*
X0314495Y0272356D01*
X0314667Y0272329D01*
X0314838Y0272297D01*
X0315008Y0272261D01*
X0315177Y0272221D01*
X0315345Y0272176D01*
X0315512Y0272128D01*
X0315678Y0272075D01*
X0315843Y0272019D01*
X0316006Y0271958D01*
X0316167Y0271894D01*
X0316327Y0271825D01*
X0316485Y0271753D01*
X0316641Y0271676D01*
X0316796Y0271596D01*
X0316948Y0271512D01*
X0317098Y0271425D01*
X0317247Y0271333D01*
X0317392Y0271239D01*
X0317536Y0271140D01*
X0317677Y0271038D01*
X0317815Y0270933D01*
X0317951Y0270824D01*
X0318084Y0270712D01*
X0318214Y0270597D01*
X0318342Y0270479D01*
X0318466Y0270357D01*
X0318588Y0270233D01*
X0318706Y0270105D01*
X0318821Y0269975D01*
X0318933Y0269842D01*
X0319042Y0269706D01*
X0319147Y0269568D01*
X0319249Y0269427D01*
X0319348Y0269283D01*
X0319442Y0269138D01*
X0319534Y0268989D01*
X0319621Y0268839D01*
X0319705Y0268687D01*
X0319785Y0268532D01*
X0319862Y0268376D01*
X0319934Y0268218D01*
X0320003Y0268058D01*
X0320067Y0267897D01*
X0320128Y0267734D01*
X0320184Y0267569D01*
X0320237Y0267403D01*
X0320285Y0267236D01*
X0320330Y0267068D01*
X0320370Y0266899D01*
X0320406Y0266729D01*
X0320438Y0266558D01*
X0320465Y0266386D01*
X0320489Y0266214D01*
X0320508Y0266041D01*
X0320523Y0265867D01*
X0320533Y0265694D01*
X0320540Y0265520D01*
X0320542Y0265346D01*
X0320540Y0265172D01*
X0320533Y0264998D01*
X0320523Y0264825D01*
X0320508Y0264651D01*
X0320489Y0264478D01*
X0320465Y0264306D01*
X0320438Y0264134D01*
X0320406Y0263963D01*
X0320370Y0263793D01*
X0320330Y0263624D01*
X0320285Y0263456D01*
X0320237Y0263289D01*
X0320184Y0263123D01*
X0320128Y0262958D01*
X0320067Y0262795D01*
X0320003Y0262634D01*
X0319934Y0262474D01*
X0319862Y0262316D01*
X0319785Y0262160D01*
X0319705Y0262005D01*
X0319621Y0261853D01*
X0319534Y0261703D01*
X0319442Y0261554D01*
X0319348Y0261409D01*
X0319249Y0261265D01*
X0319147Y0261124D01*
X0319042Y0260986D01*
X0318933Y0260850D01*
X0318821Y0260717D01*
X0318706Y0260587D01*
X0318588Y0260459D01*
X0318466Y0260335D01*
X0318342Y0260213D01*
X0318214Y0260095D01*
X0318084Y0259980D01*
X0317951Y0259868D01*
X0317815Y0259759D01*
X0317677Y0259654D01*
X0317536Y0259552D01*
X0317392Y0259453D01*
X0317247Y0259359D01*
X0317098Y0259267D01*
X0316948Y0259180D01*
X0316796Y0259096D01*
X0316641Y0259016D01*
X0316485Y0258939D01*
X0316327Y0258867D01*
X0316167Y0258798D01*
X0316006Y0258734D01*
X0315843Y0258673D01*
X0315678Y0258617D01*
X0315512Y0258564D01*
X0315345Y0258516D01*
X0315177Y0258471D01*
X0315008Y0258431D01*
X0314838Y0258395D01*
X0314667Y0258363D01*
X0314495Y0258336D01*
X0314323Y0258312D01*
X0314150Y0258293D01*
X0313976Y0258278D01*
X0313803Y0258268D01*
X0313629Y0258261D01*
X0313455Y0258259D01*
X0313281Y0258261D01*
X0313107Y0258268D01*
X0312934Y0258278D01*
X0312760Y0258293D01*
X0312587Y0258312D01*
X0312415Y0258336D01*
X0312243Y0258363D01*
X0312072Y0258395D01*
X0311902Y0258431D01*
X0311733Y0258471D01*
X0311565Y0258516D01*
X0311398Y0258564D01*
X0311232Y0258617D01*
X0311067Y0258673D01*
X0310904Y0258734D01*
X0310743Y0258798D01*
X0310583Y0258867D01*
X0310425Y0258939D01*
X0310269Y0259016D01*
X0310114Y0259096D01*
X0309962Y0259180D01*
X0309812Y0259267D01*
X0309663Y0259359D01*
X0309518Y0259453D01*
X0309374Y0259552D01*
X0309233Y0259654D01*
X0309095Y0259759D01*
X0308959Y0259868D01*
X0308826Y0259980D01*
X0308696Y0260095D01*
X0308568Y0260213D01*
X0308444Y0260335D01*
X0308322Y0260459D01*
X0308204Y0260587D01*
X0308089Y0260717D01*
X0307977Y0260850D01*
X0307868Y0260986D01*
X0307763Y0261124D01*
X0307661Y0261265D01*
X0307562Y0261409D01*
X0307468Y0261554D01*
X0307376Y0261703D01*
X0307289Y0261853D01*
X0307205Y0262005D01*
X0307125Y0262160D01*
X0307048Y0262316D01*
X0306976Y0262474D01*
X0306907Y0262634D01*
X0306843Y0262795D01*
X0306782Y0262958D01*
X0306726Y0263123D01*
X0306673Y0263289D01*
X0306625Y0263456D01*
X0306580Y0263624D01*
X0306540Y0263793D01*
X0306504Y0263963D01*
X0306472Y0264134D01*
X0306445Y0264306D01*
X0306421Y0264478D01*
X0306402Y0264651D01*
X0306387Y0264825D01*
X0306377Y0264998D01*
X0306370Y0265172D01*
X0306368Y0265346D01*
X0011693Y0198417D02*
X0011695Y0198591D01*
X0011702Y0198765D01*
X0011712Y0198938D01*
X0011727Y0199112D01*
X0011746Y0199285D01*
X0011770Y0199457D01*
X0011797Y0199629D01*
X0011829Y0199800D01*
X0011865Y0199970D01*
X0011905Y0200139D01*
X0011950Y0200307D01*
X0011998Y0200474D01*
X0012051Y0200640D01*
X0012107Y0200805D01*
X0012168Y0200968D01*
X0012232Y0201129D01*
X0012301Y0201289D01*
X0012373Y0201447D01*
X0012450Y0201603D01*
X0012530Y0201758D01*
X0012614Y0201910D01*
X0012701Y0202060D01*
X0012793Y0202209D01*
X0012887Y0202354D01*
X0012986Y0202498D01*
X0013088Y0202639D01*
X0013193Y0202777D01*
X0013302Y0202913D01*
X0013414Y0203046D01*
X0013529Y0203176D01*
X0013647Y0203304D01*
X0013769Y0203428D01*
X0013893Y0203550D01*
X0014021Y0203668D01*
X0014151Y0203783D01*
X0014284Y0203895D01*
X0014420Y0204004D01*
X0014558Y0204109D01*
X0014699Y0204211D01*
X0014843Y0204310D01*
X0014988Y0204404D01*
X0015137Y0204496D01*
X0015287Y0204583D01*
X0015439Y0204667D01*
X0015594Y0204747D01*
X0015750Y0204824D01*
X0015908Y0204896D01*
X0016068Y0204965D01*
X0016229Y0205029D01*
X0016392Y0205090D01*
X0016557Y0205146D01*
X0016723Y0205199D01*
X0016890Y0205247D01*
X0017058Y0205292D01*
X0017227Y0205332D01*
X0017397Y0205368D01*
X0017568Y0205400D01*
X0017740Y0205427D01*
X0017912Y0205451D01*
X0018085Y0205470D01*
X0018259Y0205485D01*
X0018432Y0205495D01*
X0018606Y0205502D01*
X0018780Y0205504D01*
X0018954Y0205502D01*
X0019128Y0205495D01*
X0019301Y0205485D01*
X0019475Y0205470D01*
X0019648Y0205451D01*
X0019820Y0205427D01*
X0019992Y0205400D01*
X0020163Y0205368D01*
X0020333Y0205332D01*
X0020502Y0205292D01*
X0020670Y0205247D01*
X0020837Y0205199D01*
X0021003Y0205146D01*
X0021168Y0205090D01*
X0021331Y0205029D01*
X0021492Y0204965D01*
X0021652Y0204896D01*
X0021810Y0204824D01*
X0021966Y0204747D01*
X0022121Y0204667D01*
X0022273Y0204583D01*
X0022423Y0204496D01*
X0022572Y0204404D01*
X0022717Y0204310D01*
X0022861Y0204211D01*
X0023002Y0204109D01*
X0023140Y0204004D01*
X0023276Y0203895D01*
X0023409Y0203783D01*
X0023539Y0203668D01*
X0023667Y0203550D01*
X0023791Y0203428D01*
X0023913Y0203304D01*
X0024031Y0203176D01*
X0024146Y0203046D01*
X0024258Y0202913D01*
X0024367Y0202777D01*
X0024472Y0202639D01*
X0024574Y0202498D01*
X0024673Y0202354D01*
X0024767Y0202209D01*
X0024859Y0202060D01*
X0024946Y0201910D01*
X0025030Y0201758D01*
X0025110Y0201603D01*
X0025187Y0201447D01*
X0025259Y0201289D01*
X0025328Y0201129D01*
X0025392Y0200968D01*
X0025453Y0200805D01*
X0025509Y0200640D01*
X0025562Y0200474D01*
X0025610Y0200307D01*
X0025655Y0200139D01*
X0025695Y0199970D01*
X0025731Y0199800D01*
X0025763Y0199629D01*
X0025790Y0199457D01*
X0025814Y0199285D01*
X0025833Y0199112D01*
X0025848Y0198938D01*
X0025858Y0198765D01*
X0025865Y0198591D01*
X0025867Y0198417D01*
X0025865Y0198243D01*
X0025858Y0198069D01*
X0025848Y0197896D01*
X0025833Y0197722D01*
X0025814Y0197549D01*
X0025790Y0197377D01*
X0025763Y0197205D01*
X0025731Y0197034D01*
X0025695Y0196864D01*
X0025655Y0196695D01*
X0025610Y0196527D01*
X0025562Y0196360D01*
X0025509Y0196194D01*
X0025453Y0196029D01*
X0025392Y0195866D01*
X0025328Y0195705D01*
X0025259Y0195545D01*
X0025187Y0195387D01*
X0025110Y0195231D01*
X0025030Y0195076D01*
X0024946Y0194924D01*
X0024859Y0194774D01*
X0024767Y0194625D01*
X0024673Y0194480D01*
X0024574Y0194336D01*
X0024472Y0194195D01*
X0024367Y0194057D01*
X0024258Y0193921D01*
X0024146Y0193788D01*
X0024031Y0193658D01*
X0023913Y0193530D01*
X0023791Y0193406D01*
X0023667Y0193284D01*
X0023539Y0193166D01*
X0023409Y0193051D01*
X0023276Y0192939D01*
X0023140Y0192830D01*
X0023002Y0192725D01*
X0022861Y0192623D01*
X0022717Y0192524D01*
X0022572Y0192430D01*
X0022423Y0192338D01*
X0022273Y0192251D01*
X0022121Y0192167D01*
X0021966Y0192087D01*
X0021810Y0192010D01*
X0021652Y0191938D01*
X0021492Y0191869D01*
X0021331Y0191805D01*
X0021168Y0191744D01*
X0021003Y0191688D01*
X0020837Y0191635D01*
X0020670Y0191587D01*
X0020502Y0191542D01*
X0020333Y0191502D01*
X0020163Y0191466D01*
X0019992Y0191434D01*
X0019820Y0191407D01*
X0019648Y0191383D01*
X0019475Y0191364D01*
X0019301Y0191349D01*
X0019128Y0191339D01*
X0018954Y0191332D01*
X0018780Y0191330D01*
X0018606Y0191332D01*
X0018432Y0191339D01*
X0018259Y0191349D01*
X0018085Y0191364D01*
X0017912Y0191383D01*
X0017740Y0191407D01*
X0017568Y0191434D01*
X0017397Y0191466D01*
X0017227Y0191502D01*
X0017058Y0191542D01*
X0016890Y0191587D01*
X0016723Y0191635D01*
X0016557Y0191688D01*
X0016392Y0191744D01*
X0016229Y0191805D01*
X0016068Y0191869D01*
X0015908Y0191938D01*
X0015750Y0192010D01*
X0015594Y0192087D01*
X0015439Y0192167D01*
X0015287Y0192251D01*
X0015137Y0192338D01*
X0014988Y0192430D01*
X0014843Y0192524D01*
X0014699Y0192623D01*
X0014558Y0192725D01*
X0014420Y0192830D01*
X0014284Y0192939D01*
X0014151Y0193051D01*
X0014021Y0193166D01*
X0013893Y0193284D01*
X0013769Y0193406D01*
X0013647Y0193530D01*
X0013529Y0193658D01*
X0013414Y0193788D01*
X0013302Y0193921D01*
X0013193Y0194057D01*
X0013088Y0194195D01*
X0012986Y0194336D01*
X0012887Y0194480D01*
X0012793Y0194625D01*
X0012701Y0194774D01*
X0012614Y0194924D01*
X0012530Y0195076D01*
X0012450Y0195231D01*
X0012373Y0195387D01*
X0012301Y0195545D01*
X0012232Y0195705D01*
X0012168Y0195866D01*
X0012107Y0196029D01*
X0012051Y0196194D01*
X0011998Y0196360D01*
X0011950Y0196527D01*
X0011905Y0196695D01*
X0011865Y0196864D01*
X0011829Y0197034D01*
X0011797Y0197205D01*
X0011770Y0197377D01*
X0011746Y0197549D01*
X0011727Y0197722D01*
X0011712Y0197896D01*
X0011702Y0198069D01*
X0011695Y0198243D01*
X0011693Y0198417D01*
X0017598Y0092118D02*
X0017600Y0092292D01*
X0017607Y0092466D01*
X0017617Y0092639D01*
X0017632Y0092813D01*
X0017651Y0092986D01*
X0017675Y0093158D01*
X0017702Y0093330D01*
X0017734Y0093501D01*
X0017770Y0093671D01*
X0017810Y0093840D01*
X0017855Y0094008D01*
X0017903Y0094175D01*
X0017956Y0094341D01*
X0018012Y0094506D01*
X0018073Y0094669D01*
X0018137Y0094830D01*
X0018206Y0094990D01*
X0018278Y0095148D01*
X0018355Y0095304D01*
X0018435Y0095459D01*
X0018519Y0095611D01*
X0018606Y0095761D01*
X0018698Y0095910D01*
X0018792Y0096055D01*
X0018891Y0096199D01*
X0018993Y0096340D01*
X0019098Y0096478D01*
X0019207Y0096614D01*
X0019319Y0096747D01*
X0019434Y0096877D01*
X0019552Y0097005D01*
X0019674Y0097129D01*
X0019798Y0097251D01*
X0019926Y0097369D01*
X0020056Y0097484D01*
X0020189Y0097596D01*
X0020325Y0097705D01*
X0020463Y0097810D01*
X0020604Y0097912D01*
X0020748Y0098011D01*
X0020893Y0098105D01*
X0021042Y0098197D01*
X0021192Y0098284D01*
X0021344Y0098368D01*
X0021499Y0098448D01*
X0021655Y0098525D01*
X0021813Y0098597D01*
X0021973Y0098666D01*
X0022134Y0098730D01*
X0022297Y0098791D01*
X0022462Y0098847D01*
X0022628Y0098900D01*
X0022795Y0098948D01*
X0022963Y0098993D01*
X0023132Y0099033D01*
X0023302Y0099069D01*
X0023473Y0099101D01*
X0023645Y0099128D01*
X0023817Y0099152D01*
X0023990Y0099171D01*
X0024164Y0099186D01*
X0024337Y0099196D01*
X0024511Y0099203D01*
X0024685Y0099205D01*
X0024859Y0099203D01*
X0025033Y0099196D01*
X0025206Y0099186D01*
X0025380Y0099171D01*
X0025553Y0099152D01*
X0025725Y0099128D01*
X0025897Y0099101D01*
X0026068Y0099069D01*
X0026238Y0099033D01*
X0026407Y0098993D01*
X0026575Y0098948D01*
X0026742Y0098900D01*
X0026908Y0098847D01*
X0027073Y0098791D01*
X0027236Y0098730D01*
X0027397Y0098666D01*
X0027557Y0098597D01*
X0027715Y0098525D01*
X0027871Y0098448D01*
X0028026Y0098368D01*
X0028178Y0098284D01*
X0028328Y0098197D01*
X0028477Y0098105D01*
X0028622Y0098011D01*
X0028766Y0097912D01*
X0028907Y0097810D01*
X0029045Y0097705D01*
X0029181Y0097596D01*
X0029314Y0097484D01*
X0029444Y0097369D01*
X0029572Y0097251D01*
X0029696Y0097129D01*
X0029818Y0097005D01*
X0029936Y0096877D01*
X0030051Y0096747D01*
X0030163Y0096614D01*
X0030272Y0096478D01*
X0030377Y0096340D01*
X0030479Y0096199D01*
X0030578Y0096055D01*
X0030672Y0095910D01*
X0030764Y0095761D01*
X0030851Y0095611D01*
X0030935Y0095459D01*
X0031015Y0095304D01*
X0031092Y0095148D01*
X0031164Y0094990D01*
X0031233Y0094830D01*
X0031297Y0094669D01*
X0031358Y0094506D01*
X0031414Y0094341D01*
X0031467Y0094175D01*
X0031515Y0094008D01*
X0031560Y0093840D01*
X0031600Y0093671D01*
X0031636Y0093501D01*
X0031668Y0093330D01*
X0031695Y0093158D01*
X0031719Y0092986D01*
X0031738Y0092813D01*
X0031753Y0092639D01*
X0031763Y0092466D01*
X0031770Y0092292D01*
X0031772Y0092118D01*
X0031770Y0091944D01*
X0031763Y0091770D01*
X0031753Y0091597D01*
X0031738Y0091423D01*
X0031719Y0091250D01*
X0031695Y0091078D01*
X0031668Y0090906D01*
X0031636Y0090735D01*
X0031600Y0090565D01*
X0031560Y0090396D01*
X0031515Y0090228D01*
X0031467Y0090061D01*
X0031414Y0089895D01*
X0031358Y0089730D01*
X0031297Y0089567D01*
X0031233Y0089406D01*
X0031164Y0089246D01*
X0031092Y0089088D01*
X0031015Y0088932D01*
X0030935Y0088777D01*
X0030851Y0088625D01*
X0030764Y0088475D01*
X0030672Y0088326D01*
X0030578Y0088181D01*
X0030479Y0088037D01*
X0030377Y0087896D01*
X0030272Y0087758D01*
X0030163Y0087622D01*
X0030051Y0087489D01*
X0029936Y0087359D01*
X0029818Y0087231D01*
X0029696Y0087107D01*
X0029572Y0086985D01*
X0029444Y0086867D01*
X0029314Y0086752D01*
X0029181Y0086640D01*
X0029045Y0086531D01*
X0028907Y0086426D01*
X0028766Y0086324D01*
X0028622Y0086225D01*
X0028477Y0086131D01*
X0028328Y0086039D01*
X0028178Y0085952D01*
X0028026Y0085868D01*
X0027871Y0085788D01*
X0027715Y0085711D01*
X0027557Y0085639D01*
X0027397Y0085570D01*
X0027236Y0085506D01*
X0027073Y0085445D01*
X0026908Y0085389D01*
X0026742Y0085336D01*
X0026575Y0085288D01*
X0026407Y0085243D01*
X0026238Y0085203D01*
X0026068Y0085167D01*
X0025897Y0085135D01*
X0025725Y0085108D01*
X0025553Y0085084D01*
X0025380Y0085065D01*
X0025206Y0085050D01*
X0025033Y0085040D01*
X0024859Y0085033D01*
X0024685Y0085031D01*
X0024511Y0085033D01*
X0024337Y0085040D01*
X0024164Y0085050D01*
X0023990Y0085065D01*
X0023817Y0085084D01*
X0023645Y0085108D01*
X0023473Y0085135D01*
X0023302Y0085167D01*
X0023132Y0085203D01*
X0022963Y0085243D01*
X0022795Y0085288D01*
X0022628Y0085336D01*
X0022462Y0085389D01*
X0022297Y0085445D01*
X0022134Y0085506D01*
X0021973Y0085570D01*
X0021813Y0085639D01*
X0021655Y0085711D01*
X0021499Y0085788D01*
X0021344Y0085868D01*
X0021192Y0085952D01*
X0021042Y0086039D01*
X0020893Y0086131D01*
X0020748Y0086225D01*
X0020604Y0086324D01*
X0020463Y0086426D01*
X0020325Y0086531D01*
X0020189Y0086640D01*
X0020056Y0086752D01*
X0019926Y0086867D01*
X0019798Y0086985D01*
X0019674Y0087107D01*
X0019552Y0087231D01*
X0019434Y0087359D01*
X0019319Y0087489D01*
X0019207Y0087622D01*
X0019098Y0087758D01*
X0018993Y0087896D01*
X0018891Y0088037D01*
X0018792Y0088181D01*
X0018698Y0088326D01*
X0018606Y0088475D01*
X0018519Y0088625D01*
X0018435Y0088777D01*
X0018355Y0088932D01*
X0018278Y0089088D01*
X0018206Y0089246D01*
X0018137Y0089406D01*
X0018073Y0089567D01*
X0018012Y0089730D01*
X0017956Y0089895D01*
X0017903Y0090061D01*
X0017855Y0090228D01*
X0017810Y0090396D01*
X0017770Y0090565D01*
X0017734Y0090735D01*
X0017702Y0090906D01*
X0017675Y0091078D01*
X0017651Y0091250D01*
X0017632Y0091423D01*
X0017617Y0091597D01*
X0017607Y0091770D01*
X0017600Y0091944D01*
X0017598Y0092118D01*
X0714448Y0080307D02*
X0714450Y0080481D01*
X0714457Y0080655D01*
X0714467Y0080828D01*
X0714482Y0081002D01*
X0714501Y0081175D01*
X0714525Y0081347D01*
X0714552Y0081519D01*
X0714584Y0081690D01*
X0714620Y0081860D01*
X0714660Y0082029D01*
X0714705Y0082197D01*
X0714753Y0082364D01*
X0714806Y0082530D01*
X0714862Y0082695D01*
X0714923Y0082858D01*
X0714987Y0083019D01*
X0715056Y0083179D01*
X0715128Y0083337D01*
X0715205Y0083493D01*
X0715285Y0083648D01*
X0715369Y0083800D01*
X0715456Y0083950D01*
X0715548Y0084099D01*
X0715642Y0084244D01*
X0715741Y0084388D01*
X0715843Y0084529D01*
X0715948Y0084667D01*
X0716057Y0084803D01*
X0716169Y0084936D01*
X0716284Y0085066D01*
X0716402Y0085194D01*
X0716524Y0085318D01*
X0716648Y0085440D01*
X0716776Y0085558D01*
X0716906Y0085673D01*
X0717039Y0085785D01*
X0717175Y0085894D01*
X0717313Y0085999D01*
X0717454Y0086101D01*
X0717598Y0086200D01*
X0717743Y0086294D01*
X0717892Y0086386D01*
X0718042Y0086473D01*
X0718194Y0086557D01*
X0718349Y0086637D01*
X0718505Y0086714D01*
X0718663Y0086786D01*
X0718823Y0086855D01*
X0718984Y0086919D01*
X0719147Y0086980D01*
X0719312Y0087036D01*
X0719478Y0087089D01*
X0719645Y0087137D01*
X0719813Y0087182D01*
X0719982Y0087222D01*
X0720152Y0087258D01*
X0720323Y0087290D01*
X0720495Y0087317D01*
X0720667Y0087341D01*
X0720840Y0087360D01*
X0721014Y0087375D01*
X0721187Y0087385D01*
X0721361Y0087392D01*
X0721535Y0087394D01*
X0721709Y0087392D01*
X0721883Y0087385D01*
X0722056Y0087375D01*
X0722230Y0087360D01*
X0722403Y0087341D01*
X0722575Y0087317D01*
X0722747Y0087290D01*
X0722918Y0087258D01*
X0723088Y0087222D01*
X0723257Y0087182D01*
X0723425Y0087137D01*
X0723592Y0087089D01*
X0723758Y0087036D01*
X0723923Y0086980D01*
X0724086Y0086919D01*
X0724247Y0086855D01*
X0724407Y0086786D01*
X0724565Y0086714D01*
X0724721Y0086637D01*
X0724876Y0086557D01*
X0725028Y0086473D01*
X0725178Y0086386D01*
X0725327Y0086294D01*
X0725472Y0086200D01*
X0725616Y0086101D01*
X0725757Y0085999D01*
X0725895Y0085894D01*
X0726031Y0085785D01*
X0726164Y0085673D01*
X0726294Y0085558D01*
X0726422Y0085440D01*
X0726546Y0085318D01*
X0726668Y0085194D01*
X0726786Y0085066D01*
X0726901Y0084936D01*
X0727013Y0084803D01*
X0727122Y0084667D01*
X0727227Y0084529D01*
X0727329Y0084388D01*
X0727428Y0084244D01*
X0727522Y0084099D01*
X0727614Y0083950D01*
X0727701Y0083800D01*
X0727785Y0083648D01*
X0727865Y0083493D01*
X0727942Y0083337D01*
X0728014Y0083179D01*
X0728083Y0083019D01*
X0728147Y0082858D01*
X0728208Y0082695D01*
X0728264Y0082530D01*
X0728317Y0082364D01*
X0728365Y0082197D01*
X0728410Y0082029D01*
X0728450Y0081860D01*
X0728486Y0081690D01*
X0728518Y0081519D01*
X0728545Y0081347D01*
X0728569Y0081175D01*
X0728588Y0081002D01*
X0728603Y0080828D01*
X0728613Y0080655D01*
X0728620Y0080481D01*
X0728622Y0080307D01*
X0728620Y0080133D01*
X0728613Y0079959D01*
X0728603Y0079786D01*
X0728588Y0079612D01*
X0728569Y0079439D01*
X0728545Y0079267D01*
X0728518Y0079095D01*
X0728486Y0078924D01*
X0728450Y0078754D01*
X0728410Y0078585D01*
X0728365Y0078417D01*
X0728317Y0078250D01*
X0728264Y0078084D01*
X0728208Y0077919D01*
X0728147Y0077756D01*
X0728083Y0077595D01*
X0728014Y0077435D01*
X0727942Y0077277D01*
X0727865Y0077121D01*
X0727785Y0076966D01*
X0727701Y0076814D01*
X0727614Y0076664D01*
X0727522Y0076515D01*
X0727428Y0076370D01*
X0727329Y0076226D01*
X0727227Y0076085D01*
X0727122Y0075947D01*
X0727013Y0075811D01*
X0726901Y0075678D01*
X0726786Y0075548D01*
X0726668Y0075420D01*
X0726546Y0075296D01*
X0726422Y0075174D01*
X0726294Y0075056D01*
X0726164Y0074941D01*
X0726031Y0074829D01*
X0725895Y0074720D01*
X0725757Y0074615D01*
X0725616Y0074513D01*
X0725472Y0074414D01*
X0725327Y0074320D01*
X0725178Y0074228D01*
X0725028Y0074141D01*
X0724876Y0074057D01*
X0724721Y0073977D01*
X0724565Y0073900D01*
X0724407Y0073828D01*
X0724247Y0073759D01*
X0724086Y0073695D01*
X0723923Y0073634D01*
X0723758Y0073578D01*
X0723592Y0073525D01*
X0723425Y0073477D01*
X0723257Y0073432D01*
X0723088Y0073392D01*
X0722918Y0073356D01*
X0722747Y0073324D01*
X0722575Y0073297D01*
X0722403Y0073273D01*
X0722230Y0073254D01*
X0722056Y0073239D01*
X0721883Y0073229D01*
X0721709Y0073222D01*
X0721535Y0073220D01*
X0721361Y0073222D01*
X0721187Y0073229D01*
X0721014Y0073239D01*
X0720840Y0073254D01*
X0720667Y0073273D01*
X0720495Y0073297D01*
X0720323Y0073324D01*
X0720152Y0073356D01*
X0719982Y0073392D01*
X0719813Y0073432D01*
X0719645Y0073477D01*
X0719478Y0073525D01*
X0719312Y0073578D01*
X0719147Y0073634D01*
X0718984Y0073695D01*
X0718823Y0073759D01*
X0718663Y0073828D01*
X0718505Y0073900D01*
X0718349Y0073977D01*
X0718194Y0074057D01*
X0718042Y0074141D01*
X0717892Y0074228D01*
X0717743Y0074320D01*
X0717598Y0074414D01*
X0717454Y0074513D01*
X0717313Y0074615D01*
X0717175Y0074720D01*
X0717039Y0074829D01*
X0716906Y0074941D01*
X0716776Y0075056D01*
X0716648Y0075174D01*
X0716524Y0075296D01*
X0716402Y0075420D01*
X0716284Y0075548D01*
X0716169Y0075678D01*
X0716057Y0075811D01*
X0715948Y0075947D01*
X0715843Y0076085D01*
X0715741Y0076226D01*
X0715642Y0076370D01*
X0715548Y0076515D01*
X0715456Y0076664D01*
X0715369Y0076814D01*
X0715285Y0076966D01*
X0715205Y0077121D01*
X0715128Y0077277D01*
X0715056Y0077435D01*
X0714987Y0077595D01*
X0714923Y0077756D01*
X0714862Y0077919D01*
X0714806Y0078084D01*
X0714753Y0078250D01*
X0714705Y0078417D01*
X0714660Y0078585D01*
X0714620Y0078754D01*
X0714584Y0078924D01*
X0714552Y0079095D01*
X0714525Y0079267D01*
X0714501Y0079439D01*
X0714482Y0079612D01*
X0714467Y0079786D01*
X0714457Y0079959D01*
X0714450Y0080133D01*
X0714448Y0080307D01*
X0895551Y0056685D02*
X0895553Y0056859D01*
X0895560Y0057033D01*
X0895570Y0057206D01*
X0895585Y0057380D01*
X0895604Y0057553D01*
X0895628Y0057725D01*
X0895655Y0057897D01*
X0895687Y0058068D01*
X0895723Y0058238D01*
X0895763Y0058407D01*
X0895808Y0058575D01*
X0895856Y0058742D01*
X0895909Y0058908D01*
X0895965Y0059073D01*
X0896026Y0059236D01*
X0896090Y0059397D01*
X0896159Y0059557D01*
X0896231Y0059715D01*
X0896308Y0059871D01*
X0896388Y0060026D01*
X0896472Y0060178D01*
X0896559Y0060328D01*
X0896651Y0060477D01*
X0896745Y0060622D01*
X0896844Y0060766D01*
X0896946Y0060907D01*
X0897051Y0061045D01*
X0897160Y0061181D01*
X0897272Y0061314D01*
X0897387Y0061444D01*
X0897505Y0061572D01*
X0897627Y0061696D01*
X0897751Y0061818D01*
X0897879Y0061936D01*
X0898009Y0062051D01*
X0898142Y0062163D01*
X0898278Y0062272D01*
X0898416Y0062377D01*
X0898557Y0062479D01*
X0898701Y0062578D01*
X0898846Y0062672D01*
X0898995Y0062764D01*
X0899145Y0062851D01*
X0899297Y0062935D01*
X0899452Y0063015D01*
X0899608Y0063092D01*
X0899766Y0063164D01*
X0899926Y0063233D01*
X0900087Y0063297D01*
X0900250Y0063358D01*
X0900415Y0063414D01*
X0900581Y0063467D01*
X0900748Y0063515D01*
X0900916Y0063560D01*
X0901085Y0063600D01*
X0901255Y0063636D01*
X0901426Y0063668D01*
X0901598Y0063695D01*
X0901770Y0063719D01*
X0901943Y0063738D01*
X0902117Y0063753D01*
X0902290Y0063763D01*
X0902464Y0063770D01*
X0902638Y0063772D01*
X0902812Y0063770D01*
X0902986Y0063763D01*
X0903159Y0063753D01*
X0903333Y0063738D01*
X0903506Y0063719D01*
X0903678Y0063695D01*
X0903850Y0063668D01*
X0904021Y0063636D01*
X0904191Y0063600D01*
X0904360Y0063560D01*
X0904528Y0063515D01*
X0904695Y0063467D01*
X0904861Y0063414D01*
X0905026Y0063358D01*
X0905189Y0063297D01*
X0905350Y0063233D01*
X0905510Y0063164D01*
X0905668Y0063092D01*
X0905824Y0063015D01*
X0905979Y0062935D01*
X0906131Y0062851D01*
X0906281Y0062764D01*
X0906430Y0062672D01*
X0906575Y0062578D01*
X0906719Y0062479D01*
X0906860Y0062377D01*
X0906998Y0062272D01*
X0907134Y0062163D01*
X0907267Y0062051D01*
X0907397Y0061936D01*
X0907525Y0061818D01*
X0907649Y0061696D01*
X0907771Y0061572D01*
X0907889Y0061444D01*
X0908004Y0061314D01*
X0908116Y0061181D01*
X0908225Y0061045D01*
X0908330Y0060907D01*
X0908432Y0060766D01*
X0908531Y0060622D01*
X0908625Y0060477D01*
X0908717Y0060328D01*
X0908804Y0060178D01*
X0908888Y0060026D01*
X0908968Y0059871D01*
X0909045Y0059715D01*
X0909117Y0059557D01*
X0909186Y0059397D01*
X0909250Y0059236D01*
X0909311Y0059073D01*
X0909367Y0058908D01*
X0909420Y0058742D01*
X0909468Y0058575D01*
X0909513Y0058407D01*
X0909553Y0058238D01*
X0909589Y0058068D01*
X0909621Y0057897D01*
X0909648Y0057725D01*
X0909672Y0057553D01*
X0909691Y0057380D01*
X0909706Y0057206D01*
X0909716Y0057033D01*
X0909723Y0056859D01*
X0909725Y0056685D01*
X0909723Y0056511D01*
X0909716Y0056337D01*
X0909706Y0056164D01*
X0909691Y0055990D01*
X0909672Y0055817D01*
X0909648Y0055645D01*
X0909621Y0055473D01*
X0909589Y0055302D01*
X0909553Y0055132D01*
X0909513Y0054963D01*
X0909468Y0054795D01*
X0909420Y0054628D01*
X0909367Y0054462D01*
X0909311Y0054297D01*
X0909250Y0054134D01*
X0909186Y0053973D01*
X0909117Y0053813D01*
X0909045Y0053655D01*
X0908968Y0053499D01*
X0908888Y0053344D01*
X0908804Y0053192D01*
X0908717Y0053042D01*
X0908625Y0052893D01*
X0908531Y0052748D01*
X0908432Y0052604D01*
X0908330Y0052463D01*
X0908225Y0052325D01*
X0908116Y0052189D01*
X0908004Y0052056D01*
X0907889Y0051926D01*
X0907771Y0051798D01*
X0907649Y0051674D01*
X0907525Y0051552D01*
X0907397Y0051434D01*
X0907267Y0051319D01*
X0907134Y0051207D01*
X0906998Y0051098D01*
X0906860Y0050993D01*
X0906719Y0050891D01*
X0906575Y0050792D01*
X0906430Y0050698D01*
X0906281Y0050606D01*
X0906131Y0050519D01*
X0905979Y0050435D01*
X0905824Y0050355D01*
X0905668Y0050278D01*
X0905510Y0050206D01*
X0905350Y0050137D01*
X0905189Y0050073D01*
X0905026Y0050012D01*
X0904861Y0049956D01*
X0904695Y0049903D01*
X0904528Y0049855D01*
X0904360Y0049810D01*
X0904191Y0049770D01*
X0904021Y0049734D01*
X0903850Y0049702D01*
X0903678Y0049675D01*
X0903506Y0049651D01*
X0903333Y0049632D01*
X0903159Y0049617D01*
X0902986Y0049607D01*
X0902812Y0049600D01*
X0902638Y0049598D01*
X0902464Y0049600D01*
X0902290Y0049607D01*
X0902117Y0049617D01*
X0901943Y0049632D01*
X0901770Y0049651D01*
X0901598Y0049675D01*
X0901426Y0049702D01*
X0901255Y0049734D01*
X0901085Y0049770D01*
X0900916Y0049810D01*
X0900748Y0049855D01*
X0900581Y0049903D01*
X0900415Y0049956D01*
X0900250Y0050012D01*
X0900087Y0050073D01*
X0899926Y0050137D01*
X0899766Y0050206D01*
X0899608Y0050278D01*
X0899452Y0050355D01*
X0899297Y0050435D01*
X0899145Y0050519D01*
X0898995Y0050606D01*
X0898846Y0050698D01*
X0898701Y0050792D01*
X0898557Y0050891D01*
X0898416Y0050993D01*
X0898278Y0051098D01*
X0898142Y0051207D01*
X0898009Y0051319D01*
X0897879Y0051434D01*
X0897751Y0051552D01*
X0897627Y0051674D01*
X0897505Y0051798D01*
X0897387Y0051926D01*
X0897272Y0052056D01*
X0897160Y0052189D01*
X0897051Y0052325D01*
X0896946Y0052463D01*
X0896844Y0052604D01*
X0896745Y0052748D01*
X0896651Y0052893D01*
X0896559Y0053042D01*
X0896472Y0053192D01*
X0896388Y0053344D01*
X0896308Y0053499D01*
X0896231Y0053655D01*
X0896159Y0053813D01*
X0896090Y0053973D01*
X0896026Y0054134D01*
X0895965Y0054297D01*
X0895909Y0054462D01*
X0895856Y0054628D01*
X0895808Y0054795D01*
X0895763Y0054963D01*
X0895723Y0055132D01*
X0895687Y0055302D01*
X0895655Y0055473D01*
X0895628Y0055645D01*
X0895604Y0055817D01*
X0895585Y0055990D01*
X0895570Y0056164D01*
X0895560Y0056337D01*
X0895553Y0056511D01*
X0895551Y0056685D01*
D17*
X0895638Y0056685D03*
X0897638Y0051785D03*
X0902438Y0049685D03*
X0907638Y0051685D03*
X0909538Y0056585D03*
X0907638Y0061685D03*
X0902838Y0063585D03*
X0897738Y0061485D03*
X0728435Y0080207D03*
X0726535Y0075307D03*
X0721335Y0073307D03*
X0716535Y0075407D03*
X0714535Y0080307D03*
X0716635Y0085107D03*
X0721735Y0087207D03*
X0726535Y0085307D03*
X0318455Y0260346D03*
X0313255Y0258346D03*
X0308455Y0260446D03*
X0306455Y0265346D03*
X0308555Y0270146D03*
X0313655Y0272246D03*
X0318455Y0270346D03*
X0320355Y0265246D03*
X0025680Y0198317D03*
X0023780Y0203417D03*
X0018980Y0205317D03*
X0013880Y0203217D03*
X0011780Y0198417D03*
X0013780Y0193517D03*
X0018580Y0191417D03*
X0023780Y0193417D03*
X0024885Y0099018D03*
X0029685Y0097118D03*
X0031585Y0092018D03*
X0029685Y0087118D03*
X0024485Y0085118D03*
X0019685Y0087218D03*
X0017685Y0092118D03*
X0019785Y0096918D03*
X0751937Y0285031D03*
X0753937Y0280131D03*
X0758737Y0278031D03*
X0763937Y0280031D03*
X0765837Y0284931D03*
X0763937Y0290031D03*
X0759137Y0291931D03*
X0754037Y0289831D03*
D18*
X0765000Y0260317D03*
X0796250Y0247817D03*
X0825000Y0249067D03*
X0832500Y0237817D03*
X0873800Y0257567D03*
X0907500Y0257817D03*
X0837500Y0259067D03*
X0907500Y0220317D03*
X0977500Y0227817D03*
X0950600Y0181567D03*
X0963750Y0171567D03*
X0941250Y0150317D03*
X0889400Y0144367D03*
X0857500Y0148517D03*
X0828200Y0152767D03*
X0809575Y0140742D03*
X0867800Y0161167D03*
X0777800Y0168967D03*
X0706400Y0168967D03*
X0682500Y0175317D03*
X0666200Y0177967D03*
X0653000Y0179167D03*
X0645000Y0175417D03*
X0636250Y0177817D03*
X0595000Y0161567D03*
X0581600Y0156967D03*
X0570850Y0156567D03*
X0565400Y0156367D03*
X0587000Y0169567D03*
X0563750Y0174067D03*
X0544400Y0183667D03*
X0514050Y0176567D03*
X0487500Y0171567D03*
X0507500Y0165317D03*
X0507500Y0155317D03*
X0508750Y0151567D03*
X0501250Y0147817D03*
X0487500Y0155317D03*
X0453750Y0170317D03*
X0439450Y0172817D03*
X0417500Y0172817D03*
X0399150Y0169067D03*
X0399900Y0155317D03*
X0416000Y0155167D03*
X0433300Y0160317D03*
X0437550Y0140817D03*
X0413150Y0141417D03*
X0409400Y0138967D03*
X0362300Y0153717D03*
X0352200Y0151967D03*
X0357500Y0145317D03*
X0330000Y0154067D03*
X0311250Y0146567D03*
X0290150Y0143967D03*
X0288200Y0135367D03*
X0254600Y0150367D03*
X0233400Y0137167D03*
X0235400Y0132967D03*
X0227600Y0131767D03*
X0194600Y0128767D03*
X0190200Y0129167D03*
X0180200Y0143767D03*
X0166600Y0147167D03*
X0153200Y0145567D03*
X0143000Y0145567D03*
X0122500Y0135317D03*
X0113750Y0132817D03*
X0137800Y0119967D03*
X0158750Y0114067D03*
X0115000Y0092817D03*
X0091400Y0089567D03*
X0063750Y0094067D03*
X0063750Y0082817D03*
X0088200Y0057567D03*
X0102500Y0050317D03*
X0103750Y0040317D03*
X0105800Y0022367D03*
X0113750Y0022817D03*
X0182500Y0040317D03*
X0213750Y0035317D03*
X0210850Y0021667D03*
X0196250Y0021567D03*
X0277000Y0025567D03*
X0296250Y0022767D03*
X0285000Y0035167D03*
X0302600Y0043567D03*
X0286600Y0047967D03*
X0296250Y0059067D03*
X0293750Y0066567D03*
X0274550Y0059067D03*
X0302600Y0074767D03*
X0297000Y0085317D03*
X0275400Y0089167D03*
X0220000Y0085317D03*
X0215000Y0062817D03*
X0326600Y0059167D03*
X0328200Y0067167D03*
X0349400Y0063967D03*
X0350600Y0070567D03*
X0380000Y0077817D03*
X0366600Y0079967D03*
X0351200Y0078367D03*
X0371250Y0088467D03*
X0358600Y0094367D03*
X0362500Y0101567D03*
X0376250Y0111567D03*
X0428750Y0095317D03*
X0433400Y0095767D03*
X0438150Y0094667D03*
X0428750Y0090317D03*
X0448750Y0096567D03*
X0439450Y0099067D03*
X0448800Y0105217D03*
X0452500Y0105317D03*
X0456250Y0105317D03*
X0452500Y0112767D03*
X0448800Y0115917D03*
X0518600Y0110767D03*
X0533750Y0100317D03*
X0532500Y0096567D03*
X0550600Y0094367D03*
X0555400Y0094367D03*
X0575600Y0099967D03*
X0555400Y0106767D03*
X0551200Y0105367D03*
X0587500Y0119067D03*
X0600000Y0100317D03*
X0600000Y0087817D03*
X0590000Y0087817D03*
X0564350Y0079067D03*
X0551250Y0072817D03*
X0573750Y0061567D03*
X0573750Y0057817D03*
X0596250Y0059067D03*
X0600000Y0057817D03*
X0605000Y0047817D03*
X0638600Y0046367D03*
X0651800Y0036367D03*
X0623750Y0027817D03*
X0636800Y0022567D03*
X0644600Y0021967D03*
X0598750Y0014067D03*
X0567200Y0020167D03*
X0564800Y0010567D03*
X0555800Y0008767D03*
X0543750Y0027817D03*
X0561250Y0040317D03*
X0546250Y0057817D03*
X0524000Y0071167D03*
X0510000Y0075317D03*
X0505000Y0074067D03*
X0500000Y0071567D03*
X0483950Y0072667D03*
X0477500Y0070317D03*
X0465000Y0065317D03*
X0457500Y0070317D03*
X0454600Y0067167D03*
X0448200Y0063967D03*
X0443400Y0063967D03*
X0432200Y0059167D03*
X0429000Y0062367D03*
X0423750Y0062817D03*
X0423850Y0067717D03*
X0419200Y0068767D03*
X0411550Y0070017D03*
X0406250Y0073067D03*
X0405000Y0077817D03*
X0428750Y0075317D03*
X0430000Y0079067D03*
X0447500Y0074067D03*
X0444800Y0070367D03*
X0453750Y0074067D03*
X0454650Y0080667D03*
X0465450Y0080667D03*
X0467500Y0084067D03*
X0476250Y0082817D03*
X0480000Y0082817D03*
X0488600Y0090367D03*
X0415000Y0058817D03*
X0432200Y0054367D03*
X0438600Y0055967D03*
X0478750Y0042817D03*
X0491250Y0026917D03*
X0496250Y0020317D03*
X0462600Y0024517D03*
X0429000Y0027167D03*
X0423750Y0027817D03*
X0416250Y0027817D03*
X0411250Y0027817D03*
X0406250Y0029067D03*
X0392200Y0049567D03*
X0386600Y0063967D03*
X0382400Y0061567D03*
X0217800Y0110367D03*
X0217800Y0151967D03*
X0205000Y0159967D03*
X0195400Y0159967D03*
X0185800Y0156767D03*
X0182600Y0159967D03*
X0217800Y0163167D03*
X0217800Y0172767D03*
X0155400Y0177567D03*
X0129800Y0177567D03*
X0086250Y0174067D03*
X0083400Y0154317D03*
X0072500Y0202817D03*
X0092500Y0211567D03*
X0099400Y0212767D03*
X0115000Y0221567D03*
X0105000Y0234067D03*
X0089800Y0225567D03*
X0083750Y0227817D03*
X0085000Y0244067D03*
X0126250Y0257817D03*
X0141000Y0232752D03*
X0141000Y0212767D03*
X0178400Y0207967D03*
X0217500Y0210317D03*
X0257500Y0196567D03*
X0281250Y0177817D03*
X0311250Y0170317D03*
X0330000Y0165317D03*
X0329800Y0183967D03*
X0316450Y0187817D03*
X0325000Y0196767D03*
X0331250Y0197817D03*
X0405000Y0201567D03*
X0412600Y0222317D03*
X0402200Y0224167D03*
X0425650Y0227867D03*
X0394600Y0239617D03*
X0396150Y0244067D03*
X0389600Y0234967D03*
X0437000Y0252367D03*
X0448400Y0248167D03*
X0455200Y0267967D03*
X0461000Y0276367D03*
X0461000Y0290767D03*
X0455800Y0296267D03*
X0450000Y0300317D03*
X0396800Y0288367D03*
X0396200Y0281767D03*
X0378200Y0278167D03*
X0366200Y0297967D03*
X0302500Y0282867D03*
X0275000Y0257817D03*
X0318750Y0239067D03*
X0320000Y0225367D03*
X0253000Y0231967D03*
X0201250Y0257817D03*
X0162200Y0304567D03*
X0026600Y0258967D03*
X0347500Y0257817D03*
X0498750Y0246467D03*
X0545000Y0259067D03*
X0613750Y0257817D03*
X0633850Y0239617D03*
X0638600Y0222967D03*
X0611250Y0209067D03*
X0630000Y0199067D03*
X0696250Y0205317D03*
X0701600Y0226567D03*
X0696200Y0231967D03*
X0765000Y0215317D03*
X0777800Y0201367D03*
X0702800Y0182167D03*
X0706400Y0156967D03*
X0673800Y0143967D03*
X0652500Y0147817D03*
X0642200Y0140167D03*
X0630600Y0145567D03*
X0682500Y0131567D03*
X0740000Y0119067D03*
X0671600Y0107767D03*
X0665000Y0091567D03*
X0675800Y0083767D03*
X0665000Y0073567D03*
X0640000Y0066567D03*
X0617500Y0087817D03*
X0703050Y0090317D03*
X0740000Y0057817D03*
X0810000Y0057767D03*
X0833600Y0077167D03*
X0810000Y0090317D03*
X0816200Y0111967D03*
X0926811Y0077817D03*
X0940000Y0090317D03*
X0898750Y0031567D03*
X0541000Y0145567D03*
X0519200Y0135367D03*
X0347400Y0131167D03*
X0516200Y0215167D03*
X0690000Y0259067D03*
X0961250Y0295317D03*
D19*
X0977500Y0279067D01*
X0977500Y0227817D01*
X0950600Y0200917D01*
X0950600Y0181567D01*
X0950600Y0180967D01*
X0950600Y0157567D01*
X0943350Y0150317D01*
X0941250Y0150317D01*
X0941250Y0136567D01*
X0941171Y0136645D01*
X0940945Y0136645D01*
X0950945Y0136645D02*
X0952274Y0135317D01*
X0965000Y0135317D01*
X0973750Y0126567D01*
X0973750Y0054067D01*
X0977500Y0050317D01*
X0977500Y0042817D01*
X0955000Y0020317D01*
X0951250Y0020317D01*
X0941526Y0030041D01*
X0941526Y0031842D01*
X0940945Y0031842D01*
X0929419Y0020317D01*
X0702500Y0020317D01*
X0700000Y0022817D01*
X0651550Y0022817D01*
X0638600Y0035767D01*
X0596000Y0035767D01*
X0576200Y0015967D01*
X0554400Y0015967D01*
X0552500Y0014067D01*
X0212500Y0014067D01*
X0205000Y0021567D01*
X0196250Y0021567D01*
X0239665Y0028151D02*
X0242500Y0025317D01*
X0260000Y0025317D01*
X0272500Y0037817D01*
X0272500Y0054067D01*
X0268750Y0057817D01*
X0268750Y0100317D01*
X0281250Y0112817D01*
X0281250Y0177817D01*
X0262600Y0179167D02*
X0262600Y0151967D01*
X0241800Y0131167D01*
X0240800Y0131167D01*
X0238400Y0128767D01*
X0230600Y0128767D01*
X0222200Y0120367D01*
X0222200Y0114767D01*
X0217800Y0110367D01*
X0214600Y0107167D01*
X0214600Y0062367D01*
X0215000Y0062817D01*
X0182500Y0047817D02*
X0182500Y0040317D01*
X0182500Y0047817D02*
X0171250Y0059067D01*
X0171250Y0069067D01*
X0158750Y0081567D01*
X0158750Y0114067D01*
X0137800Y0119967D02*
X0137800Y0083493D01*
X0137074Y0082767D01*
X0129200Y0082767D02*
X0129200Y0065767D01*
X0121250Y0057817D01*
X0121250Y0037817D01*
X0105800Y0022367D01*
X0101000Y0026317D02*
X0101000Y0017567D01*
X0101800Y0017567D01*
X0111200Y0008167D01*
X0555200Y0008167D01*
X0555800Y0008767D01*
X0564800Y0010567D02*
X0581600Y0010567D01*
X0593000Y0021967D01*
X0605600Y0021967D01*
X0614600Y0030967D01*
X0635600Y0030967D01*
X0644600Y0021967D01*
X0636800Y0022567D02*
X0631550Y0027817D01*
X0623750Y0027817D01*
X0610000Y0014067D01*
X0598750Y0014067D01*
X0567200Y0020167D02*
X0559550Y0027817D01*
X0543750Y0027817D01*
X0547450Y0036567D02*
X0533700Y0022817D01*
X0526250Y0022817D01*
X0520177Y0028889D01*
X0520177Y0031842D01*
X0491250Y0026917D02*
X0491250Y0024067D01*
X0485000Y0017817D01*
X0370000Y0017817D01*
X0366875Y0020942D01*
X0361900Y0023367D01*
X0296250Y0022767D01*
X0315000Y0040317D02*
X0323474Y0031842D01*
X0351870Y0031842D01*
X0361870Y0031842D02*
X0361870Y0025947D01*
X0361900Y0023367D01*
X0315000Y0040317D02*
X0315000Y0089367D01*
X0299600Y0104767D01*
X0299600Y0123967D01*
X0310400Y0134767D01*
X0313200Y0134767D01*
X0322500Y0144067D01*
X0322500Y0189067D01*
X0320000Y0191567D01*
X0320000Y0225367D01*
X0320000Y0237817D01*
X0318750Y0239067D01*
X0331250Y0227817D02*
X0347500Y0244067D01*
X0347500Y0257817D01*
X0394400Y0239617D02*
X0394600Y0239617D01*
X0394400Y0239617D02*
X0395000Y0239017D01*
X0395000Y0146167D01*
X0377900Y0129067D01*
X0377500Y0129067D01*
X0375000Y0126567D01*
X0375000Y0119067D01*
X0376250Y0117817D01*
X0376250Y0111567D01*
X0363750Y0101567D02*
X0362500Y0101567D01*
X0363750Y0101567D02*
X0363750Y0138817D01*
X0357500Y0145067D01*
X0357500Y0145317D01*
X0357500Y0146667D01*
X0357000Y0147167D01*
X0357000Y0180767D01*
X0350600Y0187167D01*
X0342600Y0187167D01*
X0331950Y0197817D01*
X0331250Y0197817D01*
X0331250Y0227817D01*
X0275000Y0221498D02*
X0257569Y0204067D01*
X0257569Y0196636D01*
X0257500Y0196567D01*
X0253000Y0188767D02*
X0262600Y0179167D01*
X0253000Y0188767D02*
X0253000Y0231967D01*
X0275000Y0221498D02*
X0275000Y0257817D01*
X0217500Y0240317D02*
X0201250Y0256567D01*
X0201250Y0257817D01*
X0217500Y0240317D02*
X0217500Y0210317D01*
X0178400Y0207967D02*
X0162200Y0224167D01*
X0162200Y0304567D01*
X0043307Y0286252D02*
X0042992Y0286567D01*
X0029000Y0286567D01*
X0020600Y0278167D01*
X0020600Y0265567D01*
X0026250Y0259917D01*
X0026250Y0251567D01*
X0033750Y0244067D01*
X0065000Y0244067D01*
X0077500Y0231567D01*
X0077500Y0207817D01*
X0072500Y0202817D01*
X0083750Y0201567D02*
X0086250Y0199067D01*
X0086250Y0191567D01*
X0083400Y0188717D01*
X0075000Y0180317D01*
X0075000Y0162817D01*
X0083400Y0154417D01*
X0083400Y0154317D01*
X0071358Y0146458D02*
X0063750Y0154067D01*
X0063750Y0180356D01*
X0062657Y0181449D01*
X0078750Y0177817D02*
X0078750Y0166567D01*
X0108750Y0136567D01*
X0108750Y0106567D01*
X0091750Y0089567D01*
X0091400Y0089567D01*
X0091400Y0060767D01*
X0088200Y0057567D01*
X0090800Y0046567D02*
X0077000Y0060367D01*
X0077000Y0102067D01*
X0063150Y0115917D01*
X0063150Y0128437D01*
X0071358Y0136645D01*
X0071358Y0146458D01*
X0113750Y0132817D02*
X0113750Y0105317D01*
X0105000Y0096567D01*
X0105000Y0052817D01*
X0102500Y0050317D01*
X0108750Y0047817D02*
X0108750Y0094067D01*
X0122500Y0107817D01*
X0122500Y0135317D01*
X0131250Y0142817D02*
X0145000Y0156567D01*
X0167300Y0156567D01*
X0167500Y0156767D01*
X0185800Y0156767D01*
X0201800Y0142367D01*
X0245000Y0142367D01*
X0254600Y0150367D01*
X0298750Y0139067D02*
X0305000Y0145317D01*
X0310000Y0145317D01*
X0311250Y0146567D01*
X0311250Y0170317D01*
X0330000Y0165317D02*
X0330000Y0154067D01*
X0352200Y0151967D02*
X0352200Y0143967D01*
X0358600Y0137567D01*
X0358600Y0094367D01*
X0363750Y0101567D02*
X0363750Y0082817D01*
X0363500Y0082567D01*
X0363400Y0082567D01*
X0359200Y0078367D01*
X0351200Y0078367D01*
X0366600Y0079967D02*
X0366600Y0140517D01*
X0362500Y0145317D01*
X0362300Y0145517D01*
X0362300Y0153717D01*
X0352200Y0151967D02*
X0352200Y0179167D01*
X0347400Y0183967D01*
X0341000Y0183967D01*
X0336200Y0188767D01*
X0333000Y0188767D01*
X0325000Y0196767D01*
X0329800Y0183967D02*
X0334600Y0183967D01*
X0347400Y0171167D01*
X0347400Y0131167D01*
X0298750Y0127917D02*
X0296000Y0125167D01*
X0295750Y0087167D01*
X0297000Y0085317D01*
X0275400Y0089167D02*
X0275400Y0061417D01*
X0274550Y0059067D01*
X0239665Y0031842D02*
X0239665Y0028151D01*
X0117500Y0042817D02*
X0117500Y0076491D01*
X0121326Y0080317D01*
X0121326Y0082767D01*
X0113452Y0082767D02*
X0113452Y0085019D01*
X0131250Y0102817D01*
X0131250Y0142817D01*
X0127500Y0149067D02*
X0127500Y0105317D01*
X0115000Y0092817D01*
X0063750Y0094067D02*
X0063750Y0082817D01*
X0103750Y0042817D02*
X0108750Y0047817D01*
X0090800Y0046567D02*
X0090800Y0041167D01*
X0081476Y0031842D01*
X0062657Y0031842D01*
X0101000Y0026317D02*
X0117500Y0042817D01*
X0103750Y0042817D02*
X0103750Y0040317D01*
X0298750Y0127917D02*
X0298750Y0139067D01*
X0406400Y0141967D02*
X0409400Y0138967D01*
X0406400Y0141967D02*
X0406400Y0200167D01*
X0405000Y0201567D01*
X0405000Y0220317D01*
X0426250Y0241567D01*
X0426250Y0241617D01*
X0437000Y0252367D01*
X0455200Y0238967D02*
X0455200Y0267967D01*
X0455800Y0296267D01*
X0450000Y0300317D02*
X0448250Y0298567D01*
X0413600Y0298567D01*
X0396800Y0281767D01*
X0396200Y0281767D01*
X0396800Y0288367D02*
X0387200Y0297967D01*
X0366200Y0297967D01*
X0387200Y0297967D02*
X0395800Y0306567D01*
X0458750Y0306567D01*
X0475200Y0290117D01*
X0534300Y0290117D01*
X0545000Y0297817D01*
X0691250Y0297817D01*
X0691250Y0269067D01*
X0700000Y0260317D01*
X0700000Y0247817D01*
X0711250Y0236567D01*
X0711250Y0187817D01*
X0733750Y0165317D01*
X0733750Y0064567D01*
X0695350Y0026167D01*
X0675200Y0026167D01*
X0669783Y0031583D01*
X0669783Y0031842D01*
X0649124Y0031842D01*
X0641600Y0039367D01*
X0569600Y0039367D01*
X0564800Y0034567D01*
X0555800Y0034567D01*
X0553800Y0036567D01*
X0547450Y0036567D01*
X0496250Y0020317D02*
X0496250Y0055317D01*
X0514050Y0073117D01*
X0514050Y0176567D01*
X0544400Y0183667D02*
X0545000Y0259067D01*
X0528750Y0259067D02*
X0516200Y0246517D01*
X0516200Y0215167D01*
X0476000Y0204967D02*
X0469400Y0211567D01*
X0469400Y0224767D01*
X0455200Y0238967D01*
X0528750Y0259067D02*
X0528750Y0275317D01*
X0520500Y0285367D01*
X0470600Y0285367D01*
X0465200Y0290767D01*
X0461000Y0290767D01*
X0613750Y0257817D02*
X0613750Y0211567D01*
X0611250Y0209067D01*
X0630000Y0199067D02*
X0630600Y0198467D01*
X0630600Y0177817D01*
X0636250Y0177817D01*
X0630600Y0177817D02*
X0630600Y0145567D01*
X0641600Y0147367D02*
X0642200Y0140167D01*
X0652500Y0137817D02*
X0652500Y0147817D01*
X0641600Y0147367D02*
X0653000Y0158767D01*
X0653000Y0179167D01*
X0645000Y0175417D02*
X0633850Y0187767D01*
X0633850Y0239617D01*
X0690000Y0259067D02*
X0696250Y0236717D01*
X0696200Y0231967D01*
X0696200Y0228767D01*
X0696250Y0205317D01*
X0750236Y0216449D02*
X0750354Y0216567D01*
X0755000Y0216567D01*
X0770000Y0201567D01*
X0770000Y0192817D01*
X0746600Y0169417D01*
X0746600Y0111367D01*
X0756321Y0101645D01*
X0767638Y0101645D01*
X0810000Y0090317D02*
X0810000Y0057767D01*
X0828200Y0075967D02*
X0832400Y0071767D01*
X0832400Y0039367D01*
X0839924Y0031842D01*
X0856791Y0031842D01*
X0866791Y0031842D02*
X0867067Y0031567D01*
X0898750Y0031567D01*
X0901250Y0025317D02*
X0914449Y0040484D01*
X0920354Y0054716D01*
X0922323Y0068496D01*
X0912894Y0077925D01*
X0912894Y0181449D01*
X0946400Y0162967D02*
X0917000Y0133567D01*
X0917000Y0113045D01*
X0928400Y0101645D01*
X0935945Y0101645D01*
X0955945Y0081645D01*
X0955945Y0066842D01*
X0940000Y0090317D02*
X0927500Y0077817D01*
X0926811Y0077817D01*
X0833600Y0077167D02*
X0833600Y0126367D01*
X0843583Y0136349D01*
X0843583Y0214165D01*
X0848750Y0219332D01*
X0848750Y0226567D01*
X0837500Y0237817D01*
X0832500Y0237817D01*
X0832500Y0254067D01*
X0837500Y0259067D01*
X0825039Y0249027D02*
X0825000Y0249067D01*
X0825039Y0249027D02*
X0825039Y0216449D01*
X0873800Y0233567D02*
X0889400Y0217967D01*
X0889400Y0144367D01*
X0867800Y0137654D02*
X0867800Y0161167D01*
X0857500Y0148517D02*
X0856791Y0146008D01*
X0856791Y0136645D01*
X0866791Y0136645D02*
X0867800Y0137654D01*
X0828200Y0152767D02*
X0828200Y0075967D01*
X0740000Y0057817D02*
X0740000Y0119067D01*
X0684783Y0107383D02*
X0673800Y0118367D01*
X0673800Y0143967D01*
X0669200Y0136567D02*
X0666200Y0139567D01*
X0666200Y0177967D01*
X0682500Y0175317D02*
X0682500Y0131567D01*
X0669200Y0136567D02*
X0669200Y0110167D01*
X0671600Y0107767D01*
X0671600Y0087967D01*
X0675800Y0083767D01*
X0665000Y0091567D02*
X0665000Y0073567D01*
X0684783Y0066842D02*
X0684783Y0107383D01*
X0661250Y0100317D02*
X0661250Y0129067D01*
X0652500Y0137817D01*
X0595000Y0161567D02*
X0595000Y0071567D01*
X0605000Y0059067D01*
X0605000Y0047817D01*
X0606450Y0046367D01*
X0638600Y0046367D01*
X0640000Y0066567D02*
X0641250Y0067817D01*
X0641250Y0089067D01*
X0650000Y0089067D01*
X0661250Y0100317D01*
X0641250Y0089067D02*
X0637500Y0092817D01*
X0608750Y0092817D01*
X0601250Y0100317D01*
X0600000Y0100317D01*
X0587500Y0119067D02*
X0587100Y0119067D01*
X0587000Y0119167D01*
X0587000Y0169567D01*
X0570850Y0156567D02*
X0563750Y0169067D01*
X0563750Y0174067D01*
X0541000Y0145567D02*
X0522800Y0127367D01*
X0522800Y0078967D01*
X0527247Y0074519D01*
X0527500Y0074519D01*
X0535177Y0066842D01*
X0524000Y0071167D02*
X0516800Y0078367D01*
X0516800Y0110767D01*
X0518600Y0110767D01*
X0516800Y0110767D02*
X0516800Y0133567D01*
X0518600Y0135367D01*
X0519200Y0135367D01*
X0465650Y0112167D02*
X0465650Y0169717D01*
X0476000Y0180067D01*
X0476000Y0204967D01*
X0433300Y0160317D02*
X0433300Y0095867D01*
X0433400Y0095767D01*
X0460000Y0097817D02*
X0460000Y0105317D01*
X0465650Y0112167D01*
X0460000Y0097817D02*
X0465000Y0092817D01*
X0476250Y0092817D01*
X0483750Y0084067D01*
X0483750Y0076617D01*
X0483950Y0072667D01*
X0465450Y0080667D02*
X0454650Y0080667D01*
X0405000Y0077817D02*
X0380000Y0077817D01*
X0366600Y0079967D02*
X0366600Y0067167D01*
X0366870Y0066897D01*
X0366870Y0066842D01*
X0127500Y0149067D02*
X0110000Y0166567D01*
X0110000Y0216567D01*
X0115000Y0221567D01*
X0099400Y0230367D02*
X0085700Y0244067D01*
X0085000Y0244067D01*
X0105000Y0234067D02*
X0105000Y0192817D01*
X0086250Y0174067D01*
X0078750Y0177817D02*
X0090000Y0189067D01*
X0089800Y0211567D01*
X0092500Y0211567D01*
X0089800Y0211567D02*
X0089800Y0225567D01*
X0083750Y0227817D02*
X0083750Y0201567D01*
X0099400Y0212767D02*
X0099400Y0230367D01*
X0126093Y0247659D02*
X0126093Y0257659D01*
X0126250Y0257817D01*
X0113110Y0251252D02*
X0038307Y0251252D01*
X0126093Y0247659D02*
X0141000Y0232752D01*
X0141000Y0212767D01*
X0166600Y0156767D02*
X0167500Y0156767D01*
X0691250Y0297817D02*
X0938750Y0297817D01*
X0950315Y0286252D01*
X0950945Y0286252D01*
X0907500Y0257817D02*
X0907500Y0220317D01*
X0927894Y0216449D02*
X0928412Y0216967D01*
X0938000Y0216967D01*
X0946400Y0208567D01*
X0946400Y0162967D01*
X0963750Y0171567D02*
X0963750Y0202817D01*
X0967500Y0206567D01*
X0977500Y0206567D01*
X0873800Y0233567D02*
X0873800Y0257567D01*
X0796250Y0247817D02*
X0785000Y0236567D01*
X0785000Y0170767D01*
X0786200Y0169567D01*
X0786200Y0164117D01*
X0809575Y0140742D01*
X0809625Y0140742D01*
X0816200Y0134167D01*
X0816200Y0134117D02*
X0816200Y0111967D01*
X0702800Y0182167D02*
X0702800Y0225367D01*
X0701600Y0226567D01*
X0765000Y0215317D02*
X0765000Y0260317D01*
X0763287Y0031842D02*
X0769813Y0025317D01*
X0901250Y0025317D01*
D20*
X0665600Y0099367D02*
X0665600Y0132367D01*
X0656000Y0141967D01*
X0656000Y0180367D01*
X0649400Y0186967D01*
X0642200Y0186967D01*
X0636800Y0192367D01*
X0636800Y0221167D01*
X0638600Y0222967D01*
X0502500Y0177817D02*
X0488750Y0191567D01*
X0488750Y0206567D01*
X0498750Y0216567D01*
X0498750Y0240967D01*
X0498150Y0241567D01*
X0465200Y0241567D01*
X0461000Y0245767D01*
X0461000Y0276367D01*
X0451400Y0298917D02*
X0450000Y0300317D01*
X0451400Y0298917D02*
X0451400Y0236767D01*
X0465200Y0222967D01*
X0465200Y0209167D01*
X0473000Y0201367D01*
X0473000Y0184567D01*
X0465200Y0176767D01*
X0455000Y0176767D01*
X0446250Y0168017D01*
X0446250Y0099067D01*
X0448750Y0096567D01*
X0447500Y0092817D02*
X0444350Y0095967D01*
X0444350Y0101017D01*
X0439400Y0105967D01*
X0439400Y0132367D01*
X0443600Y0136567D01*
X0443600Y0168967D01*
X0453800Y0179167D01*
X0464600Y0179167D01*
X0470600Y0185167D01*
X0470600Y0200767D01*
X0463400Y0207967D01*
X0463400Y0221767D01*
X0448400Y0236767D01*
X0448400Y0248167D01*
X0498750Y0246467D02*
X0498750Y0240967D01*
X0425650Y0227867D02*
X0411250Y0214067D01*
X0411250Y0176567D01*
X0415000Y0172817D01*
X0417500Y0172817D01*
X0402200Y0174367D02*
X0400400Y0176167D01*
X0400400Y0216367D01*
X0399200Y0218167D01*
X0399200Y0261117D01*
X0392500Y0267817D01*
X0392500Y0268067D01*
X0382400Y0278167D01*
X0378200Y0278167D01*
X0302500Y0282867D02*
X0298400Y0257767D01*
X0292500Y0251567D01*
X0292500Y0213367D01*
X0305000Y0200867D01*
X0305000Y0179167D01*
X0301250Y0175417D01*
X0301250Y0175367D01*
X0293750Y0167867D01*
X0293750Y0129517D01*
X0291800Y0127567D01*
X0291800Y0068167D01*
X0293600Y0066367D01*
X0293750Y0066567D01*
X0291400Y0063917D02*
X0290000Y0065317D01*
X0290000Y0128767D01*
X0291250Y0130017D01*
X0291250Y0142817D01*
X0290150Y0143917D01*
X0290150Y0143967D01*
X0288200Y0135367D02*
X0288200Y0079967D01*
X0285000Y0076767D01*
X0285000Y0054367D01*
X0281800Y0051167D01*
X0281800Y0039967D01*
X0285000Y0035167D01*
X0302600Y0043567D02*
X0302600Y0074767D01*
X0297500Y0068517D02*
X0293850Y0071567D01*
X0293800Y0071567D01*
X0293600Y0071767D01*
X0293600Y0126967D01*
X0296250Y0129617D01*
X0296250Y0167617D01*
X0316450Y0187817D01*
X0398600Y0170767D02*
X0398600Y0215767D01*
X0397400Y0217567D01*
X0397400Y0242867D01*
X0396200Y0244067D01*
X0396150Y0244067D01*
X0389600Y0234967D02*
X0392600Y0231967D01*
X0392600Y0148567D01*
X0371250Y0127217D01*
X0371250Y0088467D01*
X0393622Y0101645D02*
X0418701Y0076567D01*
X0427550Y0076567D01*
X0428750Y0075317D01*
X0426750Y0073567D02*
X0415200Y0073567D01*
X0406250Y0073067D01*
X0411550Y0070017D02*
X0421000Y0071967D01*
X0425850Y0071967D01*
X0431250Y0066567D01*
X0454000Y0066567D01*
X0454600Y0067167D01*
X0457500Y0070317D02*
X0465000Y0065317D01*
X0462600Y0062367D02*
X0462600Y0024517D01*
X0491250Y0026917D02*
X0491250Y0061567D01*
X0478750Y0074067D01*
X0453750Y0074067D01*
X0447500Y0074067D02*
X0436250Y0074067D01*
X0433750Y0076567D01*
X0433750Y0079067D01*
X0420000Y0092817D01*
X0420000Y0101567D01*
X0431000Y0112567D01*
X0431000Y0128167D01*
X0416000Y0143167D01*
X0416000Y0155167D01*
X0404000Y0150967D02*
X0404000Y0198367D01*
X0402200Y0200167D01*
X0402200Y0203767D01*
X0402800Y0204367D01*
X0402800Y0218767D01*
X0402200Y0224167D01*
X0408750Y0219067D02*
X0412600Y0222317D01*
X0408750Y0219067D02*
X0409350Y0147017D01*
X0413150Y0141417D01*
X0404000Y0150967D02*
X0391250Y0138217D01*
X0391250Y0114067D01*
X0395000Y0110317D01*
X0397500Y0110317D01*
X0428750Y0079067D01*
X0430000Y0079067D01*
X0426750Y0073567D02*
X0430000Y0070317D01*
X0441000Y0070317D01*
X0444800Y0070367D01*
X0443400Y0063967D02*
X0443400Y0055967D01*
X0437000Y0049567D01*
X0433800Y0049567D01*
X0429000Y0044767D01*
X0429000Y0027167D01*
X0427400Y0031467D02*
X0423750Y0027817D01*
X0427400Y0031467D02*
X0427400Y0046367D01*
X0432200Y0051167D01*
X0435400Y0051167D01*
X0438600Y0054367D01*
X0438600Y0055967D01*
X0432200Y0054367D02*
X0425800Y0047967D01*
X0425800Y0036117D01*
X0417500Y0027817D01*
X0416250Y0027817D01*
X0411250Y0027817D02*
X0411250Y0028617D01*
X0424200Y0041567D01*
X0424200Y0049567D01*
X0427400Y0052767D01*
X0427400Y0054367D01*
X0432200Y0059167D01*
X0429000Y0059167D02*
X0429000Y0062367D01*
X0429000Y0059167D02*
X0422600Y0052767D01*
X0422600Y0043167D01*
X0417800Y0038367D01*
X0413000Y0038367D01*
X0406250Y0031617D01*
X0406250Y0029067D01*
X0392200Y0049567D02*
X0401450Y0058817D01*
X0415000Y0058817D01*
X0419500Y0063367D02*
X0423850Y0067717D01*
X0419200Y0068767D02*
X0414750Y0066817D01*
X0368146Y0066817D01*
X0366870Y0066842D01*
X0350600Y0070567D02*
X0346600Y0067167D01*
X0328200Y0067167D01*
X0331400Y0063967D02*
X0326600Y0059167D01*
X0331400Y0063967D02*
X0349400Y0063967D01*
X0382400Y0061567D02*
X0383000Y0060967D01*
X0389000Y0060967D01*
X0389600Y0061567D01*
X0422000Y0061567D01*
X0423250Y0062817D01*
X0423750Y0062817D01*
X0419500Y0063367D02*
X0387800Y0063367D01*
X0387200Y0063967D01*
X0386600Y0063967D01*
X0448200Y0063967D02*
X0461000Y0063967D01*
X0462600Y0062367D01*
X0475000Y0067817D02*
X0475000Y0046567D01*
X0478750Y0042817D01*
X0475000Y0067817D02*
X0477500Y0070317D01*
X0500000Y0071567D02*
X0500000Y0077817D01*
X0507700Y0087317D01*
X0507700Y0141367D01*
X0501250Y0147817D01*
X0502500Y0151567D02*
X0509600Y0142667D01*
X0509600Y0086517D01*
X0505000Y0076567D01*
X0505000Y0074067D01*
X0510000Y0075317D02*
X0511500Y0084567D01*
X0511500Y0144017D01*
X0508750Y0151567D01*
X0507500Y0155317D02*
X0507500Y0165317D01*
X0487500Y0171567D02*
X0487500Y0155317D01*
X0505800Y0136417D01*
X0505800Y0101767D01*
X0493800Y0090367D01*
X0488600Y0090367D01*
X0480000Y0082817D02*
X0472500Y0090317D01*
X0465000Y0090317D01*
X0461250Y0092817D01*
X0447500Y0092817D01*
X0438150Y0094667D02*
X0438150Y0095217D01*
X0435800Y0097567D01*
X0435800Y0137867D01*
X0437550Y0140817D01*
X0441200Y0136567D02*
X0441200Y0171367D01*
X0439750Y0172817D01*
X0439450Y0172817D01*
X0448100Y0164667D02*
X0453750Y0170317D01*
X0448100Y0164667D02*
X0448100Y0120967D01*
X0456250Y0112817D01*
X0456250Y0105317D01*
X0452500Y0105317D02*
X0452500Y0112767D01*
X0448800Y0115917D02*
X0448800Y0105217D01*
X0439450Y0099067D02*
X0439100Y0099067D01*
X0437600Y0100567D01*
X0437600Y0132967D01*
X0441200Y0136567D01*
X0399900Y0155317D02*
X0399900Y0156467D01*
X0402200Y0158767D01*
X0402200Y0174367D01*
X0398600Y0170767D02*
X0398550Y0169517D01*
X0399150Y0169067D01*
X0502500Y0177817D02*
X0502500Y0151567D01*
X0565400Y0156367D02*
X0569600Y0152167D01*
X0575000Y0152167D01*
X0581600Y0145567D01*
X0581600Y0105967D01*
X0575600Y0099967D01*
X0584000Y0103567D02*
X0584000Y0154567D01*
X0581600Y0156967D01*
X0581250Y0156617D01*
X0706400Y0156967D02*
X0706400Y0168967D01*
X0706400Y0169067D01*
X0777800Y0168967D02*
X0777800Y0201367D01*
X0555400Y0106767D02*
X0555400Y0094367D01*
X0552200Y0095967D02*
X0550600Y0094367D01*
X0552200Y0095967D02*
X0552200Y0103967D01*
X0551200Y0105367D01*
X0533750Y0100317D02*
X0551250Y0082817D01*
X0551250Y0072817D01*
X0561250Y0080817D02*
X0584000Y0103567D01*
X0580000Y0087817D02*
X0590000Y0087817D01*
X0580000Y0087817D02*
X0571250Y0079067D01*
X0564350Y0079067D01*
X0561250Y0080817D02*
X0561250Y0040317D01*
X0576250Y0055317D02*
X0573750Y0057817D01*
X0576250Y0055317D02*
X0597500Y0055317D01*
X0600000Y0057817D01*
X0596250Y0059067D02*
X0578750Y0059067D01*
X0576250Y0061567D01*
X0573750Y0061567D01*
X0546250Y0057817D02*
X0546250Y0082817D01*
X0532500Y0096567D01*
X0476250Y0082817D02*
X0471250Y0087817D01*
X0435000Y0087817D01*
X0433750Y0089067D01*
X0428750Y0095317D01*
X0428750Y0090317D02*
X0433750Y0085317D01*
X0466250Y0085317D01*
X0467500Y0084067D01*
X0600000Y0087817D02*
X0617500Y0087817D01*
X0644600Y0078367D02*
X0665600Y0099367D01*
X0644600Y0078367D02*
X0644600Y0044767D01*
X0651800Y0037567D01*
X0651800Y0036367D01*
X0297500Y0064067D02*
X0297500Y0068517D01*
X0297500Y0064067D02*
X0296250Y0062817D01*
X0296250Y0059067D01*
X0291400Y0063917D02*
X0291400Y0052767D01*
X0286600Y0047967D01*
X0277000Y0056717D02*
X0274550Y0059067D01*
X0277000Y0056717D02*
X0277000Y0025567D01*
X0213750Y0035317D02*
X0213750Y0054067D01*
X0220000Y0060317D01*
X0220000Y0085317D01*
X0215000Y0062817D02*
X0213750Y0062817D01*
X0211250Y0060317D01*
X0210850Y0021667D01*
X0146161Y0031842D02*
X0137136Y0022817D01*
X0113750Y0022817D01*
X0194600Y0128767D02*
X0198200Y0132367D01*
X0224600Y0132367D01*
X0227600Y0131767D01*
X0229200Y0135567D02*
X0231800Y0132967D01*
X0235400Y0132967D01*
X0233400Y0137167D02*
X0200600Y0137167D01*
X0194000Y0143767D01*
X0180200Y0143767D01*
X0166600Y0147167D02*
X0166600Y0156767D01*
X0182600Y0159967D02*
X0195400Y0159967D01*
X0205000Y0159967D01*
X0217800Y0163167D02*
X0217800Y0151967D01*
X0217800Y0163167D02*
X0217800Y0172767D01*
X0155400Y0177567D02*
X0129800Y0177567D01*
X0143000Y0145567D02*
X0153200Y0145567D01*
X0190200Y0129167D02*
X0197200Y0135567D01*
X0229200Y0135567D01*
X0026600Y0258967D02*
X0026250Y0259317D01*
X0026250Y0259917D01*
M02*
