G75*
%MOIN*%
%OFA0B0*%
%FSLAX25Y25*%
%IPPOS*%
%LPD*%
%AMOC8*
5,1,8,0,0,1.08239X$1,22.5*
%
%ADD10R,0.01969X0.01969*%
%ADD11C,0.10000*%
%ADD12C,0.06600*%
%ADD13R,0.05000X0.04500*%
%ADD14R,0.04500X0.05000*%
%ADD15R,0.00787X0.03937*%
%ADD16R,0.03937X0.00787*%
%ADD17R,0.02756X0.05512*%
%ADD18R,0.04724X0.17323*%
%ADD19R,0.05512X0.17323*%
%ADD20R,0.01575X0.05906*%
%ADD21C,0.05150*%
%ADD22R,0.08800X0.04800*%
%ADD23R,0.08661X0.14173*%
%ADD24R,0.05150X0.05150*%
%ADD25R,0.04724X0.04724*%
%ADD26R,0.07874X0.11811*%
%ADD27R,0.05906X0.05906*%
%ADD28C,0.06600*%
%ADD29R,0.07874X0.04724*%
%ADD30R,0.02657X0.00984*%
%ADD31R,0.00984X0.02657*%
%ADD32R,0.06102X0.03937*%
%ADD33R,0.04724X0.09646*%
%ADD34C,0.03969*%
%ADD35C,0.03937*%
%ADD36C,0.03200*%
%ADD37C,0.01600*%
%ADD38C,0.02800*%
%ADD39C,0.00600*%
%ADD40C,0.00800*%
D10*
X0047008Y0066842D03*
X0055669Y0066842D03*
X0091783Y0093368D03*
X0091783Y0102029D03*
X0140069Y0068092D03*
X0148730Y0068092D03*
X0235413Y0067748D03*
X0244075Y0067748D03*
X0274789Y0094141D03*
X0274789Y0102803D03*
X0212175Y0111006D03*
X0203514Y0111006D03*
X0341449Y0078331D03*
X0341449Y0069670D03*
X0372825Y0105878D03*
X0365925Y0111006D03*
X0357264Y0111006D03*
X0381486Y0105878D03*
X0503514Y0111006D03*
X0512175Y0111006D03*
X0579764Y0111006D03*
X0588425Y0111006D03*
X0656014Y0111006D03*
X0664675Y0111006D03*
X0731102Y0110454D03*
X0739764Y0110454D03*
X0803602Y0109204D03*
X0812264Y0109204D03*
X0888602Y0109204D03*
X0897264Y0109204D03*
X0947736Y0097679D03*
X0956398Y0097679D03*
X0945404Y0066488D03*
X0936742Y0066488D03*
X0857372Y0070514D03*
X0857372Y0061852D03*
X0767116Y0066517D03*
X0758455Y0066517D03*
X0673465Y0066517D03*
X0664803Y0066517D03*
X0524075Y0066498D03*
X0515413Y0066498D03*
X0705561Y0206134D03*
X0714222Y0206134D03*
X0781181Y0206567D03*
X0789843Y0206567D03*
X0883396Y0207462D03*
X0892057Y0207462D03*
X0881486Y0249264D03*
X0872825Y0249264D03*
X0830925Y0260120D03*
X0822264Y0260120D03*
X0755925Y0260120D03*
X0747264Y0260120D03*
X0680925Y0260120D03*
X0672264Y0260120D03*
X0605157Y0257974D03*
X0596496Y0257974D03*
X0531407Y0259224D03*
X0522746Y0259224D03*
X0459907Y0259974D03*
X0451246Y0259974D03*
X0465469Y0288167D03*
X0474131Y0288167D03*
X0521219Y0290267D03*
X0529881Y0290267D03*
X0358504Y0248909D03*
X0349843Y0248909D03*
X0282254Y0248909D03*
X0273593Y0248909D03*
X0211004Y0250159D03*
X0202343Y0250159D03*
X0134754Y0247659D03*
X0126093Y0247659D03*
X0081407Y0257974D03*
X0072746Y0257974D03*
X0089600Y0264836D03*
X0089600Y0273497D03*
X0130020Y0216960D03*
X0138681Y0216960D03*
X0090131Y0208260D03*
X0081470Y0208260D03*
X0207520Y0216960D03*
X0216181Y0216960D03*
X0257569Y0207423D03*
X0266230Y0207423D03*
X0330856Y0207718D03*
X0339518Y0207718D03*
X0405364Y0208811D03*
X0414026Y0208811D03*
X0480364Y0207561D03*
X0489026Y0207561D03*
X0554114Y0207561D03*
X0562776Y0207561D03*
X0629311Y0207384D03*
X0637972Y0207384D03*
X0907200Y0265836D03*
X0907200Y0274497D03*
X0948770Y0249569D03*
X0957431Y0249569D03*
D11*
X0935945Y0251252D03*
X0960945Y0261252D03*
X0886142Y0261252D03*
X0861142Y0251252D03*
X0811339Y0261252D03*
X0786339Y0251252D03*
X0736535Y0261252D03*
X0711535Y0251252D03*
X0661732Y0261252D03*
X0636732Y0251252D03*
X0586929Y0261252D03*
X0561929Y0251252D03*
X0512126Y0260267D03*
X0487126Y0250267D03*
X0437323Y0261252D03*
X0412323Y0251252D03*
X0362520Y0261252D03*
X0337520Y0251252D03*
X0287717Y0261252D03*
X0262717Y0251252D03*
X0212913Y0261252D03*
X0187913Y0251252D03*
X0138110Y0261252D03*
X0113110Y0251252D03*
X0063307Y0261252D03*
X0038307Y0251252D03*
X0067657Y0216449D03*
X0042657Y0206449D03*
X0126811Y0206449D03*
X0151811Y0216449D03*
X0201614Y0206449D03*
X0226614Y0216449D03*
X0276417Y0206449D03*
X0301417Y0216449D03*
X0351220Y0206449D03*
X0376220Y0216449D03*
X0426024Y0206449D03*
X0451024Y0216449D03*
X0500827Y0206449D03*
X0525827Y0216449D03*
X0575630Y0206449D03*
X0600630Y0216449D03*
X0650433Y0206449D03*
X0675433Y0216449D03*
X0725236Y0206449D03*
X0750236Y0216449D03*
X0800039Y0206449D03*
X0825039Y0216449D03*
X0902894Y0206449D03*
X0927894Y0216449D03*
X0960945Y0111645D03*
X0935945Y0101645D03*
X0876791Y0111645D03*
X0851791Y0101645D03*
X0792638Y0111645D03*
X0767638Y0101645D03*
X0717835Y0111645D03*
X0692835Y0101645D03*
X0643031Y0111645D03*
X0618031Y0101645D03*
X0568228Y0111645D03*
X0543228Y0101645D03*
X0493425Y0111645D03*
X0468425Y0101645D03*
X0418622Y0111645D03*
X0393622Y0101645D03*
X0343819Y0111645D03*
X0318819Y0101645D03*
X0269016Y0111645D03*
X0244016Y0101645D03*
X0194213Y0111645D03*
X0169213Y0101645D03*
X0091358Y0111645D03*
X0066358Y0101645D03*
X0067657Y0066842D03*
X0042657Y0056842D03*
X0136161Y0056842D03*
X0161161Y0066842D03*
X0229665Y0056842D03*
X0254665Y0066842D03*
X0341870Y0056842D03*
X0366870Y0066842D03*
X0510177Y0056842D03*
X0535177Y0066842D03*
X0659783Y0056842D03*
X0684783Y0066842D03*
X0753287Y0056842D03*
X0778287Y0066842D03*
X0846791Y0056842D03*
X0871791Y0066842D03*
X0930945Y0056842D03*
X0955945Y0066842D03*
D12*
X0950945Y0031842D03*
X0940945Y0031842D03*
X0866791Y0031842D03*
X0856791Y0031842D03*
X0773287Y0031842D03*
X0763287Y0031842D03*
X0679783Y0031842D03*
X0669783Y0031842D03*
X0530177Y0031842D03*
X0520177Y0031842D03*
X0361870Y0031842D03*
X0351870Y0031842D03*
X0249665Y0031842D03*
X0239665Y0031842D03*
X0156161Y0031842D03*
X0146161Y0031842D03*
X0062657Y0031842D03*
X0052657Y0031842D03*
X0071358Y0136645D03*
X0081358Y0136645D03*
X0062657Y0181449D03*
X0052657Y0181449D03*
X0053307Y0286252D03*
X0043307Y0286252D03*
X0856791Y0136645D03*
X0866791Y0136645D03*
X0940945Y0136645D03*
X0950945Y0136645D03*
X0922894Y0181449D03*
X0912894Y0181449D03*
X0940945Y0286252D03*
X0950945Y0286252D03*
D13*
X0696450Y0169067D03*
X0682700Y0169067D03*
X0682700Y0161567D03*
X0696450Y0161567D03*
X0670200Y0161567D03*
X0658950Y0161567D03*
X0647700Y0161567D03*
X0636450Y0161567D03*
X0636450Y0169067D03*
X0647700Y0169067D03*
X0658950Y0169067D03*
X0670200Y0169067D03*
X0620200Y0169067D03*
X0606450Y0169067D03*
X0606450Y0161567D03*
X0620200Y0161567D03*
X0535950Y0160167D03*
X0527350Y0160517D03*
X0515950Y0160517D03*
X0515950Y0153017D03*
X0527350Y0153017D03*
X0535950Y0152667D03*
X0482100Y0155317D03*
X0482100Y0162817D03*
X0318600Y0164217D03*
X0318600Y0171717D03*
X0318600Y0154117D03*
X0318600Y0146617D03*
X0224600Y0158617D03*
X0224600Y0166117D03*
X0212850Y0139817D03*
X0204800Y0139817D03*
X0197300Y0141417D03*
X0189800Y0141417D03*
X0189800Y0133917D03*
X0197300Y0133917D03*
X0204800Y0132317D03*
X0212850Y0132317D03*
X0166200Y0133917D03*
X0157100Y0133917D03*
X0148700Y0133917D03*
X0148700Y0141417D03*
X0157100Y0141417D03*
X0166200Y0141417D03*
X0156950Y0150217D03*
X0148550Y0150217D03*
X0148550Y0157717D03*
X0156950Y0157717D03*
X0156950Y0165067D03*
X0148550Y0165067D03*
X0148550Y0172567D03*
X0156950Y0172567D03*
X0186050Y0193067D03*
X0186050Y0200567D03*
X0120000Y0226567D03*
X0120000Y0234067D03*
X0387300Y0280417D03*
X0387300Y0287917D03*
X0479850Y0095367D03*
X0479850Y0087867D03*
X0423750Y0085067D03*
X0415000Y0085067D03*
X0415000Y0077567D03*
X0423750Y0077567D03*
X0482500Y0056317D03*
X0482500Y0048817D03*
X0482500Y0037567D03*
X0473750Y0037567D03*
X0466250Y0037567D03*
X0466250Y0030067D03*
X0473750Y0030067D03*
X0482500Y0030067D03*
X0573800Y0021317D03*
X0583400Y0021317D03*
X0593800Y0021317D03*
X0605000Y0021317D03*
X0615400Y0021317D03*
X0625000Y0021317D03*
X0625000Y0013817D03*
X0615400Y0013817D03*
X0605000Y0013817D03*
X0593800Y0013817D03*
X0583400Y0013817D03*
X0573800Y0013817D03*
D14*
X0625250Y0037567D03*
X0632750Y0037567D03*
X0632750Y0044767D03*
X0625250Y0044767D03*
X0625250Y0053567D03*
X0632750Y0053567D03*
X0632750Y0062367D03*
X0625250Y0062367D03*
X0625250Y0071167D03*
X0632750Y0071167D03*
X0632750Y0079967D03*
X0625250Y0079967D03*
X0607150Y0093767D03*
X0599650Y0093767D03*
X0587950Y0094167D03*
X0580450Y0094167D03*
X0570350Y0093567D03*
X0562850Y0093567D03*
X0558950Y0066317D03*
X0551450Y0066317D03*
X0551100Y0057517D03*
X0558600Y0057517D03*
X0448550Y0021167D03*
X0441050Y0021167D03*
X0430950Y0021967D03*
X0423450Y0021967D03*
X0426250Y0037567D03*
X0418750Y0037567D03*
X0406250Y0037567D03*
X0398750Y0037567D03*
X0398750Y0045067D03*
X0406250Y0045067D03*
X0418750Y0045067D03*
X0426250Y0045067D03*
X0426250Y0053817D03*
X0418750Y0053817D03*
X0317350Y0052367D03*
X0309850Y0052367D03*
X0309850Y0059567D03*
X0317350Y0059567D03*
X0317350Y0066767D03*
X0309850Y0066767D03*
X0309850Y0043567D03*
X0317350Y0043567D03*
X0317350Y0034767D03*
X0309850Y0034767D03*
X0309850Y0025967D03*
X0317350Y0025967D03*
X0226250Y0031567D03*
X0218750Y0031567D03*
X0040000Y0034067D03*
X0032500Y0034067D03*
X0174750Y0137667D03*
X0182250Y0137667D03*
X0218050Y0146967D03*
X0225550Y0146967D03*
X0260450Y0150567D03*
X0267950Y0150567D03*
X0225700Y0179017D03*
X0218200Y0179017D03*
X0156500Y0183067D03*
X0149000Y0183067D03*
X0139550Y0171817D03*
X0132050Y0171817D03*
D15*
X0442923Y0090283D03*
X0444892Y0090283D03*
X0446860Y0090283D03*
X0448829Y0090283D03*
X0450797Y0090283D03*
X0452766Y0090283D03*
X0454734Y0090283D03*
X0456703Y0090283D03*
X0458671Y0090283D03*
X0460640Y0090283D03*
X0462608Y0090283D03*
X0464577Y0090283D03*
X0464577Y0054850D03*
X0462608Y0054850D03*
X0460640Y0054850D03*
X0458671Y0054850D03*
X0456703Y0054850D03*
X0454734Y0054850D03*
X0452766Y0054850D03*
X0450797Y0054850D03*
X0448829Y0054850D03*
X0446860Y0054850D03*
X0444892Y0054850D03*
X0442923Y0054850D03*
D16*
X0436033Y0061740D03*
X0436033Y0063708D03*
X0436033Y0065677D03*
X0436033Y0067645D03*
X0436033Y0069614D03*
X0436033Y0071582D03*
X0436033Y0073551D03*
X0436033Y0075519D03*
X0436033Y0077488D03*
X0436033Y0079456D03*
X0436033Y0081425D03*
X0436033Y0083393D03*
X0471467Y0083393D03*
X0471467Y0081425D03*
X0471467Y0079456D03*
X0471467Y0077488D03*
X0471467Y0075519D03*
X0471467Y0073551D03*
X0471467Y0071582D03*
X0471467Y0069614D03*
X0471467Y0067645D03*
X0471467Y0065677D03*
X0471467Y0063708D03*
X0471467Y0061740D03*
D17*
X0472953Y0043817D03*
X0467047Y0043817D03*
D18*
X0456093Y0038817D03*
X0436407Y0038817D03*
D19*
X0446250Y0038817D03*
D20*
X0579766Y0038095D03*
X0582325Y0038095D03*
X0584884Y0038095D03*
X0587443Y0038095D03*
X0590002Y0038095D03*
X0592561Y0038095D03*
X0595120Y0038095D03*
X0597680Y0038095D03*
X0600239Y0038095D03*
X0602798Y0038095D03*
X0605357Y0038095D03*
X0607916Y0038095D03*
X0610475Y0038095D03*
X0613034Y0038095D03*
X0613034Y0066638D03*
X0610475Y0066638D03*
X0607916Y0066638D03*
X0605357Y0066638D03*
X0602798Y0066638D03*
X0600239Y0066638D03*
X0597680Y0066638D03*
X0595120Y0066638D03*
X0592561Y0066638D03*
X0590002Y0066638D03*
X0587443Y0066638D03*
X0584884Y0066638D03*
X0582325Y0066638D03*
X0579766Y0066638D03*
X0208034Y0149695D03*
X0205475Y0149695D03*
X0202916Y0149695D03*
X0200357Y0149695D03*
X0197798Y0149695D03*
X0195239Y0149695D03*
X0192680Y0149695D03*
X0190120Y0149695D03*
X0187561Y0149695D03*
X0185002Y0149695D03*
X0182443Y0149695D03*
X0179884Y0149695D03*
X0177325Y0149695D03*
X0174766Y0149695D03*
X0174766Y0178238D03*
X0177325Y0178238D03*
X0179884Y0178238D03*
X0182443Y0178238D03*
X0185002Y0178238D03*
X0187561Y0178238D03*
X0190120Y0178238D03*
X0192680Y0178238D03*
X0195239Y0178238D03*
X0197798Y0178238D03*
X0200357Y0178238D03*
X0202916Y0178238D03*
X0205475Y0178238D03*
X0208034Y0178238D03*
D21*
X0237850Y0170373D03*
X0237850Y0151160D03*
X0144948Y0082767D03*
X0137074Y0082767D03*
X0129200Y0082767D03*
X0121326Y0082767D03*
X0583394Y0080767D03*
X0602606Y0080767D03*
D22*
X0303600Y0152067D03*
X0303600Y0161167D03*
X0303600Y0170267D03*
D23*
X0279199Y0161167D03*
D24*
X0113452Y0082767D03*
D25*
X0112662Y0141967D03*
X0101638Y0141967D03*
X0176050Y0190055D03*
X0176050Y0201078D03*
X0106962Y0192167D03*
X0095938Y0192167D03*
D26*
X0096548Y0177167D03*
X0121352Y0177167D03*
X0121352Y0154667D03*
X0096548Y0154667D03*
D27*
X0050928Y0216118D03*
X0037148Y0216118D03*
X0024550Y0216118D03*
X0024550Y0241315D03*
X0037148Y0241315D03*
X0050928Y0241315D03*
D28*
X0046056Y0175172D02*
X0039456Y0175172D01*
X0018930Y0175172D02*
X0012330Y0175172D01*
X0012330Y0113361D02*
X0018930Y0113361D01*
X0039456Y0113361D02*
X0046056Y0113361D01*
D29*
X0049764Y0130487D03*
X0049764Y0140330D03*
X0049764Y0148204D03*
X0049764Y0158046D03*
D30*
X0492156Y0157078D03*
X0492156Y0155110D03*
X0492156Y0153141D03*
X0492156Y0159047D03*
X0492156Y0161015D03*
X0492156Y0162984D03*
X0492156Y0164952D03*
X0502096Y0164952D03*
X0502096Y0162984D03*
X0502096Y0161015D03*
X0502096Y0159047D03*
X0502096Y0157078D03*
X0502096Y0155110D03*
X0502096Y0153141D03*
D31*
X0499094Y0151124D03*
X0497126Y0151124D03*
X0495157Y0151124D03*
X0495157Y0166970D03*
X0497126Y0166970D03*
X0499094Y0166970D03*
D32*
X0897126Y0282669D03*
X0897126Y0289362D03*
X0923898Y0289362D03*
X0923898Y0282669D03*
X0097126Y0282669D03*
X0097126Y0289362D03*
X0070354Y0289362D03*
X0070354Y0282669D03*
D33*
X0487283Y0288910D03*
X0497126Y0288910D03*
X0506969Y0288910D03*
D34*
X0977500Y0206567D03*
X0982500Y0206567D03*
X0982500Y0201567D03*
X0977500Y0201567D03*
X0977500Y0196567D03*
X0982500Y0196567D03*
X0982500Y0191567D03*
X0977500Y0191567D03*
D35*
X0751850Y0285031D02*
X0751852Y0285205D01*
X0751859Y0285379D01*
X0751869Y0285552D01*
X0751884Y0285726D01*
X0751903Y0285899D01*
X0751927Y0286071D01*
X0751954Y0286243D01*
X0751986Y0286414D01*
X0752022Y0286584D01*
X0752062Y0286753D01*
X0752107Y0286921D01*
X0752155Y0287088D01*
X0752208Y0287254D01*
X0752264Y0287419D01*
X0752325Y0287582D01*
X0752389Y0287743D01*
X0752458Y0287903D01*
X0752530Y0288061D01*
X0752607Y0288217D01*
X0752687Y0288372D01*
X0752771Y0288524D01*
X0752858Y0288674D01*
X0752950Y0288823D01*
X0753044Y0288968D01*
X0753143Y0289112D01*
X0753245Y0289253D01*
X0753350Y0289391D01*
X0753459Y0289527D01*
X0753571Y0289660D01*
X0753686Y0289790D01*
X0753804Y0289918D01*
X0753926Y0290042D01*
X0754050Y0290164D01*
X0754178Y0290282D01*
X0754308Y0290397D01*
X0754441Y0290509D01*
X0754577Y0290618D01*
X0754715Y0290723D01*
X0754856Y0290825D01*
X0755000Y0290924D01*
X0755145Y0291018D01*
X0755294Y0291110D01*
X0755444Y0291197D01*
X0755596Y0291281D01*
X0755751Y0291361D01*
X0755907Y0291438D01*
X0756065Y0291510D01*
X0756225Y0291579D01*
X0756386Y0291643D01*
X0756549Y0291704D01*
X0756714Y0291760D01*
X0756880Y0291813D01*
X0757047Y0291861D01*
X0757215Y0291906D01*
X0757384Y0291946D01*
X0757554Y0291982D01*
X0757725Y0292014D01*
X0757897Y0292041D01*
X0758069Y0292065D01*
X0758242Y0292084D01*
X0758416Y0292099D01*
X0758589Y0292109D01*
X0758763Y0292116D01*
X0758937Y0292118D01*
X0759111Y0292116D01*
X0759285Y0292109D01*
X0759458Y0292099D01*
X0759632Y0292084D01*
X0759805Y0292065D01*
X0759977Y0292041D01*
X0760149Y0292014D01*
X0760320Y0291982D01*
X0760490Y0291946D01*
X0760659Y0291906D01*
X0760827Y0291861D01*
X0760994Y0291813D01*
X0761160Y0291760D01*
X0761325Y0291704D01*
X0761488Y0291643D01*
X0761649Y0291579D01*
X0761809Y0291510D01*
X0761967Y0291438D01*
X0762123Y0291361D01*
X0762278Y0291281D01*
X0762430Y0291197D01*
X0762580Y0291110D01*
X0762729Y0291018D01*
X0762874Y0290924D01*
X0763018Y0290825D01*
X0763159Y0290723D01*
X0763297Y0290618D01*
X0763433Y0290509D01*
X0763566Y0290397D01*
X0763696Y0290282D01*
X0763824Y0290164D01*
X0763948Y0290042D01*
X0764070Y0289918D01*
X0764188Y0289790D01*
X0764303Y0289660D01*
X0764415Y0289527D01*
X0764524Y0289391D01*
X0764629Y0289253D01*
X0764731Y0289112D01*
X0764830Y0288968D01*
X0764924Y0288823D01*
X0765016Y0288674D01*
X0765103Y0288524D01*
X0765187Y0288372D01*
X0765267Y0288217D01*
X0765344Y0288061D01*
X0765416Y0287903D01*
X0765485Y0287743D01*
X0765549Y0287582D01*
X0765610Y0287419D01*
X0765666Y0287254D01*
X0765719Y0287088D01*
X0765767Y0286921D01*
X0765812Y0286753D01*
X0765852Y0286584D01*
X0765888Y0286414D01*
X0765920Y0286243D01*
X0765947Y0286071D01*
X0765971Y0285899D01*
X0765990Y0285726D01*
X0766005Y0285552D01*
X0766015Y0285379D01*
X0766022Y0285205D01*
X0766024Y0285031D01*
X0766022Y0284857D01*
X0766015Y0284683D01*
X0766005Y0284510D01*
X0765990Y0284336D01*
X0765971Y0284163D01*
X0765947Y0283991D01*
X0765920Y0283819D01*
X0765888Y0283648D01*
X0765852Y0283478D01*
X0765812Y0283309D01*
X0765767Y0283141D01*
X0765719Y0282974D01*
X0765666Y0282808D01*
X0765610Y0282643D01*
X0765549Y0282480D01*
X0765485Y0282319D01*
X0765416Y0282159D01*
X0765344Y0282001D01*
X0765267Y0281845D01*
X0765187Y0281690D01*
X0765103Y0281538D01*
X0765016Y0281388D01*
X0764924Y0281239D01*
X0764830Y0281094D01*
X0764731Y0280950D01*
X0764629Y0280809D01*
X0764524Y0280671D01*
X0764415Y0280535D01*
X0764303Y0280402D01*
X0764188Y0280272D01*
X0764070Y0280144D01*
X0763948Y0280020D01*
X0763824Y0279898D01*
X0763696Y0279780D01*
X0763566Y0279665D01*
X0763433Y0279553D01*
X0763297Y0279444D01*
X0763159Y0279339D01*
X0763018Y0279237D01*
X0762874Y0279138D01*
X0762729Y0279044D01*
X0762580Y0278952D01*
X0762430Y0278865D01*
X0762278Y0278781D01*
X0762123Y0278701D01*
X0761967Y0278624D01*
X0761809Y0278552D01*
X0761649Y0278483D01*
X0761488Y0278419D01*
X0761325Y0278358D01*
X0761160Y0278302D01*
X0760994Y0278249D01*
X0760827Y0278201D01*
X0760659Y0278156D01*
X0760490Y0278116D01*
X0760320Y0278080D01*
X0760149Y0278048D01*
X0759977Y0278021D01*
X0759805Y0277997D01*
X0759632Y0277978D01*
X0759458Y0277963D01*
X0759285Y0277953D01*
X0759111Y0277946D01*
X0758937Y0277944D01*
X0758763Y0277946D01*
X0758589Y0277953D01*
X0758416Y0277963D01*
X0758242Y0277978D01*
X0758069Y0277997D01*
X0757897Y0278021D01*
X0757725Y0278048D01*
X0757554Y0278080D01*
X0757384Y0278116D01*
X0757215Y0278156D01*
X0757047Y0278201D01*
X0756880Y0278249D01*
X0756714Y0278302D01*
X0756549Y0278358D01*
X0756386Y0278419D01*
X0756225Y0278483D01*
X0756065Y0278552D01*
X0755907Y0278624D01*
X0755751Y0278701D01*
X0755596Y0278781D01*
X0755444Y0278865D01*
X0755294Y0278952D01*
X0755145Y0279044D01*
X0755000Y0279138D01*
X0754856Y0279237D01*
X0754715Y0279339D01*
X0754577Y0279444D01*
X0754441Y0279553D01*
X0754308Y0279665D01*
X0754178Y0279780D01*
X0754050Y0279898D01*
X0753926Y0280020D01*
X0753804Y0280144D01*
X0753686Y0280272D01*
X0753571Y0280402D01*
X0753459Y0280535D01*
X0753350Y0280671D01*
X0753245Y0280809D01*
X0753143Y0280950D01*
X0753044Y0281094D01*
X0752950Y0281239D01*
X0752858Y0281388D01*
X0752771Y0281538D01*
X0752687Y0281690D01*
X0752607Y0281845D01*
X0752530Y0282001D01*
X0752458Y0282159D01*
X0752389Y0282319D01*
X0752325Y0282480D01*
X0752264Y0282643D01*
X0752208Y0282808D01*
X0752155Y0282974D01*
X0752107Y0283141D01*
X0752062Y0283309D01*
X0752022Y0283478D01*
X0751986Y0283648D01*
X0751954Y0283819D01*
X0751927Y0283991D01*
X0751903Y0284163D01*
X0751884Y0284336D01*
X0751869Y0284510D01*
X0751859Y0284683D01*
X0751852Y0284857D01*
X0751850Y0285031D01*
X0306368Y0265346D02*
X0306370Y0265520D01*
X0306377Y0265694D01*
X0306387Y0265867D01*
X0306402Y0266041D01*
X0306421Y0266214D01*
X0306445Y0266386D01*
X0306472Y0266558D01*
X0306504Y0266729D01*
X0306540Y0266899D01*
X0306580Y0267068D01*
X0306625Y0267236D01*
X0306673Y0267403D01*
X0306726Y0267569D01*
X0306782Y0267734D01*
X0306843Y0267897D01*
X0306907Y0268058D01*
X0306976Y0268218D01*
X0307048Y0268376D01*
X0307125Y0268532D01*
X0307205Y0268687D01*
X0307289Y0268839D01*
X0307376Y0268989D01*
X0307468Y0269138D01*
X0307562Y0269283D01*
X0307661Y0269427D01*
X0307763Y0269568D01*
X0307868Y0269706D01*
X0307977Y0269842D01*
X0308089Y0269975D01*
X0308204Y0270105D01*
X0308322Y0270233D01*
X0308444Y0270357D01*
X0308568Y0270479D01*
X0308696Y0270597D01*
X0308826Y0270712D01*
X0308959Y0270824D01*
X0309095Y0270933D01*
X0309233Y0271038D01*
X0309374Y0271140D01*
X0309518Y0271239D01*
X0309663Y0271333D01*
X0309812Y0271425D01*
X0309962Y0271512D01*
X0310114Y0271596D01*
X0310269Y0271676D01*
X0310425Y0271753D01*
X0310583Y0271825D01*
X0310743Y0271894D01*
X0310904Y0271958D01*
X0311067Y0272019D01*
X0311232Y0272075D01*
X0311398Y0272128D01*
X0311565Y0272176D01*
X0311733Y0272221D01*
X0311902Y0272261D01*
X0312072Y0272297D01*
X0312243Y0272329D01*
X0312415Y0272356D01*
X0312587Y0272380D01*
X0312760Y0272399D01*
X0312934Y0272414D01*
X0313107Y0272424D01*
X0313281Y0272431D01*
X0313455Y0272433D01*
X0313629Y0272431D01*
X0313803Y0272424D01*
X0313976Y0272414D01*
X0314150Y0272399D01*
X0314323Y0272380D01*
X0314495Y0272356D01*
X0314667Y0272329D01*
X0314838Y0272297D01*
X0315008Y0272261D01*
X0315177Y0272221D01*
X0315345Y0272176D01*
X0315512Y0272128D01*
X0315678Y0272075D01*
X0315843Y0272019D01*
X0316006Y0271958D01*
X0316167Y0271894D01*
X0316327Y0271825D01*
X0316485Y0271753D01*
X0316641Y0271676D01*
X0316796Y0271596D01*
X0316948Y0271512D01*
X0317098Y0271425D01*
X0317247Y0271333D01*
X0317392Y0271239D01*
X0317536Y0271140D01*
X0317677Y0271038D01*
X0317815Y0270933D01*
X0317951Y0270824D01*
X0318084Y0270712D01*
X0318214Y0270597D01*
X0318342Y0270479D01*
X0318466Y0270357D01*
X0318588Y0270233D01*
X0318706Y0270105D01*
X0318821Y0269975D01*
X0318933Y0269842D01*
X0319042Y0269706D01*
X0319147Y0269568D01*
X0319249Y0269427D01*
X0319348Y0269283D01*
X0319442Y0269138D01*
X0319534Y0268989D01*
X0319621Y0268839D01*
X0319705Y0268687D01*
X0319785Y0268532D01*
X0319862Y0268376D01*
X0319934Y0268218D01*
X0320003Y0268058D01*
X0320067Y0267897D01*
X0320128Y0267734D01*
X0320184Y0267569D01*
X0320237Y0267403D01*
X0320285Y0267236D01*
X0320330Y0267068D01*
X0320370Y0266899D01*
X0320406Y0266729D01*
X0320438Y0266558D01*
X0320465Y0266386D01*
X0320489Y0266214D01*
X0320508Y0266041D01*
X0320523Y0265867D01*
X0320533Y0265694D01*
X0320540Y0265520D01*
X0320542Y0265346D01*
X0320540Y0265172D01*
X0320533Y0264998D01*
X0320523Y0264825D01*
X0320508Y0264651D01*
X0320489Y0264478D01*
X0320465Y0264306D01*
X0320438Y0264134D01*
X0320406Y0263963D01*
X0320370Y0263793D01*
X0320330Y0263624D01*
X0320285Y0263456D01*
X0320237Y0263289D01*
X0320184Y0263123D01*
X0320128Y0262958D01*
X0320067Y0262795D01*
X0320003Y0262634D01*
X0319934Y0262474D01*
X0319862Y0262316D01*
X0319785Y0262160D01*
X0319705Y0262005D01*
X0319621Y0261853D01*
X0319534Y0261703D01*
X0319442Y0261554D01*
X0319348Y0261409D01*
X0319249Y0261265D01*
X0319147Y0261124D01*
X0319042Y0260986D01*
X0318933Y0260850D01*
X0318821Y0260717D01*
X0318706Y0260587D01*
X0318588Y0260459D01*
X0318466Y0260335D01*
X0318342Y0260213D01*
X0318214Y0260095D01*
X0318084Y0259980D01*
X0317951Y0259868D01*
X0317815Y0259759D01*
X0317677Y0259654D01*
X0317536Y0259552D01*
X0317392Y0259453D01*
X0317247Y0259359D01*
X0317098Y0259267D01*
X0316948Y0259180D01*
X0316796Y0259096D01*
X0316641Y0259016D01*
X0316485Y0258939D01*
X0316327Y0258867D01*
X0316167Y0258798D01*
X0316006Y0258734D01*
X0315843Y0258673D01*
X0315678Y0258617D01*
X0315512Y0258564D01*
X0315345Y0258516D01*
X0315177Y0258471D01*
X0315008Y0258431D01*
X0314838Y0258395D01*
X0314667Y0258363D01*
X0314495Y0258336D01*
X0314323Y0258312D01*
X0314150Y0258293D01*
X0313976Y0258278D01*
X0313803Y0258268D01*
X0313629Y0258261D01*
X0313455Y0258259D01*
X0313281Y0258261D01*
X0313107Y0258268D01*
X0312934Y0258278D01*
X0312760Y0258293D01*
X0312587Y0258312D01*
X0312415Y0258336D01*
X0312243Y0258363D01*
X0312072Y0258395D01*
X0311902Y0258431D01*
X0311733Y0258471D01*
X0311565Y0258516D01*
X0311398Y0258564D01*
X0311232Y0258617D01*
X0311067Y0258673D01*
X0310904Y0258734D01*
X0310743Y0258798D01*
X0310583Y0258867D01*
X0310425Y0258939D01*
X0310269Y0259016D01*
X0310114Y0259096D01*
X0309962Y0259180D01*
X0309812Y0259267D01*
X0309663Y0259359D01*
X0309518Y0259453D01*
X0309374Y0259552D01*
X0309233Y0259654D01*
X0309095Y0259759D01*
X0308959Y0259868D01*
X0308826Y0259980D01*
X0308696Y0260095D01*
X0308568Y0260213D01*
X0308444Y0260335D01*
X0308322Y0260459D01*
X0308204Y0260587D01*
X0308089Y0260717D01*
X0307977Y0260850D01*
X0307868Y0260986D01*
X0307763Y0261124D01*
X0307661Y0261265D01*
X0307562Y0261409D01*
X0307468Y0261554D01*
X0307376Y0261703D01*
X0307289Y0261853D01*
X0307205Y0262005D01*
X0307125Y0262160D01*
X0307048Y0262316D01*
X0306976Y0262474D01*
X0306907Y0262634D01*
X0306843Y0262795D01*
X0306782Y0262958D01*
X0306726Y0263123D01*
X0306673Y0263289D01*
X0306625Y0263456D01*
X0306580Y0263624D01*
X0306540Y0263793D01*
X0306504Y0263963D01*
X0306472Y0264134D01*
X0306445Y0264306D01*
X0306421Y0264478D01*
X0306402Y0264651D01*
X0306387Y0264825D01*
X0306377Y0264998D01*
X0306370Y0265172D01*
X0306368Y0265346D01*
X0011693Y0198417D02*
X0011695Y0198591D01*
X0011702Y0198765D01*
X0011712Y0198938D01*
X0011727Y0199112D01*
X0011746Y0199285D01*
X0011770Y0199457D01*
X0011797Y0199629D01*
X0011829Y0199800D01*
X0011865Y0199970D01*
X0011905Y0200139D01*
X0011950Y0200307D01*
X0011998Y0200474D01*
X0012051Y0200640D01*
X0012107Y0200805D01*
X0012168Y0200968D01*
X0012232Y0201129D01*
X0012301Y0201289D01*
X0012373Y0201447D01*
X0012450Y0201603D01*
X0012530Y0201758D01*
X0012614Y0201910D01*
X0012701Y0202060D01*
X0012793Y0202209D01*
X0012887Y0202354D01*
X0012986Y0202498D01*
X0013088Y0202639D01*
X0013193Y0202777D01*
X0013302Y0202913D01*
X0013414Y0203046D01*
X0013529Y0203176D01*
X0013647Y0203304D01*
X0013769Y0203428D01*
X0013893Y0203550D01*
X0014021Y0203668D01*
X0014151Y0203783D01*
X0014284Y0203895D01*
X0014420Y0204004D01*
X0014558Y0204109D01*
X0014699Y0204211D01*
X0014843Y0204310D01*
X0014988Y0204404D01*
X0015137Y0204496D01*
X0015287Y0204583D01*
X0015439Y0204667D01*
X0015594Y0204747D01*
X0015750Y0204824D01*
X0015908Y0204896D01*
X0016068Y0204965D01*
X0016229Y0205029D01*
X0016392Y0205090D01*
X0016557Y0205146D01*
X0016723Y0205199D01*
X0016890Y0205247D01*
X0017058Y0205292D01*
X0017227Y0205332D01*
X0017397Y0205368D01*
X0017568Y0205400D01*
X0017740Y0205427D01*
X0017912Y0205451D01*
X0018085Y0205470D01*
X0018259Y0205485D01*
X0018432Y0205495D01*
X0018606Y0205502D01*
X0018780Y0205504D01*
X0018954Y0205502D01*
X0019128Y0205495D01*
X0019301Y0205485D01*
X0019475Y0205470D01*
X0019648Y0205451D01*
X0019820Y0205427D01*
X0019992Y0205400D01*
X0020163Y0205368D01*
X0020333Y0205332D01*
X0020502Y0205292D01*
X0020670Y0205247D01*
X0020837Y0205199D01*
X0021003Y0205146D01*
X0021168Y0205090D01*
X0021331Y0205029D01*
X0021492Y0204965D01*
X0021652Y0204896D01*
X0021810Y0204824D01*
X0021966Y0204747D01*
X0022121Y0204667D01*
X0022273Y0204583D01*
X0022423Y0204496D01*
X0022572Y0204404D01*
X0022717Y0204310D01*
X0022861Y0204211D01*
X0023002Y0204109D01*
X0023140Y0204004D01*
X0023276Y0203895D01*
X0023409Y0203783D01*
X0023539Y0203668D01*
X0023667Y0203550D01*
X0023791Y0203428D01*
X0023913Y0203304D01*
X0024031Y0203176D01*
X0024146Y0203046D01*
X0024258Y0202913D01*
X0024367Y0202777D01*
X0024472Y0202639D01*
X0024574Y0202498D01*
X0024673Y0202354D01*
X0024767Y0202209D01*
X0024859Y0202060D01*
X0024946Y0201910D01*
X0025030Y0201758D01*
X0025110Y0201603D01*
X0025187Y0201447D01*
X0025259Y0201289D01*
X0025328Y0201129D01*
X0025392Y0200968D01*
X0025453Y0200805D01*
X0025509Y0200640D01*
X0025562Y0200474D01*
X0025610Y0200307D01*
X0025655Y0200139D01*
X0025695Y0199970D01*
X0025731Y0199800D01*
X0025763Y0199629D01*
X0025790Y0199457D01*
X0025814Y0199285D01*
X0025833Y0199112D01*
X0025848Y0198938D01*
X0025858Y0198765D01*
X0025865Y0198591D01*
X0025867Y0198417D01*
X0025865Y0198243D01*
X0025858Y0198069D01*
X0025848Y0197896D01*
X0025833Y0197722D01*
X0025814Y0197549D01*
X0025790Y0197377D01*
X0025763Y0197205D01*
X0025731Y0197034D01*
X0025695Y0196864D01*
X0025655Y0196695D01*
X0025610Y0196527D01*
X0025562Y0196360D01*
X0025509Y0196194D01*
X0025453Y0196029D01*
X0025392Y0195866D01*
X0025328Y0195705D01*
X0025259Y0195545D01*
X0025187Y0195387D01*
X0025110Y0195231D01*
X0025030Y0195076D01*
X0024946Y0194924D01*
X0024859Y0194774D01*
X0024767Y0194625D01*
X0024673Y0194480D01*
X0024574Y0194336D01*
X0024472Y0194195D01*
X0024367Y0194057D01*
X0024258Y0193921D01*
X0024146Y0193788D01*
X0024031Y0193658D01*
X0023913Y0193530D01*
X0023791Y0193406D01*
X0023667Y0193284D01*
X0023539Y0193166D01*
X0023409Y0193051D01*
X0023276Y0192939D01*
X0023140Y0192830D01*
X0023002Y0192725D01*
X0022861Y0192623D01*
X0022717Y0192524D01*
X0022572Y0192430D01*
X0022423Y0192338D01*
X0022273Y0192251D01*
X0022121Y0192167D01*
X0021966Y0192087D01*
X0021810Y0192010D01*
X0021652Y0191938D01*
X0021492Y0191869D01*
X0021331Y0191805D01*
X0021168Y0191744D01*
X0021003Y0191688D01*
X0020837Y0191635D01*
X0020670Y0191587D01*
X0020502Y0191542D01*
X0020333Y0191502D01*
X0020163Y0191466D01*
X0019992Y0191434D01*
X0019820Y0191407D01*
X0019648Y0191383D01*
X0019475Y0191364D01*
X0019301Y0191349D01*
X0019128Y0191339D01*
X0018954Y0191332D01*
X0018780Y0191330D01*
X0018606Y0191332D01*
X0018432Y0191339D01*
X0018259Y0191349D01*
X0018085Y0191364D01*
X0017912Y0191383D01*
X0017740Y0191407D01*
X0017568Y0191434D01*
X0017397Y0191466D01*
X0017227Y0191502D01*
X0017058Y0191542D01*
X0016890Y0191587D01*
X0016723Y0191635D01*
X0016557Y0191688D01*
X0016392Y0191744D01*
X0016229Y0191805D01*
X0016068Y0191869D01*
X0015908Y0191938D01*
X0015750Y0192010D01*
X0015594Y0192087D01*
X0015439Y0192167D01*
X0015287Y0192251D01*
X0015137Y0192338D01*
X0014988Y0192430D01*
X0014843Y0192524D01*
X0014699Y0192623D01*
X0014558Y0192725D01*
X0014420Y0192830D01*
X0014284Y0192939D01*
X0014151Y0193051D01*
X0014021Y0193166D01*
X0013893Y0193284D01*
X0013769Y0193406D01*
X0013647Y0193530D01*
X0013529Y0193658D01*
X0013414Y0193788D01*
X0013302Y0193921D01*
X0013193Y0194057D01*
X0013088Y0194195D01*
X0012986Y0194336D01*
X0012887Y0194480D01*
X0012793Y0194625D01*
X0012701Y0194774D01*
X0012614Y0194924D01*
X0012530Y0195076D01*
X0012450Y0195231D01*
X0012373Y0195387D01*
X0012301Y0195545D01*
X0012232Y0195705D01*
X0012168Y0195866D01*
X0012107Y0196029D01*
X0012051Y0196194D01*
X0011998Y0196360D01*
X0011950Y0196527D01*
X0011905Y0196695D01*
X0011865Y0196864D01*
X0011829Y0197034D01*
X0011797Y0197205D01*
X0011770Y0197377D01*
X0011746Y0197549D01*
X0011727Y0197722D01*
X0011712Y0197896D01*
X0011702Y0198069D01*
X0011695Y0198243D01*
X0011693Y0198417D01*
X0017598Y0092118D02*
X0017600Y0092292D01*
X0017607Y0092466D01*
X0017617Y0092639D01*
X0017632Y0092813D01*
X0017651Y0092986D01*
X0017675Y0093158D01*
X0017702Y0093330D01*
X0017734Y0093501D01*
X0017770Y0093671D01*
X0017810Y0093840D01*
X0017855Y0094008D01*
X0017903Y0094175D01*
X0017956Y0094341D01*
X0018012Y0094506D01*
X0018073Y0094669D01*
X0018137Y0094830D01*
X0018206Y0094990D01*
X0018278Y0095148D01*
X0018355Y0095304D01*
X0018435Y0095459D01*
X0018519Y0095611D01*
X0018606Y0095761D01*
X0018698Y0095910D01*
X0018792Y0096055D01*
X0018891Y0096199D01*
X0018993Y0096340D01*
X0019098Y0096478D01*
X0019207Y0096614D01*
X0019319Y0096747D01*
X0019434Y0096877D01*
X0019552Y0097005D01*
X0019674Y0097129D01*
X0019798Y0097251D01*
X0019926Y0097369D01*
X0020056Y0097484D01*
X0020189Y0097596D01*
X0020325Y0097705D01*
X0020463Y0097810D01*
X0020604Y0097912D01*
X0020748Y0098011D01*
X0020893Y0098105D01*
X0021042Y0098197D01*
X0021192Y0098284D01*
X0021344Y0098368D01*
X0021499Y0098448D01*
X0021655Y0098525D01*
X0021813Y0098597D01*
X0021973Y0098666D01*
X0022134Y0098730D01*
X0022297Y0098791D01*
X0022462Y0098847D01*
X0022628Y0098900D01*
X0022795Y0098948D01*
X0022963Y0098993D01*
X0023132Y0099033D01*
X0023302Y0099069D01*
X0023473Y0099101D01*
X0023645Y0099128D01*
X0023817Y0099152D01*
X0023990Y0099171D01*
X0024164Y0099186D01*
X0024337Y0099196D01*
X0024511Y0099203D01*
X0024685Y0099205D01*
X0024859Y0099203D01*
X0025033Y0099196D01*
X0025206Y0099186D01*
X0025380Y0099171D01*
X0025553Y0099152D01*
X0025725Y0099128D01*
X0025897Y0099101D01*
X0026068Y0099069D01*
X0026238Y0099033D01*
X0026407Y0098993D01*
X0026575Y0098948D01*
X0026742Y0098900D01*
X0026908Y0098847D01*
X0027073Y0098791D01*
X0027236Y0098730D01*
X0027397Y0098666D01*
X0027557Y0098597D01*
X0027715Y0098525D01*
X0027871Y0098448D01*
X0028026Y0098368D01*
X0028178Y0098284D01*
X0028328Y0098197D01*
X0028477Y0098105D01*
X0028622Y0098011D01*
X0028766Y0097912D01*
X0028907Y0097810D01*
X0029045Y0097705D01*
X0029181Y0097596D01*
X0029314Y0097484D01*
X0029444Y0097369D01*
X0029572Y0097251D01*
X0029696Y0097129D01*
X0029818Y0097005D01*
X0029936Y0096877D01*
X0030051Y0096747D01*
X0030163Y0096614D01*
X0030272Y0096478D01*
X0030377Y0096340D01*
X0030479Y0096199D01*
X0030578Y0096055D01*
X0030672Y0095910D01*
X0030764Y0095761D01*
X0030851Y0095611D01*
X0030935Y0095459D01*
X0031015Y0095304D01*
X0031092Y0095148D01*
X0031164Y0094990D01*
X0031233Y0094830D01*
X0031297Y0094669D01*
X0031358Y0094506D01*
X0031414Y0094341D01*
X0031467Y0094175D01*
X0031515Y0094008D01*
X0031560Y0093840D01*
X0031600Y0093671D01*
X0031636Y0093501D01*
X0031668Y0093330D01*
X0031695Y0093158D01*
X0031719Y0092986D01*
X0031738Y0092813D01*
X0031753Y0092639D01*
X0031763Y0092466D01*
X0031770Y0092292D01*
X0031772Y0092118D01*
X0031770Y0091944D01*
X0031763Y0091770D01*
X0031753Y0091597D01*
X0031738Y0091423D01*
X0031719Y0091250D01*
X0031695Y0091078D01*
X0031668Y0090906D01*
X0031636Y0090735D01*
X0031600Y0090565D01*
X0031560Y0090396D01*
X0031515Y0090228D01*
X0031467Y0090061D01*
X0031414Y0089895D01*
X0031358Y0089730D01*
X0031297Y0089567D01*
X0031233Y0089406D01*
X0031164Y0089246D01*
X0031092Y0089088D01*
X0031015Y0088932D01*
X0030935Y0088777D01*
X0030851Y0088625D01*
X0030764Y0088475D01*
X0030672Y0088326D01*
X0030578Y0088181D01*
X0030479Y0088037D01*
X0030377Y0087896D01*
X0030272Y0087758D01*
X0030163Y0087622D01*
X0030051Y0087489D01*
X0029936Y0087359D01*
X0029818Y0087231D01*
X0029696Y0087107D01*
X0029572Y0086985D01*
X0029444Y0086867D01*
X0029314Y0086752D01*
X0029181Y0086640D01*
X0029045Y0086531D01*
X0028907Y0086426D01*
X0028766Y0086324D01*
X0028622Y0086225D01*
X0028477Y0086131D01*
X0028328Y0086039D01*
X0028178Y0085952D01*
X0028026Y0085868D01*
X0027871Y0085788D01*
X0027715Y0085711D01*
X0027557Y0085639D01*
X0027397Y0085570D01*
X0027236Y0085506D01*
X0027073Y0085445D01*
X0026908Y0085389D01*
X0026742Y0085336D01*
X0026575Y0085288D01*
X0026407Y0085243D01*
X0026238Y0085203D01*
X0026068Y0085167D01*
X0025897Y0085135D01*
X0025725Y0085108D01*
X0025553Y0085084D01*
X0025380Y0085065D01*
X0025206Y0085050D01*
X0025033Y0085040D01*
X0024859Y0085033D01*
X0024685Y0085031D01*
X0024511Y0085033D01*
X0024337Y0085040D01*
X0024164Y0085050D01*
X0023990Y0085065D01*
X0023817Y0085084D01*
X0023645Y0085108D01*
X0023473Y0085135D01*
X0023302Y0085167D01*
X0023132Y0085203D01*
X0022963Y0085243D01*
X0022795Y0085288D01*
X0022628Y0085336D01*
X0022462Y0085389D01*
X0022297Y0085445D01*
X0022134Y0085506D01*
X0021973Y0085570D01*
X0021813Y0085639D01*
X0021655Y0085711D01*
X0021499Y0085788D01*
X0021344Y0085868D01*
X0021192Y0085952D01*
X0021042Y0086039D01*
X0020893Y0086131D01*
X0020748Y0086225D01*
X0020604Y0086324D01*
X0020463Y0086426D01*
X0020325Y0086531D01*
X0020189Y0086640D01*
X0020056Y0086752D01*
X0019926Y0086867D01*
X0019798Y0086985D01*
X0019674Y0087107D01*
X0019552Y0087231D01*
X0019434Y0087359D01*
X0019319Y0087489D01*
X0019207Y0087622D01*
X0019098Y0087758D01*
X0018993Y0087896D01*
X0018891Y0088037D01*
X0018792Y0088181D01*
X0018698Y0088326D01*
X0018606Y0088475D01*
X0018519Y0088625D01*
X0018435Y0088777D01*
X0018355Y0088932D01*
X0018278Y0089088D01*
X0018206Y0089246D01*
X0018137Y0089406D01*
X0018073Y0089567D01*
X0018012Y0089730D01*
X0017956Y0089895D01*
X0017903Y0090061D01*
X0017855Y0090228D01*
X0017810Y0090396D01*
X0017770Y0090565D01*
X0017734Y0090735D01*
X0017702Y0090906D01*
X0017675Y0091078D01*
X0017651Y0091250D01*
X0017632Y0091423D01*
X0017617Y0091597D01*
X0017607Y0091770D01*
X0017600Y0091944D01*
X0017598Y0092118D01*
X0714448Y0080307D02*
X0714450Y0080481D01*
X0714457Y0080655D01*
X0714467Y0080828D01*
X0714482Y0081002D01*
X0714501Y0081175D01*
X0714525Y0081347D01*
X0714552Y0081519D01*
X0714584Y0081690D01*
X0714620Y0081860D01*
X0714660Y0082029D01*
X0714705Y0082197D01*
X0714753Y0082364D01*
X0714806Y0082530D01*
X0714862Y0082695D01*
X0714923Y0082858D01*
X0714987Y0083019D01*
X0715056Y0083179D01*
X0715128Y0083337D01*
X0715205Y0083493D01*
X0715285Y0083648D01*
X0715369Y0083800D01*
X0715456Y0083950D01*
X0715548Y0084099D01*
X0715642Y0084244D01*
X0715741Y0084388D01*
X0715843Y0084529D01*
X0715948Y0084667D01*
X0716057Y0084803D01*
X0716169Y0084936D01*
X0716284Y0085066D01*
X0716402Y0085194D01*
X0716524Y0085318D01*
X0716648Y0085440D01*
X0716776Y0085558D01*
X0716906Y0085673D01*
X0717039Y0085785D01*
X0717175Y0085894D01*
X0717313Y0085999D01*
X0717454Y0086101D01*
X0717598Y0086200D01*
X0717743Y0086294D01*
X0717892Y0086386D01*
X0718042Y0086473D01*
X0718194Y0086557D01*
X0718349Y0086637D01*
X0718505Y0086714D01*
X0718663Y0086786D01*
X0718823Y0086855D01*
X0718984Y0086919D01*
X0719147Y0086980D01*
X0719312Y0087036D01*
X0719478Y0087089D01*
X0719645Y0087137D01*
X0719813Y0087182D01*
X0719982Y0087222D01*
X0720152Y0087258D01*
X0720323Y0087290D01*
X0720495Y0087317D01*
X0720667Y0087341D01*
X0720840Y0087360D01*
X0721014Y0087375D01*
X0721187Y0087385D01*
X0721361Y0087392D01*
X0721535Y0087394D01*
X0721709Y0087392D01*
X0721883Y0087385D01*
X0722056Y0087375D01*
X0722230Y0087360D01*
X0722403Y0087341D01*
X0722575Y0087317D01*
X0722747Y0087290D01*
X0722918Y0087258D01*
X0723088Y0087222D01*
X0723257Y0087182D01*
X0723425Y0087137D01*
X0723592Y0087089D01*
X0723758Y0087036D01*
X0723923Y0086980D01*
X0724086Y0086919D01*
X0724247Y0086855D01*
X0724407Y0086786D01*
X0724565Y0086714D01*
X0724721Y0086637D01*
X0724876Y0086557D01*
X0725028Y0086473D01*
X0725178Y0086386D01*
X0725327Y0086294D01*
X0725472Y0086200D01*
X0725616Y0086101D01*
X0725757Y0085999D01*
X0725895Y0085894D01*
X0726031Y0085785D01*
X0726164Y0085673D01*
X0726294Y0085558D01*
X0726422Y0085440D01*
X0726546Y0085318D01*
X0726668Y0085194D01*
X0726786Y0085066D01*
X0726901Y0084936D01*
X0727013Y0084803D01*
X0727122Y0084667D01*
X0727227Y0084529D01*
X0727329Y0084388D01*
X0727428Y0084244D01*
X0727522Y0084099D01*
X0727614Y0083950D01*
X0727701Y0083800D01*
X0727785Y0083648D01*
X0727865Y0083493D01*
X0727942Y0083337D01*
X0728014Y0083179D01*
X0728083Y0083019D01*
X0728147Y0082858D01*
X0728208Y0082695D01*
X0728264Y0082530D01*
X0728317Y0082364D01*
X0728365Y0082197D01*
X0728410Y0082029D01*
X0728450Y0081860D01*
X0728486Y0081690D01*
X0728518Y0081519D01*
X0728545Y0081347D01*
X0728569Y0081175D01*
X0728588Y0081002D01*
X0728603Y0080828D01*
X0728613Y0080655D01*
X0728620Y0080481D01*
X0728622Y0080307D01*
X0728620Y0080133D01*
X0728613Y0079959D01*
X0728603Y0079786D01*
X0728588Y0079612D01*
X0728569Y0079439D01*
X0728545Y0079267D01*
X0728518Y0079095D01*
X0728486Y0078924D01*
X0728450Y0078754D01*
X0728410Y0078585D01*
X0728365Y0078417D01*
X0728317Y0078250D01*
X0728264Y0078084D01*
X0728208Y0077919D01*
X0728147Y0077756D01*
X0728083Y0077595D01*
X0728014Y0077435D01*
X0727942Y0077277D01*
X0727865Y0077121D01*
X0727785Y0076966D01*
X0727701Y0076814D01*
X0727614Y0076664D01*
X0727522Y0076515D01*
X0727428Y0076370D01*
X0727329Y0076226D01*
X0727227Y0076085D01*
X0727122Y0075947D01*
X0727013Y0075811D01*
X0726901Y0075678D01*
X0726786Y0075548D01*
X0726668Y0075420D01*
X0726546Y0075296D01*
X0726422Y0075174D01*
X0726294Y0075056D01*
X0726164Y0074941D01*
X0726031Y0074829D01*
X0725895Y0074720D01*
X0725757Y0074615D01*
X0725616Y0074513D01*
X0725472Y0074414D01*
X0725327Y0074320D01*
X0725178Y0074228D01*
X0725028Y0074141D01*
X0724876Y0074057D01*
X0724721Y0073977D01*
X0724565Y0073900D01*
X0724407Y0073828D01*
X0724247Y0073759D01*
X0724086Y0073695D01*
X0723923Y0073634D01*
X0723758Y0073578D01*
X0723592Y0073525D01*
X0723425Y0073477D01*
X0723257Y0073432D01*
X0723088Y0073392D01*
X0722918Y0073356D01*
X0722747Y0073324D01*
X0722575Y0073297D01*
X0722403Y0073273D01*
X0722230Y0073254D01*
X0722056Y0073239D01*
X0721883Y0073229D01*
X0721709Y0073222D01*
X0721535Y0073220D01*
X0721361Y0073222D01*
X0721187Y0073229D01*
X0721014Y0073239D01*
X0720840Y0073254D01*
X0720667Y0073273D01*
X0720495Y0073297D01*
X0720323Y0073324D01*
X0720152Y0073356D01*
X0719982Y0073392D01*
X0719813Y0073432D01*
X0719645Y0073477D01*
X0719478Y0073525D01*
X0719312Y0073578D01*
X0719147Y0073634D01*
X0718984Y0073695D01*
X0718823Y0073759D01*
X0718663Y0073828D01*
X0718505Y0073900D01*
X0718349Y0073977D01*
X0718194Y0074057D01*
X0718042Y0074141D01*
X0717892Y0074228D01*
X0717743Y0074320D01*
X0717598Y0074414D01*
X0717454Y0074513D01*
X0717313Y0074615D01*
X0717175Y0074720D01*
X0717039Y0074829D01*
X0716906Y0074941D01*
X0716776Y0075056D01*
X0716648Y0075174D01*
X0716524Y0075296D01*
X0716402Y0075420D01*
X0716284Y0075548D01*
X0716169Y0075678D01*
X0716057Y0075811D01*
X0715948Y0075947D01*
X0715843Y0076085D01*
X0715741Y0076226D01*
X0715642Y0076370D01*
X0715548Y0076515D01*
X0715456Y0076664D01*
X0715369Y0076814D01*
X0715285Y0076966D01*
X0715205Y0077121D01*
X0715128Y0077277D01*
X0715056Y0077435D01*
X0714987Y0077595D01*
X0714923Y0077756D01*
X0714862Y0077919D01*
X0714806Y0078084D01*
X0714753Y0078250D01*
X0714705Y0078417D01*
X0714660Y0078585D01*
X0714620Y0078754D01*
X0714584Y0078924D01*
X0714552Y0079095D01*
X0714525Y0079267D01*
X0714501Y0079439D01*
X0714482Y0079612D01*
X0714467Y0079786D01*
X0714457Y0079959D01*
X0714450Y0080133D01*
X0714448Y0080307D01*
X0895551Y0056685D02*
X0895553Y0056859D01*
X0895560Y0057033D01*
X0895570Y0057206D01*
X0895585Y0057380D01*
X0895604Y0057553D01*
X0895628Y0057725D01*
X0895655Y0057897D01*
X0895687Y0058068D01*
X0895723Y0058238D01*
X0895763Y0058407D01*
X0895808Y0058575D01*
X0895856Y0058742D01*
X0895909Y0058908D01*
X0895965Y0059073D01*
X0896026Y0059236D01*
X0896090Y0059397D01*
X0896159Y0059557D01*
X0896231Y0059715D01*
X0896308Y0059871D01*
X0896388Y0060026D01*
X0896472Y0060178D01*
X0896559Y0060328D01*
X0896651Y0060477D01*
X0896745Y0060622D01*
X0896844Y0060766D01*
X0896946Y0060907D01*
X0897051Y0061045D01*
X0897160Y0061181D01*
X0897272Y0061314D01*
X0897387Y0061444D01*
X0897505Y0061572D01*
X0897627Y0061696D01*
X0897751Y0061818D01*
X0897879Y0061936D01*
X0898009Y0062051D01*
X0898142Y0062163D01*
X0898278Y0062272D01*
X0898416Y0062377D01*
X0898557Y0062479D01*
X0898701Y0062578D01*
X0898846Y0062672D01*
X0898995Y0062764D01*
X0899145Y0062851D01*
X0899297Y0062935D01*
X0899452Y0063015D01*
X0899608Y0063092D01*
X0899766Y0063164D01*
X0899926Y0063233D01*
X0900087Y0063297D01*
X0900250Y0063358D01*
X0900415Y0063414D01*
X0900581Y0063467D01*
X0900748Y0063515D01*
X0900916Y0063560D01*
X0901085Y0063600D01*
X0901255Y0063636D01*
X0901426Y0063668D01*
X0901598Y0063695D01*
X0901770Y0063719D01*
X0901943Y0063738D01*
X0902117Y0063753D01*
X0902290Y0063763D01*
X0902464Y0063770D01*
X0902638Y0063772D01*
X0902812Y0063770D01*
X0902986Y0063763D01*
X0903159Y0063753D01*
X0903333Y0063738D01*
X0903506Y0063719D01*
X0903678Y0063695D01*
X0903850Y0063668D01*
X0904021Y0063636D01*
X0904191Y0063600D01*
X0904360Y0063560D01*
X0904528Y0063515D01*
X0904695Y0063467D01*
X0904861Y0063414D01*
X0905026Y0063358D01*
X0905189Y0063297D01*
X0905350Y0063233D01*
X0905510Y0063164D01*
X0905668Y0063092D01*
X0905824Y0063015D01*
X0905979Y0062935D01*
X0906131Y0062851D01*
X0906281Y0062764D01*
X0906430Y0062672D01*
X0906575Y0062578D01*
X0906719Y0062479D01*
X0906860Y0062377D01*
X0906998Y0062272D01*
X0907134Y0062163D01*
X0907267Y0062051D01*
X0907397Y0061936D01*
X0907525Y0061818D01*
X0907649Y0061696D01*
X0907771Y0061572D01*
X0907889Y0061444D01*
X0908004Y0061314D01*
X0908116Y0061181D01*
X0908225Y0061045D01*
X0908330Y0060907D01*
X0908432Y0060766D01*
X0908531Y0060622D01*
X0908625Y0060477D01*
X0908717Y0060328D01*
X0908804Y0060178D01*
X0908888Y0060026D01*
X0908968Y0059871D01*
X0909045Y0059715D01*
X0909117Y0059557D01*
X0909186Y0059397D01*
X0909250Y0059236D01*
X0909311Y0059073D01*
X0909367Y0058908D01*
X0909420Y0058742D01*
X0909468Y0058575D01*
X0909513Y0058407D01*
X0909553Y0058238D01*
X0909589Y0058068D01*
X0909621Y0057897D01*
X0909648Y0057725D01*
X0909672Y0057553D01*
X0909691Y0057380D01*
X0909706Y0057206D01*
X0909716Y0057033D01*
X0909723Y0056859D01*
X0909725Y0056685D01*
X0909723Y0056511D01*
X0909716Y0056337D01*
X0909706Y0056164D01*
X0909691Y0055990D01*
X0909672Y0055817D01*
X0909648Y0055645D01*
X0909621Y0055473D01*
X0909589Y0055302D01*
X0909553Y0055132D01*
X0909513Y0054963D01*
X0909468Y0054795D01*
X0909420Y0054628D01*
X0909367Y0054462D01*
X0909311Y0054297D01*
X0909250Y0054134D01*
X0909186Y0053973D01*
X0909117Y0053813D01*
X0909045Y0053655D01*
X0908968Y0053499D01*
X0908888Y0053344D01*
X0908804Y0053192D01*
X0908717Y0053042D01*
X0908625Y0052893D01*
X0908531Y0052748D01*
X0908432Y0052604D01*
X0908330Y0052463D01*
X0908225Y0052325D01*
X0908116Y0052189D01*
X0908004Y0052056D01*
X0907889Y0051926D01*
X0907771Y0051798D01*
X0907649Y0051674D01*
X0907525Y0051552D01*
X0907397Y0051434D01*
X0907267Y0051319D01*
X0907134Y0051207D01*
X0906998Y0051098D01*
X0906860Y0050993D01*
X0906719Y0050891D01*
X0906575Y0050792D01*
X0906430Y0050698D01*
X0906281Y0050606D01*
X0906131Y0050519D01*
X0905979Y0050435D01*
X0905824Y0050355D01*
X0905668Y0050278D01*
X0905510Y0050206D01*
X0905350Y0050137D01*
X0905189Y0050073D01*
X0905026Y0050012D01*
X0904861Y0049956D01*
X0904695Y0049903D01*
X0904528Y0049855D01*
X0904360Y0049810D01*
X0904191Y0049770D01*
X0904021Y0049734D01*
X0903850Y0049702D01*
X0903678Y0049675D01*
X0903506Y0049651D01*
X0903333Y0049632D01*
X0903159Y0049617D01*
X0902986Y0049607D01*
X0902812Y0049600D01*
X0902638Y0049598D01*
X0902464Y0049600D01*
X0902290Y0049607D01*
X0902117Y0049617D01*
X0901943Y0049632D01*
X0901770Y0049651D01*
X0901598Y0049675D01*
X0901426Y0049702D01*
X0901255Y0049734D01*
X0901085Y0049770D01*
X0900916Y0049810D01*
X0900748Y0049855D01*
X0900581Y0049903D01*
X0900415Y0049956D01*
X0900250Y0050012D01*
X0900087Y0050073D01*
X0899926Y0050137D01*
X0899766Y0050206D01*
X0899608Y0050278D01*
X0899452Y0050355D01*
X0899297Y0050435D01*
X0899145Y0050519D01*
X0898995Y0050606D01*
X0898846Y0050698D01*
X0898701Y0050792D01*
X0898557Y0050891D01*
X0898416Y0050993D01*
X0898278Y0051098D01*
X0898142Y0051207D01*
X0898009Y0051319D01*
X0897879Y0051434D01*
X0897751Y0051552D01*
X0897627Y0051674D01*
X0897505Y0051798D01*
X0897387Y0051926D01*
X0897272Y0052056D01*
X0897160Y0052189D01*
X0897051Y0052325D01*
X0896946Y0052463D01*
X0896844Y0052604D01*
X0896745Y0052748D01*
X0896651Y0052893D01*
X0896559Y0053042D01*
X0896472Y0053192D01*
X0896388Y0053344D01*
X0896308Y0053499D01*
X0896231Y0053655D01*
X0896159Y0053813D01*
X0896090Y0053973D01*
X0896026Y0054134D01*
X0895965Y0054297D01*
X0895909Y0054462D01*
X0895856Y0054628D01*
X0895808Y0054795D01*
X0895763Y0054963D01*
X0895723Y0055132D01*
X0895687Y0055302D01*
X0895655Y0055473D01*
X0895628Y0055645D01*
X0895604Y0055817D01*
X0895585Y0055990D01*
X0895570Y0056164D01*
X0895560Y0056337D01*
X0895553Y0056511D01*
X0895551Y0056685D01*
D36*
X0895638Y0056685D03*
X0897638Y0051785D03*
X0902438Y0049685D03*
X0907638Y0051685D03*
X0909538Y0056585D03*
X0907638Y0061685D03*
X0902838Y0063585D03*
X0897738Y0061485D03*
X0728435Y0080207D03*
X0726535Y0075307D03*
X0721335Y0073307D03*
X0716535Y0075407D03*
X0714535Y0080307D03*
X0716635Y0085107D03*
X0721735Y0087207D03*
X0726535Y0085307D03*
X0318455Y0260346D03*
X0313255Y0258346D03*
X0308455Y0260446D03*
X0306455Y0265346D03*
X0308555Y0270146D03*
X0313655Y0272246D03*
X0318455Y0270346D03*
X0320355Y0265246D03*
X0025680Y0198317D03*
X0023780Y0203417D03*
X0018980Y0205317D03*
X0013880Y0203217D03*
X0011780Y0198417D03*
X0013780Y0193517D03*
X0018580Y0191417D03*
X0023780Y0193417D03*
X0024885Y0099018D03*
X0029685Y0097118D03*
X0031585Y0092018D03*
X0029685Y0087118D03*
X0024485Y0085118D03*
X0019685Y0087218D03*
X0017685Y0092118D03*
X0019785Y0096918D03*
X0751937Y0285031D03*
X0753937Y0280131D03*
X0758737Y0278031D03*
X0763937Y0280031D03*
X0765837Y0284931D03*
X0763937Y0290031D03*
X0759137Y0291931D03*
X0754037Y0289831D03*
D37*
X0060433Y0024067D02*
X0052657Y0031842D01*
X0052382Y0031567D01*
X0040000Y0034067D01*
X0060433Y0024067D02*
X0063750Y0024067D01*
X0073750Y0034067D01*
X0102500Y0034067D01*
X0113750Y0022817D01*
X0105800Y0022367D02*
X0120200Y0007967D01*
X0545800Y0007967D01*
X0568200Y0030367D01*
X0581000Y0030367D01*
X0584884Y0034251D01*
X0584884Y0038095D01*
X0587400Y0038052D02*
X0587443Y0038095D01*
X0587400Y0038052D02*
X0587400Y0031967D01*
X0582600Y0027167D01*
X0569400Y0027167D01*
X0555800Y0013567D01*
X0555800Y0008767D01*
X0564800Y0010567D02*
X0565400Y0011167D01*
X0565400Y0018367D01*
X0567200Y0020167D01*
X0572650Y0020167D01*
X0573800Y0021317D01*
X0572250Y0021317D01*
X0573800Y0021317D02*
X0583400Y0021317D01*
X0592561Y0030478D01*
X0592561Y0038095D01*
X0590002Y0038095D02*
X0590002Y0042819D01*
X0595000Y0047817D01*
X0605000Y0047817D01*
X0606750Y0047817D01*
X0610475Y0044092D01*
X0610475Y0038095D01*
X0613034Y0038095D02*
X0613034Y0028801D01*
X0613000Y0028767D01*
X0615400Y0026367D01*
X0615400Y0021317D01*
X0625000Y0021317D01*
X0623750Y0022567D01*
X0623750Y0027817D01*
X0633200Y0034567D02*
X0633200Y0017167D01*
X0630050Y0014017D01*
X0630050Y0013817D01*
X0625000Y0013817D01*
X0619150Y0007967D01*
X0609800Y0007967D01*
X0605000Y0012767D01*
X0605000Y0013817D01*
X0609800Y0017567D02*
X0613000Y0014367D01*
X0614850Y0014367D01*
X0615400Y0013817D01*
X0609800Y0017567D02*
X0609800Y0027167D01*
X0607916Y0029051D01*
X0607916Y0038095D01*
X0605357Y0038095D02*
X0605357Y0021673D01*
X0605000Y0021317D01*
X0597680Y0029446D02*
X0593800Y0025567D01*
X0593800Y0021317D01*
X0586300Y0013817D01*
X0583400Y0013817D01*
X0578050Y0007967D02*
X0573800Y0013817D01*
X0578050Y0007967D02*
X0589000Y0007967D01*
X0593800Y0012767D01*
X0593800Y0013817D01*
X0598500Y0013817D01*
X0598750Y0014067D01*
X0597680Y0029446D02*
X0597680Y0038095D01*
X0582325Y0038095D02*
X0582325Y0043441D01*
X0581000Y0044767D01*
X0571050Y0044767D01*
X0564650Y0038367D01*
X0563400Y0036767D01*
X0541000Y0014367D01*
X0137200Y0014367D01*
X0102500Y0050317D01*
X0088200Y0057567D02*
X0065000Y0057567D01*
X0058069Y0064497D01*
X0055669Y0066842D01*
X0047008Y0066842D02*
X0042657Y0062492D01*
X0042657Y0056842D01*
X0067657Y0066842D02*
X0130276Y0066842D01*
X0138750Y0075317D01*
X0152687Y0075317D01*
X0161161Y0066842D01*
X0227776Y0066842D01*
X0235000Y0074067D01*
X0247441Y0074067D01*
X0254665Y0066842D01*
X0254665Y0068832D01*
X0264800Y0078967D01*
X0328400Y0078967D01*
X0332000Y0082567D01*
X0364000Y0082567D01*
X0366600Y0079967D01*
X0372500Y0085317D02*
X0380000Y0077817D01*
X0398750Y0077567D02*
X0406250Y0085067D01*
X0415000Y0085067D01*
X0423750Y0085067D01*
X0435800Y0085067D01*
X0437521Y0085067D01*
X0438187Y0084401D01*
X0452500Y0084067D01*
X0454650Y0081917D01*
X0454650Y0080667D01*
X0461250Y0077717D02*
X0465450Y0080667D01*
X0461250Y0077717D02*
X0461250Y0064067D01*
X0463577Y0061740D01*
X0466427Y0061740D01*
X0464577Y0059890D01*
X0510177Y0061262D02*
X0510177Y0056842D01*
X0510177Y0061262D02*
X0515413Y0066498D01*
X0524000Y0066573D02*
X0524000Y0071167D01*
X0524000Y0066573D02*
X0524075Y0066498D01*
X0576200Y0081567D02*
X0576200Y0087717D01*
X0570350Y0093567D01*
X0566600Y0099967D02*
X0562850Y0096217D01*
X0562850Y0093567D01*
X0566600Y0099967D02*
X0575600Y0099967D01*
X0585200Y0099967D01*
X0587600Y0097567D01*
X0587600Y0094517D01*
X0587950Y0094167D01*
X0589000Y0095217D01*
X0587950Y0094167D02*
X0599250Y0094167D01*
X0599650Y0093767D01*
X0599650Y0099967D01*
X0600000Y0100317D01*
X0605000Y0103967D02*
X0608200Y0100767D01*
X0616200Y0100767D01*
X0618031Y0101645D01*
X0605000Y0103967D02*
X0560200Y0103967D01*
X0557879Y0101645D01*
X0543228Y0101645D01*
X0527950Y0086367D01*
X0527750Y0086567D01*
X0500000Y0086567D01*
X0484921Y0101645D01*
X0468425Y0101645D01*
X0467254Y0102817D01*
X0467254Y0103063D01*
X0460100Y0109067D01*
X0428400Y0109067D01*
X0420979Y0101645D01*
X0393622Y0101645D01*
X0389793Y0097817D01*
X0352500Y0097817D01*
X0348671Y0101645D01*
X0318819Y0101645D01*
X0314740Y0097567D01*
X0265800Y0097567D01*
X0261721Y0101645D01*
X0244016Y0101645D01*
X0169213Y0101645D01*
X0165134Y0097567D01*
X0070600Y0097567D01*
X0067958Y0100208D01*
X0066358Y0100208D01*
X0066358Y0101645D01*
X0063750Y0094067D02*
X0058750Y0099067D01*
X0058750Y0106567D01*
X0063150Y0110967D01*
X0063150Y0126517D01*
X0059830Y0130487D01*
X0049764Y0130487D01*
X0048601Y0139167D02*
X0063850Y0139167D01*
X0067500Y0142817D01*
X0083750Y0142817D01*
X0093750Y0132817D01*
X0113750Y0132817D01*
X0120000Y0129067D02*
X0135000Y0114067D01*
X0158750Y0114067D01*
X0147400Y0121567D02*
X0139400Y0121567D01*
X0137800Y0119967D01*
X0147400Y0121567D02*
X0157100Y0131267D01*
X0157100Y0133917D01*
X0148700Y0133917D02*
X0147950Y0134667D01*
X0137500Y0135317D01*
X0130850Y0141967D01*
X0112662Y0141967D01*
X0099962Y0154667D01*
X0096548Y0154667D01*
X0094250Y0141967D02*
X0083400Y0152817D01*
X0083400Y0154317D01*
X0076450Y0157817D02*
X0051250Y0157817D01*
X0051020Y0158046D01*
X0049764Y0158046D01*
X0048484Y0156767D01*
X0049764Y0148204D02*
X0083363Y0148204D01*
X0095000Y0136567D01*
X0121250Y0136567D01*
X0122500Y0135317D01*
X0120000Y0129067D02*
X0091250Y0129067D01*
X0083671Y0136645D01*
X0081358Y0136645D01*
X0094250Y0141967D02*
X0101638Y0141967D01*
X0129250Y0153567D02*
X0137500Y0145317D01*
X0142750Y0145317D01*
X0143000Y0145567D01*
X0129250Y0153567D02*
X0125000Y0153567D01*
X0139550Y0164767D02*
X0083400Y0164767D01*
X0076450Y0157817D01*
X0082500Y0170317D02*
X0060000Y0170317D01*
X0052657Y0177659D01*
X0052657Y0181449D01*
X0062657Y0181449D02*
X0062657Y0181824D01*
X0070600Y0189767D01*
X0070600Y0200917D01*
X0072500Y0202817D01*
X0068750Y0207967D02*
X0067050Y0209667D01*
X0049350Y0209667D01*
X0046132Y0206449D01*
X0042657Y0206449D01*
X0068750Y0207967D02*
X0081176Y0207967D01*
X0081470Y0208260D01*
X0090131Y0208260D02*
X0090806Y0208260D01*
X0092500Y0211567D01*
X0095938Y0209305D02*
X0099400Y0212767D01*
X0095938Y0209305D02*
X0095938Y0192167D01*
X0106962Y0192167D02*
X0107400Y0191728D01*
X0107400Y0177767D01*
X0107400Y0174567D01*
X0113600Y0168367D01*
X0128600Y0168367D01*
X0132050Y0171817D01*
X0107400Y0177767D02*
X0107000Y0177367D01*
X0096748Y0177367D01*
X0096548Y0177167D01*
X0096548Y0181753D01*
X0096548Y0177167D02*
X0096200Y0176818D01*
X0096200Y0174367D01*
X0086250Y0174067D02*
X0082500Y0170317D01*
X0049764Y0140330D02*
X0048601Y0139167D01*
X0091358Y0111645D02*
X0091358Y0102454D01*
X0091783Y0102029D01*
X0091358Y0102279D01*
X0091783Y0093368D02*
X0091783Y0089950D01*
X0091400Y0089567D01*
X0113402Y0082817D02*
X0113452Y0082767D01*
X0113402Y0082817D02*
X0063750Y0082817D01*
X0136161Y0064185D02*
X0140069Y0068092D01*
X0148730Y0068092D02*
X0148730Y0066586D01*
X0158100Y0057817D01*
X0166250Y0057817D01*
X0171250Y0062817D01*
X0215000Y0062817D01*
X0229665Y0062000D02*
X0235413Y0067748D01*
X0229665Y0062000D02*
X0229665Y0056842D01*
X0244075Y0063742D02*
X0248750Y0059067D01*
X0274550Y0059067D01*
X0244075Y0063742D02*
X0244075Y0067748D01*
X0297000Y0085317D02*
X0372500Y0085317D01*
X0358600Y0094367D02*
X0275014Y0094367D01*
X0274789Y0094141D01*
X0274789Y0089778D01*
X0275400Y0089167D01*
X0274789Y0102803D02*
X0274789Y0108735D01*
X0271879Y0111645D01*
X0272200Y0111967D01*
X0271879Y0111645D02*
X0269016Y0111645D01*
X0219400Y0111967D02*
X0217800Y0110367D01*
X0213000Y0110367D01*
X0212175Y0111006D01*
X0203514Y0111006D02*
X0202874Y0111645D01*
X0194213Y0111645D01*
X0169213Y0101645D02*
X0168334Y0100767D01*
X0168200Y0100767D01*
X0136161Y0064185D02*
X0136161Y0056842D01*
X0103750Y0040317D02*
X0103750Y0039017D01*
X0134100Y0011167D01*
X0544200Y0011167D01*
X0571128Y0038095D01*
X0579766Y0038095D01*
X0543750Y0027817D02*
X0535000Y0020317D01*
X0496250Y0020317D01*
X0579766Y0058801D02*
X0587400Y0051167D01*
X0609800Y0051167D01*
X0616200Y0044767D01*
X0625250Y0044767D01*
X0625250Y0037567D01*
X0632750Y0037567D02*
X0633550Y0036767D01*
X0635400Y0036767D01*
X0633200Y0034567D01*
X0635400Y0036767D02*
X0638600Y0039967D01*
X0638600Y0046367D01*
X0642500Y0050317D02*
X0642500Y0028267D01*
X0636800Y0022567D01*
X0644600Y0021967D02*
X0646250Y0023617D01*
X0646250Y0071567D01*
X0639100Y0079967D01*
X0632750Y0079967D01*
X0625800Y0079417D02*
X0625800Y0076767D01*
X0625800Y0071717D01*
X0625250Y0071167D01*
X0632500Y0070917D02*
X0632500Y0066567D01*
X0632428Y0066638D02*
X0613034Y0066638D01*
X0610475Y0066638D02*
X0610475Y0074241D01*
X0613000Y0076767D01*
X0625800Y0076767D01*
X0625800Y0079417D02*
X0625250Y0079967D01*
X0606356Y0084673D02*
X0602606Y0080767D01*
X0595120Y0073281D01*
X0595120Y0066638D01*
X0592561Y0066638D02*
X0592561Y0071599D01*
X0583394Y0080767D01*
X0583394Y0088773D01*
X0581000Y0091167D01*
X0581000Y0093617D01*
X0580450Y0094167D01*
X0606600Y0093217D02*
X0606600Y0091167D01*
X0606356Y0084673D01*
X0587443Y0071923D02*
X0584200Y0075167D01*
X0581000Y0076767D01*
X0576200Y0081567D01*
X0587443Y0071923D02*
X0587443Y0066638D01*
X0590002Y0066638D02*
X0590002Y0059764D01*
X0595400Y0054367D01*
X0624450Y0054367D01*
X0624450Y0045567D01*
X0625250Y0044767D01*
X0632750Y0044767D02*
X0632750Y0053817D01*
X0632500Y0054067D01*
X0638750Y0054067D01*
X0642500Y0050317D01*
X0632750Y0053567D02*
X0632750Y0044767D01*
X0632750Y0053567D02*
X0632750Y0062367D01*
X0632750Y0066317D01*
X0633000Y0066567D01*
X0640000Y0066567D01*
X0625250Y0062367D02*
X0620450Y0057567D01*
X0605000Y0057567D01*
X0602798Y0059769D01*
X0602798Y0066638D01*
X0625250Y0062367D02*
X0625250Y0053567D01*
X0624450Y0054367D01*
X0659783Y0056842D02*
X0659783Y0061498D01*
X0664803Y0066517D01*
X0668600Y0073567D02*
X0673750Y0068417D01*
X0673750Y0066232D01*
X0673465Y0066517D01*
X0673465Y0065602D01*
X0681250Y0057817D01*
X0740000Y0057817D01*
X0753287Y0056842D02*
X0753287Y0061350D01*
X0758455Y0066517D01*
X0757500Y0072817D02*
X0751526Y0066842D01*
X0684783Y0066842D01*
X0668600Y0073567D02*
X0665000Y0073567D01*
X0675800Y0083767D02*
X0696500Y0083767D01*
X0703050Y0090317D01*
X0709724Y0096055D01*
X0756969Y0096055D01*
X0760906Y0092118D01*
X0808199Y0092118D01*
X0810000Y0090317D01*
X0817500Y0082817D01*
X0933750Y0082817D01*
X0946250Y0070317D01*
X0946250Y0067334D01*
X0945404Y0066488D01*
X0936742Y0066488D02*
X0930945Y0060691D01*
X0930945Y0056842D01*
X0926811Y0077817D02*
X0914872Y0077689D01*
X0857372Y0077689D01*
X0857372Y0075317D01*
X0855522Y0077167D01*
X0833600Y0077167D01*
X0857372Y0075317D02*
X0857372Y0070514D01*
X0857372Y0061852D02*
X0852362Y0056842D01*
X0846791Y0056842D01*
X0871791Y0066842D02*
X0778287Y0066842D01*
X0772313Y0072817D01*
X0757500Y0072817D01*
X0767116Y0066517D02*
X0767116Y0064451D01*
X0775000Y0057767D01*
X0810000Y0057767D01*
X0782313Y0022817D02*
X0773287Y0031842D01*
X0772776Y0031842D01*
X0763750Y0022817D01*
X0688809Y0022817D01*
X0679783Y0031842D01*
X0679676Y0031842D01*
X0672800Y0024967D01*
X0655400Y0024967D01*
X0651800Y0028567D01*
X0651800Y0036367D01*
X0579766Y0058801D02*
X0579766Y0066638D01*
X0606600Y0093217D02*
X0607150Y0093767D01*
X0618561Y0111006D02*
X0632000Y0097567D01*
X0659000Y0097567D01*
X0665000Y0091567D01*
X0692835Y0101645D02*
X0767638Y0101645D01*
X0851791Y0101645D01*
X0935945Y0101645D01*
X0940374Y0090317D02*
X0947736Y0097679D01*
X0956398Y0097679D02*
X0960945Y0102226D01*
X0960945Y0111645D01*
X0940374Y0090317D02*
X0940000Y0090317D01*
X0897800Y0109741D02*
X0897264Y0109204D01*
X0897800Y0109741D02*
X0897800Y0135967D01*
X0889400Y0144367D01*
X0680600Y0144367D01*
X0676400Y0140167D01*
X0668600Y0140167D01*
X0665000Y0136567D01*
X0642200Y0138967D01*
X0642200Y0140167D01*
X0642200Y0138967D02*
X0491000Y0138967D01*
X0485600Y0144367D01*
X0463650Y0144117D01*
X0462200Y0145567D01*
X0357500Y0145317D01*
X0360600Y0148767D02*
X0357400Y0151967D01*
X0352200Y0151967D01*
X0360600Y0148767D02*
X0464050Y0148767D01*
X0465450Y0147367D01*
X0486800Y0147367D01*
X0492200Y0141967D01*
X0623000Y0141967D01*
X0626600Y0145567D01*
X0630600Y0145567D01*
X0633800Y0148767D02*
X0638600Y0143967D01*
X0673800Y0143967D01*
X0684900Y0134267D02*
X0691400Y0140767D01*
X0691425Y0140742D01*
X0809575Y0140742D01*
X0828200Y0152767D02*
X0847400Y0152767D01*
X0855800Y0161167D01*
X0867800Y0161167D01*
X0857500Y0156567D02*
X0971250Y0156567D01*
X0977500Y0162817D01*
X0977500Y0191567D01*
X0950600Y0181567D02*
X0950482Y0181449D01*
X0922894Y0181449D01*
X0912894Y0181449D02*
X0912894Y0181473D01*
X0912800Y0181567D01*
X0889724Y0181567D01*
X0882953Y0174795D01*
X0800276Y0174795D01*
X0792402Y0182669D01*
X0703302Y0182669D01*
X0702800Y0182167D01*
X0703400Y0181567D01*
X0698600Y0181567D02*
X0698600Y0202967D01*
X0696250Y0205317D01*
X0697067Y0206134D01*
X0705561Y0206134D01*
X0714222Y0206134D02*
X0724921Y0206134D01*
X0725236Y0206449D01*
X0750236Y0216449D02*
X0675433Y0216449D01*
X0681300Y0223467D02*
X0684800Y0219967D01*
X0742400Y0219967D01*
X0746000Y0223567D01*
X0756750Y0223567D01*
X0765000Y0215317D01*
X0765000Y0216567D01*
X0789843Y0206567D02*
X0789961Y0206449D01*
X0800039Y0206449D01*
X0813750Y0216567D02*
X0822854Y0207462D01*
X0832943Y0207462D01*
X0847520Y0222039D01*
X0886890Y0222039D01*
X0889306Y0219623D01*
X0882500Y0212817D01*
X0882500Y0208358D01*
X0883396Y0207462D01*
X0892057Y0207462D02*
X0901880Y0207462D01*
X0902894Y0206449D01*
X0907500Y0220317D02*
X0890000Y0220317D01*
X0889306Y0219623D01*
X0886250Y0239067D02*
X0858750Y0239067D01*
X0853800Y0244617D01*
X0821300Y0244617D01*
X0817500Y0247817D01*
X0796250Y0247817D01*
X0795000Y0254067D02*
X0837500Y0254067D01*
X0842500Y0259067D01*
X0842500Y0281567D01*
X0851250Y0290317D01*
X0896171Y0290317D01*
X0897126Y0289362D01*
X0897126Y0290093D01*
X0903200Y0298567D01*
X0917600Y0298567D01*
X0923600Y0293767D01*
X0923600Y0289660D01*
X0923898Y0289362D01*
X0923898Y0282669D02*
X0923502Y0282669D01*
X0914900Y0274067D01*
X0907631Y0274067D01*
X0907200Y0274497D01*
X0903319Y0274497D01*
X0897500Y0280317D01*
X0897500Y0282295D01*
X0897126Y0282669D01*
X0907200Y0265836D02*
X0907200Y0258117D01*
X0907500Y0257817D01*
X0892500Y0251567D02*
X0935630Y0251567D01*
X0935945Y0251252D01*
X0942018Y0242817D02*
X0948770Y0249569D01*
X0957431Y0249569D02*
X0960945Y0253082D01*
X0960945Y0261252D01*
X0942018Y0242817D02*
X0890000Y0242817D01*
X0886250Y0239067D01*
X0883750Y0242817D02*
X0892500Y0251567D01*
X0886142Y0253919D02*
X0881486Y0249264D01*
X0886142Y0253919D02*
X0886142Y0261252D01*
X0873800Y0257567D02*
X0873800Y0250239D01*
X0872825Y0249264D01*
X0870000Y0242817D02*
X0861565Y0251252D01*
X0861142Y0251252D01*
X0858957Y0249067D01*
X0825000Y0249067D01*
X0822815Y0251252D01*
X0786339Y0251252D01*
X0711535Y0251252D01*
X0636732Y0251252D01*
X0635797Y0250317D01*
X0571750Y0250317D01*
X0566000Y0244567D01*
X0557600Y0244567D01*
X0555800Y0246367D01*
X0500450Y0246367D01*
X0498750Y0246467D01*
X0503799Y0250267D02*
X0487126Y0250267D01*
X0486725Y0249867D01*
X0450100Y0249867D01*
X0448400Y0248167D01*
X0421400Y0248167D01*
X0418315Y0251252D01*
X0412323Y0251252D01*
X0410138Y0249067D01*
X0366250Y0249067D01*
X0360000Y0242817D01*
X0347500Y0242817D01*
X0339065Y0251252D01*
X0337520Y0251252D01*
X0337205Y0251567D01*
X0293750Y0251567D01*
X0285000Y0242817D01*
X0271250Y0242817D01*
X0262815Y0251252D01*
X0262717Y0251252D01*
X0262402Y0251567D01*
X0220000Y0251567D01*
X0211250Y0242817D01*
X0200000Y0242817D01*
X0191565Y0251252D01*
X0187913Y0251252D01*
X0187598Y0251567D01*
X0146250Y0251567D01*
X0135000Y0240317D01*
X0123750Y0240317D01*
X0113110Y0250956D01*
X0113110Y0251252D01*
X0118300Y0257967D02*
X0126250Y0257817D01*
X0126250Y0256567D01*
X0126093Y0255474D01*
X0126093Y0247659D01*
X0134754Y0247659D02*
X0138110Y0251015D01*
X0138110Y0261252D01*
X0118300Y0257967D02*
X0117000Y0259167D01*
X0115400Y0260767D01*
X0099400Y0260767D01*
X0095331Y0264836D01*
X0089600Y0264836D01*
X0088919Y0272817D02*
X0080000Y0272817D01*
X0070354Y0282462D01*
X0070354Y0282669D01*
X0070354Y0289362D02*
X0070354Y0291321D01*
X0077000Y0297967D01*
X0091400Y0297967D01*
X0097400Y0291967D01*
X0097400Y0289636D01*
X0097126Y0289362D01*
X0377395Y0289362D01*
X0383600Y0295567D01*
X0455000Y0295567D01*
X0455700Y0296267D01*
X0455800Y0296267D01*
X0461000Y0290767D02*
X0461000Y0287767D01*
X0465069Y0287767D01*
X0465469Y0288167D01*
X0474131Y0288167D02*
X0486540Y0288167D01*
X0487283Y0288910D01*
X0506969Y0288910D02*
X0519863Y0288910D01*
X0521219Y0290267D01*
X0529881Y0290267D02*
X0529881Y0263886D01*
X0531400Y0262367D01*
X0531350Y0260767D01*
X0531407Y0259224D01*
X0544843Y0259224D01*
X0545000Y0259067D01*
X0552650Y0252817D02*
X0558200Y0258367D01*
X0565400Y0258367D01*
X0570800Y0252967D01*
X0582350Y0252967D01*
X0582500Y0252817D01*
X0626250Y0252817D01*
X0632500Y0259067D01*
X0639700Y0259067D01*
X0644600Y0254167D01*
X0656150Y0254167D01*
X0656250Y0254067D01*
X0702500Y0254067D01*
X0707500Y0259067D01*
X0717550Y0259067D01*
X0722550Y0254067D01*
X0777500Y0254067D01*
X0782450Y0258417D01*
X0790650Y0258417D01*
X0795000Y0254067D01*
X0811339Y0261252D02*
X0821132Y0261252D01*
X0822264Y0260120D01*
X0830925Y0260120D02*
X0831978Y0259067D01*
X0837500Y0259067D01*
X0870000Y0242817D02*
X0883750Y0242817D01*
X0832500Y0237817D02*
X0633850Y0239617D01*
X0394600Y0239617D01*
X0415400Y0228967D02*
X0323600Y0228967D01*
X0320000Y0225367D01*
X0318593Y0231728D02*
X0318600Y0231735D01*
X0318593Y0231728D02*
X0694300Y0231617D01*
X0696200Y0231967D01*
X0701600Y0226567D02*
X0432200Y0226567D01*
X0429800Y0224767D01*
X0420200Y0224767D01*
X0415400Y0228967D01*
X0402200Y0224167D02*
X0401600Y0216449D01*
X0451024Y0216449D01*
X0473632Y0216449D01*
X0477500Y0220317D01*
X0521959Y0220317D01*
X0525827Y0216449D01*
X0531250Y0216567D01*
X0535000Y0220317D01*
X0596250Y0220317D01*
X0600118Y0216449D01*
X0600630Y0216449D01*
X0596100Y0209067D02*
X0590000Y0215167D01*
X0578900Y0215167D01*
X0578750Y0215317D01*
X0561870Y0215317D01*
X0554114Y0207561D01*
X0552608Y0209067D01*
X0522300Y0209067D01*
X0516200Y0215167D01*
X0500827Y0206449D02*
X0499715Y0207561D01*
X0489026Y0207561D01*
X0480364Y0207561D02*
X0480000Y0207197D01*
X0480000Y0191567D01*
X0484500Y0187067D01*
X0486250Y0185317D01*
X0501050Y0185317D01*
X0503000Y0183367D01*
X0544400Y0183367D01*
X0544400Y0183667D01*
X0544400Y0183367D02*
X0576200Y0183367D01*
X0587000Y0172567D01*
X0587000Y0169567D01*
X0587500Y0169067D01*
X0606450Y0169067D01*
X0620200Y0169067D02*
X0620200Y0183017D01*
X0628750Y0191567D01*
X0611250Y0209067D01*
X0596100Y0209067D01*
X0575630Y0206449D02*
X0574518Y0207561D01*
X0562776Y0207561D01*
X0629311Y0207384D02*
X0629311Y0199756D01*
X0630000Y0199067D01*
X0628750Y0191567D02*
X0634750Y0185567D01*
X0656200Y0185567D01*
X0659000Y0183967D01*
X0666200Y0177967D01*
X0670200Y0175517D02*
X0675000Y0180317D01*
X0685450Y0180317D01*
X0690200Y0175567D01*
X0692600Y0175567D01*
X0698600Y0181567D01*
X0682700Y0175117D02*
X0682500Y0175317D01*
X0682700Y0175117D02*
X0682700Y0169067D01*
X0696450Y0169067D02*
X0698750Y0169067D01*
X0696450Y0161567D02*
X0682700Y0161567D01*
X0670200Y0161567D01*
X0658950Y0161567D01*
X0647700Y0161567D01*
X0636450Y0161567D01*
X0620200Y0161567D01*
X0606450Y0161567D01*
X0595000Y0161567D01*
X0547500Y0161567D01*
X0537500Y0171567D01*
X0536250Y0171567D01*
X0535950Y0171267D01*
X0535950Y0160167D01*
X0527350Y0160517D02*
X0527350Y0171417D01*
X0527500Y0171567D01*
X0498750Y0171567D01*
X0495000Y0175317D01*
X0480000Y0175317D01*
X0462500Y0160317D01*
X0476250Y0160317D01*
X0478750Y0162817D01*
X0482100Y0162817D01*
X0476250Y0179067D02*
X0462500Y0165317D01*
X0330000Y0165317D01*
X0318600Y0164217D02*
X0315550Y0161167D01*
X0316650Y0161167D01*
X0317500Y0160317D01*
X0433300Y0160317D01*
X0462500Y0160317D01*
X0467000Y0151567D02*
X0378750Y0151567D01*
X0376750Y0153567D01*
X0376200Y0153567D01*
X0362300Y0153717D01*
X0330000Y0154067D02*
X0318650Y0154067D01*
X0318600Y0154117D01*
X0316550Y0152067D01*
X0303600Y0152067D01*
X0302100Y0150567D01*
X0267950Y0150567D01*
X0260450Y0150567D02*
X0254600Y0150367D01*
X0259400Y0151617D02*
X0260450Y0150567D01*
X0303600Y0161167D02*
X0315550Y0161167D01*
X0317150Y0170267D02*
X0317148Y0170325D01*
X0317143Y0170383D01*
X0317134Y0170441D01*
X0317122Y0170498D01*
X0317106Y0170554D01*
X0317087Y0170610D01*
X0317065Y0170663D01*
X0317039Y0170716D01*
X0317011Y0170767D01*
X0316979Y0170816D01*
X0316944Y0170863D01*
X0316907Y0170908D01*
X0316867Y0170950D01*
X0317150Y0170267D02*
X0318600Y0171717D01*
X0315220Y0170317D02*
X0311250Y0170317D01*
X0311129Y0170267D02*
X0303600Y0170267D01*
X0301100Y0172767D01*
X0248200Y0172767D01*
X0235400Y0185567D01*
X0224200Y0185567D01*
X0218200Y0179567D01*
X0218200Y0179017D01*
X0257500Y0196567D02*
X0258000Y0196567D01*
X0272400Y0182167D01*
X0327800Y0182167D01*
X0329600Y0183967D01*
X0329800Y0183967D01*
X0325000Y0196767D02*
X0325000Y0201567D01*
X0317500Y0209067D01*
X0293750Y0209067D01*
X0282500Y0220317D01*
X0242500Y0220317D01*
X0230000Y0207817D01*
X0223050Y0207817D01*
X0218750Y0209717D01*
X0217500Y0210317D01*
X0216181Y0211636D01*
X0216181Y0216960D01*
X0218996Y0224067D02*
X0226614Y0216449D01*
X0227382Y0216449D01*
X0235000Y0224067D01*
X0293799Y0224067D01*
X0301417Y0216449D01*
X0376220Y0216449D01*
X0401600Y0216449D01*
X0405364Y0208811D02*
X0405364Y0201931D01*
X0405000Y0201567D01*
X0414026Y0208811D02*
X0423661Y0208811D01*
X0426024Y0206449D01*
X0468750Y0177817D02*
X0473750Y0182817D01*
X0498750Y0182817D01*
X0501250Y0180317D01*
X0557500Y0180317D01*
X0563750Y0174067D01*
X0536250Y0171567D02*
X0527500Y0171567D01*
X0514050Y0176567D02*
X0500000Y0176567D01*
X0497500Y0179067D01*
X0476250Y0179067D01*
X0468750Y0177817D02*
X0281250Y0177817D01*
X0311129Y0170266D02*
X0311151Y0170267D01*
X0311173Y0170272D01*
X0311194Y0170279D01*
X0311215Y0170289D01*
X0311233Y0170301D01*
X0311250Y0170316D01*
X0315220Y0170317D02*
X0315354Y0170319D01*
X0315488Y0170325D01*
X0315622Y0170334D01*
X0315755Y0170347D01*
X0315888Y0170364D01*
X0316021Y0170385D01*
X0316153Y0170409D01*
X0316284Y0170437D01*
X0316414Y0170469D01*
X0316543Y0170504D01*
X0316672Y0170543D01*
X0316799Y0170585D01*
X0316925Y0170631D01*
X0317049Y0170681D01*
X0317172Y0170734D01*
X0317294Y0170790D01*
X0317414Y0170850D01*
X0317532Y0170913D01*
X0317649Y0170980D01*
X0317763Y0171050D01*
X0317876Y0171123D01*
X0317986Y0171199D01*
X0318094Y0171278D01*
X0318200Y0171360D01*
X0318304Y0171445D01*
X0318405Y0171533D01*
X0318504Y0171624D01*
X0318600Y0171717D01*
X0318600Y0146616D02*
X0318583Y0146601D01*
X0318565Y0146589D01*
X0318544Y0146579D01*
X0318523Y0146572D01*
X0318501Y0146567D01*
X0318479Y0146566D01*
X0318479Y0146567D02*
X0311250Y0146567D01*
X0347400Y0131167D02*
X0357000Y0131167D01*
X0366600Y0116767D01*
X0366600Y0111680D01*
X0365925Y0111006D01*
X0369439Y0111006D01*
X0376250Y0111567D01*
X0372825Y0105878D02*
X0372825Y0105641D01*
X0372500Y0105317D01*
X0366250Y0105317D01*
X0362500Y0101567D01*
X0381486Y0105878D02*
X0383061Y0105878D01*
X0386250Y0109067D01*
X0397900Y0109067D01*
X0398600Y0108367D01*
X0415400Y0108367D01*
X0417200Y0110167D01*
X0416043Y0109067D01*
X0418622Y0111645D01*
X0433400Y0095767D02*
X0436033Y0091333D01*
X0436033Y0085800D01*
X0435800Y0085567D01*
X0437510Y0084417D02*
X0438187Y0084401D01*
X0415000Y0077567D02*
X0405250Y0077567D01*
X0405000Y0077817D01*
X0398750Y0077567D02*
X0398750Y0045067D01*
X0341870Y0056842D02*
X0341870Y0069249D01*
X0341449Y0069670D01*
X0341449Y0078331D02*
X0351165Y0078331D01*
X0351200Y0078367D01*
X0318819Y0101645D02*
X0318600Y0101427D01*
X0343819Y0111645D02*
X0356624Y0111645D01*
X0357264Y0111006D01*
X0409400Y0138967D02*
X0411200Y0137167D01*
X0440600Y0137167D01*
X0444800Y0141367D01*
X0484400Y0141367D01*
X0489800Y0135967D01*
X0519200Y0135967D01*
X0519200Y0135367D01*
X0519200Y0135967D02*
X0640400Y0135967D01*
X0644600Y0131767D01*
X0682300Y0131767D01*
X0682500Y0131567D01*
X0684900Y0134067D01*
X0684900Y0134267D01*
X0652500Y0147817D02*
X0848750Y0147817D01*
X0857500Y0156567D01*
X0850000Y0161567D02*
X0855000Y0166567D01*
X0958750Y0166567D01*
X0963750Y0171567D01*
X0941250Y0150317D02*
X0859400Y0150367D01*
X0857550Y0148517D01*
X0857500Y0148517D01*
X0828200Y0152767D02*
X0574600Y0152767D01*
X0572050Y0155317D01*
X0570850Y0156567D01*
X0541000Y0145567D02*
X0540200Y0145567D01*
X0539300Y0144667D01*
X0493700Y0144667D01*
X0488000Y0150367D01*
X0468200Y0150367D01*
X0467000Y0151567D01*
X0541000Y0145567D02*
X0621000Y0145567D01*
X0624200Y0148767D01*
X0633800Y0148767D01*
X0636450Y0169067D02*
X0636450Y0177617D01*
X0636250Y0177817D01*
X0645000Y0175417D02*
X0647700Y0172117D01*
X0647700Y0169067D01*
X0658950Y0169067D02*
X0658950Y0173217D01*
X0653000Y0179167D01*
X0670200Y0175517D02*
X0670200Y0169067D01*
X0696450Y0161567D02*
X0850000Y0161567D01*
X0740000Y0119067D02*
X0740000Y0110691D01*
X0739764Y0110454D01*
X0731102Y0110454D02*
X0729911Y0111645D01*
X0717835Y0111645D01*
X0671600Y0107767D02*
X0669000Y0110367D01*
X0665314Y0110367D01*
X0664675Y0111006D01*
X0656014Y0111006D02*
X0655374Y0111645D01*
X0643031Y0111645D01*
X0618561Y0111006D02*
X0588425Y0111006D01*
X0588425Y0118141D01*
X0587500Y0119067D01*
X0579764Y0111006D02*
X0579124Y0111645D01*
X0568228Y0111645D01*
X0518600Y0110767D02*
X0512414Y0110767D01*
X0512175Y0111006D01*
X0512200Y0111030D01*
X0513136Y0111030D01*
X0512500Y0111330D02*
X0512200Y0111030D01*
X0503514Y0111006D02*
X0502874Y0111645D01*
X0493425Y0111645D01*
X0468425Y0101645D02*
X0468346Y0101567D01*
X0479850Y0095367D02*
X0479850Y0095317D01*
X0480800Y0094367D01*
X0296250Y0022767D02*
X0295000Y0022817D01*
X0280400Y0022567D01*
X0280050Y0022217D01*
X0271200Y0022217D01*
X0260974Y0031842D01*
X0249665Y0031842D01*
X0244390Y0026567D01*
X0212500Y0026567D01*
X0207224Y0031842D01*
X0156161Y0031842D01*
X0146161Y0031842D02*
X0146161Y0031655D01*
X0156250Y0021567D01*
X0196250Y0021567D01*
X0226250Y0031567D02*
X0226250Y0034067D01*
X0220000Y0040317D01*
X0182500Y0040317D01*
X0226250Y0031567D02*
X0239390Y0031567D01*
X0239665Y0031842D01*
X0185002Y0149695D02*
X0185002Y0155969D01*
X0185800Y0156767D01*
X0257500Y0196567D02*
X0257569Y0196636D01*
X0257569Y0207423D01*
X0266230Y0207423D02*
X0275443Y0207423D01*
X0276417Y0206449D01*
X0330856Y0207718D02*
X0331250Y0207325D01*
X0331250Y0197817D01*
X0349951Y0207718D02*
X0351220Y0206449D01*
X0349951Y0207718D02*
X0339518Y0207718D01*
X0318593Y0231728D02*
X0253000Y0231967D01*
X0141785Y0231967D01*
X0141000Y0232752D01*
X0135000Y0235317D02*
X0121250Y0235317D01*
X0120000Y0234067D01*
X0105000Y0234067D01*
X0115000Y0221567D02*
X0120000Y0226567D01*
X0128750Y0222817D02*
X0145443Y0222817D01*
X0151811Y0216449D01*
X0197382Y0216449D01*
X0205000Y0224067D01*
X0218996Y0224067D01*
X0207520Y0216960D02*
X0201614Y0211055D01*
X0201614Y0206449D01*
X0178400Y0207967D02*
X0178400Y0203428D01*
X0176050Y0201078D01*
X0141000Y0212767D02*
X0138681Y0215086D01*
X0138681Y0216960D01*
X0130020Y0216960D02*
X0126811Y0213752D01*
X0126811Y0206449D01*
X0122382Y0216449D02*
X0128750Y0222817D01*
X0122382Y0216449D02*
X0067657Y0216449D01*
X0061000Y0220767D02*
X0056200Y0215967D01*
X0051080Y0215967D01*
X0050928Y0216118D01*
X0051400Y0216590D01*
X0052024Y0216590D01*
X0061000Y0220767D02*
X0061000Y0226567D01*
X0062250Y0227817D01*
X0083750Y0227817D01*
X0089800Y0225567D02*
X0089800Y0252767D01*
X0085000Y0257567D01*
X0081815Y0257567D01*
X0081407Y0257974D01*
X0072746Y0257974D02*
X0069469Y0261252D01*
X0063307Y0261252D01*
X0046250Y0247817D02*
X0081250Y0247817D01*
X0085000Y0244067D01*
X0061000Y0235167D02*
X0061000Y0226567D01*
X0061000Y0235167D02*
X0057328Y0238839D01*
X0050928Y0238839D01*
X0050928Y0241315D01*
X0046250Y0247817D02*
X0039748Y0241315D01*
X0037148Y0241315D01*
X0037148Y0216118D01*
X0024550Y0216118D02*
X0016400Y0223068D01*
X0016400Y0233165D01*
X0024550Y0241315D01*
X0024550Y0247217D01*
X0022400Y0249367D01*
X0022400Y0263767D01*
X0020600Y0265567D01*
X0020600Y0278167D01*
X0038600Y0296167D01*
X0050000Y0296167D01*
X0057800Y0303967D01*
X0161600Y0303967D01*
X0162200Y0304567D01*
X0105200Y0297367D02*
X0365600Y0297367D01*
X0366200Y0297967D01*
X0387300Y0287917D02*
X0387750Y0288367D01*
X0396800Y0288367D01*
X0396200Y0281767D02*
X0394850Y0280417D01*
X0387300Y0280417D01*
X0362520Y0261252D02*
X0362520Y0252925D01*
X0358504Y0248909D01*
X0349843Y0248909D02*
X0347500Y0251252D01*
X0347500Y0257817D01*
X0318750Y0239067D02*
X0138750Y0239067D01*
X0135000Y0235317D01*
X0202343Y0250159D02*
X0202343Y0256724D01*
X0201250Y0257817D01*
X0212913Y0261252D02*
X0212913Y0252069D01*
X0211004Y0250159D01*
X0273593Y0248909D02*
X0273593Y0256409D01*
X0275000Y0257817D01*
X0282254Y0248909D02*
X0287717Y0254372D01*
X0287717Y0261252D01*
X0437000Y0252367D02*
X0438800Y0254167D01*
X0458600Y0254167D01*
X0460315Y0255882D01*
X0460315Y0259567D01*
X0459907Y0259974D01*
X0459200Y0267967D02*
X0469350Y0257817D01*
X0492150Y0257817D01*
X0494600Y0255367D01*
X0503050Y0255417D01*
X0506250Y0252817D01*
X0552650Y0252817D01*
X0559744Y0249067D02*
X0561929Y0251252D01*
X0559744Y0249067D02*
X0505000Y0249067D01*
X0503799Y0250267D01*
X0487126Y0250267D02*
X0487077Y0250317D01*
X0512126Y0260267D02*
X0513169Y0259224D01*
X0522746Y0259224D01*
X0586929Y0261252D02*
X0590207Y0257974D01*
X0596496Y0257974D01*
X0605157Y0257974D02*
X0613593Y0257974D01*
X0613750Y0257817D01*
X0635797Y0250317D02*
X0635797Y0249864D01*
X0661732Y0261252D02*
X0662864Y0260120D01*
X0672264Y0260120D01*
X0680925Y0260120D02*
X0681978Y0259067D01*
X0690000Y0259067D01*
X0736535Y0261252D02*
X0746132Y0261252D01*
X0747264Y0260120D01*
X0755925Y0260120D02*
X0764803Y0260120D01*
X0765000Y0260317D01*
X0681300Y0223467D02*
X0665050Y0223467D01*
X0657500Y0215317D01*
X0637244Y0215317D01*
X0629311Y0207384D01*
X0637972Y0207384D02*
X0649498Y0207384D01*
X0650433Y0206449D01*
X0459200Y0267967D02*
X0455200Y0267967D01*
X0449969Y0261252D02*
X0437323Y0261252D01*
X0449969Y0261252D02*
X0451246Y0259974D01*
X0105200Y0297367D02*
X0101600Y0300967D01*
X0063200Y0300967D01*
X0053307Y0291074D01*
X0053307Y0286252D01*
X0088919Y0272817D02*
X0089600Y0273497D01*
X0089731Y0273497D01*
X0096200Y0279967D01*
X0096200Y0281743D01*
X0097126Y0282669D01*
X0024550Y0241315D02*
X0024550Y0240317D01*
X0782313Y0022817D02*
X0861250Y0022817D01*
X0866791Y0028358D01*
X0866791Y0031842D01*
X0898750Y0031567D02*
X0906250Y0024067D01*
X0943750Y0024067D01*
X0950945Y0031262D01*
X0950945Y0031842D01*
X0888602Y0109204D02*
X0886161Y0111645D01*
X0876791Y0111645D01*
X0816200Y0111967D02*
X0813438Y0109204D01*
X0812264Y0109204D01*
X0803602Y0109204D02*
X0801161Y0111645D01*
X0792638Y0111645D01*
X0940945Y0286252D02*
X0950010Y0295317D01*
X0961250Y0295317D01*
D38*
X0961250Y0295317D03*
X0907500Y0257817D03*
X0873800Y0257567D03*
X0837500Y0259067D03*
X0825000Y0249067D03*
X0832500Y0237817D03*
X0796250Y0247817D03*
X0765000Y0260317D03*
X0696200Y0231967D03*
X0701600Y0226567D03*
X0696250Y0205317D03*
X0638600Y0222967D03*
X0611250Y0209067D03*
X0630000Y0199067D03*
X0636250Y0177817D03*
X0645000Y0175417D03*
X0653000Y0179167D03*
X0666200Y0177967D03*
X0682500Y0175317D03*
X0702800Y0182167D03*
X0706400Y0168967D03*
X0706400Y0156967D03*
X0673800Y0143967D03*
X0652500Y0147817D03*
X0642200Y0140167D03*
X0630600Y0145567D03*
X0595000Y0161567D03*
X0581600Y0156967D03*
X0570850Y0156567D03*
X0565400Y0156367D03*
X0587000Y0169567D03*
X0563750Y0174067D03*
X0544400Y0183667D03*
X0514050Y0176567D03*
X0487500Y0171567D03*
X0507500Y0165317D03*
X0507500Y0155317D03*
X0508750Y0151567D03*
X0501250Y0147817D03*
X0487500Y0155317D03*
X0453750Y0170317D03*
X0439450Y0172817D03*
X0417500Y0172817D03*
X0399150Y0169067D03*
X0399900Y0155317D03*
X0416000Y0155167D03*
X0433300Y0160317D03*
X0437550Y0140817D03*
X0413150Y0141417D03*
X0409400Y0138967D03*
X0362300Y0153717D03*
X0352200Y0151967D03*
X0357500Y0145317D03*
X0330000Y0154067D03*
X0311250Y0146567D03*
X0290150Y0143967D03*
X0288200Y0135367D03*
X0254600Y0150367D03*
X0233400Y0137167D03*
X0235400Y0132967D03*
X0227600Y0131767D03*
X0194600Y0128767D03*
X0190200Y0129167D03*
X0180200Y0143767D03*
X0166600Y0147167D03*
X0153200Y0145567D03*
X0143000Y0145567D03*
X0122500Y0135317D03*
X0113750Y0132817D03*
X0137800Y0119967D03*
X0158750Y0114067D03*
X0115000Y0092817D03*
X0091400Y0089567D03*
X0063750Y0094067D03*
X0063750Y0082817D03*
X0088200Y0057567D03*
X0102500Y0050317D03*
X0103750Y0040317D03*
X0105800Y0022367D03*
X0113750Y0022817D03*
X0182500Y0040317D03*
X0213750Y0035317D03*
X0210850Y0021667D03*
X0196250Y0021567D03*
X0277000Y0025567D03*
X0296250Y0022767D03*
X0285000Y0035167D03*
X0302600Y0043567D03*
X0286600Y0047967D03*
X0296250Y0059067D03*
X0293750Y0066567D03*
X0274550Y0059067D03*
X0302600Y0074767D03*
X0297000Y0085317D03*
X0275400Y0089167D03*
X0220000Y0085317D03*
X0215000Y0062817D03*
X0326600Y0059167D03*
X0328200Y0067167D03*
X0349400Y0063967D03*
X0350600Y0070567D03*
X0380000Y0077817D03*
X0366600Y0079967D03*
X0351200Y0078367D03*
X0371250Y0088467D03*
X0358600Y0094367D03*
X0362500Y0101567D03*
X0376250Y0111567D03*
X0428750Y0095317D03*
X0433400Y0095767D03*
X0438150Y0094667D03*
X0428750Y0090317D03*
X0448750Y0096567D03*
X0439450Y0099067D03*
X0448800Y0105217D03*
X0452500Y0105317D03*
X0456250Y0105317D03*
X0452500Y0112767D03*
X0448800Y0115917D03*
X0518600Y0110767D03*
X0533750Y0100317D03*
X0532500Y0096567D03*
X0550600Y0094367D03*
X0555400Y0094367D03*
X0575600Y0099967D03*
X0555400Y0106767D03*
X0551200Y0105367D03*
X0587500Y0119067D03*
X0600000Y0100317D03*
X0600000Y0087817D03*
X0590000Y0087817D03*
X0564350Y0079067D03*
X0551250Y0072817D03*
X0573750Y0061567D03*
X0573750Y0057817D03*
X0596250Y0059067D03*
X0600000Y0057817D03*
X0605000Y0047817D03*
X0638600Y0046367D03*
X0651800Y0036367D03*
X0623750Y0027817D03*
X0636800Y0022567D03*
X0644600Y0021967D03*
X0598750Y0014067D03*
X0567200Y0020167D03*
X0564800Y0010567D03*
X0555800Y0008767D03*
X0543750Y0027817D03*
X0561250Y0040317D03*
X0546250Y0057817D03*
X0524000Y0071167D03*
X0510000Y0075317D03*
X0505000Y0074067D03*
X0500000Y0071567D03*
X0483950Y0072667D03*
X0477500Y0070317D03*
X0465000Y0065317D03*
X0457500Y0070317D03*
X0454600Y0067167D03*
X0448200Y0063967D03*
X0443400Y0063967D03*
X0432200Y0059167D03*
X0429000Y0062367D03*
X0423750Y0062817D03*
X0423850Y0067717D03*
X0419200Y0068767D03*
X0411550Y0070017D03*
X0406250Y0073067D03*
X0405000Y0077817D03*
X0428750Y0075317D03*
X0430000Y0079067D03*
X0447500Y0074067D03*
X0444800Y0070367D03*
X0453750Y0074067D03*
X0454650Y0080667D03*
X0465450Y0080667D03*
X0467500Y0084067D03*
X0476250Y0082817D03*
X0480000Y0082817D03*
X0488600Y0090367D03*
X0415000Y0058817D03*
X0432200Y0054367D03*
X0438600Y0055967D03*
X0478750Y0042817D03*
X0491250Y0026917D03*
X0496250Y0020317D03*
X0462600Y0024517D03*
X0429000Y0027167D03*
X0423750Y0027817D03*
X0416250Y0027817D03*
X0411250Y0027817D03*
X0406250Y0029067D03*
X0392200Y0049567D03*
X0386600Y0063967D03*
X0382400Y0061567D03*
X0217800Y0110367D03*
X0217800Y0151967D03*
X0205000Y0159967D03*
X0195400Y0159967D03*
X0185800Y0156767D03*
X0182600Y0159967D03*
X0217800Y0163167D03*
X0217800Y0172767D03*
X0155400Y0177567D03*
X0129800Y0177567D03*
X0086250Y0174067D03*
X0083400Y0154317D03*
X0072500Y0202817D03*
X0092500Y0211567D03*
X0099400Y0212767D03*
X0115000Y0221567D03*
X0105000Y0234067D03*
X0089800Y0225567D03*
X0083750Y0227817D03*
X0085000Y0244067D03*
X0126250Y0257817D03*
X0141000Y0232752D03*
X0141000Y0212767D03*
X0178400Y0207967D03*
X0217500Y0210317D03*
X0257500Y0196567D03*
X0281250Y0177817D03*
X0311250Y0170317D03*
X0330000Y0165317D03*
X0329800Y0183967D03*
X0316450Y0187817D03*
X0325000Y0196767D03*
X0331250Y0197817D03*
X0405000Y0201567D03*
X0412600Y0222317D03*
X0402200Y0224167D03*
X0425650Y0227867D03*
X0394600Y0239617D03*
X0396150Y0244067D03*
X0389600Y0234967D03*
X0437000Y0252367D03*
X0448400Y0248167D03*
X0455200Y0267967D03*
X0461000Y0276367D03*
X0461000Y0290767D03*
X0455800Y0296267D03*
X0450000Y0300317D03*
X0396800Y0288367D03*
X0396200Y0281767D03*
X0378200Y0278167D03*
X0366200Y0297967D03*
X0302500Y0282867D03*
X0275000Y0257817D03*
X0318750Y0239067D03*
X0320000Y0225367D03*
X0253000Y0231967D03*
X0201250Y0257817D03*
X0162200Y0304567D03*
X0026600Y0258967D03*
X0347500Y0257817D03*
X0498750Y0246467D03*
X0545000Y0259067D03*
X0613750Y0257817D03*
X0633850Y0239617D03*
X0690000Y0259067D03*
X0765000Y0215317D03*
X0777800Y0201367D03*
X0777800Y0168967D03*
X0828200Y0152767D03*
X0857500Y0148517D03*
X0889400Y0144367D03*
X0867800Y0161167D03*
X0809575Y0140742D03*
X0740000Y0119067D03*
X0682500Y0131567D03*
X0671600Y0107767D03*
X0665000Y0091567D03*
X0675800Y0083767D03*
X0665000Y0073567D03*
X0640000Y0066567D03*
X0617500Y0087817D03*
X0703050Y0090317D03*
X0740000Y0057817D03*
X0810000Y0057767D03*
X0833600Y0077167D03*
X0810000Y0090317D03*
X0816200Y0111967D03*
X0926811Y0077817D03*
X0940000Y0090317D03*
X0898750Y0031567D03*
X0941250Y0150317D03*
X0963750Y0171567D03*
X0950600Y0181567D03*
X0907500Y0220317D03*
X0977500Y0227817D03*
X0541000Y0145567D03*
X0519200Y0135367D03*
X0347400Y0131167D03*
X0516200Y0215167D03*
D39*
X0558100Y0223517D02*
X0593200Y0223517D01*
X0593800Y0222917D01*
X0593850Y0222967D01*
X0638600Y0222967D01*
X0640400Y0242167D02*
X0639200Y0243967D01*
X0635000Y0243967D01*
X0630800Y0248167D01*
X0573200Y0248167D01*
X0567800Y0242167D01*
X0555800Y0242167D01*
X0552800Y0243967D01*
X0501800Y0243967D01*
X0500000Y0243367D01*
X0419150Y0243367D01*
X0418450Y0244067D01*
X0396150Y0244067D01*
X0390800Y0234967D02*
X0389600Y0234967D01*
X0390800Y0234967D02*
X0391400Y0234367D01*
X0693200Y0234367D01*
X0693800Y0234967D01*
X0698600Y0234967D01*
X0699500Y0234067D01*
X0976250Y0234067D01*
X0981250Y0229067D01*
X0981250Y0222817D01*
X0967550Y0210317D01*
X0967550Y0200317D01*
X0972500Y0196567D01*
X0977500Y0196567D01*
X0977500Y0201567D02*
X0972500Y0201567D01*
X0970000Y0204067D01*
X0970000Y0209067D01*
X0983750Y0222817D01*
X0983750Y0229067D01*
X0976250Y0236567D01*
X0857200Y0236567D01*
X0852200Y0242167D01*
X0640400Y0242167D01*
X0698750Y0229067D02*
X0701850Y0232167D01*
X0709400Y0232167D01*
X0712500Y0229067D01*
X0976250Y0229067D01*
X0977500Y0227817D01*
X0813750Y0216567D02*
X0792500Y0216567D01*
X0788750Y0220317D01*
X0781181Y0212748D01*
X0781181Y0206567D01*
X0777800Y0203186D01*
X0777800Y0201367D01*
X0698750Y0229067D02*
X0431600Y0229567D01*
X0429900Y0227867D01*
X0425650Y0227867D01*
X0430950Y0222317D02*
X0412600Y0222317D01*
X0430950Y0222317D02*
X0432800Y0223567D01*
X0558100Y0223517D01*
X0484500Y0187067D02*
X0484400Y0186967D01*
X0473000Y0186967D01*
X0467000Y0180967D01*
X0363200Y0180967D01*
X0356350Y0187817D01*
X0316450Y0187817D01*
X0237850Y0176717D02*
X0237850Y0170373D01*
X0233594Y0166117D01*
X0224600Y0166117D01*
X0224350Y0166367D01*
X0213000Y0166367D01*
X0208034Y0171333D01*
X0208034Y0178238D01*
X0202916Y0178238D02*
X0202916Y0172126D01*
X0200357Y0169567D01*
X0200357Y0149695D01*
X0200357Y0140923D01*
X0200850Y0141417D01*
X0204800Y0139817D01*
X0204750Y0139817D01*
X0212850Y0132317D01*
X0217800Y0129567D02*
X0218050Y0146967D01*
X0218050Y0151717D01*
X0217800Y0151967D01*
X0213000Y0158367D02*
X0208034Y0153401D01*
X0208034Y0149695D01*
X0202916Y0149695D02*
X0202916Y0146051D01*
X0205000Y0143967D01*
X0208100Y0143967D01*
X0212850Y0139817D01*
X0200357Y0140923D02*
X0200200Y0140767D01*
X0197350Y0140767D01*
X0197300Y0141417D01*
X0192680Y0145437D01*
X0192680Y0149695D01*
X0192680Y0155646D01*
X0190120Y0158205D01*
X0190120Y0178238D01*
X0187561Y0178238D02*
X0187400Y0178400D01*
X0187400Y0188767D01*
X0186050Y0190117D01*
X0186050Y0193067D01*
X0181000Y0190367D02*
X0181000Y0199967D01*
X0181600Y0200567D01*
X0186050Y0200567D01*
X0181000Y0199967D02*
X0177162Y0199967D01*
X0176050Y0201078D01*
X0170600Y0195628D01*
X0170600Y0191167D01*
X0167000Y0187567D01*
X0151400Y0187567D01*
X0148400Y0184567D01*
X0149000Y0183067D01*
X0148400Y0172717D01*
X0148550Y0172567D01*
X0140300Y0172567D01*
X0139550Y0171817D01*
X0139550Y0164767D01*
X0139550Y0155017D01*
X0144200Y0150367D01*
X0148400Y0150367D01*
X0148550Y0150217D01*
X0148550Y0141567D01*
X0148700Y0141417D01*
X0149600Y0141417D01*
X0157100Y0133917D01*
X0166200Y0133917D01*
X0174750Y0137667D02*
X0180200Y0143767D01*
X0177325Y0145092D02*
X0174800Y0142567D01*
X0168200Y0142567D01*
X0166200Y0141417D01*
X0166850Y0140767D01*
X0161800Y0147167D02*
X0157100Y0142467D01*
X0157100Y0141417D01*
X0153200Y0145567D02*
X0156950Y0148717D01*
X0156950Y0150217D01*
X0157472Y0149695D01*
X0174766Y0149695D01*
X0177325Y0149695D02*
X0177325Y0145092D01*
X0183800Y0141967D02*
X0182250Y0137667D01*
X0183800Y0141967D02*
X0187400Y0145567D01*
X0187400Y0149534D01*
X0187561Y0149695D01*
X0190120Y0149695D02*
X0190120Y0142337D01*
X0189800Y0141417D01*
X0189800Y0133917D02*
X0189200Y0130967D01*
X0190200Y0129167D01*
X0194600Y0128767D02*
X0197300Y0131467D01*
X0197300Y0133917D01*
X0204800Y0132317D02*
X0204200Y0130367D01*
X0208200Y0126367D01*
X0214600Y0126367D01*
X0217800Y0129567D01*
X0227600Y0131767D02*
X0228000Y0131767D01*
X0233400Y0137167D01*
X0233600Y0137167D01*
X0237200Y0140767D01*
X0403400Y0140767D01*
X0409400Y0134767D01*
X0442400Y0134767D01*
X0446600Y0138967D01*
X0483800Y0138967D01*
X0489800Y0132967D01*
X0503600Y0132967D01*
X0515550Y0121067D01*
X0522550Y0121067D01*
X0532000Y0110367D01*
X0548600Y0110167D01*
X0555000Y0107367D01*
X0555400Y0106767D01*
X0551200Y0105367D02*
X0546000Y0108767D01*
X0531000Y0108767D01*
X0522800Y0118217D01*
X0515200Y0118217D01*
X0503200Y0131367D01*
X0489000Y0131367D01*
X0483200Y0137167D01*
X0447800Y0137167D01*
X0444500Y0133867D01*
X0443600Y0132967D01*
X0408800Y0132967D01*
X0402600Y0139167D01*
X0238600Y0139167D01*
X0238600Y0136167D01*
X0235400Y0132967D01*
X0233800Y0145567D02*
X0226950Y0145567D01*
X0225550Y0146967D01*
X0233800Y0145567D02*
X0237850Y0149617D01*
X0237850Y0151160D01*
X0230394Y0158617D01*
X0224600Y0158617D01*
X0224350Y0158367D01*
X0213000Y0158367D01*
X0208200Y0163167D02*
X0205000Y0159967D01*
X0208200Y0163167D02*
X0217800Y0163167D01*
X0200357Y0169567D02*
X0200357Y0178238D01*
X0217800Y0178617D02*
X0218200Y0179017D01*
X0217800Y0178617D02*
X0217800Y0172767D01*
X0225700Y0179017D02*
X0225850Y0179167D01*
X0235400Y0179167D01*
X0237850Y0176717D01*
X0195400Y0159967D02*
X0195239Y0159805D01*
X0195239Y0149695D01*
X0182600Y0149852D02*
X0182443Y0149695D01*
X0182600Y0149852D02*
X0182600Y0159967D01*
X0182600Y0164767D01*
X0185002Y0167169D01*
X0185002Y0178238D01*
X0185002Y0186364D01*
X0181000Y0190367D01*
X0176050Y0190055D02*
X0182443Y0185262D01*
X0182443Y0178238D01*
X0179884Y0178238D02*
X0179884Y0164767D01*
X0182600Y0164767D01*
X0179884Y0164767D02*
X0179884Y0149695D01*
X0166600Y0147167D02*
X0161800Y0147167D01*
X0156950Y0157717D02*
X0148550Y0157717D01*
X0148550Y0165067D02*
X0156950Y0165067D01*
X0156950Y0172567D02*
X0156950Y0176017D01*
X0155400Y0177567D01*
X0156950Y0172567D02*
X0162622Y0178238D01*
X0174766Y0178238D01*
X0177325Y0178238D02*
X0177800Y0178713D01*
X0177800Y0180767D01*
X0175500Y0183067D01*
X0156500Y0183067D01*
X0129800Y0177567D02*
X0121752Y0177567D01*
X0121352Y0177167D01*
X0121352Y0154667D02*
X0122452Y0153567D01*
X0125000Y0153567D01*
X0176250Y0099067D02*
X0170000Y0092817D01*
X0115000Y0092817D01*
X0154400Y0077767D02*
X0155700Y0079067D01*
X0221250Y0079067D01*
X0221350Y0078967D01*
X0224000Y0078967D01*
X0227000Y0081967D01*
X0284600Y0081967D01*
X0290600Y0087967D01*
X0362600Y0087967D01*
X0366200Y0091567D01*
X0400400Y0091567D01*
X0404150Y0095317D01*
X0428750Y0095317D01*
X0426950Y0097817D02*
X0403650Y0097817D01*
X0399200Y0093367D01*
X0365000Y0093367D01*
X0361400Y0089767D01*
X0289400Y0089767D01*
X0283400Y0083767D01*
X0225800Y0083767D01*
X0223400Y0081367D01*
X0218950Y0081367D01*
X0201250Y0099067D01*
X0176250Y0099067D01*
X0220000Y0085317D02*
X0281250Y0085317D01*
X0287500Y0091567D01*
X0360000Y0091567D01*
X0363750Y0095317D01*
X0397500Y0095317D01*
X0401850Y0099667D01*
X0422100Y0099667D01*
X0427100Y0104667D01*
X0443150Y0104667D01*
X0446300Y0101517D01*
X0450050Y0101517D01*
X0455000Y0096567D01*
X0455000Y0091567D01*
X0454734Y0091301D01*
X0454734Y0090283D01*
X0452766Y0090283D02*
X0452766Y0096301D01*
X0449400Y0099667D01*
X0445650Y0099667D01*
X0442500Y0102817D01*
X0431950Y0102817D01*
X0426950Y0097817D01*
X0438150Y0094667D02*
X0441283Y0091533D01*
X0442923Y0090283D01*
X0444892Y0090283D02*
X0444892Y0093958D01*
X0445000Y0094667D01*
X0445000Y0095917D01*
X0439450Y0099067D01*
X0448750Y0096567D02*
X0450797Y0094519D01*
X0450797Y0090283D01*
X0456703Y0090283D02*
X0456703Y0097364D01*
X0452000Y0101767D01*
X0451550Y0102217D01*
X0449450Y0104017D01*
X0448800Y0105217D01*
X0452500Y0105317D02*
X0458671Y0097895D01*
X0458671Y0090283D01*
X0460640Y0090283D02*
X0460640Y0098427D01*
X0456250Y0105317D01*
X0454400Y0111367D02*
X0461600Y0111367D01*
X0464000Y0108967D01*
X0471200Y0108967D01*
X0476000Y0104167D01*
X0485550Y0104167D01*
X0500000Y0090317D01*
X0526250Y0090317D01*
X0532500Y0096567D01*
X0533750Y0100317D02*
X0493750Y0100317D01*
X0486100Y0106167D01*
X0476600Y0105967D01*
X0471800Y0110767D01*
X0465200Y0110767D01*
X0462200Y0113767D01*
X0455600Y0113767D01*
X0453450Y0115917D01*
X0448800Y0115917D01*
X0452500Y0112767D02*
X0453000Y0112767D01*
X0454400Y0111367D01*
X0464200Y0094367D02*
X0480800Y0094367D01*
X0484600Y0094367D01*
X0488600Y0090367D01*
X0479850Y0087867D02*
X0477433Y0090283D01*
X0464577Y0090283D01*
X0464577Y0083543D01*
X0465450Y0080667D01*
X0468173Y0083393D02*
X0467500Y0084067D01*
X0468173Y0083393D02*
X0471467Y0083393D01*
X0471467Y0081425D02*
X0473608Y0081425D01*
X0473750Y0081567D01*
X0475000Y0081567D01*
X0476250Y0082817D01*
X0474610Y0079456D02*
X0475000Y0079067D01*
X0476250Y0079067D01*
X0480000Y0082817D01*
X0474610Y0079456D02*
X0471467Y0079456D01*
X0471467Y0077488D02*
X0474079Y0077488D01*
X0475000Y0077167D01*
X0506300Y0077167D01*
X0508750Y0079017D01*
X0563700Y0079017D01*
X0564350Y0079067D01*
X0565000Y0084067D02*
X0560900Y0084067D01*
X0550600Y0094367D01*
X0555400Y0094367D02*
X0556250Y0093517D01*
X0556250Y0092117D01*
X0562400Y0086567D01*
X0567500Y0086567D01*
X0580500Y0073567D01*
X0582600Y0073567D01*
X0584884Y0071282D01*
X0584884Y0066638D01*
X0582325Y0066638D02*
X0582325Y0070641D01*
X0581000Y0071967D01*
X0577100Y0071967D01*
X0565000Y0084067D01*
X0590000Y0087817D02*
X0600000Y0087817D01*
X0617500Y0087817D02*
X0679006Y0087817D01*
X0692835Y0101645D01*
X0632750Y0071167D02*
X0632500Y0070917D01*
X0632428Y0066638D02*
X0632500Y0066567D01*
X0632750Y0066317D01*
X0600239Y0066638D02*
X0600239Y0060555D01*
X0600000Y0057817D01*
X0596250Y0059067D02*
X0597680Y0061746D01*
X0597680Y0066638D01*
X0573750Y0061567D02*
X0570000Y0065317D01*
X0559950Y0065317D01*
X0558950Y0066317D01*
X0551450Y0066317D02*
X0551450Y0072617D01*
X0551250Y0072817D01*
X0550800Y0057817D02*
X0546250Y0057817D01*
X0550800Y0057817D02*
X0551100Y0057517D01*
X0558600Y0057517D02*
X0558900Y0057817D01*
X0573750Y0057817D01*
X0561250Y0040317D02*
X0537500Y0016567D01*
X0443750Y0016567D01*
X0441050Y0019267D01*
X0441050Y0021167D01*
X0440850Y0021167D01*
X0436250Y0016567D01*
X0141250Y0016567D01*
X0101250Y0056567D01*
X0089200Y0056567D01*
X0088200Y0057567D01*
X0045800Y0077767D02*
X0036200Y0068167D01*
X0036200Y0060967D01*
X0028400Y0053167D01*
X0028400Y0038167D01*
X0032500Y0034067D01*
X0045800Y0077767D02*
X0154400Y0077767D01*
X0213750Y0035317D02*
X0218750Y0031567D01*
X0211150Y0021667D02*
X0210850Y0021667D01*
X0211150Y0021667D02*
X0213750Y0019067D01*
X0419400Y0019167D01*
X0422200Y0021967D01*
X0423450Y0021967D01*
X0429000Y0025517D02*
X0430950Y0021967D01*
X0429000Y0025517D02*
X0429000Y0027167D01*
X0430600Y0030367D02*
X0433800Y0027167D01*
X0443400Y0027167D01*
X0446250Y0030017D01*
X0446250Y0038817D01*
X0446250Y0031317D01*
X0450000Y0027567D01*
X0463750Y0027567D01*
X0466250Y0030067D01*
X0473750Y0030067D01*
X0482500Y0030067D01*
X0491250Y0026917D02*
X0491250Y0026767D01*
X0526400Y0026767D01*
X0530177Y0030544D01*
X0530177Y0031842D01*
X0482500Y0037567D02*
X0482500Y0040067D01*
X0481000Y0041567D01*
X0478750Y0042817D01*
X0473750Y0044614D02*
X0472953Y0043817D01*
X0472953Y0038364D01*
X0473750Y0037567D01*
X0467047Y0038364D02*
X0467047Y0043817D01*
X0466250Y0044614D01*
X0466250Y0046317D01*
X0465000Y0047567D01*
X0461250Y0047567D01*
X0458671Y0050145D01*
X0458671Y0054850D01*
X0456703Y0054850D02*
X0456703Y0039427D01*
X0456093Y0038817D01*
X0466250Y0037567D02*
X0467047Y0038364D01*
X0473750Y0044614D02*
X0473750Y0048817D01*
X0472500Y0050067D01*
X0462500Y0050067D01*
X0460640Y0051927D01*
X0460640Y0054850D01*
X0464577Y0054850D02*
X0464577Y0059890D01*
X0466427Y0061740D02*
X0471467Y0061740D01*
X0471467Y0059850D01*
X0482500Y0048817D01*
X0482500Y0056317D02*
X0475108Y0063708D01*
X0471467Y0063708D01*
X0466608Y0063708D01*
X0465000Y0065317D01*
X0471467Y0065677D02*
X0473390Y0065677D01*
X0473750Y0065317D01*
X0500000Y0065317D01*
X0510000Y0074067D01*
X0510000Y0075317D01*
X0505000Y0074067D02*
X0503750Y0075317D01*
X0473750Y0075317D01*
X0473547Y0075519D01*
X0471467Y0075519D01*
X0471467Y0073551D02*
X0478584Y0073551D01*
X0483950Y0072667D01*
X0477500Y0070317D02*
X0476797Y0069614D01*
X0471467Y0069614D01*
X0471467Y0067645D02*
X0496079Y0067645D01*
X0500000Y0071567D01*
X0462608Y0085425D02*
X0457500Y0080317D01*
X0457500Y0076567D01*
X0447500Y0080317D01*
X0446250Y0081567D01*
X0445000Y0081567D01*
X0441392Y0081425D01*
X0436033Y0081425D01*
X0431542Y0081425D01*
X0431000Y0081967D01*
X0428000Y0081967D01*
X0427608Y0081425D01*
X0423750Y0077567D01*
X0421000Y0077567D01*
X0415000Y0071567D01*
X0415000Y0058817D01*
X0423750Y0058817D01*
X0426250Y0053817D01*
X0432200Y0054367D02*
X0436033Y0058533D01*
X0436033Y0061740D01*
X0436033Y0063708D02*
X0433542Y0063708D01*
X0432200Y0062367D01*
X0432200Y0059167D01*
X0432200Y0060767D01*
X0429000Y0062367D02*
X0432310Y0065677D01*
X0436033Y0065677D01*
X0436033Y0067645D02*
X0428579Y0067645D01*
X0423750Y0062817D01*
X0423850Y0067717D02*
X0428247Y0069614D01*
X0436033Y0069614D01*
X0436033Y0071582D02*
X0427016Y0071582D01*
X0419200Y0068767D01*
X0411550Y0070017D02*
X0411550Y0056267D01*
X0413750Y0054067D01*
X0418500Y0054067D01*
X0418750Y0053817D01*
X0418750Y0055017D01*
X0417800Y0055967D01*
X0426250Y0045067D02*
X0432500Y0051317D01*
X0450000Y0051317D01*
X0450797Y0052114D01*
X0450797Y0054850D01*
X0448829Y0054850D02*
X0448829Y0059795D01*
X0451400Y0062367D01*
X0451400Y0065567D01*
X0449800Y0067167D01*
X0444800Y0070367D01*
X0447500Y0074067D02*
X0444079Y0077488D01*
X0436033Y0077488D01*
X0436033Y0079456D02*
X0445860Y0079456D01*
X0447500Y0077817D01*
X0453750Y0074067D01*
X0457500Y0076567D02*
X0457500Y0070317D01*
X0454600Y0067167D02*
X0454600Y0062367D01*
X0452766Y0060532D01*
X0452766Y0054850D01*
X0454734Y0054850D02*
X0454734Y0052301D01*
X0451900Y0049467D01*
X0439400Y0049467D01*
X0436250Y0046317D01*
X0436250Y0038974D01*
X0436407Y0038817D01*
X0426250Y0037567D02*
X0426250Y0035067D01*
X0423750Y0032567D01*
X0411250Y0032567D01*
X0406250Y0037567D01*
X0401800Y0031967D02*
X0398600Y0035167D01*
X0398600Y0037417D01*
X0398750Y0037567D01*
X0395000Y0037567D01*
X0392200Y0040367D01*
X0392200Y0049567D01*
X0406250Y0045067D02*
X0406250Y0073067D01*
X0415000Y0077567D02*
X0423750Y0077567D01*
X0425000Y0076317D01*
X0428750Y0075317D02*
X0430516Y0073551D01*
X0436033Y0073551D01*
X0436033Y0075519D02*
X0433547Y0075519D01*
X0430000Y0079067D01*
X0436033Y0083393D02*
X0436033Y0085333D01*
X0435800Y0085567D01*
X0428750Y0090317D02*
X0427500Y0089067D01*
X0372800Y0089167D01*
X0372100Y0088467D01*
X0371250Y0088467D01*
X0341449Y0078331D02*
X0337885Y0074767D01*
X0302600Y0074767D01*
X0309850Y0066767D02*
X0293950Y0066767D01*
X0293750Y0066567D01*
X0296250Y0059067D02*
X0308750Y0059067D01*
X0309250Y0059567D01*
X0309850Y0059567D01*
X0317350Y0059567D02*
X0317750Y0059167D01*
X0326600Y0059167D01*
X0328200Y0067167D02*
X0317750Y0067167D01*
X0317350Y0066767D01*
X0349400Y0063967D02*
X0359000Y0073567D01*
X0371000Y0073567D01*
X0382400Y0062167D01*
X0382400Y0061567D01*
X0386600Y0063967D02*
X0374600Y0075367D01*
X0354800Y0075367D01*
X0350600Y0070567D01*
X0323400Y0046317D02*
X0317350Y0052367D01*
X0309850Y0052367D02*
X0291000Y0052367D01*
X0286600Y0047967D01*
X0302600Y0043567D02*
X0309850Y0043567D01*
X0309850Y0042417D01*
X0317350Y0043567D02*
X0323400Y0037517D01*
X0323400Y0035167D01*
X0334600Y0023967D01*
X0407400Y0023967D01*
X0411250Y0027817D01*
X0409800Y0030367D02*
X0408200Y0031967D01*
X0401800Y0031967D01*
X0406250Y0029067D02*
X0402750Y0025567D01*
X0341000Y0025567D01*
X0323400Y0043167D01*
X0323400Y0046317D01*
X0320112Y0034435D02*
X0323400Y0031147D01*
X0323400Y0027167D01*
X0328200Y0022367D01*
X0412050Y0022367D01*
X0416250Y0026567D01*
X0416250Y0027817D01*
X0417500Y0025317D02*
X0420000Y0027817D01*
X0423750Y0027817D01*
X0417500Y0025317D02*
X0417500Y0025267D01*
X0413000Y0020767D01*
X0322550Y0020767D01*
X0317350Y0025967D01*
X0320950Y0022367D01*
X0309850Y0025967D02*
X0277400Y0025967D01*
X0277000Y0025567D01*
X0285000Y0035167D02*
X0287000Y0034767D01*
X0309850Y0034767D01*
X0317350Y0034767D02*
X0320112Y0034435D01*
X0406250Y0045067D02*
X0418750Y0045067D01*
X0418750Y0037567D01*
X0426250Y0037567D02*
X0426250Y0045067D01*
X0438600Y0055967D02*
X0441317Y0054850D01*
X0442923Y0054850D01*
X0444892Y0054850D02*
X0444892Y0062475D01*
X0443400Y0063967D01*
X0446860Y0062106D02*
X0448200Y0063967D01*
X0446860Y0062106D02*
X0446860Y0054850D01*
X0430600Y0030367D02*
X0409800Y0030367D01*
X0448550Y0021167D02*
X0459700Y0021167D01*
X0462600Y0024517D01*
X0462608Y0085425D02*
X0462608Y0090283D01*
X0462608Y0092775D01*
X0464200Y0094367D01*
X0347400Y0131167D02*
X0347400Y0131367D01*
X0343400Y0135367D01*
X0288200Y0135367D01*
X0294600Y0142367D02*
X0293000Y0143967D01*
X0290150Y0143967D01*
X0294600Y0142367D02*
X0406000Y0142367D01*
X0409400Y0138967D01*
X0413150Y0141417D02*
X0437000Y0141367D01*
X0437550Y0140817D01*
X0416000Y0155167D02*
X0400050Y0155167D01*
X0399900Y0155317D01*
X0399150Y0169067D02*
X0447500Y0169067D01*
X0448750Y0170317D01*
X0453750Y0170317D01*
X0439450Y0172817D02*
X0417500Y0172817D01*
X0482100Y0162817D02*
X0483901Y0161015D01*
X0492156Y0161015D01*
X0495551Y0161015D01*
X0498900Y0157667D01*
X0493775Y0153141D01*
X0492156Y0153141D01*
X0492156Y0155110D02*
X0490207Y0155110D01*
X0488750Y0156567D01*
X0487500Y0155317D01*
X0488750Y0156567D02*
X0488750Y0159047D01*
X0485830Y0159047D01*
X0482100Y0155317D01*
X0488750Y0159047D02*
X0492156Y0159047D01*
X0495650Y0162817D02*
X0495000Y0164067D01*
X0495000Y0166813D01*
X0495157Y0166970D01*
X0495157Y0170159D01*
X0493907Y0171409D01*
X0488750Y0171567D01*
X0487500Y0171567D01*
X0497550Y0162817D02*
X0500886Y0164952D01*
X0502096Y0164952D01*
X0502461Y0165317D01*
X0507500Y0165317D01*
X0513600Y0158167D02*
X0515950Y0160517D01*
X0513600Y0158167D02*
X0506000Y0158167D01*
X0504912Y0157078D01*
X0502096Y0157078D01*
X0499488Y0157078D01*
X0498900Y0157667D01*
X0502096Y0155110D02*
X0504793Y0155110D01*
X0505000Y0155317D01*
X0507500Y0155317D01*
X0511250Y0155317D01*
X0512500Y0154067D01*
X0514900Y0154067D01*
X0515950Y0153017D01*
X0519500Y0156567D01*
X0565200Y0156567D01*
X0565400Y0156367D01*
X0581600Y0156967D02*
X0706400Y0156967D01*
X0706400Y0168967D02*
X0697400Y0168967D01*
X0697500Y0169067D01*
X0698750Y0169067D01*
X0706400Y0168967D02*
X0777800Y0168967D01*
X0535950Y0152667D02*
X0531100Y0147817D01*
X0530650Y0147367D01*
X0502400Y0147367D01*
X0501950Y0147817D01*
X0501250Y0147817D01*
X0498750Y0147817D01*
X0497126Y0149441D01*
X0497126Y0151124D01*
X0502096Y0153141D02*
X0504675Y0153141D01*
X0506250Y0151567D01*
X0508750Y0151567D01*
X0511250Y0149067D01*
X0523400Y0149067D01*
X0527350Y0153017D01*
X0515950Y0153017D02*
X0513857Y0155110D01*
X0497550Y0162817D02*
X0495650Y0162817D01*
X0531100Y0147817D02*
X0531200Y0147967D01*
X0395000Y0274567D02*
X0377000Y0274567D01*
X0367400Y0284167D01*
X0303800Y0284167D01*
X0302500Y0282867D01*
X0369800Y0285967D02*
X0377600Y0278167D01*
X0378200Y0278167D01*
X0395000Y0274567D02*
X0413000Y0292567D01*
X0459200Y0292567D01*
X0461000Y0290767D01*
X0465469Y0288167D02*
X0461369Y0284067D01*
X0461269Y0284167D01*
X0465800Y0281167D02*
X0461000Y0276367D01*
X0465800Y0281167D02*
X0491000Y0281167D01*
X0495326Y0283693D01*
X0497126Y0286193D01*
X0497126Y0288910D01*
X0497500Y0286567D02*
X0497126Y0286193D01*
X0369800Y0285967D02*
X0108750Y0286567D01*
X0091250Y0269067D01*
X0085000Y0269067D01*
X0077500Y0261567D01*
X0077500Y0254067D01*
X0075000Y0251567D01*
X0050200Y0251567D01*
X0042800Y0258967D01*
X0026600Y0258967D01*
X0026250Y0258967D01*
D40*
X0435800Y0085067D02*
X0436033Y0084833D01*
X0436033Y0083393D01*
M02*
